ISO-10303-21;
HEADER;
/* Generated by software containing ST-Developer
 * from STEP Tools, Inc. (www.steptools.com) 
 */

FILE_DESCRIPTION(
/* description */ (''),
/* implementation_level */ '2;1');

FILE_NAME(
/* name */ 'arm_part6.step',
/* time_stamp */ '2026-08-20T17:25:05+05:30',
/* author */ (''),
/* organization */ (''),
/* preprocessor_version */ 'ST-DEVELOPER v20.1',
/* originating_system */ 'Autodesk Translation Framework v15.8.0.0',
/* authorisation */ '');

FILE_SCHEMA (('AUTOMOTIVE_DESIGN { 1 0 10303 214 3 1 1 }'));
ENDSEC;

DATA;
#10=MECHANICAL_DESIGN_GEOMETRIC_PRESENTATION_REPRESENTATION('',(#13),#1211);
#11=SHAPE_REPRESENTATION_RELATIONSHIP('SRR','None',#1218,#12);
#12=ADVANCED_BREP_SHAPE_REPRESENTATION('',(#14),#1210);
#13=STYLED_ITEM('',(#1227),#14);
#14=MANIFOLD_SOLID_BREP('Body1',#727);
#15=CONICAL_SURFACE('',#784,8.5,0.785398163397447);
#16=CONICAL_SURFACE('',#794,8.5,0.785398163397448);
#17=ELLIPSE('',#762,1.76776699247905,1.25);
#18=ELLIPSE('',#764,1.76776678174481,1.25);
#19=FACE_BOUND('',#102,.T.);
#20=FACE_BOUND('',#111,.T.);
#21=FACE_BOUND('',#123,.T.);
#22=FACE_BOUND('',#131,.T.);
#23=FACE_BOUND('',#133,.T.);
#24=FACE_BOUND('',#135,.T.);
#25=FACE_BOUND('',#137,.T.);
#26=CYLINDRICAL_SURFACE('',#752,2.5);
#27=CYLINDRICAL_SURFACE('',#759,5.);
#28=CYLINDRICAL_SURFACE('',#761,1.25);
#29=CYLINDRICAL_SURFACE('',#763,1.25);
#30=CYLINDRICAL_SURFACE('',#765,3.5);
#31=CYLINDRICAL_SURFACE('',#768,4.99999999999999);
#32=CYLINDRICAL_SURFACE('',#773,5.);
#33=CYLINDRICAL_SURFACE('',#778,10.);
#34=CYLINDRICAL_SURFACE('',#788,10.);
#35=CIRCLE('',#744,5.);
#36=CIRCLE('',#747,2.5);
#37=CIRCLE('',#748,2.5);
#38=CIRCLE('',#749,1.25);
#39=CIRCLE('',#751,5.);
#40=CIRCLE('',#753,2.5);
#41=CIRCLE('',#754,2.5);
#42=CIRCLE('',#756,1.25);
#43=CIRCLE('',#757,1.25);
#44=CIRCLE('',#758,1.25);
#45=CIRCLE('',#760,5.);
#46=CIRCLE('',#766,3.5);
#47=CIRCLE('',#767,3.5);
#48=CIRCLE('',#769,4.99999999999999);
#49=CIRCLE('',#770,4.99999999999999);
#50=CIRCLE('',#772,10.);
#51=CIRCLE('',#774,5.);
#52=CIRCLE('',#776,10.);
#53=CIRCLE('',#779,10.);
#54=CIRCLE('',#785,7.);
#55=CIRCLE('',#789,10.);
#56=CIRCLE('',#795,7.);
#57=FACE_OUTER_BOUND('',#94,.T.);
#58=FACE_OUTER_BOUND('',#95,.T.);
#59=FACE_OUTER_BOUND('',#96,.T.);
#60=FACE_OUTER_BOUND('',#97,.T.);
#61=FACE_OUTER_BOUND('',#98,.T.);
#62=FACE_OUTER_BOUND('',#99,.T.);
#63=FACE_OUTER_BOUND('',#100,.T.);
#64=FACE_OUTER_BOUND('',#101,.T.);
#65=FACE_OUTER_BOUND('',#103,.T.);
#66=FACE_OUTER_BOUND('',#104,.T.);
#67=FACE_OUTER_BOUND('',#105,.T.);
#68=FACE_OUTER_BOUND('',#106,.T.);
#69=FACE_OUTER_BOUND('',#107,.T.);
#70=FACE_OUTER_BOUND('',#108,.T.);
#71=FACE_OUTER_BOUND('',#109,.T.);
#72=FACE_OUTER_BOUND('',#110,.T.);
#73=FACE_OUTER_BOUND('',#112,.T.);
#74=FACE_OUTER_BOUND('',#113,.T.);
#75=FACE_OUTER_BOUND('',#114,.T.);
#76=FACE_OUTER_BOUND('',#115,.T.);
#77=FACE_OUTER_BOUND('',#116,.T.);
#78=FACE_OUTER_BOUND('',#117,.T.);
#79=FACE_OUTER_BOUND('',#118,.T.);
#80=FACE_OUTER_BOUND('',#119,.T.);
#81=FACE_OUTER_BOUND('',#120,.T.);
#82=FACE_OUTER_BOUND('',#121,.T.);
#83=FACE_OUTER_BOUND('',#122,.T.);
#84=FACE_OUTER_BOUND('',#124,.T.);
#85=FACE_OUTER_BOUND('',#125,.T.);
#86=FACE_OUTER_BOUND('',#126,.T.);
#87=FACE_OUTER_BOUND('',#127,.T.);
#88=FACE_OUTER_BOUND('',#128,.T.);
#89=FACE_OUTER_BOUND('',#129,.T.);
#90=FACE_OUTER_BOUND('',#130,.T.);
#91=FACE_OUTER_BOUND('',#132,.T.);
#92=FACE_OUTER_BOUND('',#134,.T.);
#93=FACE_OUTER_BOUND('',#136,.T.);
#94=EDGE_LOOP('',(#460,#461,#462,#463));
#95=EDGE_LOOP('',(#464,#465,#466,#467));
#96=EDGE_LOOP('',(#468,#469,#470,#471,#472,#473,#474));
#97=EDGE_LOOP('',(#475,#476,#477,#478));
#98=EDGE_LOOP('',(#479,#480,#481,#482,#483,#484,#485,#486));
#99=EDGE_LOOP('',(#487,#488,#489,#490,#491,#492,#493));
#100=EDGE_LOOP('',(#494,#495,#496,#497,#498,#499,#500,#501));
#101=EDGE_LOOP('',(#502,#503,#504,#505,#506,#507,#508,#509,#510,#511,#512,
#513));
#102=EDGE_LOOP('',(#514));
#103=EDGE_LOOP('',(#515,#516,#517,#518));
#104=EDGE_LOOP('',(#519,#520,#521,#522));
#105=EDGE_LOOP('',(#523,#524,#525,#526,#527,#528,#529,#530));
#106=EDGE_LOOP('',(#531,#532,#533,#534));
#107=EDGE_LOOP('',(#535,#536,#537,#538));
#108=EDGE_LOOP('',(#539,#540,#541,#542,#543,#544,#545,#546));
#109=EDGE_LOOP('',(#547,#548,#549,#550));
#110=EDGE_LOOP('',(#551,#552,#553,#554));
#111=EDGE_LOOP('',(#555));
#112=EDGE_LOOP('',(#556,#557,#558,#559,#560,#561,#562,#563,#564,#565));
#113=EDGE_LOOP('',(#566,#567,#568,#569));
#114=EDGE_LOOP('',(#570,#571,#572,#573));
#115=EDGE_LOOP('',(#574,#575,#576,#577));
#116=EDGE_LOOP('',(#578,#579,#580,#581));
#117=EDGE_LOOP('',(#582,#583,#584,#585));
#118=EDGE_LOOP('',(#586,#587,#588,#589));
#119=EDGE_LOOP('',(#590,#591,#592,#593));
#120=EDGE_LOOP('',(#594,#595,#596,#597,#598,#599,#600,#601,#602,#603));
#121=EDGE_LOOP('',(#604,#605,#606,#607));
#122=EDGE_LOOP('',(#608,#609,#610,#611,#612,#613));
#123=EDGE_LOOP('',(#614,#615,#616,#617));
#124=EDGE_LOOP('',(#618,#619,#620,#621));
#125=EDGE_LOOP('',(#622,#623,#624,#625));
#126=EDGE_LOOP('',(#626,#627,#628,#629));
#127=EDGE_LOOP('',(#630,#631,#632,#633));
#128=EDGE_LOOP('',(#634,#635,#636,#637));
#129=EDGE_LOOP('',(#638,#639,#640,#641));
#130=EDGE_LOOP('',(#642,#643,#644,#645,#646,#647));
#131=EDGE_LOOP('',(#648));
#132=EDGE_LOOP('',(#649,#650,#651,#652));
#133=EDGE_LOOP('',(#653));
#134=EDGE_LOOP('',(#654,#655,#656,#657));
#135=EDGE_LOOP('',(#658));
#136=EDGE_LOOP('',(#659,#660,#661,#662));
#137=EDGE_LOOP('',(#663));
#138=LINE('',#1008,#216);
#139=LINE('',#1010,#217);
#140=LINE('',#1012,#218);
#141=LINE('',#1013,#219);
#142=LINE('',#1017,#220);
#143=LINE('',#1019,#221);
#144=LINE('',#1021,#222);
#145=LINE('',#1022,#223);
#146=LINE('',#1026,#224);
#147=LINE('',#1028,#225);
#148=LINE('',#1030,#226);
#149=LINE('',#1033,#227);
#150=LINE('',#1034,#228);
#151=LINE('',#1037,#229);
#152=LINE('',#1039,#230);
#153=LINE('',#1040,#231);
#154=LINE('',#1043,#232);
#155=LINE('',#1049,#233);
#156=LINE('',#1051,#234);
#157=LINE('',#1053,#235);
#158=LINE('',#1055,#236);
#159=LINE('',#1058,#237);
#160=LINE('',#1061,#238);
#161=LINE('',#1066,#239);
#162=LINE('',#1068,#240);
#163=LINE('',#1070,#241);
#164=LINE('',#1072,#242);
#165=LINE('',#1073,#243);
#166=LINE('',#1081,#244);
#167=LINE('',#1085,#245);
#168=LINE('',#1089,#246);
#169=LINE('',#1095,#247);
#170=LINE('',#1101,#248);
#171=LINE('',#1105,#249);
#172=LINE('',#1107,#250);
#173=LINE('',#1110,#251);
#174=LINE('',#1115,#252);
#175=LINE('',#1118,#253);
#176=LINE('',#1121,#254);
#177=LINE('',#1123,#255);
#178=LINE('',#1125,#256);
#179=LINE('',#1127,#257);
#180=LINE('',#1128,#258);
#181=LINE('',#1131,#259);
#182=LINE('',#1135,#260);
#183=LINE('',#1137,#261);
#184=LINE('',#1138,#262);
#185=LINE('',#1141,#263);
#186=LINE('',#1143,#264);
#187=LINE('',#1144,#265);
#188=LINE('',#1147,#266);
#189=LINE('',#1149,#267);
#190=LINE('',#1150,#268);
#191=LINE('',#1153,#269);
#192=LINE('',#1155,#270);
#193=LINE('',#1156,#271);
#194=LINE('',#1159,#272);
#195=LINE('',#1162,#273);
#196=LINE('',#1163,#274);
#197=LINE('',#1166,#275);
#198=LINE('',#1168,#276);
#199=LINE('',#1169,#277);
#200=LINE('',#1176,#278);
#201=LINE('',#1178,#279);
#202=LINE('',#1180,#280);
#203=LINE('',#1181,#281);
#204=LINE('',#1184,#282);
#205=LINE('',#1185,#283);
#206=LINE('',#1186,#284);
#207=LINE('',#1189,#285);
#208=LINE('',#1191,#286);
#209=LINE('',#1192,#287);
#210=LINE('',#1195,#288);
#211=LINE('',#1198,#289);
#212=LINE('',#1200,#290);
#213=LINE('',#1201,#291);
#214=LINE('',#1204,#292);
#215=LINE('',#1206,#293);
#216=VECTOR('',#806,10.);
#217=VECTOR('',#807,10.);
#218=VECTOR('',#808,10.);
#219=VECTOR('',#809,10.);
#220=VECTOR('',#812,10.);
#221=VECTOR('',#813,10.);
#222=VECTOR('',#814,10.);
#223=VECTOR('',#815,10.);
#224=VECTOR('',#818,10.);
#225=VECTOR('',#819,10.);
#226=VECTOR('',#820,10.);
#227=VECTOR('',#823,10.);
#228=VECTOR('',#824,10.);
#229=VECTOR('',#827,10.);
#230=VECTOR('',#828,10.);
#231=VECTOR('',#829,10.);
#232=VECTOR('',#832,10.);
#233=VECTOR('',#839,10.);
#234=VECTOR('',#842,10.);
#235=VECTOR('',#843,10.);
#236=VECTOR('',#844,10.);
#237=VECTOR('',#847,10.);
#238=VECTOR('',#850,2.5);
#239=VECTOR('',#857,10.);
#240=VECTOR('',#858,10.);
#241=VECTOR('',#859,10.);
#242=VECTOR('',#860,10.);
#243=VECTOR('',#861,10.);
#244=VECTOR('',#870,10.);
#245=VECTOR('',#875,1.25);
#246=VECTOR('',#880,1.25);
#247=VECTOR('',#887,3.5);
#248=VECTOR('',#894,10.);
#249=VECTOR('',#899,10.);
#250=VECTOR('',#900,10.);
#251=VECTOR('',#903,10.);
#252=VECTOR('',#910,10.);
#253=VECTOR('',#913,10.);
#254=VECTOR('',#916,10.);
#255=VECTOR('',#917,10.);
#256=VECTOR('',#918,10.);
#257=VECTOR('',#919,10.);
#258=VECTOR('',#920,10.);
#259=VECTOR('',#923,10.);
#260=VECTOR('',#928,10.);
#261=VECTOR('',#929,10.);
#262=VECTOR('',#930,10.);
#263=VECTOR('',#933,10.);
#264=VECTOR('',#934,10.);
#265=VECTOR('',#935,10.);
#266=VECTOR('',#938,10.);
#267=VECTOR('',#939,10.);
#268=VECTOR('',#940,10.);
#269=VECTOR('',#943,10.);
#270=VECTOR('',#944,10.);
#271=VECTOR('',#945,10.);
#272=VECTOR('',#948,10.);
#273=VECTOR('',#953,10.);
#274=VECTOR('',#954,10.);
#275=VECTOR('',#957,10.);
#276=VECTOR('',#958,10.);
#277=VECTOR('',#959,10.);
#278=VECTOR('',#968,10.);
#279=VECTOR('',#969,10.);
#280=VECTOR('',#970,10.);
#281=VECTOR('',#971,10.);
#282=VECTOR('',#974,10.);
#283=VECTOR('',#975,10.);
#284=VECTOR('',#976,10.);
#285=VECTOR('',#979,10.);
#286=VECTOR('',#980,10.);
#287=VECTOR('',#981,10.);
#288=VECTOR('',#984,10.);
#289=VECTOR('',#989,10.);
#290=VECTOR('',#992,10.);
#291=VECTOR('',#993,10.);
#292=VECTOR('',#998,10.);
#293=VECTOR('',#1001,10.);
#294=VERTEX_POINT('',#1006);
#295=VERTEX_POINT('',#1007);
#296=VERTEX_POINT('',#1009);
#297=VERTEX_POINT('',#1011);
#298=VERTEX_POINT('',#1015);
#299=VERTEX_POINT('',#1016);
#300=VERTEX_POINT('',#1018);
#301=VERTEX_POINT('',#1020);
#302=VERTEX_POINT('',#1024);
#303=VERTEX_POINT('',#1025);
#304=VERTEX_POINT('',#1027);
#305=VERTEX_POINT('',#1029);
#306=VERTEX_POINT('',#1031);
#307=VERTEX_POINT('',#1036);
#308=VERTEX_POINT('',#1038);
#309=VERTEX_POINT('',#1042);
#310=VERTEX_POINT('',#1044);
#311=VERTEX_POINT('',#1047);
#312=VERTEX_POINT('',#1052);
#313=VERTEX_POINT('',#1054);
#314=VERTEX_POINT('',#1056);
#315=VERTEX_POINT('',#1060);
#316=VERTEX_POINT('',#1065);
#317=VERTEX_POINT('',#1067);
#318=VERTEX_POINT('',#1069);
#319=VERTEX_POINT('',#1071);
#320=VERTEX_POINT('',#1074);
#321=VERTEX_POINT('',#1077);
#322=VERTEX_POINT('',#1080);
#323=VERTEX_POINT('',#1084);
#324=VERTEX_POINT('',#1088);
#325=VERTEX_POINT('',#1092);
#326=VERTEX_POINT('',#1094);
#327=VERTEX_POINT('',#1098);
#328=VERTEX_POINT('',#1100);
#329=VERTEX_POINT('',#1104);
#330=VERTEX_POINT('',#1106);
#331=VERTEX_POINT('',#1108);
#332=VERTEX_POINT('',#1114);
#333=VERTEX_POINT('',#1116);
#334=VERTEX_POINT('',#1120);
#335=VERTEX_POINT('',#1122);
#336=VERTEX_POINT('',#1124);
#337=VERTEX_POINT('',#1126);
#338=VERTEX_POINT('',#1130);
#339=VERTEX_POINT('',#1134);
#340=VERTEX_POINT('',#1136);
#341=VERTEX_POINT('',#1140);
#342=VERTEX_POINT('',#1142);
#343=VERTEX_POINT('',#1146);
#344=VERTEX_POINT('',#1148);
#345=VERTEX_POINT('',#1152);
#346=VERTEX_POINT('',#1154);
#347=VERTEX_POINT('',#1158);
#348=VERTEX_POINT('',#1165);
#349=VERTEX_POINT('',#1167);
#350=VERTEX_POINT('',#1174);
#351=VERTEX_POINT('',#1175);
#352=VERTEX_POINT('',#1177);
#353=VERTEX_POINT('',#1179);
#354=VERTEX_POINT('',#1183);
#355=VERTEX_POINT('',#1188);
#356=VERTEX_POINT('',#1190);
#357=VERTEX_POINT('',#1194);
#358=EDGE_CURVE('',#294,#295,#138,.T.);
#359=EDGE_CURVE('',#296,#294,#139,.T.);
#360=EDGE_CURVE('',#297,#296,#140,.T.);
#361=EDGE_CURVE('',#295,#297,#141,.T.);
#362=EDGE_CURVE('',#298,#299,#142,.T.);
#363=EDGE_CURVE('',#300,#298,#143,.T.);
#364=EDGE_CURVE('',#301,#300,#144,.T.);
#365=EDGE_CURVE('',#299,#301,#145,.T.);
#366=EDGE_CURVE('',#302,#303,#146,.T.);
#367=EDGE_CURVE('',#302,#304,#147,.T.);
#368=EDGE_CURVE('',#305,#304,#148,.T.);
#369=EDGE_CURVE('',#306,#305,#35,.T.);
#370=EDGE_CURVE('',#297,#306,#149,.T.);
#371=EDGE_CURVE('',#303,#296,#150,.T.);
#372=EDGE_CURVE('',#307,#302,#151,.T.);
#373=EDGE_CURVE('',#307,#308,#152,.T.);
#374=EDGE_CURVE('',#304,#308,#153,.T.);
#375=EDGE_CURVE('',#303,#309,#154,.T.);
#376=EDGE_CURVE('',#310,#294,#36,.T.);
#377=EDGE_CURVE('',#300,#310,#37,.T.);
#378=EDGE_CURVE('',#311,#298,#38,.T.);
#379=EDGE_CURVE('',#309,#311,#155,.T.);
#380=EDGE_CURVE('',#309,#307,#156,.T.);
#381=EDGE_CURVE('',#312,#311,#157,.T.);
#382=EDGE_CURVE('',#313,#312,#158,.T.);
#383=EDGE_CURVE('',#314,#313,#39,.T.);
#384=EDGE_CURVE('',#308,#314,#159,.T.);
#385=EDGE_CURVE('',#310,#315,#160,.T.);
#386=EDGE_CURVE('',#315,#315,#40,.T.);
#387=EDGE_CURVE('',#301,#295,#41,.T.);
#388=EDGE_CURVE('',#316,#306,#161,.T.);
#389=EDGE_CURVE('',#317,#316,#162,.T.);
#390=EDGE_CURVE('',#317,#318,#163,.T.);
#391=EDGE_CURVE('',#319,#318,#164,.T.);
#392=EDGE_CURVE('',#313,#319,#165,.T.);
#393=EDGE_CURVE('',#312,#320,#42,.T.);
#394=EDGE_CURVE('',#320,#299,#43,.T.);
#395=EDGE_CURVE('',#321,#321,#44,.T.);
#396=EDGE_CURVE('',#322,#305,#166,.T.);
#397=EDGE_CURVE('',#316,#322,#45,.T.);
#398=EDGE_CURVE('',#321,#323,#167,.T.);
#399=EDGE_CURVE('',#323,#323,#17,.T.);
#400=EDGE_CURVE('',#320,#324,#168,.T.);
#401=EDGE_CURVE('',#324,#324,#18,.T.);
#402=EDGE_CURVE('',#325,#325,#46,.T.);
#403=EDGE_CURVE('',#325,#326,#169,.T.);
#404=EDGE_CURVE('',#326,#326,#47,.T.);
#405=EDGE_CURVE('',#327,#317,#48,.T.);
#406=EDGE_CURVE('',#327,#328,#170,.T.);
#407=EDGE_CURVE('',#318,#328,#49,.T.);
#408=EDGE_CURVE('',#314,#329,#171,.T.);
#409=EDGE_CURVE('',#330,#329,#172,.T.);
#410=EDGE_CURVE('',#331,#330,#50,.T.);
#411=EDGE_CURVE('',#322,#331,#173,.T.);
#412=EDGE_CURVE('',#329,#319,#51,.T.);
#413=EDGE_CURVE('',#332,#327,#174,.T.);
#414=EDGE_CURVE('',#333,#332,#52,.T.);
#415=EDGE_CURVE('',#328,#333,#175,.T.);
#416=EDGE_CURVE('',#331,#334,#176,.T.);
#417=EDGE_CURVE('',#335,#334,#177,.T.);
#418=EDGE_CURVE('',#336,#335,#178,.T.);
#419=EDGE_CURVE('',#337,#336,#179,.T.);
#420=EDGE_CURVE('',#337,#332,#180,.T.);
#421=EDGE_CURVE('',#330,#338,#181,.T.);
#422=EDGE_CURVE('',#334,#338,#53,.T.);
#423=EDGE_CURVE('',#334,#339,#182,.T.);
#424=EDGE_CURVE('',#339,#340,#183,.T.);
#425=EDGE_CURVE('',#340,#335,#184,.T.);
#426=EDGE_CURVE('',#340,#341,#185,.T.);
#427=EDGE_CURVE('',#341,#342,#186,.T.);
#428=EDGE_CURVE('',#342,#335,#187,.T.);
#429=EDGE_CURVE('',#341,#343,#188,.T.);
#430=EDGE_CURVE('',#343,#344,#189,.T.);
#431=EDGE_CURVE('',#344,#342,#190,.T.);
#432=EDGE_CURVE('',#345,#344,#191,.T.);
#433=EDGE_CURVE('',#343,#346,#192,.T.);
#434=EDGE_CURVE('',#346,#345,#193,.T.);
#435=EDGE_CURVE('',#338,#347,#194,.T.);
#436=EDGE_CURVE('',#347,#339,#54,.T.);
#437=EDGE_CURVE('',#346,#347,#195,.T.);
#438=EDGE_CURVE('',#338,#345,#196,.T.);
#439=EDGE_CURVE('',#348,#333,#197,.T.);
#440=EDGE_CURVE('',#349,#348,#198,.T.);
#441=EDGE_CURVE('',#349,#345,#199,.T.);
#442=EDGE_CURVE('',#348,#337,#55,.T.);
#443=EDGE_CURVE('',#350,#351,#200,.T.);
#444=EDGE_CURVE('',#351,#352,#201,.T.);
#445=EDGE_CURVE('',#352,#353,#202,.T.);
#446=EDGE_CURVE('',#350,#353,#203,.T.);
#447=EDGE_CURVE('',#351,#354,#204,.T.);
#448=EDGE_CURVE('',#354,#336,#205,.T.);
#449=EDGE_CURVE('',#336,#352,#206,.T.);
#450=EDGE_CURVE('',#348,#355,#207,.T.);
#451=EDGE_CURVE('',#355,#356,#208,.T.);
#452=EDGE_CURVE('',#356,#349,#209,.T.);
#453=EDGE_CURVE('',#337,#357,#210,.T.);
#454=EDGE_CURVE('',#357,#355,#56,.T.);
#455=EDGE_CURVE('',#354,#357,#211,.T.);
#456=EDGE_CURVE('',#353,#349,#212,.T.);
#457=EDGE_CURVE('',#356,#350,#213,.T.);
#458=EDGE_CURVE('',#352,#342,#214,.T.);
#459=EDGE_CURVE('',#353,#344,#215,.T.);
#460=ORIENTED_EDGE('',*,*,#358,.F.);
#461=ORIENTED_EDGE('',*,*,#359,.F.);
#462=ORIENTED_EDGE('',*,*,#360,.F.);
#463=ORIENTED_EDGE('',*,*,#361,.F.);
#464=ORIENTED_EDGE('',*,*,#362,.F.);
#465=ORIENTED_EDGE('',*,*,#363,.F.);
#466=ORIENTED_EDGE('',*,*,#364,.F.);
#467=ORIENTED_EDGE('',*,*,#365,.F.);
#468=ORIENTED_EDGE('',*,*,#366,.F.);
#469=ORIENTED_EDGE('',*,*,#367,.T.);
#470=ORIENTED_EDGE('',*,*,#368,.F.);
#471=ORIENTED_EDGE('',*,*,#369,.F.);
#472=ORIENTED_EDGE('',*,*,#370,.F.);
#473=ORIENTED_EDGE('',*,*,#360,.T.);
#474=ORIENTED_EDGE('',*,*,#371,.F.);
#475=ORIENTED_EDGE('',*,*,#372,.F.);
#476=ORIENTED_EDGE('',*,*,#373,.T.);
#477=ORIENTED_EDGE('',*,*,#374,.F.);
#478=ORIENTED_EDGE('',*,*,#367,.F.);
#479=ORIENTED_EDGE('',*,*,#375,.F.);
#480=ORIENTED_EDGE('',*,*,#371,.T.);
#481=ORIENTED_EDGE('',*,*,#359,.T.);
#482=ORIENTED_EDGE('',*,*,#376,.F.);
#483=ORIENTED_EDGE('',*,*,#377,.F.);
#484=ORIENTED_EDGE('',*,*,#363,.T.);
#485=ORIENTED_EDGE('',*,*,#378,.F.);
#486=ORIENTED_EDGE('',*,*,#379,.F.);
#487=ORIENTED_EDGE('',*,*,#380,.F.);
#488=ORIENTED_EDGE('',*,*,#379,.T.);
#489=ORIENTED_EDGE('',*,*,#381,.F.);
#490=ORIENTED_EDGE('',*,*,#382,.F.);
#491=ORIENTED_EDGE('',*,*,#383,.F.);
#492=ORIENTED_EDGE('',*,*,#384,.F.);
#493=ORIENTED_EDGE('',*,*,#373,.F.);
#494=ORIENTED_EDGE('',*,*,#364,.T.);
#495=ORIENTED_EDGE('',*,*,#377,.T.);
#496=ORIENTED_EDGE('',*,*,#385,.T.);
#497=ORIENTED_EDGE('',*,*,#386,.F.);
#498=ORIENTED_EDGE('',*,*,#385,.F.);
#499=ORIENTED_EDGE('',*,*,#376,.T.);
#500=ORIENTED_EDGE('',*,*,#358,.T.);
#501=ORIENTED_EDGE('',*,*,#387,.F.);
#502=ORIENTED_EDGE('',*,*,#365,.T.);
#503=ORIENTED_EDGE('',*,*,#387,.T.);
#504=ORIENTED_EDGE('',*,*,#361,.T.);
#505=ORIENTED_EDGE('',*,*,#370,.T.);
#506=ORIENTED_EDGE('',*,*,#388,.F.);
#507=ORIENTED_EDGE('',*,*,#389,.F.);
#508=ORIENTED_EDGE('',*,*,#390,.T.);
#509=ORIENTED_EDGE('',*,*,#391,.F.);
#510=ORIENTED_EDGE('',*,*,#392,.F.);
#511=ORIENTED_EDGE('',*,*,#382,.T.);
#512=ORIENTED_EDGE('',*,*,#393,.T.);
#513=ORIENTED_EDGE('',*,*,#394,.T.);
#514=ORIENTED_EDGE('',*,*,#395,.T.);
#515=ORIENTED_EDGE('',*,*,#369,.T.);
#516=ORIENTED_EDGE('',*,*,#396,.F.);
#517=ORIENTED_EDGE('',*,*,#397,.F.);
#518=ORIENTED_EDGE('',*,*,#388,.T.);
#519=ORIENTED_EDGE('',*,*,#395,.F.);
#520=ORIENTED_EDGE('',*,*,#398,.T.);
#521=ORIENTED_EDGE('',*,*,#399,.F.);
#522=ORIENTED_EDGE('',*,*,#398,.F.);
#523=ORIENTED_EDGE('',*,*,#362,.T.);
#524=ORIENTED_EDGE('',*,*,#394,.F.);
#525=ORIENTED_EDGE('',*,*,#400,.T.);
#526=ORIENTED_EDGE('',*,*,#401,.F.);
#527=ORIENTED_EDGE('',*,*,#400,.F.);
#528=ORIENTED_EDGE('',*,*,#393,.F.);
#529=ORIENTED_EDGE('',*,*,#381,.T.);
#530=ORIENTED_EDGE('',*,*,#378,.T.);
#531=ORIENTED_EDGE('',*,*,#402,.F.);
#532=ORIENTED_EDGE('',*,*,#403,.T.);
#533=ORIENTED_EDGE('',*,*,#404,.F.);
#534=ORIENTED_EDGE('',*,*,#403,.F.);
#535=ORIENTED_EDGE('',*,*,#405,.F.);
#536=ORIENTED_EDGE('',*,*,#406,.T.);
#537=ORIENTED_EDGE('',*,*,#407,.F.);
#538=ORIENTED_EDGE('',*,*,#390,.F.);
#539=ORIENTED_EDGE('',*,*,#384,.T.);
#540=ORIENTED_EDGE('',*,*,#408,.T.);
#541=ORIENTED_EDGE('',*,*,#409,.F.);
#542=ORIENTED_EDGE('',*,*,#410,.F.);
#543=ORIENTED_EDGE('',*,*,#411,.F.);
#544=ORIENTED_EDGE('',*,*,#396,.T.);
#545=ORIENTED_EDGE('',*,*,#368,.T.);
#546=ORIENTED_EDGE('',*,*,#374,.T.);
#547=ORIENTED_EDGE('',*,*,#383,.T.);
#548=ORIENTED_EDGE('',*,*,#392,.T.);
#549=ORIENTED_EDGE('',*,*,#412,.F.);
#550=ORIENTED_EDGE('',*,*,#408,.F.);
#551=ORIENTED_EDGE('',*,*,#413,.F.);
#552=ORIENTED_EDGE('',*,*,#414,.F.);
#553=ORIENTED_EDGE('',*,*,#415,.F.);
#554=ORIENTED_EDGE('',*,*,#406,.F.);
#555=ORIENTED_EDGE('',*,*,#404,.T.);
#556=ORIENTED_EDGE('',*,*,#413,.T.);
#557=ORIENTED_EDGE('',*,*,#405,.T.);
#558=ORIENTED_EDGE('',*,*,#389,.T.);
#559=ORIENTED_EDGE('',*,*,#397,.T.);
#560=ORIENTED_EDGE('',*,*,#411,.T.);
#561=ORIENTED_EDGE('',*,*,#416,.T.);
#562=ORIENTED_EDGE('',*,*,#417,.F.);
#563=ORIENTED_EDGE('',*,*,#418,.F.);
#564=ORIENTED_EDGE('',*,*,#419,.F.);
#565=ORIENTED_EDGE('',*,*,#420,.T.);
#566=ORIENTED_EDGE('',*,*,#410,.T.);
#567=ORIENTED_EDGE('',*,*,#421,.T.);
#568=ORIENTED_EDGE('',*,*,#422,.F.);
#569=ORIENTED_EDGE('',*,*,#416,.F.);
#570=ORIENTED_EDGE('',*,*,#417,.T.);
#571=ORIENTED_EDGE('',*,*,#423,.T.);
#572=ORIENTED_EDGE('',*,*,#424,.T.);
#573=ORIENTED_EDGE('',*,*,#425,.T.);
#574=ORIENTED_EDGE('',*,*,#426,.T.);
#575=ORIENTED_EDGE('',*,*,#427,.T.);
#576=ORIENTED_EDGE('',*,*,#428,.T.);
#577=ORIENTED_EDGE('',*,*,#425,.F.);
#578=ORIENTED_EDGE('',*,*,#429,.T.);
#579=ORIENTED_EDGE('',*,*,#430,.T.);
#580=ORIENTED_EDGE('',*,*,#431,.T.);
#581=ORIENTED_EDGE('',*,*,#427,.F.);
#582=ORIENTED_EDGE('',*,*,#432,.T.);
#583=ORIENTED_EDGE('',*,*,#430,.F.);
#584=ORIENTED_EDGE('',*,*,#433,.T.);
#585=ORIENTED_EDGE('',*,*,#434,.T.);
#586=ORIENTED_EDGE('',*,*,#435,.T.);
#587=ORIENTED_EDGE('',*,*,#436,.T.);
#588=ORIENTED_EDGE('',*,*,#423,.F.);
#589=ORIENTED_EDGE('',*,*,#422,.T.);
#590=ORIENTED_EDGE('',*,*,#437,.T.);
#591=ORIENTED_EDGE('',*,*,#435,.F.);
#592=ORIENTED_EDGE('',*,*,#438,.T.);
#593=ORIENTED_EDGE('',*,*,#434,.F.);
#594=ORIENTED_EDGE('',*,*,#415,.T.);
#595=ORIENTED_EDGE('',*,*,#439,.F.);
#596=ORIENTED_EDGE('',*,*,#440,.F.);
#597=ORIENTED_EDGE('',*,*,#441,.T.);
#598=ORIENTED_EDGE('',*,*,#438,.F.);
#599=ORIENTED_EDGE('',*,*,#421,.F.);
#600=ORIENTED_EDGE('',*,*,#409,.T.);
#601=ORIENTED_EDGE('',*,*,#412,.T.);
#602=ORIENTED_EDGE('',*,*,#391,.T.);
#603=ORIENTED_EDGE('',*,*,#407,.T.);
#604=ORIENTED_EDGE('',*,*,#414,.T.);
#605=ORIENTED_EDGE('',*,*,#420,.F.);
#606=ORIENTED_EDGE('',*,*,#442,.F.);
#607=ORIENTED_EDGE('',*,*,#439,.T.);
#608=ORIENTED_EDGE('',*,*,#424,.F.);
#609=ORIENTED_EDGE('',*,*,#436,.F.);
#610=ORIENTED_EDGE('',*,*,#437,.F.);
#611=ORIENTED_EDGE('',*,*,#433,.F.);
#612=ORIENTED_EDGE('',*,*,#429,.F.);
#613=ORIENTED_EDGE('',*,*,#426,.F.);
#614=ORIENTED_EDGE('',*,*,#375,.T.);
#615=ORIENTED_EDGE('',*,*,#380,.T.);
#616=ORIENTED_EDGE('',*,*,#372,.T.);
#617=ORIENTED_EDGE('',*,*,#366,.T.);
#618=ORIENTED_EDGE('',*,*,#443,.T.);
#619=ORIENTED_EDGE('',*,*,#444,.T.);
#620=ORIENTED_EDGE('',*,*,#445,.T.);
#621=ORIENTED_EDGE('',*,*,#446,.F.);
#622=ORIENTED_EDGE('',*,*,#447,.T.);
#623=ORIENTED_EDGE('',*,*,#448,.T.);
#624=ORIENTED_EDGE('',*,*,#449,.T.);
#625=ORIENTED_EDGE('',*,*,#444,.F.);
#626=ORIENTED_EDGE('',*,*,#440,.T.);
#627=ORIENTED_EDGE('',*,*,#450,.T.);
#628=ORIENTED_EDGE('',*,*,#451,.T.);
#629=ORIENTED_EDGE('',*,*,#452,.T.);
#630=ORIENTED_EDGE('',*,*,#450,.F.);
#631=ORIENTED_EDGE('',*,*,#442,.T.);
#632=ORIENTED_EDGE('',*,*,#453,.T.);
#633=ORIENTED_EDGE('',*,*,#454,.T.);
#634=ORIENTED_EDGE('',*,*,#455,.T.);
#635=ORIENTED_EDGE('',*,*,#453,.F.);
#636=ORIENTED_EDGE('',*,*,#419,.T.);
#637=ORIENTED_EDGE('',*,*,#448,.F.);
#638=ORIENTED_EDGE('',*,*,#456,.T.);
#639=ORIENTED_EDGE('',*,*,#452,.F.);
#640=ORIENTED_EDGE('',*,*,#457,.T.);
#641=ORIENTED_EDGE('',*,*,#446,.T.);
#642=ORIENTED_EDGE('',*,*,#451,.F.);
#643=ORIENTED_EDGE('',*,*,#454,.F.);
#644=ORIENTED_EDGE('',*,*,#455,.F.);
#645=ORIENTED_EDGE('',*,*,#447,.F.);
#646=ORIENTED_EDGE('',*,*,#443,.F.);
#647=ORIENTED_EDGE('',*,*,#457,.F.);
#648=ORIENTED_EDGE('',*,*,#402,.T.);
#649=ORIENTED_EDGE('',*,*,#428,.F.);
#650=ORIENTED_EDGE('',*,*,#458,.F.);
#651=ORIENTED_EDGE('',*,*,#449,.F.);
#652=ORIENTED_EDGE('',*,*,#418,.T.);
#653=ORIENTED_EDGE('',*,*,#399,.T.);
#654=ORIENTED_EDGE('',*,*,#431,.F.);
#655=ORIENTED_EDGE('',*,*,#459,.F.);
#656=ORIENTED_EDGE('',*,*,#445,.F.);
#657=ORIENTED_EDGE('',*,*,#458,.T.);
#658=ORIENTED_EDGE('',*,*,#386,.T.);
#659=ORIENTED_EDGE('',*,*,#432,.F.);
#660=ORIENTED_EDGE('',*,*,#441,.F.);
#661=ORIENTED_EDGE('',*,*,#456,.F.);
#662=ORIENTED_EDGE('',*,*,#459,.T.);
#663=ORIENTED_EDGE('',*,*,#401,.T.);
#664=PLANE('',#741);
#665=PLANE('',#742);
#666=PLANE('',#743);
#667=PLANE('',#745);
#668=PLANE('',#746);
#669=PLANE('',#750);
#670=PLANE('',#755);
#671=PLANE('',#771);
#672=PLANE('',#775);
#673=PLANE('',#777);
#674=PLANE('',#780);
#675=PLANE('',#781);
#676=PLANE('',#782);
#677=PLANE('',#783);
#678=PLANE('',#786);
#679=PLANE('',#787);
#680=PLANE('',#790);
#681=PLANE('',#791);
#682=PLANE('',#792);
#683=PLANE('',#793);
#684=PLANE('',#796);
#685=PLANE('',#797);
#686=PLANE('',#798);
#687=PLANE('',#799);
#688=PLANE('',#800);
#689=PLANE('',#801);
#690=ADVANCED_FACE('',(#57),#664,.F.);
#691=ADVANCED_FACE('',(#58),#665,.F.);
#692=ADVANCED_FACE('',(#59),#666,.F.);
#693=ADVANCED_FACE('',(#60),#667,.F.);
#694=ADVANCED_FACE('',(#61),#668,.F.);
#695=ADVANCED_FACE('',(#62),#669,.F.);
#696=ADVANCED_FACE('',(#63),#26,.F.);
#697=ADVANCED_FACE('',(#64,#19),#670,.F.);
#698=ADVANCED_FACE('',(#65),#27,.F.);
#699=ADVANCED_FACE('',(#66),#28,.F.);
#700=ADVANCED_FACE('',(#67),#29,.F.);
#701=ADVANCED_FACE('',(#68),#30,.F.);
#702=ADVANCED_FACE('',(#69),#31,.F.);
#703=ADVANCED_FACE('',(#70),#671,.F.);
#704=ADVANCED_FACE('',(#71),#32,.F.);
#705=ADVANCED_FACE('',(#72,#20),#672,.F.);
#706=ADVANCED_FACE('',(#73),#673,.T.);
#707=ADVANCED_FACE('',(#74),#33,.T.);
#708=ADVANCED_FACE('',(#75),#674,.T.);
#709=ADVANCED_FACE('',(#76),#675,.T.);
#710=ADVANCED_FACE('',(#77),#676,.T.);
#711=ADVANCED_FACE('',(#78),#677,.T.);
#712=ADVANCED_FACE('',(#79),#15,.T.);
#713=ADVANCED_FACE('',(#80),#678,.T.);
#714=ADVANCED_FACE('',(#81),#679,.T.);
#715=ADVANCED_FACE('',(#82),#34,.T.);
#716=ADVANCED_FACE('',(#83,#21),#680,.T.);
#717=ADVANCED_FACE('',(#84),#681,.T.);
#718=ADVANCED_FACE('',(#85),#682,.T.);
#719=ADVANCED_FACE('',(#86),#683,.T.);
#720=ADVANCED_FACE('',(#87),#16,.T.);
#721=ADVANCED_FACE('',(#88),#684,.T.);
#722=ADVANCED_FACE('',(#89),#685,.T.);
#723=ADVANCED_FACE('',(#90,#22),#686,.F.);
#724=ADVANCED_FACE('',(#91,#23),#687,.T.);
#725=ADVANCED_FACE('',(#92,#24),#688,.T.);
#726=ADVANCED_FACE('',(#93,#25),#689,.T.);
#727=CLOSED_SHELL('',(#690,#691,#692,#693,#694,#695,#696,#697,#698,#699,
#700,#701,#702,#703,#704,#705,#706,#707,#708,#709,#710,#711,#712,#713,#714,
#715,#716,#717,#718,#719,#720,#721,#722,#723,#724,#725,#726));
#728=DERIVED_UNIT_ELEMENT(#730,1.);
#729=DERIVED_UNIT_ELEMENT(#1213,-3.);
#730=(
MASS_UNIT()
NAMED_UNIT(*)
SI_UNIT(.KILO.,.GRAM.)
);
#731=DERIVED_UNIT((#728,#729));
#732=MEASURE_REPRESENTATION_ITEM('density measure',
POSITIVE_RATIO_MEASURE(7850.),#731);
#733=PROPERTY_DEFINITION_REPRESENTATION(#738,#735);
#734=PROPERTY_DEFINITION_REPRESENTATION(#739,#736);
#735=REPRESENTATION('material name',(#737),#1210);
#736=REPRESENTATION('density',(#732),#1210);
#737=DESCRIPTIVE_REPRESENTATION_ITEM('Steel','Steel');
#738=PROPERTY_DEFINITION('material property','material name',#1220);
#739=PROPERTY_DEFINITION('material property','density of part',#1220);
#740=AXIS2_PLACEMENT_3D('',#1004,#802,#803);
#741=AXIS2_PLACEMENT_3D('',#1005,#804,#805);
#742=AXIS2_PLACEMENT_3D('',#1014,#810,#811);
#743=AXIS2_PLACEMENT_3D('',#1023,#816,#817);
#744=AXIS2_PLACEMENT_3D('',#1032,#821,#822);
#745=AXIS2_PLACEMENT_3D('',#1035,#825,#826);
#746=AXIS2_PLACEMENT_3D('',#1041,#830,#831);
#747=AXIS2_PLACEMENT_3D('',#1045,#833,#834);
#748=AXIS2_PLACEMENT_3D('',#1046,#835,#836);
#749=AXIS2_PLACEMENT_3D('',#1048,#837,#838);
#750=AXIS2_PLACEMENT_3D('',#1050,#840,#841);
#751=AXIS2_PLACEMENT_3D('',#1057,#845,#846);
#752=AXIS2_PLACEMENT_3D('',#1059,#848,#849);
#753=AXIS2_PLACEMENT_3D('',#1062,#851,#852);
#754=AXIS2_PLACEMENT_3D('',#1063,#853,#854);
#755=AXIS2_PLACEMENT_3D('',#1064,#855,#856);
#756=AXIS2_PLACEMENT_3D('',#1075,#862,#863);
#757=AXIS2_PLACEMENT_3D('',#1076,#864,#865);
#758=AXIS2_PLACEMENT_3D('',#1078,#866,#867);
#759=AXIS2_PLACEMENT_3D('',#1079,#868,#869);
#760=AXIS2_PLACEMENT_3D('',#1082,#871,#872);
#761=AXIS2_PLACEMENT_3D('',#1083,#873,#874);
#762=AXIS2_PLACEMENT_3D('',#1086,#876,#877);
#763=AXIS2_PLACEMENT_3D('',#1087,#878,#879);
#764=AXIS2_PLACEMENT_3D('',#1090,#881,#882);
#765=AXIS2_PLACEMENT_3D('',#1091,#883,#884);
#766=AXIS2_PLACEMENT_3D('',#1093,#885,#886);
#767=AXIS2_PLACEMENT_3D('',#1096,#888,#889);
#768=AXIS2_PLACEMENT_3D('',#1097,#890,#891);
#769=AXIS2_PLACEMENT_3D('',#1099,#892,#893);
#770=AXIS2_PLACEMENT_3D('',#1102,#895,#896);
#771=AXIS2_PLACEMENT_3D('',#1103,#897,#898);
#772=AXIS2_PLACEMENT_3D('',#1109,#901,#902);
#773=AXIS2_PLACEMENT_3D('',#1111,#904,#905);
#774=AXIS2_PLACEMENT_3D('',#1112,#906,#907);
#775=AXIS2_PLACEMENT_3D('',#1113,#908,#909);
#776=AXIS2_PLACEMENT_3D('',#1117,#911,#912);
#777=AXIS2_PLACEMENT_3D('',#1119,#914,#915);
#778=AXIS2_PLACEMENT_3D('',#1129,#921,#922);
#779=AXIS2_PLACEMENT_3D('',#1132,#924,#925);
#780=AXIS2_PLACEMENT_3D('',#1133,#926,#927);
#781=AXIS2_PLACEMENT_3D('',#1139,#931,#932);
#782=AXIS2_PLACEMENT_3D('',#1145,#936,#937);
#783=AXIS2_PLACEMENT_3D('',#1151,#941,#942);
#784=AXIS2_PLACEMENT_3D('',#1157,#946,#947);
#785=AXIS2_PLACEMENT_3D('',#1160,#949,#950);
#786=AXIS2_PLACEMENT_3D('',#1161,#951,#952);
#787=AXIS2_PLACEMENT_3D('',#1164,#955,#956);
#788=AXIS2_PLACEMENT_3D('',#1170,#960,#961);
#789=AXIS2_PLACEMENT_3D('',#1171,#962,#963);
#790=AXIS2_PLACEMENT_3D('',#1172,#964,#965);
#791=AXIS2_PLACEMENT_3D('',#1173,#966,#967);
#792=AXIS2_PLACEMENT_3D('',#1182,#972,#973);
#793=AXIS2_PLACEMENT_3D('',#1187,#977,#978);
#794=AXIS2_PLACEMENT_3D('',#1193,#982,#983);
#795=AXIS2_PLACEMENT_3D('',#1196,#985,#986);
#796=AXIS2_PLACEMENT_3D('',#1197,#987,#988);
#797=AXIS2_PLACEMENT_3D('',#1199,#990,#991);
#798=AXIS2_PLACEMENT_3D('',#1202,#994,#995);
#799=AXIS2_PLACEMENT_3D('',#1203,#996,#997);
#800=AXIS2_PLACEMENT_3D('',#1205,#999,#1000);
#801=AXIS2_PLACEMENT_3D('',#1207,#1002,#1003);
#802=DIRECTION('axis',(0.,0.,1.));
#803=DIRECTION('refdir',(1.,0.,0.));
#804=DIRECTION('center_axis',(5.09430460778528E-16,1.1538802321039E-15,
-1.));
#805=DIRECTION('ref_axis',(-1.,4.38538094726935E-15,-5.09430460778523E-16));
#806=DIRECTION('',(-1.,0.,0.));
#807=DIRECTION('',(2.07063724863448E-29,-1.,-8.88178419700125E-16));
#808=DIRECTION('',(1.,2.05173876012862E-29,4.44089209850066E-16));
#809=DIRECTION('',(1.02485152107326E-30,1.,1.1538802321039E-15));
#810=DIRECTION('center_axis',(5.09430460778528E-16,1.1538802321039E-15,
-1.));
#811=DIRECTION('ref_axis',(-1.,4.38538094726935E-15,-5.09430460778523E-16));
#812=DIRECTION('',(-1.,0.,0.));
#813=DIRECTION('',(2.07063724863448E-29,-1.,-8.88178419700125E-16));
#814=DIRECTION('',(1.,0.,0.));
#815=DIRECTION('',(1.02485152107326E-30,1.,1.1538802321039E-15));
#816=DIRECTION('center_axis',(-2.07630655444499E-29,1.,1.1538802321039E-15));
#817=DIRECTION('ref_axis',(1.,2.05173876012862E-29,4.44089209850066E-16));
#818=DIRECTION('',(1.,2.04558728064134E-29,2.66225843453816E-16));
#819=DIRECTION('',(5.09430460778528E-16,1.1538802321039E-15,-1.));
#820=DIRECTION('',(-1.,-2.07630655444499E-29,0.));
#821=DIRECTION('center_axis',(2.07630655444499E-29,-1.,-1.1538802321039E-15));
#822=DIRECTION('ref_axis',(-1.77635683940025E-15,0.,1.));
#823=DIRECTION('',(8.88178419700125E-16,-1.1538802321039E-15,1.));
#824=DIRECTION('',(5.09430460778528E-16,1.1538802321039E-15,-1.));
#825=DIRECTION('center_axis',(-1.,-2.05193712088201E-29,-5.09430460778528E-16));
#826=DIRECTION('ref_axis',(-2.05168609798171E-29,1.,3.08148791101958E-32));
#827=DIRECTION('',(-2.04976510041162E-29,1.,-4.26362504329927E-17));
#828=DIRECTION('',(5.09430460778528E-16,1.1538802321039E-15,-1.));
#829=DIRECTION('',(2.05193712088201E-29,-1.,0.));
#830=DIRECTION('center_axis',(1.,2.05193712088201E-29,5.09430460778528E-16));
#831=DIRECTION('ref_axis',(2.07063724863448E-29,-1.,-8.88178419700125E-16));
#832=DIRECTION('',(2.04976510041162E-29,-1.,4.26362504329927E-17));
#833=DIRECTION('center_axis',(-1.,-2.05193712088201E-29,-5.09430460778528E-16));
#834=DIRECTION('ref_axis',(0.,1.,0.));
#835=DIRECTION('center_axis',(-1.,-2.05193712088201E-29,-5.09430460778528E-16));
#836=DIRECTION('ref_axis',(0.,1.,0.));
#837=DIRECTION('center_axis',(-1.,-2.05193712088201E-29,-5.09430460778528E-16));
#838=DIRECTION('ref_axis',(0.,1.,0.));
#839=DIRECTION('',(5.09430460778528E-16,1.1538802321039E-15,-1.));
#840=DIRECTION('center_axis',(2.07630655444499E-29,-1.,-1.1538802321039E-15));
#841=DIRECTION('ref_axis',(-1.,-2.05039060916755E-29,-2.98288029786695E-30));
#842=DIRECTION('',(-1.,-2.04558728064134E-29,-2.66225843453816E-16));
#843=DIRECTION('',(1.,0.,0.));
#844=DIRECTION('',(-8.88178419700125E-16,1.1538802321039E-15,-1.));
#845=DIRECTION('center_axis',(-2.07630655444499E-29,1.,1.1538802321039E-15));
#846=DIRECTION('ref_axis',(-1.77635683940025E-15,0.,1.));
#847=DIRECTION('',(1.,2.07630655444499E-29,0.));
#848=DIRECTION('center_axis',(1.,0.,0.));
#849=DIRECTION('ref_axis',(0.,1.,0.));
#850=DIRECTION('',(1.,0.,0.));
#851=DIRECTION('center_axis',(-1.,-4.49640324973191E-15,-1.11022302462516E-16));
#852=DIRECTION('ref_axis',(0.,1.,0.));
#853=DIRECTION('center_axis',(1.,0.,-8.88178419700125E-16));
#854=DIRECTION('ref_axis',(0.,1.,0.));
#855=DIRECTION('center_axis',(1.,0.,-8.88178419700125E-16));
#856=DIRECTION('ref_axis',(8.88178419700125E-16,0.,1.));
#857=DIRECTION('',(0.,-1.,0.));
#858=DIRECTION('',(8.88178419700125E-16,4.49280937426657E-30,1.));
#859=DIRECTION('',(0.,-1.,0.));
#860=DIRECTION('',(-8.88178419700125E-16,-4.49280937426657E-30,-1.));
#861=DIRECTION('',(0.,-1.,0.));
#862=DIRECTION('center_axis',(1.,0.,-8.88178419700125E-16));
#863=DIRECTION('ref_axis',(0.,1.,0.));
#864=DIRECTION('center_axis',(1.,0.,-8.88178419700125E-16));
#865=DIRECTION('ref_axis',(0.,1.,0.));
#866=DIRECTION('center_axis',(1.,0.,-8.88178419700125E-16));
#867=DIRECTION('ref_axis',(0.,1.,0.));
#868=DIRECTION('center_axis',(0.,-1.,0.));
#869=DIRECTION('ref_axis',(-1.77635683940025E-15,0.,1.));
#870=DIRECTION('',(0.,-1.,0.));
#871=DIRECTION('center_axis',(4.49640324973191E-15,-1.,4.99201041585175E-31));
#872=DIRECTION('ref_axis',(-1.77635683940025E-15,0.,1.));
#873=DIRECTION('center_axis',(1.,0.,0.));
#874=DIRECTION('ref_axis',(0.,1.,0.));
#875=DIRECTION('',(1.,0.,0.));
#876=DIRECTION('center_axis',(-0.707106765381474,-0.70710679699162,-7.85046211794731E-17));
#877=DIRECTION('ref_axis',(-0.70710679699162,0.707106765381474,0.));
#878=DIRECTION('center_axis',(1.,0.,0.));
#879=DIRECTION('ref_axis',(0.,1.,0.));
#880=DIRECTION('',(1.,0.,0.));
#881=DIRECTION('center_axis',(-0.707106849675176,0.707106712697913,-7.8504630537954E-17));
#882=DIRECTION('ref_axis',(0.707106712697913,0.707106849675176,0.));
#883=DIRECTION('center_axis',(-1.48029736616688E-16,0.,1.));
#884=DIRECTION('ref_axis',(1.,4.49640324973191E-15,1.48029736616688E-16));
#885=DIRECTION('center_axis',(-2.66225843453816E-16,4.26362504329927E-17,
1.));
#886=DIRECTION('ref_axis',(1.,4.49640324973191E-15,1.48029736616688E-16));
#887=DIRECTION('',(-1.48029736616688E-16,0.,1.));
#888=DIRECTION('center_axis',(1.77635683940025E-16,0.,-1.));
#889=DIRECTION('ref_axis',(1.,4.49640324973191E-15,1.48029736616688E-16));
#890=DIRECTION('center_axis',(0.,-1.,0.));
#891=DIRECTION('ref_axis',(1.,0.,8.88178419700127E-16));
#892=DIRECTION('center_axis',(4.49640324973191E-15,-1.,4.99201041585175E-31));
#893=DIRECTION('ref_axis',(1.,0.,8.88178419700127E-16));
#894=DIRECTION('',(0.,-1.,0.));
#895=DIRECTION('center_axis',(-4.49640324973191E-15,1.,-4.99201041585175E-31));
#896=DIRECTION('ref_axis',(1.,0.,8.88178419700127E-16));
#897=DIRECTION('center_axis',(0.,0.,1.));
#898=DIRECTION('ref_axis',(-1.,0.,0.));
#899=DIRECTION('',(0.,-1.,0.));
#900=DIRECTION('',(1.,4.49640324973191E-15,0.));
#901=DIRECTION('center_axis',(0.,0.,1.));
#902=DIRECTION('ref_axis',(-4.49640324973191E-15,1.,-4.99201041585172E-31));
#903=DIRECTION('',(-1.,-4.49640324973191E-15,0.));
#904=DIRECTION('center_axis',(0.,-1.,0.));
#905=DIRECTION('ref_axis',(-1.77635683940025E-15,0.,1.));
#906=DIRECTION('center_axis',(-4.49640324973191E-15,1.,-4.99201041585175E-31));
#907=DIRECTION('ref_axis',(-1.77635683940025E-15,0.,1.));
#908=DIRECTION('center_axis',(1.77635683940025E-16,0.,-1.));
#909=DIRECTION('ref_axis',(1.,0.,1.77635683940025E-16));
#910=DIRECTION('',(1.,4.49640324973191E-15,1.77635683940025E-16));
#911=DIRECTION('center_axis',(1.77635683940025E-16,0.,-1.));
#912=DIRECTION('ref_axis',(-4.49640324973191E-15,1.,-4.99201041585172E-31));
#913=DIRECTION('',(-1.,-4.49640324973191E-15,-1.77635683940025E-16));
#914=DIRECTION('center_axis',(-4.49640324973191E-15,1.,-4.99201041585175E-31));
#915=DIRECTION('ref_axis',(-1.,-4.49640324973191E-15,-2.66225843453816E-16));
#916=DIRECTION('',(-1.11022302462516E-16,0.,1.));
#917=DIRECTION('',(-1.,-4.49640324973191E-15,-2.66225843453816E-16));
#918=DIRECTION('',(-1.11022302462516E-16,0.,1.));
#919=DIRECTION('',(1.,4.49640324973191E-15,2.66225843453816E-16));
#920=DIRECTION('',(-1.11022302462516E-16,0.,1.));
#921=DIRECTION('center_axis',(-1.11022302462516E-16,0.,1.));
#922=DIRECTION('ref_axis',(-4.49640324973191E-15,1.,-4.99201041585172E-31));
#923=DIRECTION('',(-1.11022302462516E-16,0.,1.));
#924=DIRECTION('center_axis',(-2.66225843453816E-16,4.26362504329927E-17,
1.));
#925=DIRECTION('ref_axis',(-4.49640324973191E-15,1.,-4.99201041585172E-31));
#926=DIRECTION('center_axis',(-3.36768732806798E-15,0.707106781186551,0.707106781186544));
#927=DIRECTION('ref_axis',(1.,0.,4.76262909318577E-15));
#928=DIRECTION('',(4.18691322315675E-15,-0.707106781186544,0.707106781186551));
#929=DIRECTION('',(1.,4.49640324973191E-15,2.66225843453816E-16));
#930=DIRECTION('',(0.281084629531695,0.678598346240629,-0.678598346240627));
#931=DIRECTION('center_axis',(0.499999988824125,0.500000011175874,0.707106781186548));
#932=DIRECTION('ref_axis',(0.816496587011102,0.,-0.577350260586433));
#933=DIRECTION('',(0.70710679699162,-0.707106765381474,2.18398484572689E-16));
#934=DIRECTION('',(0.678598342851066,0.281084645897948,-0.678598342851065));
#935=DIRECTION('',(-0.70710679699162,0.707106765381474,-2.18398484572689E-16));
#936=DIRECTION('center_axis',(0.707106781186547,3.2095856106402E-15,0.707106781186548));
#937=DIRECTION('ref_axis',(0.707106781186548,0.,-0.707106781186547));
#938=DIRECTION('',(4.49640324973191E-15,-1.,4.26362504329939E-17));
#939=DIRECTION('',(0.678598351889898,-0.281084602254613,-0.678598351889893));
#940=DIRECTION('',(-4.49640324973191E-15,1.,-4.26362504329939E-17));
#941=DIRECTION('center_axis',(0.500000048428773,-0.499999951571222,0.707106781186548));
#942=DIRECTION('ref_axis',(0.816496554566441,0.,-0.577350306470111));
#943=DIRECTION('',(0.707106712697913,0.707106849675176,1.58101696274222E-16));
#944=DIRECTION('',(-0.707106712697913,-0.707106849675176,-1.58101696274222E-16));
#945=DIRECTION('',(0.281084673175019,-0.678598337201796,-0.678598337201802));
#946=DIRECTION('center_axis',(0.,0.,-1.));
#947=DIRECTION('ref_axis',(-4.49640324973191E-15,1.,-1.75561031194684E-17));
#948=DIRECTION('',(6.98926375366441E-8,0.707106781186542,0.70710678118655));
#949=DIRECTION('center_axis',(2.66225843453816E-16,-4.26362504329927E-17,
-1.));
#950=DIRECTION('ref_axis',(-4.49640324973191E-15,1.,-4.26362504329939E-17));
#951=DIRECTION('center_axis',(2.99118712960138E-15,-0.707106781186551,0.707106781186544));
#952=DIRECTION('ref_axis',(1.,0.,-4.23017740627814E-15));
#953=DIRECTION('',(-1.,-4.49640324973191E-15,-2.66225843453816E-16));
#954=DIRECTION('',(1.,4.49640324973191E-15,2.66225843453816E-16));
#955=DIRECTION('center_axis',(4.49640324973191E-15,-1.,4.99201041585175E-31));
#956=DIRECTION('ref_axis',(1.,4.49640324973191E-15,2.66225843453816E-16));
#957=DIRECTION('',(-1.11022302462516E-16,0.,1.));
#958=DIRECTION('',(-1.,-4.49640324973191E-15,-2.66225843453816E-16));
#959=DIRECTION('',(-1.11022302462516E-16,0.,1.));
#960=DIRECTION('center_axis',(-1.11022302462516E-16,0.,1.));
#961=DIRECTION('ref_axis',(-4.49640324973191E-15,1.,-4.99201041585172E-31));
#962=DIRECTION('center_axis',(2.66225843453816E-16,-4.26362504329927E-17,
-1.));
#963=DIRECTION('ref_axis',(-4.49640324973191E-15,1.,-4.99201041585172E-31));
#964=DIRECTION('center_axis',(-2.66225843453816E-16,4.26362504329927E-17,
1.));
#965=DIRECTION('ref_axis',(1.,4.49640324973191E-15,2.66225843453816E-16));
#966=DIRECTION('center_axis',(0.707106781186549,3.14928884702913E-15,-0.707106781186546));
#967=DIRECTION('ref_axis',(-0.707106781186546,0.,-0.707106781186549));
#968=DIRECTION('',(-4.49640324973191E-15,1.,-4.26362504329939E-17));
#969=DIRECTION('',(0.678598342851062,0.281084645897956,0.678598342851066));
#970=DIRECTION('',(4.49640324973191E-15,-1.,4.26362504329939E-17));
#971=DIRECTION('',(0.678598351889894,-0.281084602254614,0.678598351889897));
#972=DIRECTION('center_axis',(0.499999988824125,0.500000011175873,-0.707106781186549));
#973=DIRECTION('ref_axis',(-0.816496587011103,0.,-0.577350260586432));
#974=DIRECTION('',(-0.70710679699162,0.707106765381474,-2.18398484572689E-16));
#975=DIRECTION('',(0.281084629531702,0.678598346240627,0.678598346240626));
#976=DIRECTION('',(0.70710679699162,-0.707106765381474,2.18398484572689E-16));
#977=DIRECTION('center_axis',(3.36768732806798E-15,-0.707106781186551,-0.707106781186544));
#978=DIRECTION('ref_axis',(-1.,0.,-4.76262909318577E-15));
#979=DIRECTION('',(-3.14018491736758E-15,0.70710678118654,-0.707106781186555));
#980=DIRECTION('',(1.,4.49640324973191E-15,2.66225843453816E-16));
#981=DIRECTION('',(0.281084673175018,-0.678598337201796,0.678598337201802));
#982=DIRECTION('center_axis',(0.,0.,1.));
#983=DIRECTION('ref_axis',(-4.49640324973191E-15,1.,-1.75561031194684E-17));
#984=DIRECTION('',(3.14018491736755E-15,-0.707106781186548,-0.707106781186547));
#985=DIRECTION('center_axis',(-2.66225843453816E-16,4.26362504329927E-17,
1.));
#986=DIRECTION('ref_axis',(-4.49640324973191E-15,1.,-4.26362504329939E-17));
#987=DIRECTION('center_axis',(-2.99118712960138E-15,0.707106781186551,-0.707106781186544));
#988=DIRECTION('ref_axis',(-1.,0.,4.23017740627814E-15));
#989=DIRECTION('',(-1.,-4.49640324973191E-15,-2.66225843453816E-16));
#990=DIRECTION('center_axis',(0.500000048428774,-0.499999951571222,-0.707106781186547));
#991=DIRECTION('ref_axis',(-0.81649655456644,0.,-0.577350306470112));
#992=DIRECTION('',(-0.707106712697913,-0.707106849675176,-1.58101696274222E-16));
#993=DIRECTION('',(0.707106712697913,0.707106849675176,1.58101696274222E-16));
#994=DIRECTION('center_axis',(-2.66225843453816E-16,4.26362504329927E-17,
1.));
#995=DIRECTION('ref_axis',(1.,4.49640324973191E-15,2.66225843453816E-16));
#996=DIRECTION('center_axis',(0.707106765381474,0.70710679699162,7.85046211794731E-17));
#997=DIRECTION('ref_axis',(-0.70710679699162,0.707106765381474,-2.18398484572689E-16));
#998=DIRECTION('',(-1.11022302462516E-16,0.,1.));
#999=DIRECTION('center_axis',(1.,4.49640324973191E-15,1.11022302462516E-16));
#1000=DIRECTION('ref_axis',(-4.49640324973191E-15,1.,-4.26362504329939E-17));
#1001=DIRECTION('',(-1.11022302462516E-16,0.,1.));
#1002=DIRECTION('center_axis',(0.707106849675176,-0.707106712697913,7.8504630537954E-17));
#1003=DIRECTION('ref_axis',(0.707106712697913,0.707106849675176,1.58101696274222E-16));
#1004=CARTESIAN_POINT('',(0.,0.,0.));
#1005=CARTESIAN_POINT('Origin',(41.9749389172519,-180.393804938201,10.0000000000007));
#1006=CARTESIAN_POINT('',(51.9749389172519,-176.708714891367,10.0000000000007));
#1007=CARTESIAN_POINT('',(51.8170601359504,-176.708714891367,10.0000000000008));
#1008=CARTESIAN_POINT('',(0.,-176.708714891367,10.0000000000007));
#1009=CARTESIAN_POINT('',(51.9749389172519,-175.393804938201,10.0000000000007));
#1010=CARTESIAN_POINT('',(51.9749389172519,-175.393804938201,10.0000000000007));
#1011=CARTESIAN_POINT('',(51.8170601359504,-175.393804938201,10.0000000000008));
#1012=CARTESIAN_POINT('',(31.9749389172519,-175.393804938201,10.0000000000007));
#1013=CARTESIAN_POINT('',(51.8170601359504,-90.1969024691005,10.0000000000009));
#1014=CARTESIAN_POINT('Origin',(41.9749389172519,-180.393804938201,10.0000000000007));
#1015=CARTESIAN_POINT('',(51.9749389172519,-185.250002990165,10.0000000000007));
#1016=CARTESIAN_POINT('',(51.8170601359504,-185.250002990165,10.0000000000007));
#1017=CARTESIAN_POINT('',(0.,-185.250002990165,10.0000000000007));
#1018=CARTESIAN_POINT('',(51.9749389172519,-181.291290443249,10.0000000000007));
#1019=CARTESIAN_POINT('',(51.9749389172519,-175.393804938201,10.0000000000007));
#1020=CARTESIAN_POINT('',(51.8170601359504,-181.291290443249,10.0000000000007));
#1021=CARTESIAN_POINT('',(0.,-181.291290443249,10.0000000000007));
#1022=CARTESIAN_POINT('',(51.8170601359504,-90.1969024691005,10.0000000000009));
#1023=CARTESIAN_POINT('Origin',(31.9749389172519,-175.393804938201,40.0000000000007));
#1024=CARTESIAN_POINT('',(31.9749389172519,-175.393804938201,31.0270493039184));
#1025=CARTESIAN_POINT('',(51.9749389172519,-175.393804938201,31.0270493039184));
#1026=CARTESIAN_POINT('',(37.0091719383346,-175.393804938201,31.0270493039184));
#1027=CARTESIAN_POINT('',(31.9749389172519,-175.393804938201,20.8140787868115));
#1028=CARTESIAN_POINT('',(31.9749389172519,-175.393804938201,40.0000000000007));
#1029=CARTESIAN_POINT('',(46.8170601359504,-175.393804938201,20.8140787868115));
#1030=CARTESIAN_POINT('',(39.3959995266011,-175.393804938201,20.8140787868115));
#1031=CARTESIAN_POINT('',(51.8170601359504,-175.393804938201,15.8140787868115));
#1032=CARTESIAN_POINT('Origin',(46.8170601359504,-175.393804938201,15.8140787868115));
#1033=CARTESIAN_POINT('',(51.8170601359504,-175.393804938201,22.907039393406));
#1034=CARTESIAN_POINT('',(51.9749389172519,-175.393804938201,40.0000000000008));
#1035=CARTESIAN_POINT('Origin',(31.9749389172519,-185.393804938201,40.0000000000007));
#1036=CARTESIAN_POINT('',(31.9749389172519,-185.393804938201,31.0270493039184));
#1037=CARTESIAN_POINT('',(31.9749389172519,-182.313060631396,31.0270493039184));
#1038=CARTESIAN_POINT('',(31.9749389172519,-185.393804938201,20.8140787868115));
#1039=CARTESIAN_POINT('',(31.9749389172519,-185.393804938201,40.0000000000007));
#1040=CARTESIAN_POINT('',(31.9749389172519,-92.6969024691005,20.8140787868115));
#1041=CARTESIAN_POINT('Origin',(51.9749389172519,-175.393804938201,40.0000000000008));
#1042=CARTESIAN_POINT('',(51.9749389172519,-185.393804938201,31.0270493039184));
#1043=CARTESIAN_POINT('',(51.9749389172519,-177.313060631396,31.0270493039184));
#1044=CARTESIAN_POINT('',(51.9749389172519,-181.500002667308,11.0000001639128));
#1045=CARTESIAN_POINT('Origin',(51.9749389172519,-179.000002667308,11.0000001639128));
#1046=CARTESIAN_POINT('Origin',(51.9749389172519,-179.000002667308,11.0000001639128));
#1047=CARTESIAN_POINT('',(51.9749389172519,-185.393804938201,12.0931717820785));
#1048=CARTESIAN_POINT('Origin',(51.9749389172519,-186.000002771616,11.0000001639128));
#1049=CARTESIAN_POINT('',(51.9749389172519,-185.393804938201,40.0000000000007));
#1050=CARTESIAN_POINT('Origin',(51.9749389172519,-185.393804938201,40.0000000000007));
#1051=CARTESIAN_POINT('',(47.0091719383346,-185.393804938201,31.0270493039184));
#1052=CARTESIAN_POINT('',(51.8170601359504,-185.393804938201,12.0931717820785));
#1053=CARTESIAN_POINT('',(0.,-185.393804938201,12.0931717820785));
#1054=CARTESIAN_POINT('',(51.8170601359504,-185.393804938201,15.8140787868115));
#1055=CARTESIAN_POINT('',(51.8170601359504,-185.393804938201,22.907039393406));
#1056=CARTESIAN_POINT('',(46.8170601359504,-185.393804938201,20.8140787868115));
#1057=CARTESIAN_POINT('Origin',(46.8170601359504,-185.393804938201,15.8140787868115));
#1058=CARTESIAN_POINT('',(49.3959995266011,-185.393804938201,20.8140787868115));
#1059=CARTESIAN_POINT('Origin',(0.,-179.000002667308,11.0000001639128));
#1060=CARTESIAN_POINT('',(62.0434047358999,-181.500002667308,11.0000001639128));
#1061=CARTESIAN_POINT('',(0.,-181.500002667308,11.0000001639128));
#1062=CARTESIAN_POINT('Origin',(62.0434047358999,-179.000002667308,11.0000001639128));
#1063=CARTESIAN_POINT('Origin',(51.8170601359504,-179.000002667308,11.0000001639128));
#1064=CARTESIAN_POINT('Origin',(51.8170601359504,0.,5.81407878681152));
#1065=CARTESIAN_POINT('',(51.8170601359504,-169.232316324592,15.8140787868115));
#1066=CARTESIAN_POINT('',(51.8170601359504,0.,15.8140787868115));
#1067=CARTESIAN_POINT('',(51.8170601359504,-169.232316324592,5.81407878681152));
#1068=CARTESIAN_POINT('',(51.8170601359504,-169.232316324592,-1.57943595463503));
#1069=CARTESIAN_POINT('',(51.8170601359504,-189.232316324592,5.81407878681152));
#1070=CARTESIAN_POINT('',(51.8170601359504,0.,5.81407878681152));
#1071=CARTESIAN_POINT('',(51.8170601359504,-189.232316324592,15.8140787868115));
#1072=CARTESIAN_POINT('',(51.8170601359504,-189.232316324592,-1.57943595463504));
#1073=CARTESIAN_POINT('',(51.8170601359504,0.,15.8140787868115));
#1074=CARTESIAN_POINT('',(51.8170601359504,-187.250002771616,11.0000001639128));
#1075=CARTESIAN_POINT('Origin',(51.8170601359504,-186.000002771616,11.0000001639128));
#1076=CARTESIAN_POINT('Origin',(51.8170601359504,-186.000002771616,11.0000001639128));
#1077=CARTESIAN_POINT('',(51.8170601359504,-173.250002563,11.0000001639128));
#1078=CARTESIAN_POINT('Origin',(51.8170601359504,-172.000002563,11.0000001639128));
#1079=CARTESIAN_POINT('Origin',(46.8170601359504,0.,15.8140787868115));
#1080=CARTESIAN_POINT('',(46.8170601359504,-169.232316324592,20.8140787868115));
#1081=CARTESIAN_POINT('',(46.8170601359504,0.,20.8140787868115));
#1082=CARTESIAN_POINT('Origin',(46.8170601359504,-169.232316324592,15.8140787868115));
#1083=CARTESIAN_POINT('Origin',(0.,-172.000002563,11.0000001639128));
#1084=CARTESIAN_POINT('',(61.0610916009473,-173.250002563,11.0000001639128));
#1085=CARTESIAN_POINT('',(0.,-173.250002563,11.0000001639128));
#1086=CARTESIAN_POINT('Origin',(59.8110915450679,-172.000002563,11.0000001639128));
#1087=CARTESIAN_POINT('Origin',(0.,-186.000002771616,11.0000001639128));
#1088=CARTESIAN_POINT('',(59.0257183519066,-187.250002771616,11.0000001639128));
#1089=CARTESIAN_POINT('',(0.,-187.250002771616,11.0000001639128));
#1090=CARTESIAN_POINT('Origin',(60.2757181097627,-186.000002771616,11.0000001639128));
#1091=CARTESIAN_POINT('Origin',(32.0434051829347,-179.232316324592,-18.9729506960816));
#1092=CARTESIAN_POINT('',(28.5434051829347,-179.232316324592,-8.97295069608159));
#1093=CARTESIAN_POINT('Origin',(32.0434051829347,-179.232316324592,-8.97295069608159));
#1094=CARTESIAN_POINT('',(28.5434051829347,-179.232316324592,0.81407878681152));
#1095=CARTESIAN_POINT('',(28.5434051829347,-179.232316324592,-18.9729506960816));
#1096=CARTESIAN_POINT('Origin',(32.0434051829347,-179.232316324592,0.814078786811521));
#1097=CARTESIAN_POINT('Origin',(46.8170601359504,0.,5.81407878681151));
#1098=CARTESIAN_POINT('',(46.8170601359504,-169.232316324592,0.814078786811523));
#1099=CARTESIAN_POINT('Origin',(46.8170601359504,-169.232316324592,5.81407878681151));
#1100=CARTESIAN_POINT('',(46.8170601359504,-189.232316324592,0.814078786811523));
#1101=CARTESIAN_POINT('',(46.8170601359504,0.,0.814078786811523));
#1102=CARTESIAN_POINT('Origin',(46.8170601359504,-189.232316324592,5.81407878681151));
#1103=CARTESIAN_POINT('Origin',(46.8170601359504,0.,20.8140787868115));
#1104=CARTESIAN_POINT('',(46.8170601359504,-189.232316324592,20.8140787868115));
#1105=CARTESIAN_POINT('',(46.8170601359504,0.,20.8140787868115));
#1106=CARTESIAN_POINT('',(32.0434041945036,-189.232316324592,20.8140787868115));
#1107=CARTESIAN_POINT('',(39.430232659443,-189.232316324592,20.8140787868115));
#1108=CARTESIAN_POINT('',(32.0434051829347,-169.232316324592,20.8140787868115));
#1109=CARTESIAN_POINT('Origin',(32.0434051829347,-179.232316324592,20.8140787868115));
#1110=CARTESIAN_POINT('',(51.9302326594429,-169.232316324592,20.8140787868115));
#1111=CARTESIAN_POINT('Origin',(46.8170601359504,0.,15.8140787868115));
#1112=CARTESIAN_POINT('Origin',(46.8170601359504,-189.232316324592,15.8140787868115));
#1113=CARTESIAN_POINT('Origin',(21.8170601359504,0.,0.814078786811518));
#1114=CARTESIAN_POINT('',(32.0434051829347,-169.232316324592,0.814078786811521));
#1115=CARTESIAN_POINT('',(39.4302326594429,-169.232316324592,0.814078786811522));
#1116=CARTESIAN_POINT('',(32.0434041945036,-189.232316324592,0.814078786811521));
#1117=CARTESIAN_POINT('Origin',(32.0434051829347,-179.232316324592,0.81407878681152));
#1118=CARTESIAN_POINT('',(26.930232659443,-189.232316324592,0.81407878681152));
#1119=CARTESIAN_POINT('Origin',(57.0434051829347,-169.232316324592,-8.97295069608158));
#1120=CARTESIAN_POINT('',(32.0434051829347,-169.232316324592,28.0270493039184));
#1121=CARTESIAN_POINT('',(32.0434051829347,-169.232316324592,-8.97295069608159));
#1122=CARTESIAN_POINT('',(57.0434051829347,-169.232316324592,28.0270493039184));
#1123=CARTESIAN_POINT('',(49.543405071176,-169.232316324592,28.0270493039184));
#1124=CARTESIAN_POINT('',(57.0434051829347,-169.232316324592,-5.97295069608158));
#1125=CARTESIAN_POINT('',(57.0434051829347,-169.232316324592,-8.97295069608158));
#1126=CARTESIAN_POINT('',(32.0434051829347,-169.232316324592,-5.97295069608159));
#1127=CARTESIAN_POINT('',(49.543405071176,-169.232316324592,-5.97295069608158));
#1128=CARTESIAN_POINT('',(32.0434051829347,-169.232316324592,-8.97295069608159));
#1129=CARTESIAN_POINT('Origin',(32.0434051829347,-179.232316324592,-8.97295069608159));
#1130=CARTESIAN_POINT('',(32.0434041945036,-189.232316324592,28.0270493039184));
#1131=CARTESIAN_POINT('',(32.0434041945036,-189.232316324592,-8.97295069608159));
#1132=CARTESIAN_POINT('Origin',(32.0434051829347,-179.232316324592,28.0270493039184));
#1133=CARTESIAN_POINT('Origin',(49.543405071176,-170.732316324592,29.5270493039184));
#1134=CARTESIAN_POINT('',(32.0434051829347,-172.232316324592,31.0270493039184));
#1135=CARTESIAN_POINT('',(32.0434051829347,-169.232316324592,28.0270493039184));
#1136=CARTESIAN_POINT('',(55.8007645350955,-172.232316324592,31.0270493039184));
#1137=CARTESIAN_POINT('',(49.543405071176,-172.232316324592,31.0270493039184));
#1138=CARTESIAN_POINT('',(55.8007645350955,-172.232316324592,31.0270493039184));
#1139=CARTESIAN_POINT('Origin',(57.2327445878276,-171.542976017165,29.5270493039184));
#1140=CARTESIAN_POINT('',(59.0434047358999,-175.474956380439,31.0270493039184));
#1141=CARTESIAN_POINT('',(56.1720844397554,-172.603636212652,31.0270493039184));
#1142=CARTESIAN_POINT('',(62.0434047358999,-174.23231565404,28.0270493039184));
#1143=CARTESIAN_POINT('',(59.0434047358999,-175.474956380439,31.0270493039184));
#1144=CARTESIAN_POINT('',(58.2934047358998,-170.482315821678,28.0270493039184));
#1145=CARTESIAN_POINT('Origin',(60.5434047358999,-181.732316063821,29.5270493039184));
#1146=CARTESIAN_POINT('',(59.0434047358999,-182.989675286145,31.0270493039184));
#1147=CARTESIAN_POINT('',(59.0434047358999,-181.732316063821,31.0270493039184));
#1148=CARTESIAN_POINT('',(62.0434047358999,-184.232315803051,28.0270493039184));
#1149=CARTESIAN_POINT('',(59.0434047358999,-182.989675286145,31.0270493039184));
#1150=CARTESIAN_POINT('',(62.0434047358999,-181.732316063821,28.0270493039184));
#1151=CARTESIAN_POINT('Origin',(54.7327455789742,-189.421655827136,29.5270493039184));
#1152=CARTESIAN_POINT('',(57.0434051829348,-189.232316324592,28.0270493039184));
#1153=CARTESIAN_POINT('',(55.793405853487,-190.482315896183,28.0270493039184));
#1154=CARTESIAN_POINT('',(55.800764325602,-186.232316324592,31.0270493039184));
#1155=CARTESIAN_POINT('',(53.6720853044615,-188.36099575809,31.0270493039184));
#1156=CARTESIAN_POINT('',(55.800764325602,-186.232316324592,31.0270493039184));
#1157=CARTESIAN_POINT('Origin',(32.0434051829347,-179.232316324592,29.5270493039184));
#1158=CARTESIAN_POINT('',(32.0434044910329,-186.232316324592,31.0270493039184));
#1159=CARTESIAN_POINT('',(32.0434041945036,-189.232316324592,28.0270493039184));
#1160=CARTESIAN_POINT('Origin',(32.0434051829347,-179.232316324592,31.0270493039184));
#1161=CARTESIAN_POINT('Origin',(37.0434050711761,-187.732316324592,29.5270493039184));
#1162=CARTESIAN_POINT('',(37.0434050711761,-186.232316324592,31.0270493039184));
#1163=CARTESIAN_POINT('',(37.0434050711761,-189.232316324592,28.0270493039184));
#1164=CARTESIAN_POINT('Origin',(32.0434051829348,-189.232316324592,-8.97295069608159));
#1165=CARTESIAN_POINT('',(32.0434041945036,-189.232316324592,-5.97295069608159));
#1166=CARTESIAN_POINT('',(32.0434041945036,-189.232316324592,-8.97295069608159));
#1167=CARTESIAN_POINT('',(57.0434051829348,-189.232316324592,-5.97295069608158));
#1168=CARTESIAN_POINT('',(37.0434050711761,-189.232316324592,-5.97295069608159));
#1169=CARTESIAN_POINT('',(57.0434051829348,-189.232316324592,-8.97295069608158));
#1170=CARTESIAN_POINT('Origin',(32.0434051829347,-179.232316324592,-8.97295069608159));
#1171=CARTESIAN_POINT('Origin',(32.0434051829347,-179.232316324592,-5.97295069608159));
#1172=CARTESIAN_POINT('Origin',(42.0434049594173,-179.232316324592,31.0270493039184));
#1173=CARTESIAN_POINT('Origin',(60.5434047358999,-181.732316063821,-7.47295069608158));
#1174=CARTESIAN_POINT('',(59.0434047358999,-182.989675286145,-8.97295069608158));
#1175=CARTESIAN_POINT('',(59.0434047358999,-175.474956380439,-8.97295069608158));
#1176=CARTESIAN_POINT('',(59.0434047358999,-181.732316063821,-8.97295069608158));
#1177=CARTESIAN_POINT('',(62.0434047358999,-174.23231565404,-5.97295069608158));
#1178=CARTESIAN_POINT('',(59.0434047358999,-175.474956380439,-8.97295069608158));
#1179=CARTESIAN_POINT('',(62.0434047358999,-184.232315803051,-5.97295069608158));
#1180=CARTESIAN_POINT('',(62.0434047358999,-181.732316063821,-5.97295069608158));
#1181=CARTESIAN_POINT('',(59.0434047358999,-182.989675286145,-8.97295069608158));
#1182=CARTESIAN_POINT('Origin',(57.2327445878276,-171.542976017165,-7.47295069608158));
#1183=CARTESIAN_POINT('',(55.8007645350954,-172.232316324592,-8.97295069608158));
#1184=CARTESIAN_POINT('',(56.1720844397554,-172.603636212652,-8.97295069608158));
#1185=CARTESIAN_POINT('',(55.8007645350954,-172.232316324592,-8.97295069608158));
#1186=CARTESIAN_POINT('',(58.2934047358999,-170.482315821678,-5.97295069608158));
#1187=CARTESIAN_POINT('Origin',(37.0434050711761,-187.732316324592,-7.47295069608159));
#1188=CARTESIAN_POINT('',(32.0434041945036,-186.232316324592,-8.97295069608159));
#1189=CARTESIAN_POINT('',(32.0434041945036,-189.232316324592,-5.97295069608159));
#1190=CARTESIAN_POINT('',(55.800764325602,-186.232316324592,-8.97295069608158));
#1191=CARTESIAN_POINT('',(37.0434050711761,-186.232316324592,-8.97295069608159));
#1192=CARTESIAN_POINT('',(55.800764325602,-186.232316324592,-8.97295069608158));
#1193=CARTESIAN_POINT('Origin',(32.0434051829347,-179.232316324592,-7.47295069608159));
#1194=CARTESIAN_POINT('',(32.0434051829347,-172.232316324592,-8.97295069608159));
#1195=CARTESIAN_POINT('',(32.0434051829347,-169.232316324592,-5.97295069608159));
#1196=CARTESIAN_POINT('Origin',(32.0434051829347,-179.232316324592,-8.97295069608159));
#1197=CARTESIAN_POINT('Origin',(49.543405071176,-170.732316324592,-7.47295069608158));
#1198=CARTESIAN_POINT('',(49.543405071176,-172.232316324592,-8.97295069608158));
#1199=CARTESIAN_POINT('Origin',(54.7327455789743,-189.421655827136,-7.47295069608158));
#1200=CARTESIAN_POINT('',(55.793405853487,-190.482315896183,-5.97295069608158));
#1201=CARTESIAN_POINT('',(53.6720853044615,-188.36099575809,-8.97295069608158));
#1202=CARTESIAN_POINT('Origin',(42.0434049594173,-179.232316324592,-8.97295069608159));
#1203=CARTESIAN_POINT('Origin',(62.0434047358999,-174.23231565404,-8.97295069608158));
#1204=CARTESIAN_POINT('',(62.0434047358999,-174.23231565404,-8.97295069608158));
#1205=CARTESIAN_POINT('Origin',(62.0434047358999,-184.232315803051,-8.97295069608158));
#1206=CARTESIAN_POINT('',(62.0434047358999,-184.232315803051,-8.97295069608158));
#1207=CARTESIAN_POINT('Origin',(57.0434051829348,-189.232316324592,-8.97295069608158));
#1208=UNCERTAINTY_MEASURE_WITH_UNIT(LENGTH_MEASURE(0.01),#1212,
'DISTANCE_ACCURACY_VALUE',
'Maximum model space distance between geometric entities at asserted c
onnectivities');
#1209=UNCERTAINTY_MEASURE_WITH_UNIT(LENGTH_MEASURE(0.01),#1212,
'DISTANCE_ACCURACY_VALUE',
'Maximum model space distance between geometric entities at asserted c
onnectivities');
#1210=(
GEOMETRIC_REPRESENTATION_CONTEXT(3)
GLOBAL_UNCERTAINTY_ASSIGNED_CONTEXT((#1208))
GLOBAL_UNIT_ASSIGNED_CONTEXT((#1212,#1214,#1215))
REPRESENTATION_CONTEXT('','3D')
);
#1211=(
GEOMETRIC_REPRESENTATION_CONTEXT(3)
GLOBAL_UNCERTAINTY_ASSIGNED_CONTEXT((#1209))
GLOBAL_UNIT_ASSIGNED_CONTEXT((#1212,#1214,#1215))
REPRESENTATION_CONTEXT('','3D')
);
#1212=(
LENGTH_UNIT()
NAMED_UNIT(*)
SI_UNIT(.MILLI.,.METRE.)
);
#1213=(
LENGTH_UNIT()
NAMED_UNIT(*)
SI_UNIT($,.METRE.)
);
#1214=(
NAMED_UNIT(*)
PLANE_ANGLE_UNIT()
SI_UNIT($,.RADIAN.)
);
#1215=(
NAMED_UNIT(*)
SI_UNIT($,.STERADIAN.)
SOLID_ANGLE_UNIT()
);
#1216=SHAPE_DEFINITION_REPRESENTATION(#1217,#1218);
#1217=PRODUCT_DEFINITION_SHAPE('',$,#1220);
#1218=SHAPE_REPRESENTATION('',(#740),#1210);
#1219=PRODUCT_DEFINITION_CONTEXT('part definition',#1224,'design');
#1220=PRODUCT_DEFINITION('arm_part6','arm_part6',#1221,#1219);
#1221=PRODUCT_DEFINITION_FORMATION('',$,#1226);
#1222=PRODUCT_RELATED_PRODUCT_CATEGORY('arm_part6','arm_part6',(#1226));
#1223=APPLICATION_PROTOCOL_DEFINITION('international standard',
'automotive_design',2009,#1224);
#1224=APPLICATION_CONTEXT(
'Core Data for Automotive Mechanical Design Process');
#1225=PRODUCT_CONTEXT('part definition',#1224,'mechanical');
#1226=PRODUCT('arm_part6','arm_part6',$,(#1225));
#1227=PRESENTATION_STYLE_ASSIGNMENT((#1228));
#1228=SURFACE_STYLE_USAGE(.BOTH.,#1229);
#1229=SURFACE_SIDE_STYLE('',(#1230));
#1230=SURFACE_STYLE_FILL_AREA(#1231);
#1231=FILL_AREA_STYLE('Steel - Satin',(#1232));
#1232=FILL_AREA_STYLE_COLOUR('Steel - Satin',#1233);
#1233=COLOUR_RGB('Steel - Satin',0.627450980392157,0.627450980392157,0.627450980392157);
ENDSEC;
END-ISO-10303-21;
