ISO-10303-21;
HEADER;
/* Generated by software containing ST-Developer
 * from STEP Tools, Inc. (www.steptools.com) 
 */

FILE_DESCRIPTION(
/* description */ (''),
/* implementation_level */ '2;1');

FILE_NAME(
/* name */ 'arm_part3.step',
/* time_stamp */ '2026-08-20T17:24:48+05:30',
/* author */ (''),
/* organization */ (''),
/* preprocessor_version */ 'ST-DEVELOPER v20.1',
/* originating_system */ 'Autodesk Translation Framework v15.8.0.0',
/* authorisation */ '');

FILE_SCHEMA (('AUTOMOTIVE_DESIGN { 1 0 10303 214 3 1 1 }'));
ENDSEC;

DATA;
#10=MECHANICAL_DESIGN_GEOMETRIC_PRESENTATION_REPRESENTATION('',(#13),#508);
#11=SHAPE_REPRESENTATION_RELATIONSHIP('SRR','None',#515,#12);
#12=ADVANCED_BREP_SHAPE_REPRESENTATION('',(#14),#507);
#13=STYLED_ITEM('',(#524),#14);
#14=MANIFOLD_SOLID_BREP('Body1',#292);
#15=FACE_BOUND('',#47,.T.);
#16=FACE_BOUND('',#52,.T.);
#17=FACE_BOUND('',#59,.T.);
#18=FACE_BOUND('',#60,.T.);
#19=FACE_BOUND('',#62,.T.);
#20=FACE_BOUND('',#63,.T.);
#21=PLANE('',#315);
#22=PLANE('',#320);
#23=PLANE('',#324);
#24=PLANE('',#326);
#25=PLANE('',#331);
#26=PLANE('',#335);
#27=PLANE('',#336);
#28=FACE_OUTER_BOUND('',#43,.T.);
#29=FACE_OUTER_BOUND('',#44,.T.);
#30=FACE_OUTER_BOUND('',#45,.T.);
#31=FACE_OUTER_BOUND('',#46,.T.);
#32=FACE_OUTER_BOUND('',#48,.T.);
#33=FACE_OUTER_BOUND('',#49,.T.);
#34=FACE_OUTER_BOUND('',#50,.T.);
#35=FACE_OUTER_BOUND('',#51,.T.);
#36=FACE_OUTER_BOUND('',#53,.T.);
#37=FACE_OUTER_BOUND('',#54,.T.);
#38=FACE_OUTER_BOUND('',#55,.T.);
#39=FACE_OUTER_BOUND('',#56,.T.);
#40=FACE_OUTER_BOUND('',#57,.T.);
#41=FACE_OUTER_BOUND('',#58,.T.);
#42=FACE_OUTER_BOUND('',#61,.T.);
#43=EDGE_LOOP('',(#191,#192,#193,#194));
#44=EDGE_LOOP('',(#195,#196,#197,#198));
#45=EDGE_LOOP('',(#199,#200,#201,#202));
#46=EDGE_LOOP('',(#203,#204,#205,#206));
#47=EDGE_LOOP('',(#207));
#48=EDGE_LOOP('',(#208,#209,#210,#211));
#49=EDGE_LOOP('',(#212,#213,#214,#215));
#50=EDGE_LOOP('',(#216,#217,#218,#219));
#51=EDGE_LOOP('',(#220,#221,#222,#223));
#52=EDGE_LOOP('',(#224));
#53=EDGE_LOOP('',(#225,#226,#227,#228,#229,#230,#231,#232,#233,#234));
#54=EDGE_LOOP('',(#235,#236,#237,#238));
#55=EDGE_LOOP('',(#239,#240,#241,#242));
#56=EDGE_LOOP('',(#243,#244,#245,#246,#247,#248,#249,#250,#251,#252));
#57=EDGE_LOOP('',(#253,#254,#255,#256));
#58=EDGE_LOOP('',(#257,#258,#259,#260));
#59=EDGE_LOOP('',(#261));
#60=EDGE_LOOP('',(#262));
#61=EDGE_LOOP('',(#263,#264,#265,#266));
#62=EDGE_LOOP('',(#267));
#63=EDGE_LOOP('',(#268));
#64=LINE('',#429,#87);
#65=LINE('',#435,#88);
#66=LINE('',#441,#89);
#67=LINE('',#446,#90);
#68=LINE('',#448,#91);
#69=LINE('',#450,#92);
#70=LINE('',#457,#93);
#71=LINE('',#460,#94);
#72=LINE('',#463,#95);
#73=LINE('',#465,#96);
#74=LINE('',#466,#97);
#75=LINE('',#472,#98);
#76=LINE('',#475,#99);
#77=LINE('',#478,#100);
#78=LINE('',#480,#101);
#79=LINE('',#482,#102);
#80=LINE('',#484,#103);
#81=LINE('',#485,#104);
#82=LINE('',#488,#105);
#83=LINE('',#493,#106);
#84=LINE('',#496,#107);
#85=LINE('',#498,#108);
#86=LINE('',#499,#109);
#87=VECTOR('',#343,1.5);
#88=VECTOR('',#350,1.49999999999999);
#89=VECTOR('',#357,1.49999999999999);
#90=VECTOR('',#362,10.);
#91=VECTOR('',#363,10.);
#92=VECTOR('',#364,10.);
#93=VECTOR('',#371,10.);
#94=VECTOR('',#374,10.);
#95=VECTOR('',#377,10.);
#96=VECTOR('',#378,10.);
#97=VECTOR('',#379,10.);
#98=VECTOR('',#388,10.);
#99=VECTOR('',#391,10.);
#100=VECTOR('',#394,10.);
#101=VECTOR('',#395,10.);
#102=VECTOR('',#396,10.);
#103=VECTOR('',#397,10.);
#104=VECTOR('',#398,10.);
#105=VECTOR('',#401,10.);
#106=VECTOR('',#408,10.);
#107=VECTOR('',#411,10.);
#108=VECTOR('',#412,10.);
#109=VECTOR('',#413,10.);
#110=CIRCLE('',#307,1.5);
#111=CIRCLE('',#308,1.5);
#112=CIRCLE('',#310,1.49999999999999);
#113=CIRCLE('',#311,1.49999999999999);
#114=CIRCLE('',#313,1.49999999999999);
#115=CIRCLE('',#314,1.49999999999999);
#116=CIRCLE('',#316,5.);
#117=CIRCLE('',#318,1.);
#118=CIRCLE('',#319,1.);
#119=CIRCLE('',#322,1.);
#120=CIRCLE('',#323,1.);
#121=CIRCLE('',#325,5.);
#122=CIRCLE('',#328,5.);
#123=CIRCLE('',#330,5.);
#124=CIRCLE('',#333,5.);
#125=CIRCLE('',#334,5.);
#126=VERTEX_POINT('',#426);
#127=VERTEX_POINT('',#428);
#128=VERTEX_POINT('',#432);
#129=VERTEX_POINT('',#434);
#130=VERTEX_POINT('',#438);
#131=VERTEX_POINT('',#440);
#132=VERTEX_POINT('',#444);
#133=VERTEX_POINT('',#445);
#134=VERTEX_POINT('',#447);
#135=VERTEX_POINT('',#449);
#136=VERTEX_POINT('',#453);
#137=VERTEX_POINT('',#454);
#138=VERTEX_POINT('',#456);
#139=VERTEX_POINT('',#458);
#140=VERTEX_POINT('',#462);
#141=VERTEX_POINT('',#464);
#142=VERTEX_POINT('',#471);
#143=VERTEX_POINT('',#473);
#144=VERTEX_POINT('',#477);
#145=VERTEX_POINT('',#479);
#146=VERTEX_POINT('',#481);
#147=VERTEX_POINT('',#483);
#148=VERTEX_POINT('',#487);
#149=VERTEX_POINT('',#491);
#150=VERTEX_POINT('',#495);
#151=VERTEX_POINT('',#497);
#152=EDGE_CURVE('',#126,#126,#110,.T.);
#153=EDGE_CURVE('',#126,#127,#64,.T.);
#154=EDGE_CURVE('',#127,#127,#111,.T.);
#155=EDGE_CURVE('',#128,#128,#112,.T.);
#156=EDGE_CURVE('',#128,#129,#65,.T.);
#157=EDGE_CURVE('',#129,#129,#113,.T.);
#158=EDGE_CURVE('',#130,#130,#114,.T.);
#159=EDGE_CURVE('',#130,#131,#66,.T.);
#160=EDGE_CURVE('',#131,#131,#115,.T.);
#161=EDGE_CURVE('',#132,#133,#67,.T.);
#162=EDGE_CURVE('',#132,#134,#68,.T.);
#163=EDGE_CURVE('',#135,#134,#69,.T.);
#164=EDGE_CURVE('',#133,#135,#116,.T.);
#165=EDGE_CURVE('',#136,#137,#117,.T.);
#166=EDGE_CURVE('',#136,#138,#70,.T.);
#167=EDGE_CURVE('',#139,#138,#118,.T.);
#168=EDGE_CURVE('',#137,#139,#71,.T.);
#169=EDGE_CURVE('',#137,#140,#72,.T.);
#170=EDGE_CURVE('',#141,#139,#73,.T.);
#171=EDGE_CURVE('',#140,#141,#74,.T.);
#172=EDGE_CURVE('',#140,#132,#119,.T.);
#173=EDGE_CURVE('',#134,#141,#120,.T.);
#174=EDGE_CURVE('',#142,#136,#75,.T.);
#175=EDGE_CURVE('',#143,#142,#121,.T.);
#176=EDGE_CURVE('',#138,#143,#76,.T.);
#177=EDGE_CURVE('',#144,#133,#77,.T.);
#178=EDGE_CURVE('',#144,#145,#78,.T.);
#179=EDGE_CURVE('',#145,#146,#79,.T.);
#180=EDGE_CURVE('',#147,#146,#80,.T.);
#181=EDGE_CURVE('',#142,#147,#81,.T.);
#182=EDGE_CURVE('',#148,#135,#82,.T.);
#183=EDGE_CURVE('',#148,#144,#122,.T.);
#184=EDGE_CURVE('',#149,#147,#123,.T.);
#185=EDGE_CURVE('',#143,#149,#83,.T.);
#186=EDGE_CURVE('',#150,#149,#84,.T.);
#187=EDGE_CURVE('',#151,#150,#85,.T.);
#188=EDGE_CURVE('',#151,#148,#86,.T.);
#189=EDGE_CURVE('',#145,#151,#124,.T.);
#190=EDGE_CURVE('',#146,#150,#125,.T.);
#191=ORIENTED_EDGE('',*,*,#152,.F.);
#192=ORIENTED_EDGE('',*,*,#153,.T.);
#193=ORIENTED_EDGE('',*,*,#154,.F.);
#194=ORIENTED_EDGE('',*,*,#153,.F.);
#195=ORIENTED_EDGE('',*,*,#155,.F.);
#196=ORIENTED_EDGE('',*,*,#156,.T.);
#197=ORIENTED_EDGE('',*,*,#157,.F.);
#198=ORIENTED_EDGE('',*,*,#156,.F.);
#199=ORIENTED_EDGE('',*,*,#158,.F.);
#200=ORIENTED_EDGE('',*,*,#159,.T.);
#201=ORIENTED_EDGE('',*,*,#160,.F.);
#202=ORIENTED_EDGE('',*,*,#159,.F.);
#203=ORIENTED_EDGE('',*,*,#161,.F.);
#204=ORIENTED_EDGE('',*,*,#162,.T.);
#205=ORIENTED_EDGE('',*,*,#163,.F.);
#206=ORIENTED_EDGE('',*,*,#164,.F.);
#207=ORIENTED_EDGE('',*,*,#160,.T.);
#208=ORIENTED_EDGE('',*,*,#165,.F.);
#209=ORIENTED_EDGE('',*,*,#166,.T.);
#210=ORIENTED_EDGE('',*,*,#167,.F.);
#211=ORIENTED_EDGE('',*,*,#168,.F.);
#212=ORIENTED_EDGE('',*,*,#169,.F.);
#213=ORIENTED_EDGE('',*,*,#168,.T.);
#214=ORIENTED_EDGE('',*,*,#170,.F.);
#215=ORIENTED_EDGE('',*,*,#171,.F.);
#216=ORIENTED_EDGE('',*,*,#172,.F.);
#217=ORIENTED_EDGE('',*,*,#171,.T.);
#218=ORIENTED_EDGE('',*,*,#173,.F.);
#219=ORIENTED_EDGE('',*,*,#162,.F.);
#220=ORIENTED_EDGE('',*,*,#174,.F.);
#221=ORIENTED_EDGE('',*,*,#175,.F.);
#222=ORIENTED_EDGE('',*,*,#176,.F.);
#223=ORIENTED_EDGE('',*,*,#166,.F.);
#224=ORIENTED_EDGE('',*,*,#155,.T.);
#225=ORIENTED_EDGE('',*,*,#174,.T.);
#226=ORIENTED_EDGE('',*,*,#165,.T.);
#227=ORIENTED_EDGE('',*,*,#169,.T.);
#228=ORIENTED_EDGE('',*,*,#172,.T.);
#229=ORIENTED_EDGE('',*,*,#161,.T.);
#230=ORIENTED_EDGE('',*,*,#177,.F.);
#231=ORIENTED_EDGE('',*,*,#178,.T.);
#232=ORIENTED_EDGE('',*,*,#179,.T.);
#233=ORIENTED_EDGE('',*,*,#180,.F.);
#234=ORIENTED_EDGE('',*,*,#181,.F.);
#235=ORIENTED_EDGE('',*,*,#164,.T.);
#236=ORIENTED_EDGE('',*,*,#182,.F.);
#237=ORIENTED_EDGE('',*,*,#183,.T.);
#238=ORIENTED_EDGE('',*,*,#177,.T.);
#239=ORIENTED_EDGE('',*,*,#175,.T.);
#240=ORIENTED_EDGE('',*,*,#181,.T.);
#241=ORIENTED_EDGE('',*,*,#184,.F.);
#242=ORIENTED_EDGE('',*,*,#185,.F.);
#243=ORIENTED_EDGE('',*,*,#176,.T.);
#244=ORIENTED_EDGE('',*,*,#185,.T.);
#245=ORIENTED_EDGE('',*,*,#186,.F.);
#246=ORIENTED_EDGE('',*,*,#187,.F.);
#247=ORIENTED_EDGE('',*,*,#188,.T.);
#248=ORIENTED_EDGE('',*,*,#182,.T.);
#249=ORIENTED_EDGE('',*,*,#163,.T.);
#250=ORIENTED_EDGE('',*,*,#173,.T.);
#251=ORIENTED_EDGE('',*,*,#170,.T.);
#252=ORIENTED_EDGE('',*,*,#167,.T.);
#253=ORIENTED_EDGE('',*,*,#189,.T.);
#254=ORIENTED_EDGE('',*,*,#187,.T.);
#255=ORIENTED_EDGE('',*,*,#190,.F.);
#256=ORIENTED_EDGE('',*,*,#179,.F.);
#257=ORIENTED_EDGE('',*,*,#190,.T.);
#258=ORIENTED_EDGE('',*,*,#186,.T.);
#259=ORIENTED_EDGE('',*,*,#184,.T.);
#260=ORIENTED_EDGE('',*,*,#180,.T.);
#261=ORIENTED_EDGE('',*,*,#154,.T.);
#262=ORIENTED_EDGE('',*,*,#157,.T.);
#263=ORIENTED_EDGE('',*,*,#189,.F.);
#264=ORIENTED_EDGE('',*,*,#178,.F.);
#265=ORIENTED_EDGE('',*,*,#183,.F.);
#266=ORIENTED_EDGE('',*,*,#188,.F.);
#267=ORIENTED_EDGE('',*,*,#152,.T.);
#268=ORIENTED_EDGE('',*,*,#158,.T.);
#269=CYLINDRICAL_SURFACE('',#306,1.5);
#270=CYLINDRICAL_SURFACE('',#309,1.49999999999999);
#271=CYLINDRICAL_SURFACE('',#312,1.49999999999999);
#272=CYLINDRICAL_SURFACE('',#317,1.);
#273=CYLINDRICAL_SURFACE('',#321,1.);
#274=CYLINDRICAL_SURFACE('',#327,5.);
#275=CYLINDRICAL_SURFACE('',#329,5.);
#276=CYLINDRICAL_SURFACE('',#332,5.);
#277=ADVANCED_FACE('',(#28),#269,.F.);
#278=ADVANCED_FACE('',(#29),#270,.F.);
#279=ADVANCED_FACE('',(#30),#271,.F.);
#280=ADVANCED_FACE('',(#31,#15),#21,.F.);
#281=ADVANCED_FACE('',(#32),#272,.F.);
#282=ADVANCED_FACE('',(#33),#22,.F.);
#283=ADVANCED_FACE('',(#34),#273,.F.);
#284=ADVANCED_FACE('',(#35,#16),#23,.F.);
#285=ADVANCED_FACE('',(#36),#24,.T.);
#286=ADVANCED_FACE('',(#37),#274,.T.);
#287=ADVANCED_FACE('',(#38),#275,.T.);
#288=ADVANCED_FACE('',(#39),#25,.T.);
#289=ADVANCED_FACE('',(#40),#276,.T.);
#290=ADVANCED_FACE('',(#41,#17,#18),#26,.T.);
#291=ADVANCED_FACE('',(#42,#19,#20),#27,.F.);
#292=CLOSED_SHELL('',(#277,#278,#279,#280,#281,#282,#283,#284,#285,#286,
#287,#288,#289,#290,#291));
#293=DERIVED_UNIT_ELEMENT(#295,1.);
#294=DERIVED_UNIT_ELEMENT(#510,-3.);
#295=(
MASS_UNIT()
NAMED_UNIT(*)
SI_UNIT(.KILO.,.GRAM.)
);
#296=DERIVED_UNIT((#293,#294));
#297=MEASURE_REPRESENTATION_ITEM('density measure',
POSITIVE_RATIO_MEASURE(7850.),#296);
#298=PROPERTY_DEFINITION_REPRESENTATION(#303,#300);
#299=PROPERTY_DEFINITION_REPRESENTATION(#304,#301);
#300=REPRESENTATION('material name',(#302),#507);
#301=REPRESENTATION('density',(#297),#507);
#302=DESCRIPTIVE_REPRESENTATION_ITEM('Steel','Steel');
#303=PROPERTY_DEFINITION('material property','material name',#517);
#304=PROPERTY_DEFINITION('material property','density of part',#517);
#305=AXIS2_PLACEMENT_3D('',#424,#337,#338);
#306=AXIS2_PLACEMENT_3D('',#425,#339,#340);
#307=AXIS2_PLACEMENT_3D('',#427,#341,#342);
#308=AXIS2_PLACEMENT_3D('',#430,#344,#345);
#309=AXIS2_PLACEMENT_3D('',#431,#346,#347);
#310=AXIS2_PLACEMENT_3D('',#433,#348,#349);
#311=AXIS2_PLACEMENT_3D('',#436,#351,#352);
#312=AXIS2_PLACEMENT_3D('',#437,#353,#354);
#313=AXIS2_PLACEMENT_3D('',#439,#355,#356);
#314=AXIS2_PLACEMENT_3D('',#442,#358,#359);
#315=AXIS2_PLACEMENT_3D('',#443,#360,#361);
#316=AXIS2_PLACEMENT_3D('',#451,#365,#366);
#317=AXIS2_PLACEMENT_3D('',#452,#367,#368);
#318=AXIS2_PLACEMENT_3D('',#455,#369,#370);
#319=AXIS2_PLACEMENT_3D('',#459,#372,#373);
#320=AXIS2_PLACEMENT_3D('',#461,#375,#376);
#321=AXIS2_PLACEMENT_3D('',#467,#380,#381);
#322=AXIS2_PLACEMENT_3D('',#468,#382,#383);
#323=AXIS2_PLACEMENT_3D('',#469,#384,#385);
#324=AXIS2_PLACEMENT_3D('',#470,#386,#387);
#325=AXIS2_PLACEMENT_3D('',#474,#389,#390);
#326=AXIS2_PLACEMENT_3D('',#476,#392,#393);
#327=AXIS2_PLACEMENT_3D('',#486,#399,#400);
#328=AXIS2_PLACEMENT_3D('',#489,#402,#403);
#329=AXIS2_PLACEMENT_3D('',#490,#404,#405);
#330=AXIS2_PLACEMENT_3D('',#492,#406,#407);
#331=AXIS2_PLACEMENT_3D('',#494,#409,#410);
#332=AXIS2_PLACEMENT_3D('',#500,#414,#415);
#333=AXIS2_PLACEMENT_3D('',#501,#416,#417);
#334=AXIS2_PLACEMENT_3D('',#502,#418,#419);
#335=AXIS2_PLACEMENT_3D('',#503,#420,#421);
#336=AXIS2_PLACEMENT_3D('',#504,#422,#423);
#337=DIRECTION('axis',(0.,0.,1.));
#338=DIRECTION('refdir',(1.,0.,0.));
#339=DIRECTION('center_axis',(0.,0.,1.));
#340=DIRECTION('ref_axis',(1.,0.,0.));
#341=DIRECTION('center_axis',(0.,0.,1.));
#342=DIRECTION('ref_axis',(1.,0.,0.));
#343=DIRECTION('',(0.,0.,1.));
#344=DIRECTION('center_axis',(0.,0.,-1.));
#345=DIRECTION('ref_axis',(1.,0.,0.));
#346=DIRECTION('center_axis',(0.,0.,1.));
#347=DIRECTION('ref_axis',(1.,0.,0.));
#348=DIRECTION('center_axis',(0.,0.,1.));
#349=DIRECTION('ref_axis',(1.,0.,0.));
#350=DIRECTION('',(0.,0.,1.));
#351=DIRECTION('center_axis',(0.,0.,-1.));
#352=DIRECTION('ref_axis',(1.,0.,0.));
#353=DIRECTION('center_axis',(0.,0.,1.));
#354=DIRECTION('ref_axis',(1.,0.,0.));
#355=DIRECTION('center_axis',(0.,0.,1.));
#356=DIRECTION('ref_axis',(1.,0.,0.));
#357=DIRECTION('',(0.,0.,1.));
#358=DIRECTION('center_axis',(3.46944695195361E-17,0.,-1.));
#359=DIRECTION('ref_axis',(1.,0.,0.));
#360=DIRECTION('center_axis',(3.46944695195361E-17,0.,-1.));
#361=DIRECTION('ref_axis',(1.,0.,3.46944695195361E-17));
#362=DIRECTION('',(1.,0.,3.46944695195361E-17));
#363=DIRECTION('',(0.,-1.,0.));
#364=DIRECTION('',(-1.,0.,-3.46944695195361E-17));
#365=DIRECTION('center_axis',(3.46944695195361E-17,0.,-1.));
#366=DIRECTION('ref_axis',(0.,-1.,0.));
#367=DIRECTION('center_axis',(0.,-1.,0.));
#368=DIRECTION('ref_axis',(-1.,0.,0.));
#369=DIRECTION('center_axis',(0.,-1.,0.));
#370=DIRECTION('ref_axis',(-1.,0.,0.));
#371=DIRECTION('',(0.,-1.,0.));
#372=DIRECTION('center_axis',(0.,1.,0.));
#373=DIRECTION('ref_axis',(-1.,0.,0.));
#374=DIRECTION('',(0.,-1.,0.));
#375=DIRECTION('center_axis',(-1.,0.,5.55111495768967E-16));
#376=DIRECTION('ref_axis',(-5.55111495768967E-16,0.,-1.));
#377=DIRECTION('',(-5.55111495768967E-16,0.,-1.));
#378=DIRECTION('',(5.55111495768967E-16,0.,1.));
#379=DIRECTION('',(0.,-1.,0.));
#380=DIRECTION('center_axis',(0.,-1.,0.));
#381=DIRECTION('ref_axis',(0.,0.,-1.));
#382=DIRECTION('center_axis',(0.,-1.,0.));
#383=DIRECTION('ref_axis',(0.,0.,-1.));
#384=DIRECTION('center_axis',(0.,1.,0.));
#385=DIRECTION('ref_axis',(0.,0.,-1.));
#386=DIRECTION('center_axis',(0.,0.,1.));
#387=DIRECTION('ref_axis',(-1.,0.,0.));
#388=DIRECTION('',(-1.,0.,0.));
#389=DIRECTION('center_axis',(0.,0.,1.));
#390=DIRECTION('ref_axis',(0.,-1.,0.));
#391=DIRECTION('',(1.,0.,0.));
#392=DIRECTION('center_axis',(0.,1.,0.));
#393=DIRECTION('ref_axis',(-1.,0.,0.));
#394=DIRECTION('',(0.,0.,1.));
#395=DIRECTION('',(-1.,0.,0.));
#396=DIRECTION('',(0.,0.,1.));
#397=DIRECTION('',(-1.,0.,0.));
#398=DIRECTION('',(0.,0.,1.));
#399=DIRECTION('center_axis',(0.,0.,1.));
#400=DIRECTION('ref_axis',(0.,-1.,0.));
#401=DIRECTION('',(0.,0.,1.));
#402=DIRECTION('center_axis',(0.,0.,1.));
#403=DIRECTION('ref_axis',(0.,-1.,0.));
#404=DIRECTION('center_axis',(0.,0.,1.));
#405=DIRECTION('ref_axis',(0.,-1.,0.));
#406=DIRECTION('center_axis',(0.,0.,1.));
#407=DIRECTION('ref_axis',(0.,-1.,0.));
#408=DIRECTION('',(0.,0.,1.));
#409=DIRECTION('center_axis',(0.,-1.,0.));
#410=DIRECTION('ref_axis',(1.,0.,0.));
#411=DIRECTION('',(1.,0.,0.));
#412=DIRECTION('',(0.,0.,1.));
#413=DIRECTION('',(1.,0.,0.));
#414=DIRECTION('center_axis',(0.,0.,1.));
#415=DIRECTION('ref_axis',(0.,1.,0.));
#416=DIRECTION('center_axis',(0.,0.,1.));
#417=DIRECTION('ref_axis',(0.,1.,0.));
#418=DIRECTION('center_axis',(0.,0.,1.));
#419=DIRECTION('ref_axis',(0.,1.,0.));
#420=DIRECTION('center_axis',(0.,0.,1.));
#421=DIRECTION('ref_axis',(1.,0.,0.));
#422=DIRECTION('center_axis',(0.,0.,1.));
#423=DIRECTION('ref_axis',(1.,0.,0.));
#424=CARTESIAN_POINT('',(0.,0.,0.));
#425=CARTESIAN_POINT('Origin',(0.,-195.000002905726,0.));
#426=CARTESIAN_POINT('',(-1.5,-195.000002905726,0.));
#427=CARTESIAN_POINT('Origin',(0.,-195.000002905726,0.));
#428=CARTESIAN_POINT('',(-1.5,-195.000002905726,10.));
#429=CARTESIAN_POINT('',(-1.5,-195.000002905726,0.));
#430=CARTESIAN_POINT('Origin',(0.,-195.000002905726,10.));
#431=CARTESIAN_POINT('Origin',(20.0000002980232,-195.000002905726,0.));
#432=CARTESIAN_POINT('',(18.5000002980232,-195.000002905726,7.00000010430813));
#433=CARTESIAN_POINT('Origin',(20.0000002980232,-195.000002905726,7.00000010430813));
#434=CARTESIAN_POINT('',(18.5000002980232,-195.000002905726,10.));
#435=CARTESIAN_POINT('',(18.5000002980232,-195.000002905726,0.));
#436=CARTESIAN_POINT('Origin',(20.0000002980232,-195.000002905726,10.));
#437=CARTESIAN_POINT('Origin',(20.0000002980232,-195.000002905726,0.));
#438=CARTESIAN_POINT('',(18.5000002980232,-195.000002905726,0.));
#439=CARTESIAN_POINT('Origin',(20.0000002980232,-195.000002905726,0.));
#440=CARTESIAN_POINT('',(18.5000002980232,-195.000002905726,3.00000004470348));
#441=CARTESIAN_POINT('',(18.5000002980232,-195.000002905726,0.));
#442=CARTESIAN_POINT('Origin',(20.0000002980232,-195.000002905726,3.00000004470348));
#443=CARTESIAN_POINT('Origin',(10.0000003874302,0.,3.00000004470348));
#444=CARTESIAN_POINT('',(10.0000003874302,-190.,3.00000004470348));
#445=CARTESIAN_POINT('',(20.,-190.,3.00000004470348));
#446=CARTESIAN_POINT('',(15.0000001937151,-190.,3.00000004470348));
#447=CARTESIAN_POINT('',(10.0000003874302,-200.,3.00000004470348));
#448=CARTESIAN_POINT('',(10.0000003874302,0.,3.00000004470348));
#449=CARTESIAN_POINT('',(20.,-200.,3.00000004470348));
#450=CARTESIAN_POINT('',(5.0000001937151,-200.,3.00000004470348));
#451=CARTESIAN_POINT('Origin',(20.,-195.,3.00000004470348));
#452=CARTESIAN_POINT('Origin',(10.0000003874302,0.,6.00000010430813));
#453=CARTESIAN_POINT('',(10.0000003874302,-190.,7.00000010430813));
#454=CARTESIAN_POINT('',(9.00000038743019,-190.,6.00000010430813));
#455=CARTESIAN_POINT('Origin',(10.0000003874302,-190.,6.00000010430813));
#456=CARTESIAN_POINT('',(10.0000003874302,-200.,7.00000010430813));
#457=CARTESIAN_POINT('',(10.0000003874302,0.,7.00000010430813));
#458=CARTESIAN_POINT('',(9.00000038743019,-200.,6.00000010430813));
#459=CARTESIAN_POINT('Origin',(10.0000003874302,-200.,6.00000010430813));
#460=CARTESIAN_POINT('',(9.00000038743019,0.,6.00000010430813));
#461=CARTESIAN_POINT('Origin',(9.00000038743019,0.,6.00000010430813));
#462=CARTESIAN_POINT('',(9.00000038743019,-190.,4.00000004470348));
#463=CARTESIAN_POINT('',(9.00000038743019,-190.,3.00000005215407));
#464=CARTESIAN_POINT('',(9.00000038743019,-200.,4.00000004470348));
#465=CARTESIAN_POINT('',(9.00000038743019,-200.,3.00000005215406));
#466=CARTESIAN_POINT('',(9.00000038743019,0.,4.00000004470348));
#467=CARTESIAN_POINT('Origin',(10.0000003874302,0.,4.00000004470348));
#468=CARTESIAN_POINT('Origin',(10.0000003874302,-190.,4.00000004470348));
#469=CARTESIAN_POINT('Origin',(10.0000003874302,-200.,4.00000004470348));
#470=CARTESIAN_POINT('Origin',(26.0000003874302,0.,7.00000010430813));
#471=CARTESIAN_POINT('',(20.,-190.,7.00000010430813));
#472=CARTESIAN_POINT('',(23.0000001937151,-190.,7.00000010430813));
#473=CARTESIAN_POINT('',(20.,-200.,7.00000010430813));
#474=CARTESIAN_POINT('Origin',(20.,-195.,7.00000010430813));
#475=CARTESIAN_POINT('',(13.0000001937151,-200.,7.00000010430813));
#476=CARTESIAN_POINT('Origin',(20.,-190.,0.));
#477=CARTESIAN_POINT('',(20.,-190.,0.));
#478=CARTESIAN_POINT('',(20.,-190.,0.));
#479=CARTESIAN_POINT('',(0.,-190.,0.));
#480=CARTESIAN_POINT('',(20.,-190.,0.));
#481=CARTESIAN_POINT('',(0.,-190.,10.));
#482=CARTESIAN_POINT('',(0.,-190.,0.));
#483=CARTESIAN_POINT('',(20.,-190.,10.));
#484=CARTESIAN_POINT('',(20.,-190.,10.));
#485=CARTESIAN_POINT('',(20.,-190.,0.));
#486=CARTESIAN_POINT('Origin',(20.,-195.,0.));
#487=CARTESIAN_POINT('',(20.,-200.,0.));
#488=CARTESIAN_POINT('',(20.,-200.,0.));
#489=CARTESIAN_POINT('Origin',(20.,-195.,0.));
#490=CARTESIAN_POINT('Origin',(20.,-195.,0.));
#491=CARTESIAN_POINT('',(20.,-200.,10.));
#492=CARTESIAN_POINT('Origin',(20.,-195.,10.));
#493=CARTESIAN_POINT('',(20.,-200.,0.));
#494=CARTESIAN_POINT('Origin',(0.,-200.,0.));
#495=CARTESIAN_POINT('',(-6.12323399573677E-16,-200.,10.));
#496=CARTESIAN_POINT('',(0.,-200.,10.));
#497=CARTESIAN_POINT('',(-6.12323399573677E-16,-200.,0.));
#498=CARTESIAN_POINT('',(-6.12323399573677E-16,-200.,0.));
#499=CARTESIAN_POINT('',(0.,-200.,0.));
#500=CARTESIAN_POINT('Origin',(0.,-195.,0.));
#501=CARTESIAN_POINT('Origin',(0.,-195.,0.));
#502=CARTESIAN_POINT('Origin',(0.,-195.,10.));
#503=CARTESIAN_POINT('Origin',(10.,-195.,10.));
#504=CARTESIAN_POINT('Origin',(10.,-195.,0.));
#505=UNCERTAINTY_MEASURE_WITH_UNIT(LENGTH_MEASURE(0.01),#509,
'DISTANCE_ACCURACY_VALUE',
'Maximum model space distance between geometric entities at asserted c
onnectivities');
#506=UNCERTAINTY_MEASURE_WITH_UNIT(LENGTH_MEASURE(0.01),#509,
'DISTANCE_ACCURACY_VALUE',
'Maximum model space distance between geometric entities at asserted c
onnectivities');
#507=(
GEOMETRIC_REPRESENTATION_CONTEXT(3)
GLOBAL_UNCERTAINTY_ASSIGNED_CONTEXT((#505))
GLOBAL_UNIT_ASSIGNED_CONTEXT((#509,#511,#512))
REPRESENTATION_CONTEXT('','3D')
);
#508=(
GEOMETRIC_REPRESENTATION_CONTEXT(3)
GLOBAL_UNCERTAINTY_ASSIGNED_CONTEXT((#506))
GLOBAL_UNIT_ASSIGNED_CONTEXT((#509,#511,#512))
REPRESENTATION_CONTEXT('','3D')
);
#509=(
LENGTH_UNIT()
NAMED_UNIT(*)
SI_UNIT(.MILLI.,.METRE.)
);
#510=(
LENGTH_UNIT()
NAMED_UNIT(*)
SI_UNIT($,.METRE.)
);
#511=(
NAMED_UNIT(*)
PLANE_ANGLE_UNIT()
SI_UNIT($,.RADIAN.)
);
#512=(
NAMED_UNIT(*)
SI_UNIT($,.STERADIAN.)
SOLID_ANGLE_UNIT()
);
#513=SHAPE_DEFINITION_REPRESENTATION(#514,#515);
#514=PRODUCT_DEFINITION_SHAPE('',$,#517);
#515=SHAPE_REPRESENTATION('',(#305),#507);
#516=PRODUCT_DEFINITION_CONTEXT('part definition',#521,'design');
#517=PRODUCT_DEFINITION('arm_part3','arm_part3',#518,#516);
#518=PRODUCT_DEFINITION_FORMATION('',$,#523);
#519=PRODUCT_RELATED_PRODUCT_CATEGORY('arm_part3','arm_part3',(#523));
#520=APPLICATION_PROTOCOL_DEFINITION('international standard',
'automotive_design',2009,#521);
#521=APPLICATION_CONTEXT(
'Core Data for Automotive Mechanical Design Process');
#522=PRODUCT_CONTEXT('part definition',#521,'mechanical');
#523=PRODUCT('arm_part3','arm_part3',$,(#522));
#524=PRESENTATION_STYLE_ASSIGNMENT((#525));
#525=SURFACE_STYLE_USAGE(.BOTH.,#526);
#526=SURFACE_SIDE_STYLE('',(#527));
#527=SURFACE_STYLE_FILL_AREA(#528);
#528=FILL_AREA_STYLE('Steel - Satin',(#529));
#529=FILL_AREA_STYLE_COLOUR('Steel - Satin',#530);
#530=COLOUR_RGB('Steel - Satin',0.627450980392157,0.627450980392157,0.627450980392157);
ENDSEC;
END-ISO-10303-21;
