ISO-10303-21;
HEADER;
/* Generated by software containing ST-Developer
 * from STEP Tools, Inc. (www.steptools.com) 
 */

FILE_DESCRIPTION(
/* description */ (''),
/* implementation_level */ '2;1');

FILE_NAME(
/* name */ 'arm_part8.step',
/* time_stamp */ '2026-08-20T17:25:17+05:30',
/* author */ (''),
/* organization */ (''),
/* preprocessor_version */ 'ST-DEVELOPER v20.1',
/* originating_system */ 'Autodesk Translation Framework v15.8.0.0',
/* authorisation */ '');

FILE_SCHEMA (('AUTOMOTIVE_DESIGN { 1 0 10303 214 3 1 1 }'));
ENDSEC;

DATA;
#10=MECHANICAL_DESIGN_GEOMETRIC_PRESENTATION_REPRESENTATION('',(#13),#792);
#11=SHAPE_REPRESENTATION_RELATIONSHIP('SRR','None',#799,#12);
#12=ADVANCED_BREP_SHAPE_REPRESENTATION('',(#14),#791);
#13=STYLED_ITEM('',(#808),#14);
#14=MANIFOLD_SOLID_BREP('Body1',#464);
#15=FACE_BOUND('',#83,.T.);
#16=FACE_BOUND('',#84,.T.);
#17=FACE_BOUND('',#85,.T.);
#18=FACE_BOUND('',#86,.T.);
#19=FACE_BOUND('',#87,.T.);
#20=FACE_BOUND('',#88,.T.);
#21=FACE_BOUND('',#90,.T.);
#22=FACE_BOUND('',#91,.T.);
#23=FACE_BOUND('',#92,.T.);
#24=FACE_BOUND('',#93,.T.);
#25=FACE_BOUND('',#94,.T.);
#26=FACE_BOUND('',#95,.T.);
#27=PLANE('',#496);
#28=PLANE('',#497);
#29=PLANE('',#501);
#30=PLANE('',#505);
#31=PLANE('',#509);
#32=PLANE('',#513);
#33=PLANE('',#514);
#34=PLANE('',#515);
#35=PLANE('',#519);
#36=PLANE('',#523);
#37=PLANE('',#524);
#38=FACE_OUTER_BOUND('',#61,.T.);
#39=FACE_OUTER_BOUND('',#62,.T.);
#40=FACE_OUTER_BOUND('',#63,.T.);
#41=FACE_OUTER_BOUND('',#64,.T.);
#42=FACE_OUTER_BOUND('',#65,.T.);
#43=FACE_OUTER_BOUND('',#66,.T.);
#44=FACE_OUTER_BOUND('',#67,.T.);
#45=FACE_OUTER_BOUND('',#68,.T.);
#46=FACE_OUTER_BOUND('',#69,.T.);
#47=FACE_OUTER_BOUND('',#70,.T.);
#48=FACE_OUTER_BOUND('',#71,.T.);
#49=FACE_OUTER_BOUND('',#72,.T.);
#50=FACE_OUTER_BOUND('',#73,.T.);
#51=FACE_OUTER_BOUND('',#74,.T.);
#52=FACE_OUTER_BOUND('',#75,.T.);
#53=FACE_OUTER_BOUND('',#76,.T.);
#54=FACE_OUTER_BOUND('',#77,.T.);
#55=FACE_OUTER_BOUND('',#78,.T.);
#56=FACE_OUTER_BOUND('',#79,.T.);
#57=FACE_OUTER_BOUND('',#80,.T.);
#58=FACE_OUTER_BOUND('',#81,.T.);
#59=FACE_OUTER_BOUND('',#82,.T.);
#60=FACE_OUTER_BOUND('',#89,.T.);
#61=EDGE_LOOP('',(#303,#304,#305,#306));
#62=EDGE_LOOP('',(#307,#308,#309,#310));
#63=EDGE_LOOP('',(#311,#312,#313,#314));
#64=EDGE_LOOP('',(#315,#316,#317,#318));
#65=EDGE_LOOP('',(#319,#320,#321,#322));
#66=EDGE_LOOP('',(#323,#324,#325,#326));
#67=EDGE_LOOP('',(#327,#328,#329,#330));
#68=EDGE_LOOP('',(#331,#332,#333,#334));
#69=EDGE_LOOP('',(#335,#336,#337,#338));
#70=EDGE_LOOP('',(#339,#340,#341,#342));
#71=EDGE_LOOP('',(#343,#344,#345,#346));
#72=EDGE_LOOP('',(#347,#348,#349,#350));
#73=EDGE_LOOP('',(#351,#352,#353,#354));
#74=EDGE_LOOP('',(#355,#356,#357,#358));
#75=EDGE_LOOP('',(#359,#360,#361,#362));
#76=EDGE_LOOP('',(#363,#364,#365,#366));
#77=EDGE_LOOP('',(#367,#368,#369,#370));
#78=EDGE_LOOP('',(#371,#372,#373,#374));
#79=EDGE_LOOP('',(#375,#376,#377,#378));
#80=EDGE_LOOP('',(#379,#380,#381,#382));
#81=EDGE_LOOP('',(#383,#384,#385,#386));
#82=EDGE_LOOP('',(#387,#388,#389,#390,#391,#392,#393,#394,#395,#396,#397,
#398,#399,#400,#401));
#83=EDGE_LOOP('',(#402));
#84=EDGE_LOOP('',(#403));
#85=EDGE_LOOP('',(#404));
#86=EDGE_LOOP('',(#405));
#87=EDGE_LOOP('',(#406));
#88=EDGE_LOOP('',(#407));
#89=EDGE_LOOP('',(#408,#409,#410,#411,#412,#413,#414,#415,#416,#417,#418,
#419,#420,#421,#422));
#90=EDGE_LOOP('',(#423));
#91=EDGE_LOOP('',(#424));
#92=EDGE_LOOP('',(#425));
#93=EDGE_LOOP('',(#426));
#94=EDGE_LOOP('',(#427));
#95=EDGE_LOOP('',(#428));
#96=LINE('',#665,#135);
#97=LINE('',#671,#136);
#98=LINE('',#677,#137);
#99=LINE('',#683,#138);
#100=LINE('',#689,#139);
#101=LINE('',#695,#140);
#102=LINE('',#700,#141);
#103=LINE('',#702,#142);
#104=LINE('',#704,#143);
#105=LINE('',#705,#144);
#106=LINE('',#708,#145);
#107=LINE('',#710,#146);
#108=LINE('',#711,#147);
#109=LINE('',#717,#148);
#110=LINE('',#720,#149);
#111=LINE('',#722,#150);
#112=LINE('',#723,#151);
#113=LINE('',#729,#152);
#114=LINE('',#732,#153);
#115=LINE('',#734,#154);
#116=LINE('',#735,#155);
#117=LINE('',#741,#156);
#118=LINE('',#744,#157);
#119=LINE('',#746,#158);
#120=LINE('',#747,#159);
#121=LINE('',#753,#160);
#122=LINE('',#756,#161);
#123=LINE('',#758,#162);
#124=LINE('',#759,#163);
#125=LINE('',#762,#164);
#126=LINE('',#764,#165);
#127=LINE('',#765,#166);
#128=LINE('',#768,#167);
#129=LINE('',#770,#168);
#130=LINE('',#771,#169);
#131=LINE('',#777,#170);
#132=LINE('',#780,#171);
#133=LINE('',#782,#172);
#134=LINE('',#783,#173);
#135=VECTOR('',#531,1.5);
#136=VECTOR('',#538,1.5);
#137=VECTOR('',#545,1.5);
#138=VECTOR('',#552,1.5);
#139=VECTOR('',#559,1.5);
#140=VECTOR('',#566,1.5);
#141=VECTOR('',#571,10.);
#142=VECTOR('',#572,10.);
#143=VECTOR('',#573,10.);
#144=VECTOR('',#574,10.);
#145=VECTOR('',#577,10.);
#146=VECTOR('',#578,10.);
#147=VECTOR('',#579,10.);
#148=VECTOR('',#586,10.);
#149=VECTOR('',#589,10.);
#150=VECTOR('',#590,10.);
#151=VECTOR('',#591,10.);
#152=VECTOR('',#598,10.);
#153=VECTOR('',#601,10.);
#154=VECTOR('',#602,10.);
#155=VECTOR('',#603,10.);
#156=VECTOR('',#610,10.);
#157=VECTOR('',#613,10.);
#158=VECTOR('',#614,10.);
#159=VECTOR('',#615,10.);
#160=VECTOR('',#622,10.);
#161=VECTOR('',#625,10.);
#162=VECTOR('',#626,10.);
#163=VECTOR('',#627,10.);
#164=VECTOR('',#630,10.);
#165=VECTOR('',#631,10.);
#166=VECTOR('',#632,10.);
#167=VECTOR('',#635,10.);
#168=VECTOR('',#636,10.);
#169=VECTOR('',#637,10.);
#170=VECTOR('',#644,10.);
#171=VECTOR('',#647,10.);
#172=VECTOR('',#648,10.);
#173=VECTOR('',#649,10.);
#174=CIRCLE('',#479,1.5);
#175=CIRCLE('',#480,1.5);
#176=CIRCLE('',#482,1.5);
#177=CIRCLE('',#483,1.5);
#178=CIRCLE('',#485,1.5);
#179=CIRCLE('',#486,1.5);
#180=CIRCLE('',#488,1.5);
#181=CIRCLE('',#489,1.5);
#182=CIRCLE('',#491,1.5);
#183=CIRCLE('',#492,1.5);
#184=CIRCLE('',#494,1.5);
#185=CIRCLE('',#495,1.5);
#186=CIRCLE('',#499,3.99999999999998);
#187=CIRCLE('',#500,3.99999999999998);
#188=CIRCLE('',#503,5.00000000000001);
#189=CIRCLE('',#504,5.00000000000001);
#190=CIRCLE('',#507,4.99999999999998);
#191=CIRCLE('',#508,4.99999999999998);
#192=CIRCLE('',#511,4.);
#193=CIRCLE('',#512,4.);
#194=CIRCLE('',#517,1.99999999999996);
#195=CIRCLE('',#518,1.99999999999996);
#196=CIRCLE('',#521,2.00000000000001);
#197=CIRCLE('',#522,2.00000000000001);
#198=VERTEX_POINT('',#662);
#199=VERTEX_POINT('',#664);
#200=VERTEX_POINT('',#668);
#201=VERTEX_POINT('',#670);
#202=VERTEX_POINT('',#674);
#203=VERTEX_POINT('',#676);
#204=VERTEX_POINT('',#680);
#205=VERTEX_POINT('',#682);
#206=VERTEX_POINT('',#686);
#207=VERTEX_POINT('',#688);
#208=VERTEX_POINT('',#692);
#209=VERTEX_POINT('',#694);
#210=VERTEX_POINT('',#698);
#211=VERTEX_POINT('',#699);
#212=VERTEX_POINT('',#701);
#213=VERTEX_POINT('',#703);
#214=VERTEX_POINT('',#707);
#215=VERTEX_POINT('',#709);
#216=VERTEX_POINT('',#713);
#217=VERTEX_POINT('',#715);
#218=VERTEX_POINT('',#719);
#219=VERTEX_POINT('',#721);
#220=VERTEX_POINT('',#725);
#221=VERTEX_POINT('',#727);
#222=VERTEX_POINT('',#731);
#223=VERTEX_POINT('',#733);
#224=VERTEX_POINT('',#737);
#225=VERTEX_POINT('',#739);
#226=VERTEX_POINT('',#743);
#227=VERTEX_POINT('',#745);
#228=VERTEX_POINT('',#749);
#229=VERTEX_POINT('',#751);
#230=VERTEX_POINT('',#755);
#231=VERTEX_POINT('',#757);
#232=VERTEX_POINT('',#761);
#233=VERTEX_POINT('',#763);
#234=VERTEX_POINT('',#767);
#235=VERTEX_POINT('',#769);
#236=VERTEX_POINT('',#773);
#237=VERTEX_POINT('',#775);
#238=VERTEX_POINT('',#779);
#239=VERTEX_POINT('',#781);
#240=EDGE_CURVE('',#198,#198,#174,.T.);
#241=EDGE_CURVE('',#198,#199,#96,.T.);
#242=EDGE_CURVE('',#199,#199,#175,.T.);
#243=EDGE_CURVE('',#200,#200,#176,.T.);
#244=EDGE_CURVE('',#200,#201,#97,.T.);
#245=EDGE_CURVE('',#201,#201,#177,.T.);
#246=EDGE_CURVE('',#202,#202,#178,.T.);
#247=EDGE_CURVE('',#202,#203,#98,.T.);
#248=EDGE_CURVE('',#203,#203,#179,.T.);
#249=EDGE_CURVE('',#204,#204,#180,.T.);
#250=EDGE_CURVE('',#204,#205,#99,.T.);
#251=EDGE_CURVE('',#205,#205,#181,.T.);
#252=EDGE_CURVE('',#206,#206,#182,.T.);
#253=EDGE_CURVE('',#206,#207,#100,.T.);
#254=EDGE_CURVE('',#207,#207,#183,.T.);
#255=EDGE_CURVE('',#208,#208,#184,.T.);
#256=EDGE_CURVE('',#208,#209,#101,.T.);
#257=EDGE_CURVE('',#209,#209,#185,.T.);
#258=EDGE_CURVE('',#210,#211,#102,.T.);
#259=EDGE_CURVE('',#210,#212,#103,.T.);
#260=EDGE_CURVE('',#213,#212,#104,.T.);
#261=EDGE_CURVE('',#211,#213,#105,.T.);
#262=EDGE_CURVE('',#214,#211,#106,.T.);
#263=EDGE_CURVE('',#215,#213,#107,.T.);
#264=EDGE_CURVE('',#214,#215,#108,.T.);
#265=EDGE_CURVE('',#216,#214,#186,.T.);
#266=EDGE_CURVE('',#217,#215,#187,.T.);
#267=EDGE_CURVE('',#216,#217,#109,.T.);
#268=EDGE_CURVE('',#216,#218,#110,.T.);
#269=EDGE_CURVE('',#219,#217,#111,.T.);
#270=EDGE_CURVE('',#218,#219,#112,.T.);
#271=EDGE_CURVE('',#220,#218,#188,.T.);
#272=EDGE_CURVE('',#221,#219,#189,.T.);
#273=EDGE_CURVE('',#220,#221,#113,.T.);
#274=EDGE_CURVE('',#220,#222,#114,.T.);
#275=EDGE_CURVE('',#223,#221,#115,.T.);
#276=EDGE_CURVE('',#222,#223,#116,.T.);
#277=EDGE_CURVE('',#224,#222,#190,.T.);
#278=EDGE_CURVE('',#225,#223,#191,.T.);
#279=EDGE_CURVE('',#224,#225,#117,.T.);
#280=EDGE_CURVE('',#224,#226,#118,.T.);
#281=EDGE_CURVE('',#227,#225,#119,.T.);
#282=EDGE_CURVE('',#226,#227,#120,.T.);
#283=EDGE_CURVE('',#228,#226,#192,.T.);
#284=EDGE_CURVE('',#229,#227,#193,.T.);
#285=EDGE_CURVE('',#228,#229,#121,.T.);
#286=EDGE_CURVE('',#228,#230,#122,.T.);
#287=EDGE_CURVE('',#231,#229,#123,.T.);
#288=EDGE_CURVE('',#230,#231,#124,.T.);
#289=EDGE_CURVE('',#232,#230,#125,.T.);
#290=EDGE_CURVE('',#233,#231,#126,.T.);
#291=EDGE_CURVE('',#232,#233,#127,.T.);
#292=EDGE_CURVE('',#234,#232,#128,.T.);
#293=EDGE_CURVE('',#235,#233,#129,.T.);
#294=EDGE_CURVE('',#234,#235,#130,.T.);
#295=EDGE_CURVE('',#236,#234,#194,.T.);
#296=EDGE_CURVE('',#237,#235,#195,.T.);
#297=EDGE_CURVE('',#236,#237,#131,.T.);
#298=EDGE_CURVE('',#238,#236,#132,.T.);
#299=EDGE_CURVE('',#239,#237,#133,.T.);
#300=EDGE_CURVE('',#238,#239,#134,.T.);
#301=EDGE_CURVE('',#210,#238,#196,.T.);
#302=EDGE_CURVE('',#212,#239,#197,.T.);
#303=ORIENTED_EDGE('',*,*,#240,.F.);
#304=ORIENTED_EDGE('',*,*,#241,.T.);
#305=ORIENTED_EDGE('',*,*,#242,.F.);
#306=ORIENTED_EDGE('',*,*,#241,.F.);
#307=ORIENTED_EDGE('',*,*,#243,.F.);
#308=ORIENTED_EDGE('',*,*,#244,.T.);
#309=ORIENTED_EDGE('',*,*,#245,.F.);
#310=ORIENTED_EDGE('',*,*,#244,.F.);
#311=ORIENTED_EDGE('',*,*,#246,.F.);
#312=ORIENTED_EDGE('',*,*,#247,.T.);
#313=ORIENTED_EDGE('',*,*,#248,.F.);
#314=ORIENTED_EDGE('',*,*,#247,.F.);
#315=ORIENTED_EDGE('',*,*,#249,.F.);
#316=ORIENTED_EDGE('',*,*,#250,.T.);
#317=ORIENTED_EDGE('',*,*,#251,.F.);
#318=ORIENTED_EDGE('',*,*,#250,.F.);
#319=ORIENTED_EDGE('',*,*,#252,.F.);
#320=ORIENTED_EDGE('',*,*,#253,.T.);
#321=ORIENTED_EDGE('',*,*,#254,.F.);
#322=ORIENTED_EDGE('',*,*,#253,.F.);
#323=ORIENTED_EDGE('',*,*,#255,.F.);
#324=ORIENTED_EDGE('',*,*,#256,.T.);
#325=ORIENTED_EDGE('',*,*,#257,.F.);
#326=ORIENTED_EDGE('',*,*,#256,.F.);
#327=ORIENTED_EDGE('',*,*,#258,.F.);
#328=ORIENTED_EDGE('',*,*,#259,.T.);
#329=ORIENTED_EDGE('',*,*,#260,.F.);
#330=ORIENTED_EDGE('',*,*,#261,.F.);
#331=ORIENTED_EDGE('',*,*,#262,.T.);
#332=ORIENTED_EDGE('',*,*,#261,.T.);
#333=ORIENTED_EDGE('',*,*,#263,.F.);
#334=ORIENTED_EDGE('',*,*,#264,.F.);
#335=ORIENTED_EDGE('',*,*,#265,.T.);
#336=ORIENTED_EDGE('',*,*,#264,.T.);
#337=ORIENTED_EDGE('',*,*,#266,.F.);
#338=ORIENTED_EDGE('',*,*,#267,.F.);
#339=ORIENTED_EDGE('',*,*,#268,.F.);
#340=ORIENTED_EDGE('',*,*,#267,.T.);
#341=ORIENTED_EDGE('',*,*,#269,.F.);
#342=ORIENTED_EDGE('',*,*,#270,.F.);
#343=ORIENTED_EDGE('',*,*,#271,.T.);
#344=ORIENTED_EDGE('',*,*,#270,.T.);
#345=ORIENTED_EDGE('',*,*,#272,.F.);
#346=ORIENTED_EDGE('',*,*,#273,.F.);
#347=ORIENTED_EDGE('',*,*,#274,.F.);
#348=ORIENTED_EDGE('',*,*,#273,.T.);
#349=ORIENTED_EDGE('',*,*,#275,.F.);
#350=ORIENTED_EDGE('',*,*,#276,.F.);
#351=ORIENTED_EDGE('',*,*,#277,.T.);
#352=ORIENTED_EDGE('',*,*,#276,.T.);
#353=ORIENTED_EDGE('',*,*,#278,.F.);
#354=ORIENTED_EDGE('',*,*,#279,.F.);
#355=ORIENTED_EDGE('',*,*,#280,.F.);
#356=ORIENTED_EDGE('',*,*,#279,.T.);
#357=ORIENTED_EDGE('',*,*,#281,.F.);
#358=ORIENTED_EDGE('',*,*,#282,.F.);
#359=ORIENTED_EDGE('',*,*,#283,.T.);
#360=ORIENTED_EDGE('',*,*,#282,.T.);
#361=ORIENTED_EDGE('',*,*,#284,.F.);
#362=ORIENTED_EDGE('',*,*,#285,.F.);
#363=ORIENTED_EDGE('',*,*,#286,.F.);
#364=ORIENTED_EDGE('',*,*,#285,.T.);
#365=ORIENTED_EDGE('',*,*,#287,.F.);
#366=ORIENTED_EDGE('',*,*,#288,.F.);
#367=ORIENTED_EDGE('',*,*,#289,.T.);
#368=ORIENTED_EDGE('',*,*,#288,.T.);
#369=ORIENTED_EDGE('',*,*,#290,.F.);
#370=ORIENTED_EDGE('',*,*,#291,.F.);
#371=ORIENTED_EDGE('',*,*,#292,.T.);
#372=ORIENTED_EDGE('',*,*,#291,.T.);
#373=ORIENTED_EDGE('',*,*,#293,.F.);
#374=ORIENTED_EDGE('',*,*,#294,.F.);
#375=ORIENTED_EDGE('',*,*,#295,.T.);
#376=ORIENTED_EDGE('',*,*,#294,.T.);
#377=ORIENTED_EDGE('',*,*,#296,.F.);
#378=ORIENTED_EDGE('',*,*,#297,.F.);
#379=ORIENTED_EDGE('',*,*,#298,.T.);
#380=ORIENTED_EDGE('',*,*,#297,.T.);
#381=ORIENTED_EDGE('',*,*,#299,.F.);
#382=ORIENTED_EDGE('',*,*,#300,.F.);
#383=ORIENTED_EDGE('',*,*,#301,.T.);
#384=ORIENTED_EDGE('',*,*,#300,.T.);
#385=ORIENTED_EDGE('',*,*,#302,.F.);
#386=ORIENTED_EDGE('',*,*,#259,.F.);
#387=ORIENTED_EDGE('',*,*,#302,.T.);
#388=ORIENTED_EDGE('',*,*,#299,.T.);
#389=ORIENTED_EDGE('',*,*,#296,.T.);
#390=ORIENTED_EDGE('',*,*,#293,.T.);
#391=ORIENTED_EDGE('',*,*,#290,.T.);
#392=ORIENTED_EDGE('',*,*,#287,.T.);
#393=ORIENTED_EDGE('',*,*,#284,.T.);
#394=ORIENTED_EDGE('',*,*,#281,.T.);
#395=ORIENTED_EDGE('',*,*,#278,.T.);
#396=ORIENTED_EDGE('',*,*,#275,.T.);
#397=ORIENTED_EDGE('',*,*,#272,.T.);
#398=ORIENTED_EDGE('',*,*,#269,.T.);
#399=ORIENTED_EDGE('',*,*,#266,.T.);
#400=ORIENTED_EDGE('',*,*,#263,.T.);
#401=ORIENTED_EDGE('',*,*,#260,.T.);
#402=ORIENTED_EDGE('',*,*,#257,.T.);
#403=ORIENTED_EDGE('',*,*,#254,.T.);
#404=ORIENTED_EDGE('',*,*,#251,.T.);
#405=ORIENTED_EDGE('',*,*,#248,.T.);
#406=ORIENTED_EDGE('',*,*,#245,.T.);
#407=ORIENTED_EDGE('',*,*,#242,.T.);
#408=ORIENTED_EDGE('',*,*,#301,.F.);
#409=ORIENTED_EDGE('',*,*,#258,.T.);
#410=ORIENTED_EDGE('',*,*,#262,.F.);
#411=ORIENTED_EDGE('',*,*,#265,.F.);
#412=ORIENTED_EDGE('',*,*,#268,.T.);
#413=ORIENTED_EDGE('',*,*,#271,.F.);
#414=ORIENTED_EDGE('',*,*,#274,.T.);
#415=ORIENTED_EDGE('',*,*,#277,.F.);
#416=ORIENTED_EDGE('',*,*,#280,.T.);
#417=ORIENTED_EDGE('',*,*,#283,.F.);
#418=ORIENTED_EDGE('',*,*,#286,.T.);
#419=ORIENTED_EDGE('',*,*,#289,.F.);
#420=ORIENTED_EDGE('',*,*,#292,.F.);
#421=ORIENTED_EDGE('',*,*,#295,.F.);
#422=ORIENTED_EDGE('',*,*,#298,.F.);
#423=ORIENTED_EDGE('',*,*,#255,.T.);
#424=ORIENTED_EDGE('',*,*,#252,.T.);
#425=ORIENTED_EDGE('',*,*,#249,.T.);
#426=ORIENTED_EDGE('',*,*,#246,.T.);
#427=ORIENTED_EDGE('',*,*,#243,.T.);
#428=ORIENTED_EDGE('',*,*,#240,.T.);
#429=CYLINDRICAL_SURFACE('',#478,1.5);
#430=CYLINDRICAL_SURFACE('',#481,1.5);
#431=CYLINDRICAL_SURFACE('',#484,1.5);
#432=CYLINDRICAL_SURFACE('',#487,1.5);
#433=CYLINDRICAL_SURFACE('',#490,1.5);
#434=CYLINDRICAL_SURFACE('',#493,1.5);
#435=CYLINDRICAL_SURFACE('',#498,3.99999999999998);
#436=CYLINDRICAL_SURFACE('',#502,5.00000000000001);
#437=CYLINDRICAL_SURFACE('',#506,4.99999999999998);
#438=CYLINDRICAL_SURFACE('',#510,4.);
#439=CYLINDRICAL_SURFACE('',#516,1.99999999999996);
#440=CYLINDRICAL_SURFACE('',#520,2.00000000000001);
#441=ADVANCED_FACE('',(#38),#429,.F.);
#442=ADVANCED_FACE('',(#39),#430,.F.);
#443=ADVANCED_FACE('',(#40),#431,.F.);
#444=ADVANCED_FACE('',(#41),#432,.F.);
#445=ADVANCED_FACE('',(#42),#433,.F.);
#446=ADVANCED_FACE('',(#43),#434,.F.);
#447=ADVANCED_FACE('',(#44),#27,.T.);
#448=ADVANCED_FACE('',(#45),#28,.T.);
#449=ADVANCED_FACE('',(#46),#435,.T.);
#450=ADVANCED_FACE('',(#47),#29,.T.);
#451=ADVANCED_FACE('',(#48),#436,.T.);
#452=ADVANCED_FACE('',(#49),#30,.T.);
#453=ADVANCED_FACE('',(#50),#437,.T.);
#454=ADVANCED_FACE('',(#51),#31,.T.);
#455=ADVANCED_FACE('',(#52),#438,.T.);
#456=ADVANCED_FACE('',(#53),#32,.T.);
#457=ADVANCED_FACE('',(#54),#33,.T.);
#458=ADVANCED_FACE('',(#55),#34,.T.);
#459=ADVANCED_FACE('',(#56),#439,.T.);
#460=ADVANCED_FACE('',(#57),#35,.T.);
#461=ADVANCED_FACE('',(#58),#440,.T.);
#462=ADVANCED_FACE('',(#59,#15,#16,#17,#18,#19,#20),#36,.T.);
#463=ADVANCED_FACE('',(#60,#21,#22,#23,#24,#25,#26),#37,.F.);
#464=CLOSED_SHELL('',(#441,#442,#443,#444,#445,#446,#447,#448,#449,#450,
#451,#452,#453,#454,#455,#456,#457,#458,#459,#460,#461,#462,#463));
#465=DERIVED_UNIT_ELEMENT(#467,1.);
#466=DERIVED_UNIT_ELEMENT(#794,-3.);
#467=(
MASS_UNIT()
NAMED_UNIT(*)
SI_UNIT(.KILO.,.GRAM.)
);
#468=DERIVED_UNIT((#465,#466));
#469=MEASURE_REPRESENTATION_ITEM('density measure',
POSITIVE_RATIO_MEASURE(7850.),#468);
#470=PROPERTY_DEFINITION_REPRESENTATION(#475,#472);
#471=PROPERTY_DEFINITION_REPRESENTATION(#476,#473);
#472=REPRESENTATION('material name',(#474),#791);
#473=REPRESENTATION('density',(#469),#791);
#474=DESCRIPTIVE_REPRESENTATION_ITEM('Steel','Steel');
#475=PROPERTY_DEFINITION('material property','material name',#801);
#476=PROPERTY_DEFINITION('material property','density of part',#801);
#477=AXIS2_PLACEMENT_3D('',#660,#525,#526);
#478=AXIS2_PLACEMENT_3D('',#661,#527,#528);
#479=AXIS2_PLACEMENT_3D('',#663,#529,#530);
#480=AXIS2_PLACEMENT_3D('',#666,#532,#533);
#481=AXIS2_PLACEMENT_3D('',#667,#534,#535);
#482=AXIS2_PLACEMENT_3D('',#669,#536,#537);
#483=AXIS2_PLACEMENT_3D('',#672,#539,#540);
#484=AXIS2_PLACEMENT_3D('',#673,#541,#542);
#485=AXIS2_PLACEMENT_3D('',#675,#543,#544);
#486=AXIS2_PLACEMENT_3D('',#678,#546,#547);
#487=AXIS2_PLACEMENT_3D('',#679,#548,#549);
#488=AXIS2_PLACEMENT_3D('',#681,#550,#551);
#489=AXIS2_PLACEMENT_3D('',#684,#553,#554);
#490=AXIS2_PLACEMENT_3D('',#685,#555,#556);
#491=AXIS2_PLACEMENT_3D('',#687,#557,#558);
#492=AXIS2_PLACEMENT_3D('',#690,#560,#561);
#493=AXIS2_PLACEMENT_3D('',#691,#562,#563);
#494=AXIS2_PLACEMENT_3D('',#693,#564,#565);
#495=AXIS2_PLACEMENT_3D('',#696,#567,#568);
#496=AXIS2_PLACEMENT_3D('',#697,#569,#570);
#497=AXIS2_PLACEMENT_3D('',#706,#575,#576);
#498=AXIS2_PLACEMENT_3D('',#712,#580,#581);
#499=AXIS2_PLACEMENT_3D('',#714,#582,#583);
#500=AXIS2_PLACEMENT_3D('',#716,#584,#585);
#501=AXIS2_PLACEMENT_3D('',#718,#587,#588);
#502=AXIS2_PLACEMENT_3D('',#724,#592,#593);
#503=AXIS2_PLACEMENT_3D('',#726,#594,#595);
#504=AXIS2_PLACEMENT_3D('',#728,#596,#597);
#505=AXIS2_PLACEMENT_3D('',#730,#599,#600);
#506=AXIS2_PLACEMENT_3D('',#736,#604,#605);
#507=AXIS2_PLACEMENT_3D('',#738,#606,#607);
#508=AXIS2_PLACEMENT_3D('',#740,#608,#609);
#509=AXIS2_PLACEMENT_3D('',#742,#611,#612);
#510=AXIS2_PLACEMENT_3D('',#748,#616,#617);
#511=AXIS2_PLACEMENT_3D('',#750,#618,#619);
#512=AXIS2_PLACEMENT_3D('',#752,#620,#621);
#513=AXIS2_PLACEMENT_3D('',#754,#623,#624);
#514=AXIS2_PLACEMENT_3D('',#760,#628,#629);
#515=AXIS2_PLACEMENT_3D('',#766,#633,#634);
#516=AXIS2_PLACEMENT_3D('',#772,#638,#639);
#517=AXIS2_PLACEMENT_3D('',#774,#640,#641);
#518=AXIS2_PLACEMENT_3D('',#776,#642,#643);
#519=AXIS2_PLACEMENT_3D('',#778,#645,#646);
#520=AXIS2_PLACEMENT_3D('',#784,#650,#651);
#521=AXIS2_PLACEMENT_3D('',#785,#652,#653);
#522=AXIS2_PLACEMENT_3D('',#786,#654,#655);
#523=AXIS2_PLACEMENT_3D('',#787,#656,#657);
#524=AXIS2_PLACEMENT_3D('',#788,#658,#659);
#525=DIRECTION('axis',(0.,0.,1.));
#526=DIRECTION('refdir',(1.,0.,0.));
#527=DIRECTION('center_axis',(0.,0.,1.));
#528=DIRECTION('ref_axis',(1.,4.49640324973191E-15,0.));
#529=DIRECTION('center_axis',(-2.66225843453816E-16,4.26362504329927E-17,
1.));
#530=DIRECTION('ref_axis',(1.,4.49640324973191E-15,0.));
#531=DIRECTION('',(0.,0.,1.));
#532=DIRECTION('center_axis',(2.66225843453816E-16,-4.26362504329927E-17,
-1.));
#533=DIRECTION('ref_axis',(1.,4.49640324973191E-15,0.));
#534=DIRECTION('center_axis',(0.,0.,1.));
#535=DIRECTION('ref_axis',(1.,4.49640324973191E-15,0.));
#536=DIRECTION('center_axis',(-2.66225843453816E-16,4.26362504329927E-17,
1.));
#537=DIRECTION('ref_axis',(1.,4.49640324973191E-15,0.));
#538=DIRECTION('',(0.,0.,1.));
#539=DIRECTION('center_axis',(2.66225843453816E-16,-4.26362504329927E-17,
-1.));
#540=DIRECTION('ref_axis',(1.,4.49640324973191E-15,0.));
#541=DIRECTION('center_axis',(0.,0.,1.));
#542=DIRECTION('ref_axis',(1.,4.49640324973191E-15,0.));
#543=DIRECTION('center_axis',(-2.66225843453816E-16,4.26362504329927E-17,
1.));
#544=DIRECTION('ref_axis',(1.,4.49640324973191E-15,0.));
#545=DIRECTION('',(0.,0.,1.));
#546=DIRECTION('center_axis',(2.66225843453816E-16,-4.26362504329927E-17,
-1.));
#547=DIRECTION('ref_axis',(1.,4.49640324973191E-15,0.));
#548=DIRECTION('center_axis',(0.,0.,1.));
#549=DIRECTION('ref_axis',(1.,4.49640324973191E-15,0.));
#550=DIRECTION('center_axis',(-2.66225843453816E-16,4.26362504329927E-17,
1.));
#551=DIRECTION('ref_axis',(1.,4.49640324973191E-15,0.));
#552=DIRECTION('',(0.,0.,1.));
#553=DIRECTION('center_axis',(2.66225843453816E-16,-4.26362504329927E-17,
-1.));
#554=DIRECTION('ref_axis',(1.,4.49640324973191E-15,0.));
#555=DIRECTION('center_axis',(0.,0.,1.));
#556=DIRECTION('ref_axis',(1.,4.49640324973191E-15,0.));
#557=DIRECTION('center_axis',(-2.66225843453816E-16,4.26362504329927E-17,
1.));
#558=DIRECTION('ref_axis',(1.,4.49640324973191E-15,0.));
#559=DIRECTION('',(0.,0.,1.));
#560=DIRECTION('center_axis',(2.66225843453816E-16,-4.26362504329927E-17,
-1.));
#561=DIRECTION('ref_axis',(1.,4.49640324973191E-15,0.));
#562=DIRECTION('center_axis',(0.,0.,1.));
#563=DIRECTION('ref_axis',(1.,4.49640324973191E-15,0.));
#564=DIRECTION('center_axis',(-2.66225843453816E-16,4.26362504329927E-17,
1.));
#565=DIRECTION('ref_axis',(1.,4.49640324973191E-15,0.));
#566=DIRECTION('',(0.,0.,1.));
#567=DIRECTION('center_axis',(2.66225843453816E-16,-4.26362504329927E-17,
-1.));
#568=DIRECTION('ref_axis',(1.,4.49640324973191E-15,0.));
#569=DIRECTION('center_axis',(-0.82636688085456,-0.563132114362789,0.));
#570=DIRECTION('ref_axis',(0.563132114362789,-0.82636688085456,9.34510186198965E-17));
#571=DIRECTION('',(-0.563132114362789,0.82636688085456,-9.34510186198966E-17));
#572=DIRECTION('',(0.,0.,1.));
#573=DIRECTION('',(0.563132114362789,-0.82636688085456,9.34510186198966E-17));
#574=DIRECTION('',(0.,0.,1.));
#575=DIRECTION('center_axis',(-1.,-1.09002456616993E-14,0.));
#576=DIRECTION('ref_axis',(1.09002456616993E-14,-1.,2.88950218056851E-17));
#577=DIRECTION('',(1.09002456616993E-14,-1.,2.88950218056851E-17));
#578=DIRECTION('',(1.09002456616993E-14,-1.,2.88950218056851E-17));
#579=DIRECTION('',(0.,0.,1.));
#580=DIRECTION('center_axis',(0.,0.,1.));
#581=DIRECTION('ref_axis',(-0.758905981608915,0.651200208137412,0.));
#582=DIRECTION('center_axis',(-4.16467176938178E-16,2.93767480808153E-16,
1.));
#583=DIRECTION('ref_axis',(-0.758905981608915,0.651200208137412,-5.07360876368434E-16));
#584=DIRECTION('center_axis',(-4.16467176938178E-16,2.93767480808153E-16,
1.));
#585=DIRECTION('ref_axis',(-0.758905981608915,0.651200208137412,-5.07360876368434E-16));
#586=DIRECTION('',(0.,0.,1.));
#587=DIRECTION('center_axis',(-0.75890598160892,0.651200208137407,0.));
#588=DIRECTION('ref_axis',(-0.651200208137407,-0.75890598160892,-4.82616139170512E-17));
#589=DIRECTION('',(0.651200208137407,0.75890598160892,4.82616139170512E-17));
#590=DIRECTION('',(-0.651200208137407,-0.75890598160892,-4.82616139170512E-17));
#591=DIRECTION('',(0.,0.,1.));
#592=DIRECTION('center_axis',(0.,0.,1.));
#593=DIRECTION('ref_axis',(-9.82547376793265E-15,1.,0.));
#594=DIRECTION('center_axis',(-1.14762252086209E-16,3.48812490207086E-17,
1.));
#595=DIRECTION('ref_axis',(-9.82547376793265E-15,1.,-3.48812490207097E-17));
#596=DIRECTION('center_axis',(-1.14762252086209E-16,3.48812490207086E-17,
1.));
#597=DIRECTION('ref_axis',(-9.82547376793265E-15,1.,-3.48812490207097E-17));
#598=DIRECTION('',(0.,0.,1.));
#599=DIRECTION('center_axis',(-3.91645783868013E-15,1.,0.));
#600=DIRECTION('ref_axis',(-1.,-3.91645783868013E-15,-1.84723573728814E-16));
#601=DIRECTION('',(1.,3.91645783868013E-15,1.84723573728814E-16));
#602=DIRECTION('',(-1.,-3.91645783868013E-15,-1.84723573728814E-16));
#603=DIRECTION('',(0.,0.,1.));
#604=DIRECTION('center_axis',(0.,0.,1.));
#605=DIRECTION('ref_axis',(0.777600201638016,0.62875903684362,0.));
#606=DIRECTION('center_axis',(-1.14762252086209E-16,3.48812490207085E-17,
1.));
#607=DIRECTION('ref_axis',(0.777600201638016,0.62875903684362,6.73072498245061E-17));
#608=DIRECTION('center_axis',(-1.14762252086209E-16,3.48812490207085E-17,
1.));
#609=DIRECTION('ref_axis',(0.777600201638016,0.62875903684362,6.73072498245061E-17));
#610=DIRECTION('',(0.,0.,1.));
#611=DIRECTION('center_axis',(0.777600201638013,0.628759036843624,0.));
#612=DIRECTION('ref_axis',(-0.628759036843623,0.777600201638013,-6.40473274342598E-17));
#613=DIRECTION('',(0.628759036843623,-0.777600201638013,6.40473274342598E-17));
#614=DIRECTION('',(-0.628759036843623,0.777600201638013,-6.40473274342598E-17));
#615=DIRECTION('',(0.,0.,1.));
#616=DIRECTION('center_axis',(0.,0.,1.));
#617=DIRECTION('ref_axis',(1.,7.82707232360738E-15,0.));
#618=DIRECTION('center_axis',(-1.14762252086209E-16,3.48812490207085E-17,
1.));
#619=DIRECTION('ref_axis',(1.,7.82707232360738E-15,1.14762252086209E-16));
#620=DIRECTION('center_axis',(-1.14762252086209E-16,3.48812490207085E-17,
1.));
#621=DIRECTION('ref_axis',(1.,7.82707232360738E-15,1.14762252086209E-16));
#622=DIRECTION('',(0.,0.,1.));
#623=DIRECTION('center_axis',(1.,2.3458073164633E-8,0.));
#624=DIRECTION('ref_axis',(-2.34580731646329E-8,1.,-5.60759751132634E-17));
#625=DIRECTION('',(2.34580731646329E-8,-1.,5.60759751132634E-17));
#626=DIRECTION('',(-2.34580731646329E-8,1.,-5.60759751132634E-17));
#627=DIRECTION('',(0.,0.,1.));
#628=DIRECTION('center_axis',(0.82671242089488,-0.562624717852074,0.));
#629=DIRECTION('ref_axis',(0.562624717852074,0.82671242089488,6.77422302227941E-16));
#630=DIRECTION('',(0.562624717852074,0.82671242089488,6.77422302227941E-16));
#631=DIRECTION('',(0.562624717852074,0.82671242089488,6.77422302227941E-16));
#632=DIRECTION('',(0.,0.,1.));
#633=DIRECTION('center_axis',(0.826712927217894,-0.562623973867824,0.));
#634=DIRECTION('ref_axis',(0.562623973867823,0.826712927217894,3.5731214835838E-17));
#635=DIRECTION('',(0.562623973867823,0.826712927217894,3.5731214835838E-17));
#636=DIRECTION('',(0.562623973867823,0.826712927217894,3.5731214835838E-17));
#637=DIRECTION('',(0.,0.,1.));
#638=DIRECTION('center_axis',(0.,0.,1.));
#639=DIRECTION('ref_axis',(1.33781874467333E-14,-1.,0.));
#640=DIRECTION('center_axis',(-1.14762252086213E-16,3.28287009649888E-16,
1.));
#641=DIRECTION('ref_axis',(1.33781874467333E-14,-1.,3.28287009649889E-16));
#642=DIRECTION('center_axis',(-1.14762252086213E-16,3.28287009649888E-16,
1.));
#643=DIRECTION('ref_axis',(1.33781874467333E-14,-1.,3.28287009649889E-16));
#644=DIRECTION('',(0.,0.,1.));
#645=DIRECTION('center_axis',(4.39509923724621E-15,-1.,0.));
#646=DIRECTION('ref_axis',(1.,4.39509923724621E-15,1.1523399679724E-16));
#647=DIRECTION('',(1.,4.39509923724621E-15,1.1523399679724E-16));
#648=DIRECTION('',(1.,4.39509923724621E-15,1.1523399679724E-16));
#649=DIRECTION('',(0.,0.,1.));
#650=DIRECTION('center_axis',(0.,0.,1.));
#651=DIRECTION('ref_axis',(-0.826366880854555,-0.563132114362796,0.));
#652=DIRECTION('center_axis',(-2.145852270526E-16,-3.3143649189971E-17,
1.));
#653=DIRECTION('ref_axis',(-0.826366880854555,-0.563132114362796,-1.95990378002971E-16));
#654=DIRECTION('center_axis',(-2.145852270526E-16,-3.3143649189971E-17,
1.));
#655=DIRECTION('ref_axis',(-0.826366880854555,-0.563132114362796,-1.95990378002971E-16));
#656=DIRECTION('center_axis',(-2.66225843453816E-16,4.26362504329927E-17,
1.));
#657=DIRECTION('ref_axis',(1.,4.49640324973191E-15,2.66225843453816E-16));
#658=DIRECTION('center_axis',(-2.66225843453816E-16,4.26362504329927E-17,
1.));
#659=DIRECTION('ref_axis',(1.,4.49640324973191E-15,2.66225843453816E-16));
#660=CARTESIAN_POINT('',(0.,0.,0.));
#661=CARTESIAN_POINT('Origin',(134.000001996756,-215.00000320375,-8.97295069608156));
#662=CARTESIAN_POINT('',(132.500001996756,-215.00000320375,-8.97295069608156));
#663=CARTESIAN_POINT('Origin',(134.000001996756,-215.00000320375,-8.97295069608156));
#664=CARTESIAN_POINT('',(132.500001996756,-215.00000320375,-5.97295069608156));
#665=CARTESIAN_POINT('',(132.500001996756,-215.00000320375,-8.97295069608156));
#666=CARTESIAN_POINT('Origin',(134.000001996756,-215.00000320375,-5.97295069608156));
#667=CARTESIAN_POINT('Origin',(95.0434052276381,-190.232315892458,-8.97295069608157));
#668=CARTESIAN_POINT('',(93.5434052276381,-190.232315892458,-8.97295069608157));
#669=CARTESIAN_POINT('Origin',(95.0434052276381,-190.232315892458,-8.97295069608156));
#670=CARTESIAN_POINT('',(93.5434052276381,-190.232315892458,-5.97295069608156));
#671=CARTESIAN_POINT('',(93.5434052276381,-190.232315892458,-8.97295069608157));
#672=CARTESIAN_POINT('Origin',(95.0434052276381,-190.232315892458,-5.97295069608156));
#673=CARTESIAN_POINT('Origin',(107.043405406452,-178.232315713644,-8.97295069608157));
#674=CARTESIAN_POINT('',(105.543405406452,-178.232315713644,-8.97295069608157));
#675=CARTESIAN_POINT('Origin',(107.043405406452,-178.232315713644,-8.97295069608156));
#676=CARTESIAN_POINT('',(105.543405406452,-178.232315713644,-5.97295069608156));
#677=CARTESIAN_POINT('',(105.543405406452,-178.232315713644,-8.97295069608157));
#678=CARTESIAN_POINT('Origin',(107.043405406452,-178.232315713644,-5.97295069608156));
#679=CARTESIAN_POINT('Origin',(123.04340564487,-178.232315713644,-8.97295069608157));
#680=CARTESIAN_POINT('',(121.54340564487,-178.232315713644,-8.97295069608157));
#681=CARTESIAN_POINT('Origin',(123.04340564487,-178.232315713644,-8.97295069608156));
#682=CARTESIAN_POINT('',(121.54340564487,-178.232315713644,-5.97295069608156));
#683=CARTESIAN_POINT('',(121.54340564487,-178.232315713644,-8.97295069608157));
#684=CARTESIAN_POINT('Origin',(123.04340564487,-178.232315713644,-5.97295069608156));
#685=CARTESIAN_POINT('Origin',(134.043405808783,-190.232315892458,-8.97295069608157));
#686=CARTESIAN_POINT('',(132.543405808783,-190.232315892458,-8.97295069608157));
#687=CARTESIAN_POINT('Origin',(134.043405808783,-190.232315892458,-8.97295069608156));
#688=CARTESIAN_POINT('',(132.543405808783,-190.232315892458,-5.97295069608156));
#689=CARTESIAN_POINT('',(132.543405808783,-190.232315892458,-8.97295069608157));
#690=CARTESIAN_POINT('Origin',(134.043405808783,-190.232315892458,-5.97295069608156));
#691=CARTESIAN_POINT('Origin',(95.0000014156103,-215.00000320375,-8.97295069608157));
#692=CARTESIAN_POINT('',(93.5000014156103,-215.00000320375,-8.97295069608157));
#693=CARTESIAN_POINT('Origin',(95.0000014156103,-215.00000320375,-8.97295069608156));
#694=CARTESIAN_POINT('',(93.5000014156103,-215.00000320375,-5.97295069608156));
#695=CARTESIAN_POINT('',(93.5000014156103,-215.00000320375,-8.97295069608157));
#696=CARTESIAN_POINT('Origin',(95.0000014156103,-215.00000320375,-5.97295069608156));
#697=CARTESIAN_POINT('Origin',(92.0434051829349,-219.232316324592,-8.97295069608157));
#698=CARTESIAN_POINT('',(96.4546047675886,-225.705520655554,-8.97295069608157));
#699=CARTESIAN_POINT('',(92.0434051829349,-219.232316324592,-8.97295069608157));
#700=CARTESIAN_POINT('',(96.4546047675886,-225.705520655554,-8.97295069608157));
#701=CARTESIAN_POINT('',(96.4546047675886,-225.705520655554,-5.97295069608157));
#702=CARTESIAN_POINT('',(96.4546047675886,-225.705520655554,-8.97295069608157));
#703=CARTESIAN_POINT('',(92.0434051829349,-219.232316324592,-5.97295069608157));
#704=CARTESIAN_POINT('',(96.4546047675886,-225.705520655554,-5.97295069608157));
#705=CARTESIAN_POINT('',(92.0434051829349,-219.232316324592,-8.97295069608157));
#706=CARTESIAN_POINT('Origin',(92.0434051829346,-190.713237340146,-8.97295069608157));
#707=CARTESIAN_POINT('',(92.0434051829346,-190.713237340146,-8.97295069608157));
#708=CARTESIAN_POINT('',(92.0434051829346,-190.713237340146,-8.97295069608157));
#709=CARTESIAN_POINT('',(92.0434051829346,-190.713237340146,-5.97295069608157));
#710=CARTESIAN_POINT('',(92.0434051829346,-190.713237340146,-5.97295069608157));
#711=CARTESIAN_POINT('',(92.0434051829346,-190.713237340146,-8.97295069608157));
#712=CARTESIAN_POINT('Origin',(96.0434051829346,-190.713237340146,-8.97295069608157));
#713=CARTESIAN_POINT('',(93.0077812564989,-188.108436507597,-8.97295069608157));
#714=CARTESIAN_POINT('Origin',(96.0434051829346,-190.713237340146,-8.97295069608157));
#715=CARTESIAN_POINT('',(93.0077812564989,-188.108436507597,-5.97295069608157));
#716=CARTESIAN_POINT('Origin',(96.0434051829346,-190.713237340146,-5.97295069608157));
#717=CARTESIAN_POINT('',(93.0077812564989,-188.108436507597,-8.97295069608157));
#718=CARTESIAN_POINT('Origin',(103.418082476246,-175.976315283905,-8.97295069608157));
#719=CARTESIAN_POINT('',(103.418082476246,-175.976315283905,-8.97295069608157));
#720=CARTESIAN_POINT('',(93.0077812564989,-188.108436507597,-8.97295069608157));
#721=CARTESIAN_POINT('',(103.418082476246,-175.976315283905,-5.97295069608157));
#722=CARTESIAN_POINT('',(93.0077812564989,-188.108436507597,-5.97295069608157));
#723=CARTESIAN_POINT('',(103.418082476246,-175.976315283905,-8.97295069608157));
#724=CARTESIAN_POINT('Origin',(107.212612384291,-179.232316324592,-8.97295069608157));
#725=CARTESIAN_POINT('',(107.21261238429,-174.232316324592,-8.97295069608157));
#726=CARTESIAN_POINT('Origin',(107.212612384291,-179.232316324592,-8.97295069608157));
#727=CARTESIAN_POINT('',(107.21261238429,-174.232316324592,-5.97295069608157));
#728=CARTESIAN_POINT('Origin',(107.212612384291,-179.232316324592,-5.97295069608157));
#729=CARTESIAN_POINT('',(107.21261238429,-174.232316324592,-8.97295069608157));
#730=CARTESIAN_POINT('Origin',(122.527474831246,-174.232316324592,-8.97295069608157));
#731=CARTESIAN_POINT('',(122.527474831246,-174.232316324592,-8.97295069608157));
#732=CARTESIAN_POINT('',(107.21261238429,-174.232316324592,-8.97295069608157));
#733=CARTESIAN_POINT('',(122.527474831246,-174.232316324592,-5.97295069608157));
#734=CARTESIAN_POINT('',(107.21261238429,-174.232316324592,-5.97295069608157));
#735=CARTESIAN_POINT('',(122.527474831246,-174.232316324592,-8.97295069608157));
#736=CARTESIAN_POINT('Origin',(122.527474831246,-179.232316324592,-8.97295069608157));
#737=CARTESIAN_POINT('',(126.415475839436,-176.088521140373,-8.97295069608157));
#738=CARTESIAN_POINT('Origin',(122.527474831246,-179.232316324592,-8.97295069608157));
#739=CARTESIAN_POINT('',(126.415475839436,-176.088521140373,-5.97295069608157));
#740=CARTESIAN_POINT('Origin',(122.527474831246,-179.232316324592,-5.97295069608157));
#741=CARTESIAN_POINT('',(126.415475839436,-176.088521140373,-8.97295069608157));
#742=CARTESIAN_POINT('Origin',(136.153805989487,-188.132129334557,-8.97295069608157));
#743=CARTESIAN_POINT('',(136.153805989487,-188.132129334557,-8.97295069608157));
#744=CARTESIAN_POINT('',(126.415475839436,-176.088521140373,-8.97295069608157));
#745=CARTESIAN_POINT('',(136.153805989487,-188.132129334557,-5.97295069608157));
#746=CARTESIAN_POINT('',(126.415475839436,-176.088521140373,-5.97295069608157));
#747=CARTESIAN_POINT('',(136.153805989487,-188.132129334557,-8.97295069608157));
#748=CARTESIAN_POINT('Origin',(133.043405182935,-190.647165481931,-8.97295069608157));
#749=CARTESIAN_POINT('',(137.043405182935,-190.647165481931,-8.97295069608157));
#750=CARTESIAN_POINT('Origin',(133.043405182935,-190.647165481931,-8.97295069608157));
#751=CARTESIAN_POINT('',(137.043405182935,-190.647165481931,-5.97295069608157));
#752=CARTESIAN_POINT('Origin',(133.043405182935,-190.647165481931,-5.97295069608157));
#753=CARTESIAN_POINT('',(137.043405182935,-190.647165481931,-8.97295069608157));
#754=CARTESIAN_POINT('Origin',(137.043405853487,-219.232316324591,-8.97295069608156));
#755=CARTESIAN_POINT('',(137.043405853487,-219.232316324591,-8.97295069608156));
#756=CARTESIAN_POINT('',(137.043405182935,-190.647165481931,-8.97295069608157));
#757=CARTESIAN_POINT('',(137.043405853487,-219.232316324591,-5.97295069608156));
#758=CARTESIAN_POINT('',(137.043405182935,-190.647165481931,-5.97295069608157));
#759=CARTESIAN_POINT('',(137.043405853487,-219.232316324591,-8.97295069608156));
#760=CARTESIAN_POINT('Origin',(136.696831037371,-219.74156822228,-8.97295069608156));
#761=CARTESIAN_POINT('',(136.696831037371,-219.74156822228,-8.97295069608156));
#762=CARTESIAN_POINT('',(136.696831037371,-219.74156822228,-8.97295069608156));
#763=CARTESIAN_POINT('',(136.696831037371,-219.74156822228,-5.97295069608156));
#764=CARTESIAN_POINT('',(136.696831037371,-219.74156822228,-5.97295069608156));
#765=CARTESIAN_POINT('',(136.696831037371,-219.74156822228,-8.97295069608156));
#766=CARTESIAN_POINT('Origin',(132.638722444333,-225.704504374564,-8.97295069608156));
#767=CARTESIAN_POINT('',(132.638722444333,-225.704504374564,-8.97295069608156));
#768=CARTESIAN_POINT('',(132.638722444333,-225.704504374564,-8.97295069608156));
#769=CARTESIAN_POINT('',(132.638722444333,-225.704504374564,-5.97295069608156));
#770=CARTESIAN_POINT('',(132.638722444333,-225.704504374564,-5.97295069608156));
#771=CARTESIAN_POINT('',(132.638722444333,-225.704504374564,-8.97295069608156));
#772=CARTESIAN_POINT('Origin',(130.985296589898,-224.579256426828,-8.97295069608156));
#773=CARTESIAN_POINT('',(130.985296589898,-226.579256426828,-8.97295069608156));
#774=CARTESIAN_POINT('Origin',(130.985296589898,-224.579256426828,-8.97295069608156));
#775=CARTESIAN_POINT('',(130.985296589898,-226.579256426828,-5.97295069608156));
#776=CARTESIAN_POINT('Origin',(130.985296589898,-224.579256426828,-5.97295069608156));
#777=CARTESIAN_POINT('',(130.985296589898,-226.579256426828,-8.97295069608156));
#778=CARTESIAN_POINT('Origin',(98.1073385292978,-226.579256426828,-8.97295069608157));
#779=CARTESIAN_POINT('',(98.1073385292978,-226.579256426828,-8.97295069608157));
#780=CARTESIAN_POINT('',(98.1073385292978,-226.579256426828,-8.97295069608157));
#781=CARTESIAN_POINT('',(98.1073385292978,-226.579256426828,-5.97295069608157));
#782=CARTESIAN_POINT('',(98.1073385292978,-226.579256426828,-5.97295069608157));
#783=CARTESIAN_POINT('',(98.1073385292978,-226.579256426828,-8.97295069608157));
#784=CARTESIAN_POINT('Origin',(98.1073385292977,-224.579256426828,-8.97295069608157));
#785=CARTESIAN_POINT('Origin',(98.1073385292977,-224.579256426828,-8.97295069608157));
#786=CARTESIAN_POINT('Origin',(98.1073385292977,-224.579256426828,-5.97295069608157));
#787=CARTESIAN_POINT('Origin',(114.543405518211,-200.40578637571,-5.97295069608156));
#788=CARTESIAN_POINT('Origin',(114.543405518211,-200.40578637571,-8.97295069608156));
#789=UNCERTAINTY_MEASURE_WITH_UNIT(LENGTH_MEASURE(0.01),#793,
'DISTANCE_ACCURACY_VALUE',
'Maximum model space distance between geometric entities at asserted c
onnectivities');
#790=UNCERTAINTY_MEASURE_WITH_UNIT(LENGTH_MEASURE(0.01),#793,
'DISTANCE_ACCURACY_VALUE',
'Maximum model space distance between geometric entities at asserted c
onnectivities');
#791=(
GEOMETRIC_REPRESENTATION_CONTEXT(3)
GLOBAL_UNCERTAINTY_ASSIGNED_CONTEXT((#789))
GLOBAL_UNIT_ASSIGNED_CONTEXT((#793,#795,#796))
REPRESENTATION_CONTEXT('','3D')
);
#792=(
GEOMETRIC_REPRESENTATION_CONTEXT(3)
GLOBAL_UNCERTAINTY_ASSIGNED_CONTEXT((#790))
GLOBAL_UNIT_ASSIGNED_CONTEXT((#793,#795,#796))
REPRESENTATION_CONTEXT('','3D')
);
#793=(
LENGTH_UNIT()
NAMED_UNIT(*)
SI_UNIT(.MILLI.,.METRE.)
);
#794=(
LENGTH_UNIT()
NAMED_UNIT(*)
SI_UNIT($,.METRE.)
);
#795=(
NAMED_UNIT(*)
PLANE_ANGLE_UNIT()
SI_UNIT($,.RADIAN.)
);
#796=(
NAMED_UNIT(*)
SI_UNIT($,.STERADIAN.)
SOLID_ANGLE_UNIT()
);
#797=SHAPE_DEFINITION_REPRESENTATION(#798,#799);
#798=PRODUCT_DEFINITION_SHAPE('',$,#801);
#799=SHAPE_REPRESENTATION('',(#477),#791);
#800=PRODUCT_DEFINITION_CONTEXT('part definition',#805,'design');
#801=PRODUCT_DEFINITION('arm_part8','arm_part8',#802,#800);
#802=PRODUCT_DEFINITION_FORMATION('',$,#807);
#803=PRODUCT_RELATED_PRODUCT_CATEGORY('arm_part8','arm_part8',(#807));
#804=APPLICATION_PROTOCOL_DEFINITION('international standard',
'automotive_design',2009,#805);
#805=APPLICATION_CONTEXT(
'Core Data for Automotive Mechanical Design Process');
#806=PRODUCT_CONTEXT('part definition',#805,'mechanical');
#807=PRODUCT('arm_part8','arm_part8',$,(#806));
#808=PRESENTATION_STYLE_ASSIGNMENT((#809));
#809=SURFACE_STYLE_USAGE(.BOTH.,#810);
#810=SURFACE_SIDE_STYLE('',(#811));
#811=SURFACE_STYLE_FILL_AREA(#812);
#812=FILL_AREA_STYLE('Steel - Satin',(#813));
#813=FILL_AREA_STYLE_COLOUR('Steel - Satin',#814);
#814=COLOUR_RGB('Steel - Satin',0.627450980392157,0.627450980392157,0.627450980392157);
ENDSEC;
END-ISO-10303-21;
