ISO-10303-21;
HEADER;
/* Generated by software containing ST-Developer
 * from STEP Tools, Inc. (www.steptools.com) 
 */

FILE_DESCRIPTION(
/* description */ (''),
/* implementation_level */ '2;1');

FILE_NAME(
/* name */ 'arm_part1.step',
/* time_stamp */ '2026-08-20T17:24:36+05:30',
/* author */ (''),
/* organization */ (''),
/* preprocessor_version */ 'ST-DEVELOPER v20.1',
/* originating_system */ 'Autodesk Translation Framework v15.8.0.0',
/* authorisation */ '');

FILE_SCHEMA (('AUTOMOTIVE_DESIGN { 1 0 10303 214 3 1 1 }'));
ENDSEC;

DATA;
#10=MECHANICAL_DESIGN_GEOMETRIC_PRESENTATION_REPRESENTATION('',(#13),#1293);
#11=SHAPE_REPRESENTATION_RELATIONSHIP('SRR','None',#1300,#12);
#12=ADVANCED_BREP_SHAPE_REPRESENTATION('',(#14),#1292);
#13=STYLED_ITEM('',(#1309),#14);
#14=MANIFOLD_SOLID_BREP('Body1',#753);
#15=CONICAL_SURFACE('',#791,12.0013869235705,0.785398163397447);
#16=CONICAL_SURFACE('',#802,12.0013869235705,0.785398163397447);
#17=CONICAL_SURFACE('',#821,25.,0.785398163397448);
#18=CONICAL_SURFACE('',#824,15.,0.785398163397448);
#19=CONICAL_SURFACE('',#832,25.,0.785398163397448);
#20=CONICAL_SURFACE('',#835,15.,0.785398163397449);
#21=B_SPLINE_CURVE_WITH_KNOTS('',3,(#1109,#1110,#1111,#1112),
 .UNSPECIFIED.,.F.,.F.,(4,4),(-0.422235418750356,0.),.UNSPECIFIED.);
#22=B_SPLINE_CURVE_WITH_KNOTS('',3,(#1118,#1119,#1120,#1121),
 .UNSPECIFIED.,.F.,.F.,(4,4),(-0.422184414263081,0.),.UNSPECIFIED.);
#23=B_SPLINE_CURVE_WITH_KNOTS('',3,(#1154,#1155,#1156,#1157),
 .UNSPECIFIED.,.F.,.F.,(4,4),(-0.422259299649294,0.),.UNSPECIFIED.);
#24=B_SPLINE_CURVE_WITH_KNOTS('',3,(#1169,#1170,#1171,#1172),
 .UNSPECIFIED.,.F.,.F.,(4,4),(-0.422160574441937,0.),.UNSPECIFIED.);
#25=B_SPLINE_CURVE_WITH_KNOTS('',3,(#1226,#1227,#1228,#1229),
 .UNSPECIFIED.,.F.,.F.,(4,4),(0.,0.705031480092691),.UNSPECIFIED.);
#26=B_SPLINE_CURVE_WITH_KNOTS('',3,(#1233,#1234,#1235,#1236),
 .UNSPECIFIED.,.F.,.F.,(4,4),(0.,0.705154726436276),.UNSPECIFIED.);
#27=B_SPLINE_CURVE_WITH_KNOTS('',3,(#1269,#1270,#1271,#1272),
 .UNSPECIFIED.,.F.,.F.,(4,4),(0.,0.705090506504654),.UNSPECIFIED.);
#28=B_SPLINE_CURVE_WITH_KNOTS('',3,(#1273,#1274,#1275,#1276),
 .UNSPECIFIED.,.F.,.F.,(4,4),(0.,0.705031479479894),.UNSPECIFIED.);
#29=FACE_BOUND('',#121,.T.);
#30=FACE_BOUND('',#124,.T.);
#31=FACE_BOUND('',#127,.T.);
#32=FACE_BOUND('',#130,.T.);
#33=FACE_BOUND('',#139,.T.);
#34=FACE_BOUND('',#140,.T.);
#35=FACE_BOUND('',#141,.T.);
#36=FACE_BOUND('',#149,.T.);
#37=FACE_BOUND('',#150,.T.);
#38=FACE_BOUND('',#151,.T.);
#39=PLANE('',#770);
#40=PLANE('',#775);
#41=PLANE('',#780);
#42=PLANE('',#785);
#43=PLANE('',#788);
#44=PLANE('',#789);
#45=PLANE('',#790);
#46=PLANE('',#794);
#47=PLANE('',#795);
#48=PLANE('',#796);
#49=PLANE('',#799);
#50=PLANE('',#800);
#51=PLANE('',#801);
#52=PLANE('',#807);
#53=PLANE('',#808);
#54=PLANE('',#811);
#55=PLANE('',#812);
#56=PLANE('',#813);
#57=PLANE('',#814);
#58=PLANE('',#817);
#59=PLANE('',#819);
#60=PLANE('',#820);
#61=PLANE('',#823);
#62=PLANE('',#826);
#63=PLANE('',#827);
#64=PLANE('',#830);
#65=PLANE('',#831);
#66=PLANE('',#834);
#67=PLANE('',#836);
#68=PLANE('',#837);
#69=PLANE('',#838);
#70=PLANE('',#840);
#71=FACE_OUTER_BOUND('',#119,.T.);
#72=FACE_OUTER_BOUND('',#120,.T.);
#73=FACE_OUTER_BOUND('',#122,.T.);
#74=FACE_OUTER_BOUND('',#123,.T.);
#75=FACE_OUTER_BOUND('',#125,.T.);
#76=FACE_OUTER_BOUND('',#126,.T.);
#77=FACE_OUTER_BOUND('',#128,.T.);
#78=FACE_OUTER_BOUND('',#129,.T.);
#79=FACE_OUTER_BOUND('',#131,.T.);
#80=FACE_OUTER_BOUND('',#132,.T.);
#81=FACE_OUTER_BOUND('',#133,.T.);
#82=FACE_OUTER_BOUND('',#134,.T.);
#83=FACE_OUTER_BOUND('',#135,.T.);
#84=FACE_OUTER_BOUND('',#136,.T.);
#85=FACE_OUTER_BOUND('',#137,.T.);
#86=FACE_OUTER_BOUND('',#138,.T.);
#87=FACE_OUTER_BOUND('',#142,.T.);
#88=FACE_OUTER_BOUND('',#143,.T.);
#89=FACE_OUTER_BOUND('',#144,.T.);
#90=FACE_OUTER_BOUND('',#145,.T.);
#91=FACE_OUTER_BOUND('',#146,.T.);
#92=FACE_OUTER_BOUND('',#147,.T.);
#93=FACE_OUTER_BOUND('',#148,.T.);
#94=FACE_OUTER_BOUND('',#152,.T.);
#95=FACE_OUTER_BOUND('',#153,.T.);
#96=FACE_OUTER_BOUND('',#154,.T.);
#97=FACE_OUTER_BOUND('',#155,.T.);
#98=FACE_OUTER_BOUND('',#156,.T.);
#99=FACE_OUTER_BOUND('',#157,.T.);
#100=FACE_OUTER_BOUND('',#158,.T.);
#101=FACE_OUTER_BOUND('',#159,.T.);
#102=FACE_OUTER_BOUND('',#160,.T.);
#103=FACE_OUTER_BOUND('',#161,.T.);
#104=FACE_OUTER_BOUND('',#162,.T.);
#105=FACE_OUTER_BOUND('',#163,.T.);
#106=FACE_OUTER_BOUND('',#164,.T.);
#107=FACE_OUTER_BOUND('',#165,.T.);
#108=FACE_OUTER_BOUND('',#166,.T.);
#109=FACE_OUTER_BOUND('',#167,.T.);
#110=FACE_OUTER_BOUND('',#168,.T.);
#111=FACE_OUTER_BOUND('',#169,.T.);
#112=FACE_OUTER_BOUND('',#170,.T.);
#113=FACE_OUTER_BOUND('',#171,.T.);
#114=FACE_OUTER_BOUND('',#172,.T.);
#115=FACE_OUTER_BOUND('',#173,.T.);
#116=FACE_OUTER_BOUND('',#174,.T.);
#117=FACE_OUTER_BOUND('',#175,.T.);
#118=FACE_OUTER_BOUND('',#176,.T.);
#119=EDGE_LOOP('',(#495,#496,#497,#498));
#120=EDGE_LOOP('',(#499));
#121=EDGE_LOOP('',(#500));
#122=EDGE_LOOP('',(#501,#502,#503,#504));
#123=EDGE_LOOP('',(#505));
#124=EDGE_LOOP('',(#506));
#125=EDGE_LOOP('',(#507,#508,#509,#510));
#126=EDGE_LOOP('',(#511));
#127=EDGE_LOOP('',(#512));
#128=EDGE_LOOP('',(#513,#514,#515,#516));
#129=EDGE_LOOP('',(#517));
#130=EDGE_LOOP('',(#518));
#131=EDGE_LOOP('',(#519,#520,#521,#522));
#132=EDGE_LOOP('',(#523,#524,#525,#526));
#133=EDGE_LOOP('',(#527,#528,#529,#530));
#134=EDGE_LOOP('',(#531,#532,#533,#534));
#135=EDGE_LOOP('',(#535,#536,#537,#538));
#136=EDGE_LOOP('',(#539,#540,#541,#542));
#137=EDGE_LOOP('',(#543,#544,#545,#546));
#138=EDGE_LOOP('',(#547,#548,#549,#550,#551,#552));
#139=EDGE_LOOP('',(#553));
#140=EDGE_LOOP('',(#554));
#141=EDGE_LOOP('',(#555,#556,#557,#558));
#142=EDGE_LOOP('',(#559,#560,#561,#562));
#143=EDGE_LOOP('',(#563,#564,#565,#566));
#144=EDGE_LOOP('',(#567,#568,#569,#570));
#145=EDGE_LOOP('',(#571,#572,#573,#574));
#146=EDGE_LOOP('',(#575,#576,#577,#578));
#147=EDGE_LOOP('',(#579,#580,#581,#582));
#148=EDGE_LOOP('',(#583,#584,#585,#586,#587,#588));
#149=EDGE_LOOP('',(#589));
#150=EDGE_LOOP('',(#590));
#151=EDGE_LOOP('',(#591,#592,#593,#594));
#152=EDGE_LOOP('',(#595,#596,#597,#598));
#153=EDGE_LOOP('',(#599,#600,#601,#602));
#154=EDGE_LOOP('',(#603,#604,#605,#606));
#155=EDGE_LOOP('',(#607,#608,#609,#610));
#156=EDGE_LOOP('',(#611,#612,#613,#614));
#157=EDGE_LOOP('',(#615,#616,#617,#618));
#158=EDGE_LOOP('',(#619,#620,#621,#622));
#159=EDGE_LOOP('',(#623,#624,#625,#626));
#160=EDGE_LOOP('',(#627,#628,#629,#630));
#161=EDGE_LOOP('',(#631,#632,#633,#634));
#162=EDGE_LOOP('',(#635,#636,#637,#638));
#163=EDGE_LOOP('',(#639,#640,#641,#642));
#164=EDGE_LOOP('',(#643,#644,#645,#646));
#165=EDGE_LOOP('',(#647,#648,#649,#650));
#166=EDGE_LOOP('',(#651,#652,#653,#654));
#167=EDGE_LOOP('',(#655,#656,#657,#658));
#168=EDGE_LOOP('',(#659,#660,#661,#662));
#169=EDGE_LOOP('',(#663,#664,#665,#666));
#170=EDGE_LOOP('',(#667,#668,#669,#670));
#171=EDGE_LOOP('',(#671,#672,#673,#674));
#172=EDGE_LOOP('',(#675,#676,#677,#678));
#173=EDGE_LOOP('',(#679,#680,#681,#682));
#174=EDGE_LOOP('',(#683,#684,#685,#686));
#175=EDGE_LOOP('',(#687,#688,#689,#690));
#176=EDGE_LOOP('',(#691,#692,#693,#694));
#177=LINE('',#1062,#243);
#178=LINE('',#1071,#244);
#179=LINE('',#1080,#245);
#180=LINE('',#1089,#246);
#181=LINE('',#1095,#247);
#182=LINE('',#1099,#248);
#183=LINE('',#1101,#249);
#184=LINE('',#1103,#250);
#185=LINE('',#1104,#251);
#186=LINE('',#1107,#252);
#187=LINE('',#1113,#253);
#188=LINE('',#1116,#254);
#189=LINE('',#1122,#255);
#190=LINE('',#1128,#256);
#191=LINE('',#1130,#257);
#192=LINE('',#1131,#258);
#193=LINE('',#1134,#259);
#194=LINE('',#1135,#260);
#195=LINE('',#1141,#261);
#196=LINE('',#1143,#262);
#197=LINE('',#1147,#263);
#198=LINE('',#1148,#264);
#199=LINE('',#1152,#265);
#200=LINE('',#1159,#266);
#201=LINE('',#1160,#267);
#202=LINE('',#1164,#268);
#203=LINE('',#1166,#269);
#204=LINE('',#1168,#270);
#205=LINE('',#1174,#271);
#206=LINE('',#1175,#272);
#207=LINE('',#1181,#273);
#208=LINE('',#1184,#274);
#209=LINE('',#1187,#275);
#210=LINE('',#1188,#276);
#211=LINE('',#1192,#277);
#212=LINE('',#1196,#278);
#213=LINE('',#1198,#279);
#214=LINE('',#1201,#280);
#215=LINE('',#1204,#281);
#216=LINE('',#1205,#282);
#217=LINE('',#1207,#283);
#218=LINE('',#1211,#284);
#219=LINE('',#1212,#285);
#220=LINE('',#1217,#286);
#221=LINE('',#1221,#287);
#222=LINE('',#1222,#288);
#223=LINE('',#1223,#289);
#224=LINE('',#1230,#290);
#225=LINE('',#1240,#291);
#226=LINE('',#1241,#292);
#227=LINE('',#1244,#293);
#228=LINE('',#1247,#294);
#229=LINE('',#1250,#295);
#230=LINE('',#1252,#296);
#231=LINE('',#1253,#297);
#232=LINE('',#1256,#298);
#233=LINE('',#1260,#299);
#234=LINE('',#1261,#300);
#235=LINE('',#1263,#301);
#236=LINE('',#1264,#302);
#237=LINE('',#1278,#303);
#238=LINE('',#1280,#304);
#239=LINE('',#1282,#305);
#240=LINE('',#1284,#306);
#241=LINE('',#1286,#307);
#242=LINE('',#1288,#308);
#243=VECTOR('',#847,9.29828119429135);
#244=VECTOR('',#858,9.29828119429135);
#245=VECTOR('',#869,13.6830983337906);
#246=VECTOR('',#880,13.6830983337906);
#247=VECTOR('',#889,5.);
#248=VECTOR('',#892,10.);
#249=VECTOR('',#893,10.);
#250=VECTOR('',#894,10.);
#251=VECTOR('',#895,10.);
#252=VECTOR('',#898,10.);
#253=VECTOR('',#899,10.);
#254=VECTOR('',#902,10.);
#255=VECTOR('',#903,10.);
#256=VECTOR('',#912,10.);
#257=VECTOR('',#913,10.);
#258=VECTOR('',#914,10.);
#259=VECTOR('',#917,10.);
#260=VECTOR('',#918,10.);
#261=VECTOR('',#923,10.);
#262=VECTOR('',#924,10.);
#263=VECTOR('',#927,10.);
#264=VECTOR('',#928,10.);
#265=VECTOR('',#931,10.);
#266=VECTOR('',#932,10.);
#267=VECTOR('',#933,10.);
#268=VECTOR('',#936,10.);
#269=VECTOR('',#937,10.);
#270=VECTOR('',#938,10.);
#271=VECTOR('',#941,10.);
#272=VECTOR('',#942,10.);
#273=VECTOR('',#951,10.);
#274=VECTOR('',#954,10.);
#275=VECTOR('',#957,10.);
#276=VECTOR('',#958,10.);
#277=VECTOR('',#961,10.);
#278=VECTOR('',#964,10.);
#279=VECTOR('',#965,10.);
#280=VECTOR('',#968,10.);
#281=VECTOR('',#971,10.);
#282=VECTOR('',#972,10.);
#283=VECTOR('',#975,10.);
#284=VECTOR('',#980,10.);
#285=VECTOR('',#981,10.);
#286=VECTOR('',#990,7.5);
#287=VECTOR('',#993,10.);
#288=VECTOR('',#994,10.);
#289=VECTOR('',#995,10.);
#290=VECTOR('',#998,10.);
#291=VECTOR('',#1005,10.);
#292=VECTOR('',#1006,10.);
#293=VECTOR('',#1009,10.);
#294=VECTOR('',#1014,10.);
#295=VECTOR('',#1017,10.);
#296=VECTOR('',#1018,10.);
#297=VECTOR('',#1019,10.);
#298=VECTOR('',#1022,10.);
#299=VECTOR('',#1027,10.);
#300=VECTOR('',#1028,10.);
#301=VECTOR('',#1031,10.);
#302=VECTOR('',#1032,10.);
#303=VECTOR('',#1039,10.);
#304=VECTOR('',#1042,10.);
#305=VECTOR('',#1045,10.);
#306=VECTOR('',#1048,10.);
#307=VECTOR('',#1051,10.);
#308=VECTOR('',#1054,10.);
#309=CIRCLE('',#768,9.29828119429135);
#310=CIRCLE('',#769,9.29828119429135);
#311=CIRCLE('',#771,5.);
#312=CIRCLE('',#773,9.29828119429135);
#313=CIRCLE('',#774,9.29828119429135);
#314=CIRCLE('',#776,5.);
#315=CIRCLE('',#778,13.6830983337906);
#316=CIRCLE('',#779,13.6830983337906);
#317=CIRCLE('',#781,7.5);
#318=CIRCLE('',#783,13.6830983337906);
#319=CIRCLE('',#784,13.6830983337906);
#320=CIRCLE('',#786,7.5);
#321=CIRCLE('',#792,13.5013869235705);
#322=CIRCLE('',#793,10.5013869235705);
#323=CIRCLE('',#797,22.5);
#324=CIRCLE('',#798,12.5);
#325=CIRCLE('',#803,13.5013869235705);
#326=CIRCLE('',#804,10.5013869235705);
#327=CIRCLE('',#806,10.5013869235705);
#328=CIRCLE('',#809,12.5);
#329=CIRCLE('',#810,22.5);
#330=CIRCLE('',#816,10.5013869235705);
#331=CIRCLE('',#822,27.5);
#332=CIRCLE('',#825,17.5);
#333=CIRCLE('',#829,17.5);
#334=CIRCLE('',#833,27.5);
#335=VERTEX_POINT('',#1059);
#336=VERTEX_POINT('',#1061);
#337=VERTEX_POINT('',#1065);
#338=VERTEX_POINT('',#1068);
#339=VERTEX_POINT('',#1070);
#340=VERTEX_POINT('',#1074);
#341=VERTEX_POINT('',#1077);
#342=VERTEX_POINT('',#1079);
#343=VERTEX_POINT('',#1083);
#344=VERTEX_POINT('',#1086);
#345=VERTEX_POINT('',#1088);
#346=VERTEX_POINT('',#1092);
#347=VERTEX_POINT('',#1097);
#348=VERTEX_POINT('',#1098);
#349=VERTEX_POINT('',#1100);
#350=VERTEX_POINT('',#1102);
#351=VERTEX_POINT('',#1106);
#352=VERTEX_POINT('',#1108);
#353=VERTEX_POINT('',#1115);
#354=VERTEX_POINT('',#1117);
#355=VERTEX_POINT('',#1127);
#356=VERTEX_POINT('',#1129);
#357=VERTEX_POINT('',#1133);
#358=VERTEX_POINT('',#1137);
#359=VERTEX_POINT('',#1138);
#360=VERTEX_POINT('',#1140);
#361=VERTEX_POINT('',#1142);
#362=VERTEX_POINT('',#1144);
#363=VERTEX_POINT('',#1146);
#364=VERTEX_POINT('',#1150);
#365=VERTEX_POINT('',#1151);
#366=VERTEX_POINT('',#1153);
#367=VERTEX_POINT('',#1158);
#368=VERTEX_POINT('',#1162);
#369=VERTEX_POINT('',#1163);
#370=VERTEX_POINT('',#1165);
#371=VERTEX_POINT('',#1167);
#372=VERTEX_POINT('',#1180);
#373=VERTEX_POINT('',#1182);
#374=VERTEX_POINT('',#1186);
#375=VERTEX_POINT('',#1190);
#376=VERTEX_POINT('',#1191);
#377=VERTEX_POINT('',#1193);
#378=VERTEX_POINT('',#1195);
#379=VERTEX_POINT('',#1197);
#380=VERTEX_POINT('',#1199);
#381=VERTEX_POINT('',#1203);
#382=VERTEX_POINT('',#1210);
#383=VERTEX_POINT('',#1219);
#384=VERTEX_POINT('',#1220);
#385=VERTEX_POINT('',#1225);
#386=VERTEX_POINT('',#1232);
#387=VERTEX_POINT('',#1239);
#388=VERTEX_POINT('',#1243);
#389=VERTEX_POINT('',#1249);
#390=VERTEX_POINT('',#1251);
#391=VERTEX_POINT('',#1255);
#392=VERTEX_POINT('',#1259);
#393=VERTEX_POINT('',#1266);
#394=VERTEX_POINT('',#1267);
#395=EDGE_CURVE('',#335,#335,#309,.T.);
#396=EDGE_CURVE('',#335,#336,#177,.T.);
#397=EDGE_CURVE('',#336,#336,#310,.T.);
#398=EDGE_CURVE('',#337,#337,#311,.T.);
#399=EDGE_CURVE('',#338,#338,#312,.T.);
#400=EDGE_CURVE('',#338,#339,#178,.T.);
#401=EDGE_CURVE('',#339,#339,#313,.T.);
#402=EDGE_CURVE('',#340,#340,#314,.T.);
#403=EDGE_CURVE('',#341,#341,#315,.T.);
#404=EDGE_CURVE('',#341,#342,#179,.T.);
#405=EDGE_CURVE('',#342,#342,#316,.T.);
#406=EDGE_CURVE('',#343,#343,#317,.T.);
#407=EDGE_CURVE('',#344,#344,#318,.T.);
#408=EDGE_CURVE('',#344,#345,#180,.T.);
#409=EDGE_CURVE('',#345,#345,#319,.T.);
#410=EDGE_CURVE('',#346,#346,#320,.T.);
#411=EDGE_CURVE('',#337,#340,#181,.T.);
#412=EDGE_CURVE('',#347,#348,#182,.T.);
#413=EDGE_CURVE('',#348,#349,#183,.T.);
#414=EDGE_CURVE('',#349,#350,#184,.T.);
#415=EDGE_CURVE('',#347,#350,#185,.T.);
#416=EDGE_CURVE('',#348,#351,#186,.T.);
#417=EDGE_CURVE('',#351,#352,#21,.T.);
#418=EDGE_CURVE('',#352,#349,#187,.T.);
#419=EDGE_CURVE('',#350,#353,#188,.T.);
#420=EDGE_CURVE('',#353,#354,#22,.T.);
#421=EDGE_CURVE('',#354,#347,#189,.T.);
#422=EDGE_CURVE('',#351,#354,#321,.T.);
#423=EDGE_CURVE('',#353,#352,#322,.T.);
#424=EDGE_CURVE('',#350,#355,#190,.T.);
#425=EDGE_CURVE('',#355,#356,#191,.T.);
#426=EDGE_CURVE('',#353,#356,#192,.T.);
#427=EDGE_CURVE('',#349,#357,#193,.T.);
#428=EDGE_CURVE('',#357,#355,#194,.T.);
#429=EDGE_CURVE('',#358,#359,#323,.T.);
#430=EDGE_CURVE('',#360,#358,#195,.T.);
#431=EDGE_CURVE('',#361,#360,#196,.T.);
#432=EDGE_CURVE('',#362,#361,#324,.T.);
#433=EDGE_CURVE('',#363,#362,#197,.T.);
#434=EDGE_CURVE('',#359,#363,#198,.T.);
#435=EDGE_CURVE('',#364,#365,#199,.T.);
#436=EDGE_CURVE('',#365,#366,#23,.T.);
#437=EDGE_CURVE('',#366,#367,#200,.T.);
#438=EDGE_CURVE('',#364,#367,#201,.T.);
#439=EDGE_CURVE('',#368,#369,#202,.T.);
#440=EDGE_CURVE('',#369,#370,#203,.T.);
#441=EDGE_CURVE('',#370,#371,#204,.T.);
#442=EDGE_CURVE('',#371,#368,#24,.T.);
#443=EDGE_CURVE('',#367,#370,#205,.T.);
#444=EDGE_CURVE('',#369,#364,#206,.T.);
#445=EDGE_CURVE('',#365,#368,#325,.T.);
#446=EDGE_CURVE('',#371,#366,#326,.T.);
#447=EDGE_CURVE('',#371,#372,#207,.T.);
#448=EDGE_CURVE('',#372,#373,#327,.T.);
#449=EDGE_CURVE('',#366,#373,#208,.T.);
#450=EDGE_CURVE('',#370,#374,#209,.T.);
#451=EDGE_CURVE('',#374,#372,#210,.T.);
#452=EDGE_CURVE('',#375,#376,#211,.T.);
#453=EDGE_CURVE('',#377,#375,#328,.T.);
#454=EDGE_CURVE('',#378,#377,#212,.T.);
#455=EDGE_CURVE('',#379,#378,#213,.T.);
#456=EDGE_CURVE('',#380,#379,#329,.T.);
#457=EDGE_CURVE('',#376,#380,#214,.T.);
#458=EDGE_CURVE('',#373,#381,#215,.T.);
#459=EDGE_CURVE('',#367,#381,#216,.T.);
#460=EDGE_CURVE('',#381,#374,#217,.T.);
#461=EDGE_CURVE('',#352,#382,#218,.T.);
#462=EDGE_CURVE('',#382,#357,#219,.T.);
#463=EDGE_CURVE('',#356,#382,#330,.T.);
#464=EDGE_CURVE('',#346,#343,#220,.T.);
#465=EDGE_CURVE('',#383,#384,#221,.T.);
#466=EDGE_CURVE('',#384,#375,#222,.T.);
#467=EDGE_CURVE('',#376,#383,#223,.T.);
#468=EDGE_CURVE('',#380,#385,#25,.T.);
#469=EDGE_CURVE('',#385,#383,#224,.T.);
#470=EDGE_CURVE('',#379,#386,#26,.T.);
#471=EDGE_CURVE('',#386,#385,#331,.T.);
#472=EDGE_CURVE('',#387,#386,#225,.T.);
#473=EDGE_CURVE('',#378,#387,#226,.T.);
#474=EDGE_CURVE('',#388,#377,#227,.T.);
#475=EDGE_CURVE('',#384,#388,#332,.T.);
#476=EDGE_CURVE('',#388,#387,#228,.T.);
#477=EDGE_CURVE('',#389,#388,#229,.T.);
#478=EDGE_CURVE('',#390,#389,#230,.T.);
#479=EDGE_CURVE('',#390,#387,#231,.T.);
#480=EDGE_CURVE('',#391,#384,#232,.T.);
#481=EDGE_CURVE('',#389,#391,#333,.T.);
#482=EDGE_CURVE('',#392,#383,#233,.T.);
#483=EDGE_CURVE('',#391,#392,#234,.T.);
#484=EDGE_CURVE('',#389,#361,#235,.T.);
#485=EDGE_CURVE('',#360,#390,#236,.T.);
#486=EDGE_CURVE('',#393,#394,#334,.T.);
#487=EDGE_CURVE('',#394,#358,#27,.T.);
#488=EDGE_CURVE('',#359,#393,#28,.T.);
#489=EDGE_CURVE('',#394,#390,#237,.T.);
#490=EDGE_CURVE('',#391,#362,#238,.T.);
#491=EDGE_CURVE('',#363,#392,#239,.T.);
#492=EDGE_CURVE('',#392,#393,#240,.T.);
#493=EDGE_CURVE('',#394,#386,#241,.T.);
#494=EDGE_CURVE('',#393,#385,#242,.T.);
#495=ORIENTED_EDGE('',*,*,#395,.F.);
#496=ORIENTED_EDGE('',*,*,#396,.T.);
#497=ORIENTED_EDGE('',*,*,#397,.T.);
#498=ORIENTED_EDGE('',*,*,#396,.F.);
#499=ORIENTED_EDGE('',*,*,#397,.F.);
#500=ORIENTED_EDGE('',*,*,#398,.F.);
#501=ORIENTED_EDGE('',*,*,#399,.F.);
#502=ORIENTED_EDGE('',*,*,#400,.T.);
#503=ORIENTED_EDGE('',*,*,#401,.T.);
#504=ORIENTED_EDGE('',*,*,#400,.F.);
#505=ORIENTED_EDGE('',*,*,#401,.F.);
#506=ORIENTED_EDGE('',*,*,#402,.F.);
#507=ORIENTED_EDGE('',*,*,#403,.F.);
#508=ORIENTED_EDGE('',*,*,#404,.T.);
#509=ORIENTED_EDGE('',*,*,#405,.T.);
#510=ORIENTED_EDGE('',*,*,#404,.F.);
#511=ORIENTED_EDGE('',*,*,#405,.F.);
#512=ORIENTED_EDGE('',*,*,#406,.F.);
#513=ORIENTED_EDGE('',*,*,#407,.F.);
#514=ORIENTED_EDGE('',*,*,#408,.T.);
#515=ORIENTED_EDGE('',*,*,#409,.T.);
#516=ORIENTED_EDGE('',*,*,#408,.F.);
#517=ORIENTED_EDGE('',*,*,#409,.F.);
#518=ORIENTED_EDGE('',*,*,#410,.F.);
#519=ORIENTED_EDGE('',*,*,#398,.T.);
#520=ORIENTED_EDGE('',*,*,#411,.T.);
#521=ORIENTED_EDGE('',*,*,#402,.T.);
#522=ORIENTED_EDGE('',*,*,#411,.F.);
#523=ORIENTED_EDGE('',*,*,#412,.T.);
#524=ORIENTED_EDGE('',*,*,#413,.T.);
#525=ORIENTED_EDGE('',*,*,#414,.T.);
#526=ORIENTED_EDGE('',*,*,#415,.F.);
#527=ORIENTED_EDGE('',*,*,#416,.T.);
#528=ORIENTED_EDGE('',*,*,#417,.T.);
#529=ORIENTED_EDGE('',*,*,#418,.T.);
#530=ORIENTED_EDGE('',*,*,#413,.F.);
#531=ORIENTED_EDGE('',*,*,#419,.T.);
#532=ORIENTED_EDGE('',*,*,#420,.T.);
#533=ORIENTED_EDGE('',*,*,#421,.T.);
#534=ORIENTED_EDGE('',*,*,#415,.T.);
#535=ORIENTED_EDGE('',*,*,#422,.T.);
#536=ORIENTED_EDGE('',*,*,#420,.F.);
#537=ORIENTED_EDGE('',*,*,#423,.T.);
#538=ORIENTED_EDGE('',*,*,#417,.F.);
#539=ORIENTED_EDGE('',*,*,#419,.F.);
#540=ORIENTED_EDGE('',*,*,#424,.T.);
#541=ORIENTED_EDGE('',*,*,#425,.T.);
#542=ORIENTED_EDGE('',*,*,#426,.F.);
#543=ORIENTED_EDGE('',*,*,#414,.F.);
#544=ORIENTED_EDGE('',*,*,#427,.T.);
#545=ORIENTED_EDGE('',*,*,#428,.T.);
#546=ORIENTED_EDGE('',*,*,#424,.F.);
#547=ORIENTED_EDGE('',*,*,#429,.F.);
#548=ORIENTED_EDGE('',*,*,#430,.F.);
#549=ORIENTED_EDGE('',*,*,#431,.F.);
#550=ORIENTED_EDGE('',*,*,#432,.F.);
#551=ORIENTED_EDGE('',*,*,#433,.F.);
#552=ORIENTED_EDGE('',*,*,#434,.F.);
#553=ORIENTED_EDGE('',*,*,#399,.T.);
#554=ORIENTED_EDGE('',*,*,#407,.T.);
#555=ORIENTED_EDGE('',*,*,#412,.F.);
#556=ORIENTED_EDGE('',*,*,#421,.F.);
#557=ORIENTED_EDGE('',*,*,#422,.F.);
#558=ORIENTED_EDGE('',*,*,#416,.F.);
#559=ORIENTED_EDGE('',*,*,#435,.T.);
#560=ORIENTED_EDGE('',*,*,#436,.T.);
#561=ORIENTED_EDGE('',*,*,#437,.T.);
#562=ORIENTED_EDGE('',*,*,#438,.F.);
#563=ORIENTED_EDGE('',*,*,#439,.T.);
#564=ORIENTED_EDGE('',*,*,#440,.T.);
#565=ORIENTED_EDGE('',*,*,#441,.T.);
#566=ORIENTED_EDGE('',*,*,#442,.T.);
#567=ORIENTED_EDGE('',*,*,#443,.T.);
#568=ORIENTED_EDGE('',*,*,#440,.F.);
#569=ORIENTED_EDGE('',*,*,#444,.T.);
#570=ORIENTED_EDGE('',*,*,#438,.T.);
#571=ORIENTED_EDGE('',*,*,#445,.T.);
#572=ORIENTED_EDGE('',*,*,#442,.F.);
#573=ORIENTED_EDGE('',*,*,#446,.T.);
#574=ORIENTED_EDGE('',*,*,#436,.F.);
#575=ORIENTED_EDGE('',*,*,#446,.F.);
#576=ORIENTED_EDGE('',*,*,#447,.T.);
#577=ORIENTED_EDGE('',*,*,#448,.T.);
#578=ORIENTED_EDGE('',*,*,#449,.F.);
#579=ORIENTED_EDGE('',*,*,#441,.F.);
#580=ORIENTED_EDGE('',*,*,#450,.T.);
#581=ORIENTED_EDGE('',*,*,#451,.T.);
#582=ORIENTED_EDGE('',*,*,#447,.F.);
#583=ORIENTED_EDGE('',*,*,#452,.F.);
#584=ORIENTED_EDGE('',*,*,#453,.F.);
#585=ORIENTED_EDGE('',*,*,#454,.F.);
#586=ORIENTED_EDGE('',*,*,#455,.F.);
#587=ORIENTED_EDGE('',*,*,#456,.F.);
#588=ORIENTED_EDGE('',*,*,#457,.F.);
#589=ORIENTED_EDGE('',*,*,#395,.T.);
#590=ORIENTED_EDGE('',*,*,#403,.T.);
#591=ORIENTED_EDGE('',*,*,#439,.F.);
#592=ORIENTED_EDGE('',*,*,#445,.F.);
#593=ORIENTED_EDGE('',*,*,#435,.F.);
#594=ORIENTED_EDGE('',*,*,#444,.F.);
#595=ORIENTED_EDGE('',*,*,#437,.F.);
#596=ORIENTED_EDGE('',*,*,#449,.T.);
#597=ORIENTED_EDGE('',*,*,#458,.T.);
#598=ORIENTED_EDGE('',*,*,#459,.F.);
#599=ORIENTED_EDGE('',*,*,#443,.F.);
#600=ORIENTED_EDGE('',*,*,#459,.T.);
#601=ORIENTED_EDGE('',*,*,#460,.T.);
#602=ORIENTED_EDGE('',*,*,#450,.F.);
#603=ORIENTED_EDGE('',*,*,#448,.F.);
#604=ORIENTED_EDGE('',*,*,#451,.F.);
#605=ORIENTED_EDGE('',*,*,#460,.F.);
#606=ORIENTED_EDGE('',*,*,#458,.F.);
#607=ORIENTED_EDGE('',*,*,#418,.F.);
#608=ORIENTED_EDGE('',*,*,#461,.T.);
#609=ORIENTED_EDGE('',*,*,#462,.T.);
#610=ORIENTED_EDGE('',*,*,#427,.F.);
#611=ORIENTED_EDGE('',*,*,#423,.F.);
#612=ORIENTED_EDGE('',*,*,#426,.T.);
#613=ORIENTED_EDGE('',*,*,#463,.T.);
#614=ORIENTED_EDGE('',*,*,#461,.F.);
#615=ORIENTED_EDGE('',*,*,#463,.F.);
#616=ORIENTED_EDGE('',*,*,#425,.F.);
#617=ORIENTED_EDGE('',*,*,#428,.F.);
#618=ORIENTED_EDGE('',*,*,#462,.F.);
#619=ORIENTED_EDGE('',*,*,#410,.T.);
#620=ORIENTED_EDGE('',*,*,#464,.T.);
#621=ORIENTED_EDGE('',*,*,#406,.T.);
#622=ORIENTED_EDGE('',*,*,#464,.F.);
#623=ORIENTED_EDGE('',*,*,#465,.T.);
#624=ORIENTED_EDGE('',*,*,#466,.T.);
#625=ORIENTED_EDGE('',*,*,#452,.T.);
#626=ORIENTED_EDGE('',*,*,#467,.T.);
#627=ORIENTED_EDGE('',*,*,#457,.T.);
#628=ORIENTED_EDGE('',*,*,#468,.T.);
#629=ORIENTED_EDGE('',*,*,#469,.T.);
#630=ORIENTED_EDGE('',*,*,#467,.F.);
#631=ORIENTED_EDGE('',*,*,#456,.T.);
#632=ORIENTED_EDGE('',*,*,#470,.T.);
#633=ORIENTED_EDGE('',*,*,#471,.T.);
#634=ORIENTED_EDGE('',*,*,#468,.F.);
#635=ORIENTED_EDGE('',*,*,#472,.T.);
#636=ORIENTED_EDGE('',*,*,#470,.F.);
#637=ORIENTED_EDGE('',*,*,#455,.T.);
#638=ORIENTED_EDGE('',*,*,#473,.T.);
#639=ORIENTED_EDGE('',*,*,#474,.T.);
#640=ORIENTED_EDGE('',*,*,#453,.T.);
#641=ORIENTED_EDGE('',*,*,#466,.F.);
#642=ORIENTED_EDGE('',*,*,#475,.T.);
#643=ORIENTED_EDGE('',*,*,#454,.T.);
#644=ORIENTED_EDGE('',*,*,#474,.F.);
#645=ORIENTED_EDGE('',*,*,#476,.T.);
#646=ORIENTED_EDGE('',*,*,#473,.F.);
#647=ORIENTED_EDGE('',*,*,#476,.F.);
#648=ORIENTED_EDGE('',*,*,#477,.F.);
#649=ORIENTED_EDGE('',*,*,#478,.F.);
#650=ORIENTED_EDGE('',*,*,#479,.T.);
#651=ORIENTED_EDGE('',*,*,#475,.F.);
#652=ORIENTED_EDGE('',*,*,#480,.F.);
#653=ORIENTED_EDGE('',*,*,#481,.F.);
#654=ORIENTED_EDGE('',*,*,#477,.T.);
#655=ORIENTED_EDGE('',*,*,#465,.F.);
#656=ORIENTED_EDGE('',*,*,#482,.F.);
#657=ORIENTED_EDGE('',*,*,#483,.F.);
#658=ORIENTED_EDGE('',*,*,#480,.T.);
#659=ORIENTED_EDGE('',*,*,#478,.T.);
#660=ORIENTED_EDGE('',*,*,#484,.T.);
#661=ORIENTED_EDGE('',*,*,#431,.T.);
#662=ORIENTED_EDGE('',*,*,#485,.T.);
#663=ORIENTED_EDGE('',*,*,#486,.T.);
#664=ORIENTED_EDGE('',*,*,#487,.T.);
#665=ORIENTED_EDGE('',*,*,#429,.T.);
#666=ORIENTED_EDGE('',*,*,#488,.T.);
#667=ORIENTED_EDGE('',*,*,#430,.T.);
#668=ORIENTED_EDGE('',*,*,#487,.F.);
#669=ORIENTED_EDGE('',*,*,#489,.T.);
#670=ORIENTED_EDGE('',*,*,#485,.F.);
#671=ORIENTED_EDGE('',*,*,#484,.F.);
#672=ORIENTED_EDGE('',*,*,#481,.T.);
#673=ORIENTED_EDGE('',*,*,#490,.T.);
#674=ORIENTED_EDGE('',*,*,#432,.T.);
#675=ORIENTED_EDGE('',*,*,#433,.T.);
#676=ORIENTED_EDGE('',*,*,#490,.F.);
#677=ORIENTED_EDGE('',*,*,#483,.T.);
#678=ORIENTED_EDGE('',*,*,#491,.F.);
#679=ORIENTED_EDGE('',*,*,#492,.T.);
#680=ORIENTED_EDGE('',*,*,#488,.F.);
#681=ORIENTED_EDGE('',*,*,#434,.T.);
#682=ORIENTED_EDGE('',*,*,#491,.T.);
#683=ORIENTED_EDGE('',*,*,#472,.F.);
#684=ORIENTED_EDGE('',*,*,#479,.F.);
#685=ORIENTED_EDGE('',*,*,#489,.F.);
#686=ORIENTED_EDGE('',*,*,#493,.T.);
#687=ORIENTED_EDGE('',*,*,#471,.F.);
#688=ORIENTED_EDGE('',*,*,#493,.F.);
#689=ORIENTED_EDGE('',*,*,#486,.F.);
#690=ORIENTED_EDGE('',*,*,#494,.T.);
#691=ORIENTED_EDGE('',*,*,#469,.F.);
#692=ORIENTED_EDGE('',*,*,#494,.F.);
#693=ORIENTED_EDGE('',*,*,#492,.F.);
#694=ORIENTED_EDGE('',*,*,#482,.T.);
#695=CYLINDRICAL_SURFACE('',#767,9.29828119429135);
#696=CYLINDRICAL_SURFACE('',#772,9.29828119429135);
#697=CYLINDRICAL_SURFACE('',#777,13.6830983337906);
#698=CYLINDRICAL_SURFACE('',#782,13.6830983337906);
#699=CYLINDRICAL_SURFACE('',#787,5.);
#700=CYLINDRICAL_SURFACE('',#805,10.5013869235705);
#701=CYLINDRICAL_SURFACE('',#815,10.5013869235705);
#702=CYLINDRICAL_SURFACE('',#818,7.5);
#703=CYLINDRICAL_SURFACE('',#828,17.5);
#704=CYLINDRICAL_SURFACE('',#839,27.5);
#705=ADVANCED_FACE('',(#71),#695,.F.);
#706=ADVANCED_FACE('',(#72,#29),#39,.T.);
#707=ADVANCED_FACE('',(#73),#696,.F.);
#708=ADVANCED_FACE('',(#74,#30),#40,.F.);
#709=ADVANCED_FACE('',(#75),#697,.F.);
#710=ADVANCED_FACE('',(#76,#31),#41,.T.);
#711=ADVANCED_FACE('',(#77),#698,.F.);
#712=ADVANCED_FACE('',(#78,#32),#42,.F.);
#713=ADVANCED_FACE('',(#79),#699,.F.);
#714=ADVANCED_FACE('',(#80),#43,.T.);
#715=ADVANCED_FACE('',(#81),#44,.T.);
#716=ADVANCED_FACE('',(#82),#45,.T.);
#717=ADVANCED_FACE('',(#83),#15,.F.);
#718=ADVANCED_FACE('',(#84),#46,.F.);
#719=ADVANCED_FACE('',(#85),#47,.F.);
#720=ADVANCED_FACE('',(#86,#33,#34,#35),#48,.F.);
#721=ADVANCED_FACE('',(#87),#49,.T.);
#722=ADVANCED_FACE('',(#88),#50,.T.);
#723=ADVANCED_FACE('',(#89),#51,.T.);
#724=ADVANCED_FACE('',(#90),#16,.F.);
#725=ADVANCED_FACE('',(#91),#700,.F.);
#726=ADVANCED_FACE('',(#92),#52,.F.);
#727=ADVANCED_FACE('',(#93,#36,#37,#38),#53,.T.);
#728=ADVANCED_FACE('',(#94),#54,.F.);
#729=ADVANCED_FACE('',(#95),#55,.F.);
#730=ADVANCED_FACE('',(#96),#56,.T.);
#731=ADVANCED_FACE('',(#97),#57,.F.);
#732=ADVANCED_FACE('',(#98),#701,.F.);
#733=ADVANCED_FACE('',(#99),#58,.F.);
#734=ADVANCED_FACE('',(#100),#702,.F.);
#735=ADVANCED_FACE('',(#101),#59,.T.);
#736=ADVANCED_FACE('',(#102),#60,.T.);
#737=ADVANCED_FACE('',(#103),#17,.T.);
#738=ADVANCED_FACE('',(#104),#61,.T.);
#739=ADVANCED_FACE('',(#105),#18,.T.);
#740=ADVANCED_FACE('',(#106),#62,.T.);
#741=ADVANCED_FACE('',(#107),#63,.T.);
#742=ADVANCED_FACE('',(#108),#703,.T.);
#743=ADVANCED_FACE('',(#109),#64,.T.);
#744=ADVANCED_FACE('',(#110),#65,.T.);
#745=ADVANCED_FACE('',(#111),#19,.T.);
#746=ADVANCED_FACE('',(#112),#66,.T.);
#747=ADVANCED_FACE('',(#113),#20,.T.);
#748=ADVANCED_FACE('',(#114),#67,.T.);
#749=ADVANCED_FACE('',(#115),#68,.T.);
#750=ADVANCED_FACE('',(#116),#69,.T.);
#751=ADVANCED_FACE('',(#117),#704,.T.);
#752=ADVANCED_FACE('',(#118),#70,.T.);
#753=CLOSED_SHELL('',(#705,#706,#707,#708,#709,#710,#711,#712,#713,#714,
#715,#716,#717,#718,#719,#720,#721,#722,#723,#724,#725,#726,#727,#728,#729,
#730,#731,#732,#733,#734,#735,#736,#737,#738,#739,#740,#741,#742,#743,#744,
#745,#746,#747,#748,#749,#750,#751,#752));
#754=DERIVED_UNIT_ELEMENT(#756,1.);
#755=DERIVED_UNIT_ELEMENT(#1295,-3.);
#756=(
MASS_UNIT()
NAMED_UNIT(*)
SI_UNIT(.KILO.,.GRAM.)
);
#757=DERIVED_UNIT((#754,#755));
#758=MEASURE_REPRESENTATION_ITEM('density measure',
POSITIVE_RATIO_MEASURE(7850.),#757);
#759=PROPERTY_DEFINITION_REPRESENTATION(#764,#761);
#760=PROPERTY_DEFINITION_REPRESENTATION(#765,#762);
#761=REPRESENTATION('material name',(#763),#1292);
#762=REPRESENTATION('density',(#758),#1292);
#763=DESCRIPTIVE_REPRESENTATION_ITEM('Steel','Steel');
#764=PROPERTY_DEFINITION('material property','material name',#1302);
#765=PROPERTY_DEFINITION('material property','density of part',#1302);
#766=AXIS2_PLACEMENT_3D('',#1057,#841,#842);
#767=AXIS2_PLACEMENT_3D('',#1058,#843,#844);
#768=AXIS2_PLACEMENT_3D('',#1060,#845,#846);
#769=AXIS2_PLACEMENT_3D('',#1063,#848,#849);
#770=AXIS2_PLACEMENT_3D('',#1064,#850,#851);
#771=AXIS2_PLACEMENT_3D('',#1066,#852,#853);
#772=AXIS2_PLACEMENT_3D('',#1067,#854,#855);
#773=AXIS2_PLACEMENT_3D('',#1069,#856,#857);
#774=AXIS2_PLACEMENT_3D('',#1072,#859,#860);
#775=AXIS2_PLACEMENT_3D('',#1073,#861,#862);
#776=AXIS2_PLACEMENT_3D('',#1075,#863,#864);
#777=AXIS2_PLACEMENT_3D('',#1076,#865,#866);
#778=AXIS2_PLACEMENT_3D('',#1078,#867,#868);
#779=AXIS2_PLACEMENT_3D('',#1081,#870,#871);
#780=AXIS2_PLACEMENT_3D('',#1082,#872,#873);
#781=AXIS2_PLACEMENT_3D('',#1084,#874,#875);
#782=AXIS2_PLACEMENT_3D('',#1085,#876,#877);
#783=AXIS2_PLACEMENT_3D('',#1087,#878,#879);
#784=AXIS2_PLACEMENT_3D('',#1090,#881,#882);
#785=AXIS2_PLACEMENT_3D('',#1091,#883,#884);
#786=AXIS2_PLACEMENT_3D('',#1093,#885,#886);
#787=AXIS2_PLACEMENT_3D('',#1094,#887,#888);
#788=AXIS2_PLACEMENT_3D('',#1096,#890,#891);
#789=AXIS2_PLACEMENT_3D('',#1105,#896,#897);
#790=AXIS2_PLACEMENT_3D('',#1114,#900,#901);
#791=AXIS2_PLACEMENT_3D('',#1123,#904,#905);
#792=AXIS2_PLACEMENT_3D('',#1124,#906,#907);
#793=AXIS2_PLACEMENT_3D('',#1125,#908,#909);
#794=AXIS2_PLACEMENT_3D('',#1126,#910,#911);
#795=AXIS2_PLACEMENT_3D('',#1132,#915,#916);
#796=AXIS2_PLACEMENT_3D('',#1136,#919,#920);
#797=AXIS2_PLACEMENT_3D('',#1139,#921,#922);
#798=AXIS2_PLACEMENT_3D('',#1145,#925,#926);
#799=AXIS2_PLACEMENT_3D('',#1149,#929,#930);
#800=AXIS2_PLACEMENT_3D('',#1161,#934,#935);
#801=AXIS2_PLACEMENT_3D('',#1173,#939,#940);
#802=AXIS2_PLACEMENT_3D('',#1176,#943,#944);
#803=AXIS2_PLACEMENT_3D('',#1177,#945,#946);
#804=AXIS2_PLACEMENT_3D('',#1178,#947,#948);
#805=AXIS2_PLACEMENT_3D('',#1179,#949,#950);
#806=AXIS2_PLACEMENT_3D('',#1183,#952,#953);
#807=AXIS2_PLACEMENT_3D('',#1185,#955,#956);
#808=AXIS2_PLACEMENT_3D('',#1189,#959,#960);
#809=AXIS2_PLACEMENT_3D('',#1194,#962,#963);
#810=AXIS2_PLACEMENT_3D('',#1200,#966,#967);
#811=AXIS2_PLACEMENT_3D('',#1202,#969,#970);
#812=AXIS2_PLACEMENT_3D('',#1206,#973,#974);
#813=AXIS2_PLACEMENT_3D('',#1208,#976,#977);
#814=AXIS2_PLACEMENT_3D('',#1209,#978,#979);
#815=AXIS2_PLACEMENT_3D('',#1213,#982,#983);
#816=AXIS2_PLACEMENT_3D('',#1214,#984,#985);
#817=AXIS2_PLACEMENT_3D('',#1215,#986,#987);
#818=AXIS2_PLACEMENT_3D('',#1216,#988,#989);
#819=AXIS2_PLACEMENT_3D('',#1218,#991,#992);
#820=AXIS2_PLACEMENT_3D('',#1224,#996,#997);
#821=AXIS2_PLACEMENT_3D('',#1231,#999,#1000);
#822=AXIS2_PLACEMENT_3D('',#1237,#1001,#1002);
#823=AXIS2_PLACEMENT_3D('',#1238,#1003,#1004);
#824=AXIS2_PLACEMENT_3D('',#1242,#1007,#1008);
#825=AXIS2_PLACEMENT_3D('',#1245,#1010,#1011);
#826=AXIS2_PLACEMENT_3D('',#1246,#1012,#1013);
#827=AXIS2_PLACEMENT_3D('',#1248,#1015,#1016);
#828=AXIS2_PLACEMENT_3D('',#1254,#1020,#1021);
#829=AXIS2_PLACEMENT_3D('',#1257,#1023,#1024);
#830=AXIS2_PLACEMENT_3D('',#1258,#1025,#1026);
#831=AXIS2_PLACEMENT_3D('',#1262,#1029,#1030);
#832=AXIS2_PLACEMENT_3D('',#1265,#1033,#1034);
#833=AXIS2_PLACEMENT_3D('',#1268,#1035,#1036);
#834=AXIS2_PLACEMENT_3D('',#1277,#1037,#1038);
#835=AXIS2_PLACEMENT_3D('',#1279,#1040,#1041);
#836=AXIS2_PLACEMENT_3D('',#1281,#1043,#1044);
#837=AXIS2_PLACEMENT_3D('',#1283,#1046,#1047);
#838=AXIS2_PLACEMENT_3D('',#1285,#1049,#1050);
#839=AXIS2_PLACEMENT_3D('',#1287,#1052,#1053);
#840=AXIS2_PLACEMENT_3D('',#1289,#1055,#1056);
#841=DIRECTION('axis',(0.,0.,1.));
#842=DIRECTION('refdir',(1.,0.,0.));
#843=DIRECTION('center_axis',(-1.,0.,0.));
#844=DIRECTION('ref_axis',(0.,1.,0.));
#845=DIRECTION('center_axis',(-1.,0.,0.));
#846=DIRECTION('ref_axis',(0.,1.,0.));
#847=DIRECTION('',(-1.,0.,0.));
#848=DIRECTION('center_axis',(-1.,0.,0.));
#849=DIRECTION('ref_axis',(0.,1.,0.));
#850=DIRECTION('center_axis',(1.,0.,0.));
#851=DIRECTION('ref_axis',(0.,1.,0.));
#852=DIRECTION('center_axis',(1.,0.,0.));
#853=DIRECTION('ref_axis',(0.,1.,0.));
#854=DIRECTION('center_axis',(1.,0.,0.));
#855=DIRECTION('ref_axis',(0.,1.,0.));
#856=DIRECTION('center_axis',(1.,0.,0.));
#857=DIRECTION('ref_axis',(0.,1.,0.));
#858=DIRECTION('',(1.,0.,0.));
#859=DIRECTION('center_axis',(1.,0.,0.));
#860=DIRECTION('ref_axis',(0.,1.,0.));
#861=DIRECTION('center_axis',(1.,0.,0.));
#862=DIRECTION('ref_axis',(0.,1.,0.));
#863=DIRECTION('center_axis',(-1.,0.,0.));
#864=DIRECTION('ref_axis',(0.,1.,0.));
#865=DIRECTION('center_axis',(-1.,0.,0.));
#866=DIRECTION('ref_axis',(0.,1.,0.));
#867=DIRECTION('center_axis',(-1.,0.,0.));
#868=DIRECTION('ref_axis',(0.,1.,0.));
#869=DIRECTION('',(-1.,0.,0.));
#870=DIRECTION('center_axis',(-1.,0.,0.));
#871=DIRECTION('ref_axis',(0.,1.,0.));
#872=DIRECTION('center_axis',(1.,0.,0.));
#873=DIRECTION('ref_axis',(0.,1.,0.));
#874=DIRECTION('center_axis',(1.,0.,0.));
#875=DIRECTION('ref_axis',(0.,-1.,0.));
#876=DIRECTION('center_axis',(1.,0.,0.));
#877=DIRECTION('ref_axis',(0.,1.,0.));
#878=DIRECTION('center_axis',(1.,0.,0.));
#879=DIRECTION('ref_axis',(0.,1.,0.));
#880=DIRECTION('',(1.,0.,0.));
#881=DIRECTION('center_axis',(1.,0.,0.));
#882=DIRECTION('ref_axis',(0.,1.,0.));
#883=DIRECTION('center_axis',(1.,0.,0.));
#884=DIRECTION('ref_axis',(0.,1.,0.));
#885=DIRECTION('center_axis',(-1.,0.,0.));
#886=DIRECTION('ref_axis',(0.,-1.,0.));
#887=DIRECTION('center_axis',(-1.,0.,0.));
#888=DIRECTION('ref_axis',(0.,1.,0.));
#889=DIRECTION('',(-1.,0.,0.));
#890=DIRECTION('center_axis',(-0.707106781186548,0.597850936751174,-0.377590065316533));
#891=DIRECTION('ref_axis',(-0.471041203187318,0.,0.882111208918606));
#892=DIRECTION('',(0.,0.533992991387985,0.845488903030969));
#893=DIRECTION('',(0.38867709718538,-0.117465047255912,-0.913855610475043));
#894=DIRECTION('',(0.,-0.533992991387985,-0.845488903030969));
#895=DIRECTION('',(0.679006324846532,0.723133594259959,-0.12660258951174));
#896=DIRECTION('center_axis',(-0.707106781186545,-0.673908195149178,-0.21412086425844));
#897=DIRECTION('ref_axis',(-0.28981658025803,0.,0.957082206400025));
#898=DIRECTION('',(0.,0.302812630221333,-0.953050109374339));
#899=DIRECTION('',(0.,-0.302812630221333,0.953050109374339));
#900=DIRECTION('center_axis',(-0.707106781186546,0.690572297900919,0.152019411167938));
#901=DIRECTION('ref_axis',(0.21018541463668,0.,0.977661542392871));
#902=DIRECTION('',(0.,0.214987913017669,-0.976616709490631));
#903=DIRECTION('',(0.,-0.214987913017669,0.976616709490631));
#904=DIRECTION('center_axis',(-1.,0.,0.));
#905=DIRECTION('ref_axis',(0.,0.264062016167142,-0.964505703258277));
#906=DIRECTION('center_axis',(-1.,0.,0.));
#907=DIRECTION('ref_axis',(0.,-0.964326147917117,-0.264716981781173));
#908=DIRECTION('center_axis',(1.,0.,0.));
#909=DIRECTION('ref_axis',(0.,-0.964326147917117,-0.264716981781173));
#910=DIRECTION('center_axis',(0.,-0.976616709490631,-0.214987913017669));
#911=DIRECTION('ref_axis',(0.,0.214987913017669,-0.976616709490631));
#912=DIRECTION('',(1.,0.,0.));
#913=DIRECTION('',(0.,0.214987913017669,-0.976616709490631));
#914=DIRECTION('',(1.,0.,0.));
#915=DIRECTION('center_axis',(0.,-0.845488903030969,0.533992991387985));
#916=DIRECTION('ref_axis',(0.,-0.533992991387985,-0.845488903030969));
#917=DIRECTION('',(1.,0.,0.));
#918=DIRECTION('',(0.,-0.533992991387985,-0.845488903030969));
#919=DIRECTION('center_axis',(1.,0.,0.));
#920=DIRECTION('ref_axis',(0.,1.,0.));
#921=DIRECTION('center_axis',(1.,0.,0.));
#922=DIRECTION('ref_axis',(0.,-0.963798939275112,-0.266630089547613));
#923=DIRECTION('',(0.,0.196694063051861,-0.980464912967389));
#924=DIRECTION('',(0.,0.980464912967389,0.196694063051861));
#925=DIRECTION('center_axis',(1.,0.,0.));
#926=DIRECTION('ref_axis',(0.,-0.196694063051861,0.980464912967389));
#927=DIRECTION('',(0.,-0.98046491296739,-0.196694063051858));
#928=DIRECTION('',(0.,-0.315517373877171,0.948919799973451));
#929=DIRECTION('center_axis',(0.707106781186545,0.69057229790092,0.152019411167938));
#930=DIRECTION('ref_axis',(0.21018541463668,0.,-0.977661542392871));
#931=DIRECTION('',(0.,0.214987913017669,-0.976616709490631));
#932=DIRECTION('',(0.,-0.214987913017669,0.976616709490631));
#933=DIRECTION('',(-0.679006324846534,0.723133594259957,-0.12660258951174));
#934=DIRECTION('center_axis',(0.707106781186547,-0.673908195149176,-0.214120864258439));
#935=DIRECTION('ref_axis',(-0.289816580258028,0.,-0.957082206400026));
#936=DIRECTION('',(0.,-0.302812630221333,0.953050109374339));
#937=DIRECTION('',(-0.388677097185379,-0.117465047255911,-0.913855610475043));
#938=DIRECTION('',(0.,0.302812630221333,-0.953050109374339));
#939=DIRECTION('center_axis',(0.707106781186548,0.597850936751173,-0.377590065316533));
#940=DIRECTION('ref_axis',(-0.471041203187317,0.,-0.882111208918606));
#941=DIRECTION('',(0.,0.533992991387985,0.845488903030969));
#942=DIRECTION('',(0.,-0.533992991387985,-0.845488903030969));
#943=DIRECTION('center_axis',(1.,0.,0.));
#944=DIRECTION('ref_axis',(0.,0.264062016167182,-0.964505703258266));
#945=DIRECTION('center_axis',(1.,0.,0.));
#946=DIRECTION('ref_axis',(0.,-0.964326147917117,-0.264716981781173));
#947=DIRECTION('center_axis',(-1.,0.,0.));
#948=DIRECTION('ref_axis',(0.,-0.964326147917117,-0.264716981781173));
#949=DIRECTION('center_axis',(-1.,0.,0.));
#950=DIRECTION('ref_axis',(0.,-0.964326147917117,-0.264716981781173));
#951=DIRECTION('',(-1.,0.,0.));
#952=DIRECTION('center_axis',(-1.,0.,0.));
#953=DIRECTION('ref_axis',(0.,-0.964326147917117,-0.264716981781173));
#954=DIRECTION('',(-1.,0.,0.));
#955=DIRECTION('center_axis',(0.,0.953050109374339,0.302812630221333));
#956=DIRECTION('ref_axis',(0.,0.302812630221333,-0.953050109374339));
#957=DIRECTION('',(-1.,0.,0.));
#958=DIRECTION('',(0.,0.302812630221333,-0.953050109374339));
#959=DIRECTION('center_axis',(1.,0.,0.));
#960=DIRECTION('ref_axis',(0.,1.,0.));
#961=DIRECTION('',(0.,0.98046491296739,0.196694063051858));
#962=DIRECTION('center_axis',(-1.,0.,0.));
#963=DIRECTION('ref_axis',(0.,-0.196694063051861,0.980464912967389));
#964=DIRECTION('',(0.,-0.980464912967389,-0.196694063051861));
#965=DIRECTION('',(0.,-0.196694063051861,0.980464912967389));
#966=DIRECTION('center_axis',(-1.,0.,0.));
#967=DIRECTION('ref_axis',(0.,-0.963798939275112,-0.266630089547613));
#968=DIRECTION('',(0.,0.315517373877171,-0.948919799973451));
#969=DIRECTION('center_axis',(0.,-0.976616709490631,-0.214987913017669));
#970=DIRECTION('ref_axis',(0.,-0.214987913017669,0.976616709490631));
#971=DIRECTION('',(0.,-0.214987913017669,0.976616709490631));
#972=DIRECTION('',(-1.,0.,0.));
#973=DIRECTION('center_axis',(0.,-0.845488903030969,0.533992991387985));
#974=DIRECTION('ref_axis',(0.,0.533992991387985,0.845488903030969));
#975=DIRECTION('',(0.,0.533992991387985,0.845488903030969));
#976=DIRECTION('center_axis',(1.,0.,0.));
#977=DIRECTION('ref_axis',(0.,1.,0.));
#978=DIRECTION('center_axis',(0.,0.953050109374339,0.302812630221333));
#979=DIRECTION('ref_axis',(0.,-0.302812630221333,0.953050109374339));
#980=DIRECTION('',(1.,0.,0.));
#981=DIRECTION('',(0.,-0.302812630221333,0.953050109374339));
#982=DIRECTION('center_axis',(1.,0.,0.));
#983=DIRECTION('ref_axis',(0.,-0.964326147917117,-0.264716981781173));
#984=DIRECTION('center_axis',(1.,0.,0.));
#985=DIRECTION('ref_axis',(0.,-0.964326147917117,-0.264716981781173));
#986=DIRECTION('center_axis',(1.,0.,0.));
#987=DIRECTION('ref_axis',(0.,1.,0.));
#988=DIRECTION('center_axis',(1.,0.,0.));
#989=DIRECTION('ref_axis',(0.,-1.,0.));
#990=DIRECTION('',(1.,0.,0.));
#991=DIRECTION('center_axis',(0.707106781186551,-0.139083705803102,0.693293388674717));
#992=DIRECTION('ref_axis',(0.700097900397247,0.,-0.714046868111167));
#993=DIRECTION('',(0.,-0.98046491296739,-0.196694063051858));
#994=DIRECTION('',(0.707106781186565,0.139083705803099,-0.693293388674703));
#995=DIRECTION('',(-0.599608215903306,0.401744001738131,0.692150088123008));
#996=DIRECTION('center_axis',(0.707106781186547,0.67098762536341,0.223104474650719));
#997=DIRECTION('ref_axis',(0.300895399364426,0.,-0.953657149420756));
#998=DIRECTION('',(0.,-0.315517373877171,0.948919799973451));
#999=DIRECTION('center_axis',(-1.,0.,0.));
#1000=DIRECTION('ref_axis',(0.,-0.963798939275112,-0.266630089547613));
#1001=DIRECTION('center_axis',(1.,0.,0.));
#1002=DIRECTION('ref_axis',(0.,-0.963798939275112,-0.266630089547613));
#1003=DIRECTION('center_axis',(0.707106781186546,-0.69329338867472,-0.139083705803105));
#1004=DIRECTION('ref_axis',(-0.192996120206914,0.,-0.981199519763987));
#1005=DIRECTION('',(0.,0.196694063051861,-0.980464912967389));
#1006=DIRECTION('',(-0.577350269189626,-0.452510311181711,-0.679633051683699));
#1007=DIRECTION('center_axis',(-1.,0.,0.));
#1008=DIRECTION('ref_axis',(0.,-0.196694063051862,0.980464912967389));
#1009=DIRECTION('',(0.707106781186547,-0.139083705803105,0.69329338867472));
#1010=DIRECTION('center_axis',(1.,0.,0.));
#1011=DIRECTION('ref_axis',(0.,-0.196694063051861,0.980464912967389));
#1012=DIRECTION('center_axis',(0.707106781186548,0.139083705803105,-0.693293388674718));
#1013=DIRECTION('ref_axis',(-0.700097900397249,0.,-0.714046868111165));
#1014=DIRECTION('',(0.,0.980464912967389,0.196694063051861));
#1015=DIRECTION('center_axis',(0.,0.196694063051861,-0.98046491296739));
#1016=DIRECTION('ref_axis',(0.,0.980464912967389,0.196694063051861));
#1017=DIRECTION('',(1.,0.,0.));
#1018=DIRECTION('',(0.,-0.980464912967389,-0.196694063051861));
#1019=DIRECTION('',(1.,0.,0.));
#1020=DIRECTION('center_axis',(1.,0.,0.));
#1021=DIRECTION('ref_axis',(0.,-0.196694063051861,0.980464912967389));
#1022=DIRECTION('',(1.,0.,0.));
#1023=DIRECTION('center_axis',(-1.,0.,0.));
#1024=DIRECTION('ref_axis',(0.,-0.196694063051861,0.980464912967389));
#1025=DIRECTION('center_axis',(0.,-0.196694063051858,0.98046491296739));
#1026=DIRECTION('ref_axis',(0.,-0.98046491296739,-0.196694063051858));
#1027=DIRECTION('',(1.,0.,0.));
#1028=DIRECTION('',(0.,0.98046491296739,0.196694063051858));
#1029=DIRECTION('center_axis',(-0.707106781186548,0.139083705803105,-0.693293388674718));
#1030=DIRECTION('ref_axis',(-0.700097900397249,0.,0.714046868111165));
#1031=DIRECTION('',(-0.707106781186549,-0.139083705803106,0.693293388674717));
#1032=DIRECTION('',(0.577350269189626,-0.452510311181711,-0.679633051683699));
#1033=DIRECTION('center_axis',(1.,0.,0.));
#1034=DIRECTION('ref_axis',(0.,-0.963798939275112,-0.266630089547613));
#1035=DIRECTION('center_axis',(-1.,0.,0.));
#1036=DIRECTION('ref_axis',(0.,-0.963798939275112,-0.266630089547613));
#1037=DIRECTION('center_axis',(-0.707106781186546,-0.69329338867472,-0.139083705803105));
#1038=DIRECTION('ref_axis',(-0.192996120206914,0.,0.981199519763987));
#1039=DIRECTION('',(0.,-0.196694063051861,0.980464912967389));
#1040=DIRECTION('center_axis',(1.,0.,0.));
#1041=DIRECTION('ref_axis',(0.,-0.196694063051861,0.980464912967389));
#1042=DIRECTION('',(-0.707106781186547,0.139083705803105,-0.69329338867472));
#1043=DIRECTION('center_axis',(-0.707106781186551,-0.139083705803102,0.693293388674717));
#1044=DIRECTION('ref_axis',(0.700097900397247,0.,0.714046868111167));
#1045=DIRECTION('',(0.599608215903305,0.401744001738133,0.692150088123007));
#1046=DIRECTION('center_axis',(-0.707106781186548,0.670987625363409,0.223104474650719));
#1047=DIRECTION('ref_axis',(0.300895399364425,0.,0.953657149420756));
#1048=DIRECTION('',(0.,0.315517373877171,-0.948919799973451));
#1049=DIRECTION('center_axis',(0.,-0.980464912967389,-0.196694063051861));
#1050=DIRECTION('ref_axis',(0.,0.196694063051861,-0.980464912967389));
#1051=DIRECTION('',(1.,0.,0.));
#1052=DIRECTION('center_axis',(1.,0.,0.));
#1053=DIRECTION('ref_axis',(0.,-0.963798939275112,-0.266630089547613));
#1054=DIRECTION('',(1.,0.,0.));
#1055=DIRECTION('center_axis',(0.,0.948919799973451,0.315517373877171));
#1056=DIRECTION('ref_axis',(0.,-0.315517373877171,0.948919799973451));
#1057=CARTESIAN_POINT('',(0.,0.,0.));
#1058=CARTESIAN_POINT('Origin',(100.,2.71123136339817,285.579519943509));
#1059=CARTESIAN_POINT('',(70.,-6.58704983089318,285.579519943509));
#1060=CARTESIAN_POINT('Origin',(70.,2.71123136339817,285.579519943509));
#1061=CARTESIAN_POINT('',(65.,-6.58704983089318,285.579519943509));
#1062=CARTESIAN_POINT('',(100.,-6.58704983089318,285.579519943509));
#1063=CARTESIAN_POINT('Origin',(65.,2.71123136339817,285.579519943509));
#1064=CARTESIAN_POINT('Origin',(65.,2.71123136339817,285.579519943509));
#1065=CARTESIAN_POINT('',(65.,-2.04305893536904,285.516634289259));
#1066=CARTESIAN_POINT('Origin',(65.,2.95694106463096,285.516634289259));
#1067=CARTESIAN_POINT('Origin',(0.,2.71123136339817,285.579519943509));
#1068=CARTESIAN_POINT('',(40.,-6.58704983089318,285.579519943509));
#1069=CARTESIAN_POINT('Origin',(40.,2.71123136339817,285.579519943509));
#1070=CARTESIAN_POINT('',(45.,-6.58704983089318,285.579519943509));
#1071=CARTESIAN_POINT('',(0.,-6.58704983089318,285.579519943509));
#1072=CARTESIAN_POINT('Origin',(45.,2.71123136339817,285.579519943509));
#1073=CARTESIAN_POINT('Origin',(45.,2.71123136339817,285.579519943509));
#1074=CARTESIAN_POINT('',(45.,-2.04305893536904,285.516634289259));
#1075=CARTESIAN_POINT('Origin',(45.,2.95694106463096,285.516634289259));
#1076=CARTESIAN_POINT('Origin',(80.,111.358719143215,113.626369192609));
#1077=CARTESIAN_POINT('',(70.,97.6756208094247,113.626369192609));
#1078=CARTESIAN_POINT('Origin',(70.,111.358719143215,113.626369192609));
#1079=CARTESIAN_POINT('',(65.,97.6756208094247,113.626369192609));
#1080=CARTESIAN_POINT('',(80.,97.6756208094247,113.626369192609));
#1081=CARTESIAN_POINT('Origin',(65.,111.358719143215,113.626369192609));
#1082=CARTESIAN_POINT('Origin',(65.,111.358719143215,113.626369192609));
#1083=CARTESIAN_POINT('',(65.,119.950355075842,113.013976363919));
#1084=CARTESIAN_POINT('Origin',(65.,112.450355075842,113.013976363919));
#1085=CARTESIAN_POINT('Origin',(0.,111.358719143215,113.626369192609));
#1086=CARTESIAN_POINT('',(40.,97.6756208094247,113.626369192609));
#1087=CARTESIAN_POINT('Origin',(40.,111.358719143215,113.626369192609));
#1088=CARTESIAN_POINT('',(45.,97.6756208094247,113.626369192609));
#1089=CARTESIAN_POINT('',(0.,97.6756208094247,113.626369192609));
#1090=CARTESIAN_POINT('Origin',(45.,111.358719143215,113.626369192609));
#1091=CARTESIAN_POINT('Origin',(45.,111.358719143215,113.626369192609));
#1092=CARTESIAN_POINT('',(45.,119.950355075842,113.013976363919));
#1093=CARTESIAN_POINT('Origin',(45.,112.450355075842,113.013976363919));
#1094=CARTESIAN_POINT('Origin',(20.,2.95694106463096,285.516634289259));
#1095=CARTESIAN_POINT('',(20.,-2.04305893536904,285.516634289259));
#1096=CARTESIAN_POINT('Origin',(41.5,42.3570079927429,266.344314850001));
#1097=CARTESIAN_POINT('',(40.,58.3014948829824,294.398778057994));
#1098=CARTESIAN_POINT('',(40.,67.2084735311958,308.501494250999));
#1099=CARTESIAN_POINT('',(40.,41.0887746381964,267.145304337083));
#1100=CARTESIAN_POINT('',(43.,66.3018208255962,301.447909536905));
#1101=CARTESIAN_POINT('',(40.,67.2084735311958,308.501494250999));
#1102=CARTESIAN_POINT('',(43.,61.4964589111455,293.839419839025));
#1103=CARTESIAN_POINT('',(43.,43.6252413472893,265.543325362919));
#1104=CARTESIAN_POINT('',(40.,58.3014948829824,294.398778057994));
#1105=CARTESIAN_POINT('Origin',(41.5,106.010010115747,181.426845291764));
#1106=CARTESIAN_POINT('',(40.,118.002828956051,148.635091195504));
#1107=CARTESIAN_POINT('',(40.,107.439585279808,181.881064237096));
#1108=CARTESIAN_POINT('',(43.,115.126761999794,147.779895450924));
#1109=CARTESIAN_POINT('Ctrl Pts',(40.0000000000001,118.002828956048,148.635091195516));
#1110=CARTESIAN_POINT('Ctrl Pts',(40.9949656405736,117.049297679086,148.350418285044));
#1111=CARTESIAN_POINT('Ctrl Pts',(42.0048797780419,116.081148550649,148.062387020769));
#1112=CARTESIAN_POINT('Ctrl Pts',(43.,115.126761999794,147.779895450924));
#1113=CARTESIAN_POINT('',(43.,104.580434951685,180.972626346432));
#1114=CARTESIAN_POINT('Origin',(41.5,69.4788705517692,250.600911869967));
#1115=CARTESIAN_POINT('',(43.,94.8732380002061,142.220104549076));
#1116=CARTESIAN_POINT('',(43.,70.9437956160051,250.923393739493));
#1117=CARTESIAN_POINT('',(40.,91.9588752071581,141.504787131306));
#1118=CARTESIAN_POINT('Ctrl Pts',(43.,94.873238000206,142.220104549076));
#1119=CARTESIAN_POINT('Ctrl Pts',(42.0048885803167,93.9068768568916,141.981267960548));
#1120=CARTESIAN_POINT('Ctrl Pts',(40.9949712310848,92.9257476499094,141.740648984357));
#1121=CARTESIAN_POINT('Ctrl Pts',(40.,91.9588752071583,141.504787131305));
#1122=CARTESIAN_POINT('',(40.,68.0139454875332,250.27843000044));
#1123=CARTESIAN_POINT('Origin',(41.5,105.,145.));
#1124=CARTESIAN_POINT('Origin',(40.,105.,145.));
#1125=CARTESIAN_POINT('Origin',(43.,105.,145.));
#1126=CARTESIAN_POINT('Origin',(0.,61.4964589111455,293.839419839025));
#1127=CARTESIAN_POINT('',(45.,61.4964589111455,293.839419839025));
#1128=CARTESIAN_POINT('',(0.,61.4964589111455,293.839419839025));
#1129=CARTESIAN_POINT('',(45.,94.8732380002061,142.220104549076));
#1130=CARTESIAN_POINT('',(45.,61.4964589111455,293.839419839025));
#1131=CARTESIAN_POINT('',(0.,94.8732380002061,142.220104549076));
#1132=CARTESIAN_POINT('Origin',(0.,66.3018208255962,301.447909536905));
#1133=CARTESIAN_POINT('',(45.,66.3018208255962,301.447909536905));
#1134=CARTESIAN_POINT('',(0.,66.3018208255962,301.447909536905));
#1135=CARTESIAN_POINT('',(45.,66.3018208255962,301.447909536905));
#1136=CARTESIAN_POINT('Origin',(40.,61.709705432542,203.894924201422));
#1137=CARTESIAN_POINT('',(40.,88.8231719010453,111.699356770067));
#1138=CARTESIAN_POINT('',(40.,132.179997393491,123.745114468403));
#1139=CARTESIAN_POINT('Origin',(40.,110.462469800453,117.863023407767));
#1140=CARTESIAN_POINT('',(40.,54.4388625011487,283.09552602976));
#1141=CARTESIAN_POINT('',(40.,62.7082293373422,241.875044284939));
#1142=CARTESIAN_POINT('',(40.,5.41561685277922,273.260822877167));
#1143=CARTESIAN_POINT('',(40.,25.7850294640968,277.347193001697));
#1144=CARTESIAN_POINT('',(40.,0.498265276482696,297.772445701352));
#1145=CARTESIAN_POINT('Origin',(40.,2.95694106463096,285.516634289259));
#1146=CARTESIAN_POINT('',(40.,69.6996092560433,311.655138835973));
#1147=CARTESIAN_POINT('',(40.,57.6351121240775,309.234843190326));
#1148=CARTESIAN_POINT('',(40.,116.695014081267,170.31626548511));
#1149=CARTESIAN_POINT('Origin',(68.5,86.1672600962995,174.791254224993));
#1150=CARTESIAN_POINT('',(70.,58.3014948829824,294.398778057994));
#1151=CARTESIAN_POINT('',(70.,91.9588752071582,141.504787131306));
#1152=CARTESIAN_POINT('',(70.,84.7023350320636,174.468772355466));
#1153=CARTESIAN_POINT('',(67.,94.8732380002061,142.220104549076));
#1154=CARTESIAN_POINT('Ctrl Pts',(70.,91.9588752071584,141.504787131305));
#1155=CARTESIAN_POINT('Ctrl Pts',(69.0050287687467,92.9257476500732,141.740648984397));
#1156=CARTESIAN_POINT('Ctrl Pts',(67.9951114196226,93.9068768569506,141.981267960563));
#1157=CARTESIAN_POINT('Ctrl Pts',(67.,94.8732380002061,142.220104549076));
#1158=CARTESIAN_POINT('',(67.,61.4964589111455,293.839419839025));
#1159=CARTESIAN_POINT('',(67.,87.6321851605354,175.113736094519));
#1160=CARTESIAN_POINT('',(70.,58.3014948829824,294.398778057994));
#1161=CARTESIAN_POINT('Origin',(68.5,81.5975395286477,258.260852334754));
#1162=CARTESIAN_POINT('',(70.,118.002828956055,148.635091195493));
#1163=CARTESIAN_POINT('',(70.,67.2084735311958,308.501494250999));
#1164=CARTESIAN_POINT('',(70.,83.0271146927092,258.715071280086));
#1165=CARTESIAN_POINT('',(67.,66.3018208255962,301.447909536905));
#1166=CARTESIAN_POINT('',(70.,67.2084735311958,308.501494250999));
#1167=CARTESIAN_POINT('',(67.,115.126761999794,147.779895450924));
#1168=CARTESIAN_POINT('',(67.,80.1679643645862,257.806633389422));
#1169=CARTESIAN_POINT('Ctrl Pts',(67.,115.126761999794,147.779895450924));
#1170=CARTESIAN_POINT('Ctrl Pts',(67.9951202182288,116.081148547072,148.062387019711));
#1171=CARTESIAN_POINT('Ctrl Pts',(69.0050343491232,117.049297669211,148.350418282097));
#1172=CARTESIAN_POINT('Ctrl Pts',(69.9999999999998,118.002828956048,148.635091195516));
#1173=CARTESIAN_POINT('Origin',(68.5,39.9543270355175,262.540070001061));
#1174=CARTESIAN_POINT('',(67.,41.222560390064,261.739080513979));
#1175=CARTESIAN_POINT('',(70.,38.6860936809711,263.341059488143));
#1176=CARTESIAN_POINT('Origin',(68.5,105.,145.));
#1177=CARTESIAN_POINT('Origin',(70.,105.,145.));
#1178=CARTESIAN_POINT('Origin',(67.,105.,145.));
#1179=CARTESIAN_POINT('Origin',(100.,105.,145.));
#1180=CARTESIAN_POINT('',(65.,115.126761999794,147.779895450924));
#1181=CARTESIAN_POINT('',(100.,115.126761999794,147.779895450924));
#1182=CARTESIAN_POINT('',(65.,94.8732380002061,142.220104549076));
#1183=CARTESIAN_POINT('Origin',(65.,105.,145.));
#1184=CARTESIAN_POINT('',(100.,94.8732380002061,142.220104549076));
#1185=CARTESIAN_POINT('Origin',(100.,66.3018208255962,301.447909536905));
#1186=CARTESIAN_POINT('',(65.,66.3018208255962,301.447909536905));
#1187=CARTESIAN_POINT('',(100.,66.3018208255962,301.447909536905));
#1188=CARTESIAN_POINT('',(65.,115.126761999794,147.779895450924));
#1189=CARTESIAN_POINT('Origin',(70.,61.709705432542,203.894924201422));
#1190=CARTESIAN_POINT('',(70.,0.498265276482623,297.772445701352));
#1191=CARTESIAN_POINT('',(70.,69.6996092560433,311.655138835973));
#1192=CARTESIAN_POINT('',(70.,57.6351121240775,309.234843190326));
#1193=CARTESIAN_POINT('',(70.,5.41561685277922,273.260822877167));
#1194=CARTESIAN_POINT('Origin',(70.,2.95694106463096,285.516634289259));
#1195=CARTESIAN_POINT('',(70.,54.4388625011487,283.09552602976));
#1196=CARTESIAN_POINT('',(70.,25.7850294640968,277.347193001697));
#1197=CARTESIAN_POINT('',(70.,88.8231719010449,111.699356770069));
#1198=CARTESIAN_POINT('',(70.,62.7082293373422,241.875044284939));
#1199=CARTESIAN_POINT('',(70.,132.179997393493,123.745114468399));
#1200=CARTESIAN_POINT('Origin',(70.,110.462469800453,117.863023407767));
#1201=CARTESIAN_POINT('',(70.,116.695014081267,170.31626548511));
#1202=CARTESIAN_POINT('Origin',(100.,94.8732380002061,142.220104549076));
#1203=CARTESIAN_POINT('',(65.,61.4964589111455,293.839419839025));
#1204=CARTESIAN_POINT('',(65.,61.4964589111455,293.839419839025));
#1205=CARTESIAN_POINT('',(100.,61.4964589111455,293.839419839025));
#1206=CARTESIAN_POINT('Origin',(100.,61.4964589111455,293.839419839025));
#1207=CARTESIAN_POINT('',(65.,66.3018208255962,301.447909536905));
#1208=CARTESIAN_POINT('Origin',(65.,88.498922917358,217.973261306667));
#1209=CARTESIAN_POINT('Origin',(0.,115.126761999794,147.779895450924));
#1210=CARTESIAN_POINT('',(45.,115.126761999794,147.779895450924));
#1211=CARTESIAN_POINT('',(0.,115.126761999794,147.779895450924));
#1212=CARTESIAN_POINT('',(45.,115.126761999794,147.779895450924));
#1213=CARTESIAN_POINT('Origin',(0.,105.,145.));
#1214=CARTESIAN_POINT('Origin',(45.,105.,145.));
#1215=CARTESIAN_POINT('Origin',(45.,88.498922917358,217.973261306667));
#1216=CARTESIAN_POINT('Origin',(90.,112.450355075842,113.013976363919));
#1217=CARTESIAN_POINT('',(90.,119.950355075842,113.013976363919));
#1218=CARTESIAN_POINT('Origin',(67.5,57.1433769664478,311.686005472745));
#1219=CARTESIAN_POINT('',(65.,73.0496634337776,317.426824995078));
#1220=CARTESIAN_POINT('',(65.,-0.485205038776612,302.674770266188));
#1221=CARTESIAN_POINT('',(65.,56.6516418088182,314.137167755163));
#1222=CARTESIAN_POINT('',(65.,-0.485205038776612,302.674770266188));
#1223=CARTESIAN_POINT('',(70.,69.6996092560433,311.655138835973));
#1224=CARTESIAN_POINT('Origin',(67.5,119.0673135812,171.105058919803));
#1225=CARTESIAN_POINT('',(65.,136.966940630519,125.195350870326));
#1226=CARTESIAN_POINT('Ctrl Pts',(70.0000000000001,132.179997393491,123.745114468403));
#1227=CARTESIAN_POINT('Ctrl Pts',(68.3385565187874,133.771387597439,124.224776825321));
#1228=CARTESIAN_POINT('Ctrl Pts',(66.6613526438563,135.37705252261,124.711458853086));
#1229=CARTESIAN_POINT('Ctrl Pts',(65.,136.966940630519,125.195350870326));
#1230=CARTESIAN_POINT('',(65.,121.439613081134,171.893852354496));
#1231=CARTESIAN_POINT('Origin',(67.5,110.462469800453,117.863023407767));
#1232=CARTESIAN_POINT('',(65.,83.9579989703874,110.530695945207));
#1233=CARTESIAN_POINT('Ctrl Pts',(70.,88.8231719010451,111.699356770068));
#1234=CARTESIAN_POINT('Ctrl Pts',(68.3385912674123,87.2072161692433,111.307779945367));
#1235=CARTESIAN_POINT('Ctrl Pts',(66.661376946967,85.575166246413,110.916071961386));
#1236=CARTESIAN_POINT('Ctrl Pts',(65.,83.9579989703874,110.530695945208));
#1237=CARTESIAN_POINT('Origin',(65.,110.462469800453,117.863023407767));
#1238=CARTESIAN_POINT('Origin',(67.5,60.2570670549237,241.383309127309));
#1239=CARTESIAN_POINT('',(65.,50.5200082515711,277.209731149664));
#1240=CARTESIAN_POINT('',(65.,57.8059047725052,240.89157396968));
#1241=CARTESIAN_POINT('',(70.,54.4388625011487,283.09552602976));
#1242=CARTESIAN_POINT('Origin',(67.5,2.95694106463096,285.516634289259));
#1243=CARTESIAN_POINT('',(65.,6.39908716803853,268.35849831233));
#1244=CARTESIAN_POINT('',(65.,6.39908716803853,268.35849831233));
#1245=CARTESIAN_POINT('Origin',(65.,2.95694106463096,285.516634289259));
#1246=CARTESIAN_POINT('Origin',(67.5,26.2767646217264,274.896030719278));
#1247=CARTESIAN_POINT('',(65.,26.7684997793561,272.44486843686));
#1248=CARTESIAN_POINT('Origin',(40.,6.39908716803853,268.35849831233));
#1249=CARTESIAN_POINT('',(45.,6.39908716803853,268.35849831233));
#1250=CARTESIAN_POINT('',(40.,6.39908716803853,268.35849831233));
#1251=CARTESIAN_POINT('',(45.,50.5200082515711,277.209731149664));
#1252=CARTESIAN_POINT('',(45.,26.7684997793561,272.44486843686));
#1253=CARTESIAN_POINT('',(40.,50.5200082515711,277.209731149664));
#1254=CARTESIAN_POINT('Origin',(40.,2.95694106463096,285.516634289259));
#1255=CARTESIAN_POINT('',(45.,-0.485205038776612,302.674770266188));
#1256=CARTESIAN_POINT('',(40.,-0.485205038776612,302.674770266188));
#1257=CARTESIAN_POINT('Origin',(45.,2.95694106463096,285.516634289259));
#1258=CARTESIAN_POINT('Origin',(40.,73.0496634337776,317.426824995078));
#1259=CARTESIAN_POINT('',(45.,73.0496634337776,317.426824995078));
#1260=CARTESIAN_POINT('',(40.,73.0496634337776,317.426824995078));
#1261=CARTESIAN_POINT('',(45.,56.6516418088182,314.137167755163));
#1262=CARTESIAN_POINT('Origin',(42.5,26.2767646217264,274.896030719278));
#1263=CARTESIAN_POINT('',(45.,6.39908716803853,268.35849831233));
#1264=CARTESIAN_POINT('',(40.,54.4388625011487,283.09552602976));
#1265=CARTESIAN_POINT('Origin',(42.5,110.462469800453,117.863023407767));
#1266=CARTESIAN_POINT('',(45.,136.966940630519,125.195350870326));
#1267=CARTESIAN_POINT('',(45.,83.9579989703874,110.530695945207));
#1268=CARTESIAN_POINT('Origin',(45.,110.462469800453,117.863023407767));
#1269=CARTESIAN_POINT('Ctrl Pts',(45.,83.9579989703874,110.530695945208));
#1270=CARTESIAN_POINT('Ctrl Pts',(43.3386230539581,85.5751662455125,110.916071961171));
#1271=CARTESIAN_POINT('Ctrl Pts',(41.6614087329455,87.2072161688953,111.307779945282));
#1272=CARTESIAN_POINT('Ctrl Pts',(40.,88.8231719010451,111.699356770068));
#1273=CARTESIAN_POINT('Ctrl Pts',(40.,132.179997393491,123.745114468403));
#1274=CARTESIAN_POINT('Ctrl Pts',(41.6614434797685,133.771387596056,124.224776824904));
#1275=CARTESIAN_POINT('Ctrl Pts',(43.3386473524133,135.37705251904,124.711458851999));
#1276=CARTESIAN_POINT('Ctrl Pts',(45.,136.966940630519,125.195350870326));
#1277=CARTESIAN_POINT('Origin',(42.5,60.2570670549237,241.383309127309));
#1278=CARTESIAN_POINT('',(45.,57.8059047725052,240.89157396968));
#1279=CARTESIAN_POINT('Origin',(42.5,2.95694106463096,285.516634289259));
#1280=CARTESIAN_POINT('',(45.,-0.485205038776612,302.674770266188));
#1281=CARTESIAN_POINT('Origin',(42.5,57.1433769664478,311.686005472745));
#1282=CARTESIAN_POINT('',(40.,69.6996092560433,311.655138835973));
#1283=CARTESIAN_POINT('Origin',(42.5,119.0673135812,171.105058919803));
#1284=CARTESIAN_POINT('',(45.,121.439613081134,171.893852354496));
#1285=CARTESIAN_POINT('Origin',(40.,50.5200082515711,277.209731149664));
#1286=CARTESIAN_POINT('',(40.,83.9579989703874,110.530695945207));
#1287=CARTESIAN_POINT('Origin',(40.,110.462469800453,117.863023407767));
#1288=CARTESIAN_POINT('',(40.,136.966940630519,125.195350870326));
#1289=CARTESIAN_POINT('Origin',(40.,136.966940630519,125.195350870326));
#1290=UNCERTAINTY_MEASURE_WITH_UNIT(LENGTH_MEASURE(0.01),#1294,
'DISTANCE_ACCURACY_VALUE',
'Maximum model space distance between geometric entities at asserted c
onnectivities');
#1291=UNCERTAINTY_MEASURE_WITH_UNIT(LENGTH_MEASURE(0.01),#1294,
'DISTANCE_ACCURACY_VALUE',
'Maximum model space distance between geometric entities at asserted c
onnectivities');
#1292=(
GEOMETRIC_REPRESENTATION_CONTEXT(3)
GLOBAL_UNCERTAINTY_ASSIGNED_CONTEXT((#1290))
GLOBAL_UNIT_ASSIGNED_CONTEXT((#1294,#1296,#1297))
REPRESENTATION_CONTEXT('','3D')
);
#1293=(
GEOMETRIC_REPRESENTATION_CONTEXT(3)
GLOBAL_UNCERTAINTY_ASSIGNED_CONTEXT((#1291))
GLOBAL_UNIT_ASSIGNED_CONTEXT((#1294,#1296,#1297))
REPRESENTATION_CONTEXT('','3D')
);
#1294=(
LENGTH_UNIT()
NAMED_UNIT(*)
SI_UNIT(.MILLI.,.METRE.)
);
#1295=(
LENGTH_UNIT()
NAMED_UNIT(*)
SI_UNIT($,.METRE.)
);
#1296=(
NAMED_UNIT(*)
PLANE_ANGLE_UNIT()
SI_UNIT($,.RADIAN.)
);
#1297=(
NAMED_UNIT(*)
SI_UNIT($,.STERADIAN.)
SOLID_ANGLE_UNIT()
);
#1298=SHAPE_DEFINITION_REPRESENTATION(#1299,#1300);
#1299=PRODUCT_DEFINITION_SHAPE('',$,#1302);
#1300=SHAPE_REPRESENTATION('',(#766),#1292);
#1301=PRODUCT_DEFINITION_CONTEXT('part definition',#1306,'design');
#1302=PRODUCT_DEFINITION('arm_part1','arm_part1',#1303,#1301);
#1303=PRODUCT_DEFINITION_FORMATION('',$,#1308);
#1304=PRODUCT_RELATED_PRODUCT_CATEGORY('arm_part1','arm_part1',(#1308));
#1305=APPLICATION_PROTOCOL_DEFINITION('international standard',
'automotive_design',2009,#1306);
#1306=APPLICATION_CONTEXT(
'Core Data for Automotive Mechanical Design Process');
#1307=PRODUCT_CONTEXT('part definition',#1306,'mechanical');
#1308=PRODUCT('arm_part1','arm_part1',$,(#1307));
#1309=PRESENTATION_STYLE_ASSIGNMENT((#1310));
#1310=SURFACE_STYLE_USAGE(.BOTH.,#1311);
#1311=SURFACE_SIDE_STYLE('',(#1312));
#1312=SURFACE_STYLE_FILL_AREA(#1313);
#1313=FILL_AREA_STYLE('Steel - Satin',(#1314));
#1314=FILL_AREA_STYLE_COLOUR('Steel - Satin',#1315);
#1315=COLOUR_RGB('Steel - Satin',0.627450980392157,0.627450980392157,0.627450980392157);
ENDSEC;
END-ISO-10303-21;
