ISO-10303-21;
HEADER;
/* Generated by software containing ST-Developer
 * from STEP Tools, Inc. (www.steptools.com) 
 */

FILE_DESCRIPTION(
/* description */ (''),
/* implementation_level */ '2;1');

FILE_NAME(
/* name */ 'arm_part4.step',
/* time_stamp */ '2026-08-20T17:24:55+05:30',
/* author */ (''),
/* organization */ (''),
/* preprocessor_version */ 'ST-DEVELOPER v20.1',
/* originating_system */ 'Autodesk Translation Framework v15.8.0.0',
/* authorisation */ '');

FILE_SCHEMA (('AUTOMOTIVE_DESIGN { 1 0 10303 214 3 1 1 }'));
ENDSEC;

DATA;
#10=MECHANICAL_DESIGN_GEOMETRIC_PRESENTATION_REPRESENTATION('',(#13),#434);
#11=SHAPE_REPRESENTATION_RELATIONSHIP('SRR','None',#441,#12);
#12=ADVANCED_BREP_SHAPE_REPRESENTATION('',(#14),#433);
#13=STYLED_ITEM('',(#450),#14);
#14=MANIFOLD_SOLID_BREP('Body1',#250);
#15=FACE_BOUND('',#51,.T.);
#16=FACE_BOUND('',#52,.T.);
#17=FACE_BOUND('',#54,.T.);
#18=FACE_BOUND('',#55,.T.);
#19=PLANE('',#270);
#20=PLANE('',#271);
#21=PLANE('',#275);
#22=PLANE('',#279);
#23=PLANE('',#283);
#24=PLANE('',#287);
#25=PLANE('',#288);
#26=FACE_OUTER_BOUND('',#39,.T.);
#27=FACE_OUTER_BOUND('',#40,.T.);
#28=FACE_OUTER_BOUND('',#41,.T.);
#29=FACE_OUTER_BOUND('',#42,.T.);
#30=FACE_OUTER_BOUND('',#43,.T.);
#31=FACE_OUTER_BOUND('',#44,.T.);
#32=FACE_OUTER_BOUND('',#45,.T.);
#33=FACE_OUTER_BOUND('',#46,.T.);
#34=FACE_OUTER_BOUND('',#47,.T.);
#35=FACE_OUTER_BOUND('',#48,.T.);
#36=FACE_OUTER_BOUND('',#49,.T.);
#37=FACE_OUTER_BOUND('',#50,.T.);
#38=FACE_OUTER_BOUND('',#53,.T.);
#39=EDGE_LOOP('',(#165,#166,#167,#168));
#40=EDGE_LOOP('',(#169,#170,#171,#172));
#41=EDGE_LOOP('',(#173,#174,#175,#176));
#42=EDGE_LOOP('',(#177,#178,#179,#180));
#43=EDGE_LOOP('',(#181,#182,#183,#184));
#44=EDGE_LOOP('',(#185,#186,#187,#188));
#45=EDGE_LOOP('',(#189,#190,#191,#192));
#46=EDGE_LOOP('',(#193,#194,#195,#196));
#47=EDGE_LOOP('',(#197,#198,#199,#200));
#48=EDGE_LOOP('',(#201,#202,#203,#204));
#49=EDGE_LOOP('',(#205,#206,#207,#208));
#50=EDGE_LOOP('',(#209,#210,#211,#212,#213,#214,#215,#216,#217));
#51=EDGE_LOOP('',(#218));
#52=EDGE_LOOP('',(#219));
#53=EDGE_LOOP('',(#220,#221,#222,#223,#224,#225,#226,#227,#228));
#54=EDGE_LOOP('',(#229));
#55=EDGE_LOOP('',(#230));
#56=LINE('',#367,#77);
#57=LINE('',#373,#78);
#58=LINE('',#378,#79);
#59=LINE('',#380,#80);
#60=LINE('',#382,#81);
#61=LINE('',#383,#82);
#62=LINE('',#386,#83);
#63=LINE('',#388,#84);
#64=LINE('',#389,#85);
#65=LINE('',#395,#86);
#66=LINE('',#398,#87);
#67=LINE('',#400,#88);
#68=LINE('',#401,#89);
#69=LINE('',#407,#90);
#70=LINE('',#410,#91);
#71=LINE('',#412,#92);
#72=LINE('',#413,#93);
#73=LINE('',#419,#94);
#74=LINE('',#422,#95);
#75=LINE('',#424,#96);
#76=LINE('',#425,#97);
#77=VECTOR('',#295,1.75000000000001);
#78=VECTOR('',#302,1.74999999999997);
#79=VECTOR('',#307,10.);
#80=VECTOR('',#308,10.);
#81=VECTOR('',#309,10.);
#82=VECTOR('',#310,10.);
#83=VECTOR('',#313,10.);
#84=VECTOR('',#314,10.);
#85=VECTOR('',#315,10.);
#86=VECTOR('',#322,10.);
#87=VECTOR('',#325,10.);
#88=VECTOR('',#326,10.);
#89=VECTOR('',#327,10.);
#90=VECTOR('',#334,10.);
#91=VECTOR('',#337,10.);
#92=VECTOR('',#338,10.);
#93=VECTOR('',#339,10.);
#94=VECTOR('',#346,10.);
#95=VECTOR('',#349,10.);
#96=VECTOR('',#350,10.);
#97=VECTOR('',#351,10.);
#98=CIRCLE('',#265,1.75000000000001);
#99=CIRCLE('',#266,1.75000000000001);
#100=CIRCLE('',#268,1.74999999999997);
#101=CIRCLE('',#269,1.74999999999997);
#102=CIRCLE('',#273,3.0000000000001);
#103=CIRCLE('',#274,3.0000000000001);
#104=CIRCLE('',#277,1.00000000000003);
#105=CIRCLE('',#278,1.00000000000003);
#106=CIRCLE('',#281,2.99999999999999);
#107=CIRCLE('',#282,2.99999999999999);
#108=CIRCLE('',#285,6.32060191313106);
#109=CIRCLE('',#286,6.32060191313106);
#110=VERTEX_POINT('',#364);
#111=VERTEX_POINT('',#366);
#112=VERTEX_POINT('',#370);
#113=VERTEX_POINT('',#372);
#114=VERTEX_POINT('',#376);
#115=VERTEX_POINT('',#377);
#116=VERTEX_POINT('',#379);
#117=VERTEX_POINT('',#381);
#118=VERTEX_POINT('',#385);
#119=VERTEX_POINT('',#387);
#120=VERTEX_POINT('',#391);
#121=VERTEX_POINT('',#393);
#122=VERTEX_POINT('',#397);
#123=VERTEX_POINT('',#399);
#124=VERTEX_POINT('',#403);
#125=VERTEX_POINT('',#405);
#126=VERTEX_POINT('',#409);
#127=VERTEX_POINT('',#411);
#128=VERTEX_POINT('',#415);
#129=VERTEX_POINT('',#417);
#130=VERTEX_POINT('',#421);
#131=VERTEX_POINT('',#423);
#132=EDGE_CURVE('',#110,#110,#98,.T.);
#133=EDGE_CURVE('',#110,#111,#56,.T.);
#134=EDGE_CURVE('',#111,#111,#99,.T.);
#135=EDGE_CURVE('',#112,#112,#100,.T.);
#136=EDGE_CURVE('',#112,#113,#57,.T.);
#137=EDGE_CURVE('',#113,#113,#101,.T.);
#138=EDGE_CURVE('',#114,#115,#58,.T.);
#139=EDGE_CURVE('',#115,#116,#59,.T.);
#140=EDGE_CURVE('',#117,#116,#60,.T.);
#141=EDGE_CURVE('',#114,#117,#61,.T.);
#142=EDGE_CURVE('',#118,#114,#62,.T.);
#143=EDGE_CURVE('',#119,#117,#63,.T.);
#144=EDGE_CURVE('',#118,#119,#64,.T.);
#145=EDGE_CURVE('',#120,#118,#102,.T.);
#146=EDGE_CURVE('',#121,#119,#103,.T.);
#147=EDGE_CURVE('',#120,#121,#65,.T.);
#148=EDGE_CURVE('',#122,#120,#66,.T.);
#149=EDGE_CURVE('',#123,#121,#67,.T.);
#150=EDGE_CURVE('',#122,#123,#68,.T.);
#151=EDGE_CURVE('',#124,#122,#104,.T.);
#152=EDGE_CURVE('',#125,#123,#105,.T.);
#153=EDGE_CURVE('',#124,#125,#69,.T.);
#154=EDGE_CURVE('',#124,#126,#70,.T.);
#155=EDGE_CURVE('',#127,#125,#71,.T.);
#156=EDGE_CURVE('',#126,#127,#72,.T.);
#157=EDGE_CURVE('',#128,#126,#106,.T.);
#158=EDGE_CURVE('',#129,#127,#107,.T.);
#159=EDGE_CURVE('',#128,#129,#73,.T.);
#160=EDGE_CURVE('',#128,#130,#74,.T.);
#161=EDGE_CURVE('',#131,#129,#75,.T.);
#162=EDGE_CURVE('',#130,#131,#76,.T.);
#163=EDGE_CURVE('',#115,#130,#108,.T.);
#164=EDGE_CURVE('',#116,#131,#109,.T.);
#165=ORIENTED_EDGE('',*,*,#132,.F.);
#166=ORIENTED_EDGE('',*,*,#133,.T.);
#167=ORIENTED_EDGE('',*,*,#134,.F.);
#168=ORIENTED_EDGE('',*,*,#133,.F.);
#169=ORIENTED_EDGE('',*,*,#135,.F.);
#170=ORIENTED_EDGE('',*,*,#136,.T.);
#171=ORIENTED_EDGE('',*,*,#137,.F.);
#172=ORIENTED_EDGE('',*,*,#136,.F.);
#173=ORIENTED_EDGE('',*,*,#138,.T.);
#174=ORIENTED_EDGE('',*,*,#139,.T.);
#175=ORIENTED_EDGE('',*,*,#140,.F.);
#176=ORIENTED_EDGE('',*,*,#141,.F.);
#177=ORIENTED_EDGE('',*,*,#142,.T.);
#178=ORIENTED_EDGE('',*,*,#141,.T.);
#179=ORIENTED_EDGE('',*,*,#143,.F.);
#180=ORIENTED_EDGE('',*,*,#144,.F.);
#181=ORIENTED_EDGE('',*,*,#145,.T.);
#182=ORIENTED_EDGE('',*,*,#144,.T.);
#183=ORIENTED_EDGE('',*,*,#146,.F.);
#184=ORIENTED_EDGE('',*,*,#147,.F.);
#185=ORIENTED_EDGE('',*,*,#148,.T.);
#186=ORIENTED_EDGE('',*,*,#147,.T.);
#187=ORIENTED_EDGE('',*,*,#149,.F.);
#188=ORIENTED_EDGE('',*,*,#150,.F.);
#189=ORIENTED_EDGE('',*,*,#151,.T.);
#190=ORIENTED_EDGE('',*,*,#150,.T.);
#191=ORIENTED_EDGE('',*,*,#152,.F.);
#192=ORIENTED_EDGE('',*,*,#153,.F.);
#193=ORIENTED_EDGE('',*,*,#154,.F.);
#194=ORIENTED_EDGE('',*,*,#153,.T.);
#195=ORIENTED_EDGE('',*,*,#155,.F.);
#196=ORIENTED_EDGE('',*,*,#156,.F.);
#197=ORIENTED_EDGE('',*,*,#157,.T.);
#198=ORIENTED_EDGE('',*,*,#156,.T.);
#199=ORIENTED_EDGE('',*,*,#158,.F.);
#200=ORIENTED_EDGE('',*,*,#159,.F.);
#201=ORIENTED_EDGE('',*,*,#160,.F.);
#202=ORIENTED_EDGE('',*,*,#159,.T.);
#203=ORIENTED_EDGE('',*,*,#161,.F.);
#204=ORIENTED_EDGE('',*,*,#162,.F.);
#205=ORIENTED_EDGE('',*,*,#163,.T.);
#206=ORIENTED_EDGE('',*,*,#162,.T.);
#207=ORIENTED_EDGE('',*,*,#164,.F.);
#208=ORIENTED_EDGE('',*,*,#139,.F.);
#209=ORIENTED_EDGE('',*,*,#164,.T.);
#210=ORIENTED_EDGE('',*,*,#161,.T.);
#211=ORIENTED_EDGE('',*,*,#158,.T.);
#212=ORIENTED_EDGE('',*,*,#155,.T.);
#213=ORIENTED_EDGE('',*,*,#152,.T.);
#214=ORIENTED_EDGE('',*,*,#149,.T.);
#215=ORIENTED_EDGE('',*,*,#146,.T.);
#216=ORIENTED_EDGE('',*,*,#143,.T.);
#217=ORIENTED_EDGE('',*,*,#140,.T.);
#218=ORIENTED_EDGE('',*,*,#132,.T.);
#219=ORIENTED_EDGE('',*,*,#135,.T.);
#220=ORIENTED_EDGE('',*,*,#163,.F.);
#221=ORIENTED_EDGE('',*,*,#138,.F.);
#222=ORIENTED_EDGE('',*,*,#142,.F.);
#223=ORIENTED_EDGE('',*,*,#145,.F.);
#224=ORIENTED_EDGE('',*,*,#148,.F.);
#225=ORIENTED_EDGE('',*,*,#151,.F.);
#226=ORIENTED_EDGE('',*,*,#154,.T.);
#227=ORIENTED_EDGE('',*,*,#157,.F.);
#228=ORIENTED_EDGE('',*,*,#160,.T.);
#229=ORIENTED_EDGE('',*,*,#134,.T.);
#230=ORIENTED_EDGE('',*,*,#137,.T.);
#231=CYLINDRICAL_SURFACE('',#264,1.75000000000001);
#232=CYLINDRICAL_SURFACE('',#267,1.74999999999997);
#233=CYLINDRICAL_SURFACE('',#272,3.0000000000001);
#234=CYLINDRICAL_SURFACE('',#276,1.00000000000003);
#235=CYLINDRICAL_SURFACE('',#280,2.99999999999999);
#236=CYLINDRICAL_SURFACE('',#284,6.32060191313106);
#237=ADVANCED_FACE('',(#26),#231,.F.);
#238=ADVANCED_FACE('',(#27),#232,.F.);
#239=ADVANCED_FACE('',(#28),#19,.T.);
#240=ADVANCED_FACE('',(#29),#20,.T.);
#241=ADVANCED_FACE('',(#30),#233,.T.);
#242=ADVANCED_FACE('',(#31),#21,.T.);
#243=ADVANCED_FACE('',(#32),#234,.T.);
#244=ADVANCED_FACE('',(#33),#22,.T.);
#245=ADVANCED_FACE('',(#34),#235,.T.);
#246=ADVANCED_FACE('',(#35),#23,.T.);
#247=ADVANCED_FACE('',(#36),#236,.T.);
#248=ADVANCED_FACE('',(#37,#15,#16),#24,.T.);
#249=ADVANCED_FACE('',(#38,#17,#18),#25,.F.);
#250=CLOSED_SHELL('',(#237,#238,#239,#240,#241,#242,#243,#244,#245,#246,
#247,#248,#249));
#251=DERIVED_UNIT_ELEMENT(#253,1.);
#252=DERIVED_UNIT_ELEMENT(#436,-3.);
#253=(
MASS_UNIT()
NAMED_UNIT(*)
SI_UNIT(.KILO.,.GRAM.)
);
#254=DERIVED_UNIT((#251,#252));
#255=MEASURE_REPRESENTATION_ITEM('density measure',
POSITIVE_RATIO_MEASURE(7850.),#254);
#256=PROPERTY_DEFINITION_REPRESENTATION(#261,#258);
#257=PROPERTY_DEFINITION_REPRESENTATION(#262,#259);
#258=REPRESENTATION('material name',(#260),#433);
#259=REPRESENTATION('density',(#255),#433);
#260=DESCRIPTIVE_REPRESENTATION_ITEM('Steel','Steel');
#261=PROPERTY_DEFINITION('material property','material name',#443);
#262=PROPERTY_DEFINITION('material property','density of part',#443);
#263=AXIS2_PLACEMENT_3D('',#362,#289,#290);
#264=AXIS2_PLACEMENT_3D('',#363,#291,#292);
#265=AXIS2_PLACEMENT_3D('',#365,#293,#294);
#266=AXIS2_PLACEMENT_3D('',#368,#296,#297);
#267=AXIS2_PLACEMENT_3D('',#369,#298,#299);
#268=AXIS2_PLACEMENT_3D('',#371,#300,#301);
#269=AXIS2_PLACEMENT_3D('',#374,#303,#304);
#270=AXIS2_PLACEMENT_3D('',#375,#305,#306);
#271=AXIS2_PLACEMENT_3D('',#384,#311,#312);
#272=AXIS2_PLACEMENT_3D('',#390,#316,#317);
#273=AXIS2_PLACEMENT_3D('',#392,#318,#319);
#274=AXIS2_PLACEMENT_3D('',#394,#320,#321);
#275=AXIS2_PLACEMENT_3D('',#396,#323,#324);
#276=AXIS2_PLACEMENT_3D('',#402,#328,#329);
#277=AXIS2_PLACEMENT_3D('',#404,#330,#331);
#278=AXIS2_PLACEMENT_3D('',#406,#332,#333);
#279=AXIS2_PLACEMENT_3D('',#408,#335,#336);
#280=AXIS2_PLACEMENT_3D('',#414,#340,#341);
#281=AXIS2_PLACEMENT_3D('',#416,#342,#343);
#282=AXIS2_PLACEMENT_3D('',#418,#344,#345);
#283=AXIS2_PLACEMENT_3D('',#420,#347,#348);
#284=AXIS2_PLACEMENT_3D('',#426,#352,#353);
#285=AXIS2_PLACEMENT_3D('',#427,#354,#355);
#286=AXIS2_PLACEMENT_3D('',#428,#356,#357);
#287=AXIS2_PLACEMENT_3D('',#429,#358,#359);
#288=AXIS2_PLACEMENT_3D('',#430,#360,#361);
#289=DIRECTION('axis',(0.,0.,1.));
#290=DIRECTION('refdir',(1.,0.,0.));
#291=DIRECTION('center_axis',(0.,0.,-1.));
#292=DIRECTION('ref_axis',(1.,5.55111512312576E-16,0.));
#293=DIRECTION('center_axis',(0.,0.,-1.));
#294=DIRECTION('ref_axis',(1.,5.55111512312576E-16,0.));
#295=DIRECTION('',(0.,0.,-1.));
#296=DIRECTION('center_axis',(0.,0.,1.));
#297=DIRECTION('ref_axis',(1.,5.55111512312576E-16,0.));
#298=DIRECTION('center_axis',(0.,2.368475785867E-16,-1.));
#299=DIRECTION('ref_axis',(1.,5.55111512312576E-16,1.32063767615127E-31));
#300=DIRECTION('center_axis',(0.,0.,-1.));
#301=DIRECTION('ref_axis',(1.,5.55111512312576E-16,1.32063767615127E-31));
#302=DIRECTION('',(0.,2.368475785867E-16,-1.));
#303=DIRECTION('center_axis',(0.,0.,1.));
#304=DIRECTION('ref_axis',(1.,5.55111512312576E-16,1.32063767615127E-31));
#305=DIRECTION('center_axis',(-1.,0.,0.));
#306=DIRECTION('ref_axis',(0.,-1.,0.));
#307=DIRECTION('',(0.,-1.,0.));
#308=DIRECTION('',(0.,0.,1.));
#309=DIRECTION('',(0.,-1.,0.));
#310=DIRECTION('',(0.,0.,1.));
#311=DIRECTION('center_axis',(-0.500388936264069,-0.86580073484868,0.));
#312=DIRECTION('ref_axis',(0.86580073484868,-0.500388936264069,0.));
#313=DIRECTION('',(0.86580073484868,-0.500388936264069,0.));
#314=DIRECTION('',(0.86580073484868,-0.500388936264069,0.));
#315=DIRECTION('',(0.,0.,1.));
#316=DIRECTION('center_axis',(0.,0.,1.));
#317=DIRECTION('ref_axis',(-1.,-1.18423789293346E-14,0.));
#318=DIRECTION('center_axis',(0.,0.,1.));
#319=DIRECTION('ref_axis',(-1.,-1.18423789293346E-14,0.));
#320=DIRECTION('center_axis',(0.,0.,1.));
#321=DIRECTION('ref_axis',(-1.,-1.18423789293346E-14,0.));
#322=DIRECTION('',(0.,0.,1.));
#323=DIRECTION('center_axis',(-1.,0.,0.));
#324=DIRECTION('ref_axis',(0.,-1.,0.));
#325=DIRECTION('',(0.,-1.,0.));
#326=DIRECTION('',(0.,-1.,0.));
#327=DIRECTION('',(0.,0.,1.));
#328=DIRECTION('center_axis',(0.,0.,1.));
#329=DIRECTION('ref_axis',(0.474533594119697,0.880237393009319,0.));
#330=DIRECTION('center_axis',(0.,0.,1.));
#331=DIRECTION('ref_axis',(0.474533594119697,0.880237393009319,0.));
#332=DIRECTION('center_axis',(0.,0.,1.));
#333=DIRECTION('ref_axis',(0.474533594119697,0.880237393009319,0.));
#334=DIRECTION('',(0.,0.,1.));
#335=DIRECTION('center_axis',(0.474533594119737,0.880237393009298,0.));
#336=DIRECTION('ref_axis',(-0.880237393009298,0.474533594119737,0.));
#337=DIRECTION('',(0.880237393009298,-0.474533594119737,0.));
#338=DIRECTION('',(-0.880237393009298,0.474533594119737,0.));
#339=DIRECTION('',(0.,0.,1.));
#340=DIRECTION('center_axis',(0.,0.,1.));
#341=DIRECTION('ref_axis',(1.,0.,0.));
#342=DIRECTION('center_axis',(0.,0.,1.));
#343=DIRECTION('ref_axis',(1.,0.,0.));
#344=DIRECTION('center_axis',(0.,0.,1.));
#345=DIRECTION('ref_axis',(1.,0.,0.));
#346=DIRECTION('',(0.,0.,1.));
#347=DIRECTION('center_axis',(1.,0.,0.));
#348=DIRECTION('ref_axis',(0.,1.,0.));
#349=DIRECTION('',(0.,-1.,0.));
#350=DIRECTION('',(0.,1.,0.));
#351=DIRECTION('',(0.,0.,1.));
#352=DIRECTION('center_axis',(0.,0.,1.));
#353=DIRECTION('ref_axis',(-3.31785044854594E-13,-1.,0.));
#354=DIRECTION('center_axis',(0.,0.,1.));
#355=DIRECTION('ref_axis',(-0.999978337142402,0.00658219157402713,0.));
#356=DIRECTION('center_axis',(0.,0.,1.));
#357=DIRECTION('ref_axis',(-0.999978337142402,0.00658219157402713,0.));
#358=DIRECTION('center_axis',(0.,0.,1.));
#359=DIRECTION('ref_axis',(1.,0.,0.));
#360=DIRECTION('center_axis',(0.,0.,1.));
#361=DIRECTION('ref_axis',(1.,0.,0.));
#362=CARTESIAN_POINT('',(0.,0.,0.));
#363=CARTESIAN_POINT('Origin',(-99.8309300402859,-173.28272397673,44.959811312275));
#364=CARTESIAN_POINT('',(-101.580930040286,-173.28272397673,4.5));
#365=CARTESIAN_POINT('Origin',(-99.8309300402859,-173.28272397673,4.5));
#366=CARTESIAN_POINT('',(-101.580930040286,-173.28272397673,0.));
#367=CARTESIAN_POINT('',(-101.580930040286,-173.28272397673,44.959811312275));
#368=CARTESIAN_POINT('Origin',(-99.8309300402859,-173.28272397673,0.));
#369=CARTESIAN_POINT('Origin',(-99.8309300402859,-154.646245572142,44.959811312275));
#370=CARTESIAN_POINT('',(-101.580930040286,-154.646245572142,4.5));
#371=CARTESIAN_POINT('Origin',(-99.8309300402859,-154.646245572142,4.5));
#372=CARTESIAN_POINT('',(-101.580930040286,-154.646245572142,-2.31111593326468E-31));
#373=CARTESIAN_POINT('',(-101.580930040286,-154.646245572142,44.959811312275));
#374=CARTESIAN_POINT('Origin',(-99.8309300402859,-154.646245572142,0.));
#375=CARTESIAN_POINT('Origin',(-105.952383833329,-148.00855659781,0.));
#376=CARTESIAN_POINT('',(-105.952383833329,-148.00855659781,0.));
#377=CARTESIAN_POINT('',(-105.952383833329,-172.000002563,0.));
#378=CARTESIAN_POINT('',(-105.952383833329,-148.00855659781,0.));
#379=CARTESIAN_POINT('',(-105.952383833329,-172.000002563,4.5));
#380=CARTESIAN_POINT('',(-105.952383833329,-172.000002563,0.));
#381=CARTESIAN_POINT('',(-105.952383833329,-148.00855659781,4.5));
#382=CARTESIAN_POINT('',(-105.952383833329,-148.00855659781,4.5));
#383=CARTESIAN_POINT('',(-105.952383833329,-148.00855659781,0.));
#384=CARTESIAN_POINT('Origin',(-123.501166808792,-137.866249606865,0.));
#385=CARTESIAN_POINT('',(-123.501166808792,-137.866249606865,0.));
#386=CARTESIAN_POINT('',(-123.501166808792,-137.866249606865,0.));
#387=CARTESIAN_POINT('',(-123.501166808792,-137.866249606865,4.5));
#388=CARTESIAN_POINT('',(-123.501166808792,-137.866249606865,4.5));
#389=CARTESIAN_POINT('',(-123.501166808792,-137.866249606865,0.));
#390=CARTESIAN_POINT('Origin',(-122.,-135.268847402318,0.));
#391=CARTESIAN_POINT('',(-125.,-135.268847402319,0.));
#392=CARTESIAN_POINT('Origin',(-122.,-135.268847402318,0.));
#393=CARTESIAN_POINT('',(-125.,-135.268847402319,4.5));
#394=CARTESIAN_POINT('Origin',(-122.,-135.268847402318,4.5));
#395=CARTESIAN_POINT('',(-125.,-135.268847402319,0.));
#396=CARTESIAN_POINT('Origin',(-125.,-126.675154459275,0.));
#397=CARTESIAN_POINT('',(-125.,-126.675154459275,0.));
#398=CARTESIAN_POINT('',(-125.,-126.675154459275,0.));
#399=CARTESIAN_POINT('',(-125.,-126.675154459275,4.5));
#400=CARTESIAN_POINT('',(-125.,-126.675154459275,4.5));
#401=CARTESIAN_POINT('',(-125.,-126.675154459275,0.));
#402=CARTESIAN_POINT('Origin',(-124.,-126.675154459275,0.));
#403=CARTESIAN_POINT('',(-123.52546640588,-125.794917066265,0.));
#404=CARTESIAN_POINT('Origin',(-124.,-126.675154459275,0.));
#405=CARTESIAN_POINT('',(-123.52546640588,-125.794917066265,4.5));
#406=CARTESIAN_POINT('Origin',(-124.,-126.675154459275,4.5));
#407=CARTESIAN_POINT('',(-123.52546640588,-125.794917066265,0.));
#408=CARTESIAN_POINT('Origin',(-94.8878530693061,-141.233376840346,0.));
#409=CARTESIAN_POINT('',(-94.8878530693061,-141.233376840346,0.));
#410=CARTESIAN_POINT('',(-123.52546640588,-125.794917066265,0.));
#411=CARTESIAN_POINT('',(-94.8878530693061,-141.233376840346,4.5));
#412=CARTESIAN_POINT('',(-123.52546640588,-125.794917066265,4.5));
#413=CARTESIAN_POINT('',(-94.8878530693061,-141.233376840346,0.));
#414=CARTESIAN_POINT('Origin',(-96.3114538516653,-143.874089019374,0.));
#415=CARTESIAN_POINT('',(-93.3114538516653,-143.874089019374,0.));
#416=CARTESIAN_POINT('Origin',(-96.3114538516653,-143.874089019374,0.));
#417=CARTESIAN_POINT('',(-93.3114538516653,-143.874089019374,4.5));
#418=CARTESIAN_POINT('Origin',(-96.3114538516653,-143.874089019374,4.5));
#419=CARTESIAN_POINT('',(-93.3114538516653,-143.874089019374,0.));
#420=CARTESIAN_POINT('Origin',(-93.3114538516653,-172.000002563004,0.));
#421=CARTESIAN_POINT('',(-93.3114538516652,-172.000002563004,0.));
#422=CARTESIAN_POINT('',(-93.3114538516653,-143.874089019374,0.));
#423=CARTESIAN_POINT('',(-93.3114538516652,-172.000002563004,4.5));
#424=CARTESIAN_POINT('',(-93.3114538516653,-143.874089019374,4.5));
#425=CARTESIAN_POINT('',(-93.3114538516652,-172.000002563004,0.));
#426=CARTESIAN_POINT('Origin',(-99.6319188424972,-172.041605975655,0.));
#427=CARTESIAN_POINT('Origin',(-99.6319188424972,-172.041605975655,0.));
#428=CARTESIAN_POINT('Origin',(-99.6319188424972,-172.041605975655,4.5));
#429=CARTESIAN_POINT('Origin',(-109.155658464683,-152.01868117403,4.5));
#430=CARTESIAN_POINT('Origin',(-109.155658464683,-152.01868117403,0.));
#431=UNCERTAINTY_MEASURE_WITH_UNIT(LENGTH_MEASURE(0.01),#435,
'DISTANCE_ACCURACY_VALUE',
'Maximum model space distance between geometric entities at asserted c
onnectivities');
#432=UNCERTAINTY_MEASURE_WITH_UNIT(LENGTH_MEASURE(0.01),#435,
'DISTANCE_ACCURACY_VALUE',
'Maximum model space distance between geometric entities at asserted c
onnectivities');
#433=(
GEOMETRIC_REPRESENTATION_CONTEXT(3)
GLOBAL_UNCERTAINTY_ASSIGNED_CONTEXT((#431))
GLOBAL_UNIT_ASSIGNED_CONTEXT((#435,#437,#438))
REPRESENTATION_CONTEXT('','3D')
);
#434=(
GEOMETRIC_REPRESENTATION_CONTEXT(3)
GLOBAL_UNCERTAINTY_ASSIGNED_CONTEXT((#432))
GLOBAL_UNIT_ASSIGNED_CONTEXT((#435,#437,#438))
REPRESENTATION_CONTEXT('','3D')
);
#435=(
LENGTH_UNIT()
NAMED_UNIT(*)
SI_UNIT(.MILLI.,.METRE.)
);
#436=(
LENGTH_UNIT()
NAMED_UNIT(*)
SI_UNIT($,.METRE.)
);
#437=(
NAMED_UNIT(*)
PLANE_ANGLE_UNIT()
SI_UNIT($,.RADIAN.)
);
#438=(
NAMED_UNIT(*)
SI_UNIT($,.STERADIAN.)
SOLID_ANGLE_UNIT()
);
#439=SHAPE_DEFINITION_REPRESENTATION(#440,#441);
#440=PRODUCT_DEFINITION_SHAPE('',$,#443);
#441=SHAPE_REPRESENTATION('',(#263),#433);
#442=PRODUCT_DEFINITION_CONTEXT('part definition',#447,'design');
#443=PRODUCT_DEFINITION('arm_part4','arm_part4',#444,#442);
#444=PRODUCT_DEFINITION_FORMATION('',$,#449);
#445=PRODUCT_RELATED_PRODUCT_CATEGORY('arm_part4','arm_part4',(#449));
#446=APPLICATION_PROTOCOL_DEFINITION('international standard',
'automotive_design',2009,#447);
#447=APPLICATION_CONTEXT(
'Core Data for Automotive Mechanical Design Process');
#448=PRODUCT_CONTEXT('part definition',#447,'mechanical');
#449=PRODUCT('arm_part4','arm_part4',$,(#448));
#450=PRESENTATION_STYLE_ASSIGNMENT((#451));
#451=SURFACE_STYLE_USAGE(.BOTH.,#452);
#452=SURFACE_SIDE_STYLE('',(#453));
#453=SURFACE_STYLE_FILL_AREA(#454);
#454=FILL_AREA_STYLE('Steel - Satin',(#455));
#455=FILL_AREA_STYLE_COLOUR('Steel - Satin',#456);
#456=COLOUR_RGB('Steel - Satin',0.627450980392157,0.627450980392157,0.627450980392157);
ENDSEC;
END-ISO-10303-21;
