ISO-10303-21;
HEADER;
/* Generated by software containing ST-Developer
 * from STEP Tools, Inc. (www.steptools.com) 
 */

FILE_DESCRIPTION(
/* description */ (''),
/* implementation_level */ '2;1');

FILE_NAME(
/* name */ 'arm_part7.step',
/* time_stamp */ '2026-08-20T17:25:11+05:30',
/* author */ (''),
/* organization */ (''),
/* preprocessor_version */ 'ST-DEVELOPER v20.1',
/* originating_system */ 'Autodesk Translation Framework v15.8.0.0',
/* authorisation */ '');

FILE_SCHEMA (('AUTOMOTIVE_DESIGN { 1 0 10303 214 3 1 1 }'));
ENDSEC;

DATA;
#10=MECHANICAL_DESIGN_GEOMETRIC_PRESENTATION_REPRESENTATION('',(#13),#1722);
#11=SHAPE_REPRESENTATION_RELATIONSHIP('SRR','None',#1729,#12);
#12=ADVANCED_BREP_SHAPE_REPRESENTATION('',(#14),#1721);
#13=STYLED_ITEM('',(#1738),#14);
#14=MANIFOLD_SOLID_BREP('Body1',#1007);
#15=FACE_BOUND('',#130,.T.);
#16=FACE_BOUND('',#139,.T.);
#17=FACE_BOUND('',#141,.T.);
#18=FACE_BOUND('',#143,.T.);
#19=FACE_BOUND('',#148,.T.);
#20=FACE_BOUND('',#149,.T.);
#21=FACE_BOUND('',#150,.T.);
#22=FACE_BOUND('',#151,.T.);
#23=FACE_BOUND('',#152,.T.);
#24=FACE_BOUND('',#153,.T.);
#25=FACE_BOUND('',#154,.T.);
#26=FACE_BOUND('',#158,.T.);
#27=FACE_BOUND('',#162,.T.);
#28=FACE_BOUND('',#164,.T.);
#29=FACE_BOUND('',#169,.T.);
#30=FACE_BOUND('',#170,.T.);
#31=FACE_BOUND('',#171,.T.);
#32=FACE_BOUND('',#172,.T.);
#33=FACE_BOUND('',#173,.T.);
#34=FACE_BOUND('',#174,.T.);
#35=FACE_BOUND('',#175,.T.);
#36=B_SPLINE_CURVE_WITH_KNOTS('',3,(#1462,#1463,#1464,#1465,#1466,#1467,
#1468,#1469,#1470,#1471,#1472,#1473,#1474,#1475,#1476,#1477,#1478,#1479,
#1480,#1481,#1482,#1483),.UNSPECIFIED.,.F.,.F.,(4,2,2,2,2,2,2,2,2,2,4),
(0.,0.0448828896311301,0.0897657792622603,0.131254108646945,0.170303557672629,
0.209353006698314,0.248402455723998,0.287451904749683,0.328940234134368,
0.373823123765498,0.418706013396628),.UNSPECIFIED.);
#37=B_SPLINE_CURVE_WITH_KNOTS('',3,(#1484,#1485,#1486,#1487,#1488,#1489,
#1490,#1491,#1492,#1493,#1494,#1495,#1496,#1497,#1498,#1499,#1500,#1501,
#1502,#1503,#1504,#1505),.UNSPECIFIED.,.F.,.F.,(4,2,2,2,2,2,2,2,2,2,4),
(0.418706013396628,0.463588903027759,0.50847179265889,0.549960122043575,
0.589009571069259,0.628059020094944,0.667108469120628,0.706157918146312,
0.747646247530997,0.792529137162128,0.837412026793259),.UNSPECIFIED.);
#38=PLANE('',#1024);
#39=PLANE('',#1025);
#40=PLANE('',#1026);
#41=PLANE('',#1027);
#42=PLANE('',#1046);
#43=PLANE('',#1050);
#44=PLANE('',#1057);
#45=PLANE('',#1058);
#46=PLANE('',#1060);
#47=PLANE('',#1061);
#48=PLANE('',#1062);
#49=PLANE('',#1063);
#50=PLANE('',#1067);
#51=PLANE('',#1068);
#52=PLANE('',#1076);
#53=PLANE('',#1077);
#54=PLANE('',#1078);
#55=PLANE('',#1079);
#56=PLANE('',#1085);
#57=PLANE('',#1086);
#58=PLANE('',#1087);
#59=PLANE('',#1088);
#60=PLANE('',#1089);
#61=PLANE('',#1090);
#62=PLANE('',#1098);
#63=PLANE('',#1099);
#64=PLANE('',#1101);
#65=PLANE('',#1103);
#66=PLANE('',#1105);
#67=PLANE('',#1108);
#68=PLANE('',#1110);
#69=FACE_OUTER_BOUND('',#119,.T.);
#70=FACE_OUTER_BOUND('',#120,.T.);
#71=FACE_OUTER_BOUND('',#121,.T.);
#72=FACE_OUTER_BOUND('',#122,.T.);
#73=FACE_OUTER_BOUND('',#123,.T.);
#74=FACE_OUTER_BOUND('',#124,.T.);
#75=FACE_OUTER_BOUND('',#125,.T.);
#76=FACE_OUTER_BOUND('',#126,.T.);
#77=FACE_OUTER_BOUND('',#127,.T.);
#78=FACE_OUTER_BOUND('',#128,.T.);
#79=FACE_OUTER_BOUND('',#129,.T.);
#80=FACE_OUTER_BOUND('',#131,.T.);
#81=FACE_OUTER_BOUND('',#132,.T.);
#82=FACE_OUTER_BOUND('',#133,.T.);
#83=FACE_OUTER_BOUND('',#134,.T.);
#84=FACE_OUTER_BOUND('',#135,.T.);
#85=FACE_OUTER_BOUND('',#136,.T.);
#86=FACE_OUTER_BOUND('',#137,.T.);
#87=FACE_OUTER_BOUND('',#138,.T.);
#88=FACE_OUTER_BOUND('',#140,.T.);
#89=FACE_OUTER_BOUND('',#142,.T.);
#90=FACE_OUTER_BOUND('',#144,.T.);
#91=FACE_OUTER_BOUND('',#145,.T.);
#92=FACE_OUTER_BOUND('',#146,.T.);
#93=FACE_OUTER_BOUND('',#147,.T.);
#94=FACE_OUTER_BOUND('',#155,.T.);
#95=FACE_OUTER_BOUND('',#156,.T.);
#96=FACE_OUTER_BOUND('',#157,.T.);
#97=FACE_OUTER_BOUND('',#159,.T.);
#98=FACE_OUTER_BOUND('',#160,.T.);
#99=FACE_OUTER_BOUND('',#161,.T.);
#100=FACE_OUTER_BOUND('',#163,.T.);
#101=FACE_OUTER_BOUND('',#165,.T.);
#102=FACE_OUTER_BOUND('',#166,.T.);
#103=FACE_OUTER_BOUND('',#167,.T.);
#104=FACE_OUTER_BOUND('',#168,.T.);
#105=FACE_OUTER_BOUND('',#176,.T.);
#106=FACE_OUTER_BOUND('',#177,.T.);
#107=FACE_OUTER_BOUND('',#178,.T.);
#108=FACE_OUTER_BOUND('',#179,.T.);
#109=FACE_OUTER_BOUND('',#180,.T.);
#110=FACE_OUTER_BOUND('',#181,.T.);
#111=FACE_OUTER_BOUND('',#182,.T.);
#112=FACE_OUTER_BOUND('',#183,.T.);
#113=FACE_OUTER_BOUND('',#184,.T.);
#114=FACE_OUTER_BOUND('',#185,.T.);
#115=FACE_OUTER_BOUND('',#186,.T.);
#116=FACE_OUTER_BOUND('',#187,.T.);
#117=FACE_OUTER_BOUND('',#188,.T.);
#118=FACE_OUTER_BOUND('',#189,.T.);
#119=EDGE_LOOP('',(#658,#659,#660,#661));
#120=EDGE_LOOP('',(#662,#663,#664,#665));
#121=EDGE_LOOP('',(#666,#667,#668,#669));
#122=EDGE_LOOP('',(#670,#671,#672,#673));
#123=EDGE_LOOP('',(#674,#675,#676,#677));
#124=EDGE_LOOP('',(#678,#679,#680,#681));
#125=EDGE_LOOP('',(#682,#683,#684,#685));
#126=EDGE_LOOP('',(#686,#687,#688,#689));
#127=EDGE_LOOP('',(#690,#691,#692,#693));
#128=EDGE_LOOP('',(#694,#695,#696,#697));
#129=EDGE_LOOP('',(#698,#699,#700,#701));
#130=EDGE_LOOP('',(#702,#703));
#131=EDGE_LOOP('',(#704));
#132=EDGE_LOOP('',(#705,#706,#707,#708));
#133=EDGE_LOOP('',(#709));
#134=EDGE_LOOP('',(#710,#711,#712,#713,#714,#715,#716,#717));
#135=EDGE_LOOP('',(#718,#719,#720,#721));
#136=EDGE_LOOP('',(#722,#723,#724,#725));
#137=EDGE_LOOP('',(#726,#727,#728,#729,#730,#731));
#138=EDGE_LOOP('',(#732,#733,#734,#735,#736,#737));
#139=EDGE_LOOP('',(#738));
#140=EDGE_LOOP('',(#739,#740,#741,#742,#743,#744));
#141=EDGE_LOOP('',(#745));
#142=EDGE_LOOP('',(#746,#747,#748,#749));
#143=EDGE_LOOP('',(#750));
#144=EDGE_LOOP('',(#751,#752,#753));
#145=EDGE_LOOP('',(#754,#755,#756,#757,#758,#759));
#146=EDGE_LOOP('',(#760,#761,#762));
#147=EDGE_LOOP('',(#763,#764,#765,#766,#767,#768,#769,#770,#771,#772,#773,
#774,#775,#776,#777,#778,#779,#780,#781,#782,#783,#784,#785,#786,#787,#788,
#789));
#148=EDGE_LOOP('',(#790));
#149=EDGE_LOOP('',(#791));
#150=EDGE_LOOP('',(#792));
#151=EDGE_LOOP('',(#793));
#152=EDGE_LOOP('',(#794));
#153=EDGE_LOOP('',(#795,#796,#797,#798));
#154=EDGE_LOOP('',(#799));
#155=EDGE_LOOP('',(#800,#801,#802,#803,#804,#805));
#156=EDGE_LOOP('',(#806,#807,#808,#809));
#157=EDGE_LOOP('',(#810,#811,#812,#813,#814,#815));
#158=EDGE_LOOP('',(#816));
#159=EDGE_LOOP('',(#817,#818,#819));
#160=EDGE_LOOP('',(#820,#821,#822,#823,#824,#825,#826,#827));
#161=EDGE_LOOP('',(#828,#829,#830,#831));
#162=EDGE_LOOP('',(#832));
#163=EDGE_LOOP('',(#833,#834,#835,#836));
#164=EDGE_LOOP('',(#837));
#165=EDGE_LOOP('',(#838,#839,#840,#841));
#166=EDGE_LOOP('',(#842,#843,#844,#845));
#167=EDGE_LOOP('',(#846,#847,#848));
#168=EDGE_LOOP('',(#849,#850,#851,#852,#853,#854,#855,#856,#857,#858,#859,
#860,#861,#862,#863,#864));
#169=EDGE_LOOP('',(#865));
#170=EDGE_LOOP('',(#866));
#171=EDGE_LOOP('',(#867));
#172=EDGE_LOOP('',(#868));
#173=EDGE_LOOP('',(#869));
#174=EDGE_LOOP('',(#870,#871,#872,#873));
#175=EDGE_LOOP('',(#874));
#176=EDGE_LOOP('',(#875,#876,#877,#878,#879,#880,#881,#882,#883,#884,#885));
#177=EDGE_LOOP('',(#886,#887,#888,#889));
#178=EDGE_LOOP('',(#890,#891,#892,#893));
#179=EDGE_LOOP('',(#894,#895,#896,#897));
#180=EDGE_LOOP('',(#898,#899,#900,#901));
#181=EDGE_LOOP('',(#902,#903,#904,#905));
#182=EDGE_LOOP('',(#906,#907,#908,#909));
#183=EDGE_LOOP('',(#910,#911,#912,#913));
#184=EDGE_LOOP('',(#914,#915,#916,#917));
#185=EDGE_LOOP('',(#918,#919,#920,#921));
#186=EDGE_LOOP('',(#922,#923,#924,#925));
#187=EDGE_LOOP('',(#926,#927,#928,#929));
#188=EDGE_LOOP('',(#930,#931,#932,#933));
#189=EDGE_LOOP('',(#934,#935,#936,#937));
#190=LINE('',#1398,#287);
#191=LINE('',#1403,#288);
#192=LINE('',#1405,#289);
#193=LINE('',#1407,#290);
#194=LINE('',#1408,#291);
#195=LINE('',#1411,#292);
#196=LINE('',#1413,#293);
#197=LINE('',#1414,#294);
#198=LINE('',#1417,#295);
#199=LINE('',#1419,#296);
#200=LINE('',#1420,#297);
#201=LINE('',#1422,#298);
#202=LINE('',#1423,#299);
#203=LINE('',#1428,#300);
#204=LINE('',#1434,#301);
#205=LINE('',#1440,#302);
#206=LINE('',#1446,#303);
#207=LINE('',#1452,#304);
#208=LINE('',#1458,#305);
#209=LINE('',#1511,#306);
#210=LINE('',#1517,#307);
#211=LINE('',#1519,#308);
#212=LINE('',#1525,#309);
#213=LINE('',#1530,#310);
#214=LINE('',#1532,#311);
#215=LINE('',#1534,#312);
#216=LINE('',#1535,#313);
#217=LINE('',#1538,#314);
#218=LINE('',#1540,#315);
#219=LINE('',#1542,#316);
#220=LINE('',#1544,#317);
#221=LINE('',#1548,#318);
#222=LINE('',#1550,#319);
#223=LINE('',#1552,#320);
#224=LINE('',#1554,#321);
#225=LINE('',#1555,#322);
#226=LINE('',#1559,#323);
#227=LINE('',#1561,#324);
#228=LINE('',#1562,#325);
#229=LINE('',#1564,#326);
#230=LINE('',#1565,#327);
#231=LINE('',#1567,#328);
#232=LINE('',#1570,#329);
#233=LINE('',#1574,#330);
#234=LINE('',#1577,#331);
#235=LINE('',#1580,#332);
#236=LINE('',#1584,#333);
#237=LINE('',#1588,#334);
#238=LINE('',#1592,#335);
#239=LINE('',#1596,#336);
#240=LINE('',#1598,#337);
#241=LINE('',#1600,#338);
#242=LINE('',#1602,#339);
#243=LINE('',#1604,#340);
#244=LINE('',#1606,#341);
#245=LINE('',#1608,#342);
#246=LINE('',#1612,#343);
#247=LINE('',#1616,#344);
#248=LINE('',#1620,#345);
#249=LINE('',#1621,#346);
#250=LINE('',#1624,#347);
#251=LINE('',#1626,#348);
#252=LINE('',#1627,#349);
#253=LINE('',#1630,#350);
#254=LINE('',#1632,#351);
#255=LINE('',#1634,#352);
#256=LINE('',#1635,#353);
#257=LINE('',#1642,#354);
#258=LINE('',#1646,#355);
#259=LINE('',#1650,#356);
#260=LINE('',#1651,#357);
#261=LINE('',#1653,#358);
#262=LINE('',#1656,#359);
#263=LINE('',#1658,#360);
#264=LINE('',#1659,#361);
#265=LINE('',#1661,#362);
#266=LINE('',#1662,#363);
#267=LINE('',#1668,#364);
#268=LINE('',#1672,#365);
#269=LINE('',#1676,#366);
#270=LINE('',#1678,#367);
#271=LINE('',#1682,#368);
#272=LINE('',#1686,#369);
#273=LINE('',#1690,#370);
#274=LINE('',#1693,#371);
#275=LINE('',#1694,#372);
#276=LINE('',#1696,#373);
#277=LINE('',#1698,#374);
#278=LINE('',#1700,#375);
#279=LINE('',#1702,#376);
#280=LINE('',#1704,#377);
#281=LINE('',#1706,#378);
#282=LINE('',#1708,#379);
#283=LINE('',#1711,#380);
#284=LINE('',#1713,#381);
#285=LINE('',#1715,#382);
#286=LINE('',#1717,#383);
#287=VECTOR('',#1118,1.5);
#288=VECTOR('',#1123,10.);
#289=VECTOR('',#1124,10.);
#290=VECTOR('',#1125,10.);
#291=VECTOR('',#1126,10.);
#292=VECTOR('',#1129,10.);
#293=VECTOR('',#1130,10.);
#294=VECTOR('',#1131,10.);
#295=VECTOR('',#1134,10.);
#296=VECTOR('',#1135,10.);
#297=VECTOR('',#1136,10.);
#298=VECTOR('',#1139,10.);
#299=VECTOR('',#1140,10.);
#300=VECTOR('',#1145,1.25);
#301=VECTOR('',#1152,1.25);
#302=VECTOR('',#1159,1.5);
#303=VECTOR('',#1166,1.5);
#304=VECTOR('',#1173,1.5);
#305=VECTOR('',#1180,1.5);
#306=VECTOR('',#1189,1.5);
#307=VECTOR('',#1198,1.25);
#308=VECTOR('',#1199,1.25);
#309=VECTOR('',#1206,1.25);
#310=VECTOR('',#1211,10.);
#311=VECTOR('',#1212,10.);
#312=VECTOR('',#1213,10.);
#313=VECTOR('',#1214,10.);
#314=VECTOR('',#1217,10.);
#315=VECTOR('',#1218,10.);
#316=VECTOR('',#1219,10.);
#317=VECTOR('',#1220,10.);
#318=VECTOR('',#1225,10.);
#319=VECTOR('',#1226,10.);
#320=VECTOR('',#1227,10.);
#321=VECTOR('',#1228,10.);
#322=VECTOR('',#1229,10.);
#323=VECTOR('',#1232,10.);
#324=VECTOR('',#1233,10.);
#325=VECTOR('',#1234,10.);
#326=VECTOR('',#1235,10.);
#327=VECTOR('',#1236,10.);
#328=VECTOR('',#1239,10.);
#329=VECTOR('',#1242,10.);
#330=VECTOR('',#1247,10.);
#331=VECTOR('',#1252,10.);
#332=VECTOR('',#1255,10.);
#333=VECTOR('',#1258,10.);
#334=VECTOR('',#1261,10.);
#335=VECTOR('',#1264,10.);
#336=VECTOR('',#1267,10.);
#337=VECTOR('',#1268,10.);
#338=VECTOR('',#1269,10.);
#339=VECTOR('',#1270,10.);
#340=VECTOR('',#1271,10.);
#341=VECTOR('',#1272,10.);
#342=VECTOR('',#1273,10.);
#343=VECTOR('',#1276,10.);
#344=VECTOR('',#1279,10.);
#345=VECTOR('',#1284,10.);
#346=VECTOR('',#1285,10.);
#347=VECTOR('',#1288,10.);
#348=VECTOR('',#1289,10.);
#349=VECTOR('',#1290,10.);
#350=VECTOR('',#1293,10.);
#351=VECTOR('',#1294,10.);
#352=VECTOR('',#1295,10.);
#353=VECTOR('',#1296,10.);
#354=VECTOR('',#1305,10.);
#355=VECTOR('',#1308,10.);
#356=VECTOR('',#1313,10.);
#357=VECTOR('',#1314,10.);
#358=VECTOR('',#1317,10.);
#359=VECTOR('',#1320,10.);
#360=VECTOR('',#1321,10.);
#361=VECTOR('',#1322,10.);
#362=VECTOR('',#1325,10.);
#363=VECTOR('',#1326,10.);
#364=VECTOR('',#1333,10.);
#365=VECTOR('',#1336,10.);
#366=VECTOR('',#1339,10.);
#367=VECTOR('',#1340,10.);
#368=VECTOR('',#1343,10.);
#369=VECTOR('',#1346,10.);
#370=VECTOR('',#1349,10.);
#371=VECTOR('',#1354,10.);
#372=VECTOR('',#1355,10.);
#373=VECTOR('',#1358,10.);
#374=VECTOR('',#1361,10.);
#375=VECTOR('',#1364,10.);
#376=VECTOR('',#1367,10.);
#377=VECTOR('',#1370,10.);
#378=VECTOR('',#1373,10.);
#379=VECTOR('',#1376,10.);
#380=VECTOR('',#1381,10.);
#381=VECTOR('',#1384,10.);
#382=VECTOR('',#1387,10.);
#383=VECTOR('',#1390,10.);
#384=CIRCLE('',#1022,1.5);
#385=CIRCLE('',#1023,1.5);
#386=CIRCLE('',#1029,1.25);
#387=CIRCLE('',#1030,1.25);
#388=CIRCLE('',#1032,1.25);
#389=CIRCLE('',#1033,1.25);
#390=CIRCLE('',#1035,1.5);
#391=CIRCLE('',#1036,1.5);
#392=CIRCLE('',#1038,1.5);
#393=CIRCLE('',#1039,1.5);
#394=CIRCLE('',#1041,1.5);
#395=CIRCLE('',#1042,1.5);
#396=CIRCLE('',#1044,1.5);
#397=CIRCLE('',#1045,1.5);
#398=CIRCLE('',#1048,1.5);
#399=CIRCLE('',#1049,1.5);
#400=CIRCLE('',#1052,1.25);
#401=CIRCLE('',#1053,1.25);
#402=CIRCLE('',#1055,1.25);
#403=CIRCLE('',#1056,1.25);
#404=CIRCLE('',#1059,2.40061475727436);
#405=CIRCLE('',#1064,2.40061475727436);
#406=CIRCLE('',#1066,2.40061475727436);
#407=CIRCLE('',#1069,4.);
#408=CIRCLE('',#1070,5.);
#409=CIRCLE('',#1071,5.00000000000001);
#410=CIRCLE('',#1072,3.99999999999998);
#411=CIRCLE('',#1073,2.);
#412=CIRCLE('',#1074,2.);
#413=CIRCLE('',#1075,2.00000000000013);
#414=CIRCLE('',#1080,2.40061475727436);
#415=CIRCLE('',#1082,2.40061475727436);
#416=CIRCLE('',#1083,2.40061475727436);
#417=CIRCLE('',#1084,2.40061475727436);
#418=CIRCLE('',#1091,2.00000000000013);
#419=CIRCLE('',#1092,2.);
#420=CIRCLE('',#1093,2.);
#421=CIRCLE('',#1094,3.99999999999998);
#422=CIRCLE('',#1095,5.00000000000001);
#423=CIRCLE('',#1096,5.);
#424=CIRCLE('',#1097,4.);
#425=VERTEX_POINT('',#1395);
#426=VERTEX_POINT('',#1397);
#427=VERTEX_POINT('',#1401);
#428=VERTEX_POINT('',#1402);
#429=VERTEX_POINT('',#1404);
#430=VERTEX_POINT('',#1406);
#431=VERTEX_POINT('',#1410);
#432=VERTEX_POINT('',#1412);
#433=VERTEX_POINT('',#1416);
#434=VERTEX_POINT('',#1418);
#435=VERTEX_POINT('',#1425);
#436=VERTEX_POINT('',#1427);
#437=VERTEX_POINT('',#1431);
#438=VERTEX_POINT('',#1433);
#439=VERTEX_POINT('',#1437);
#440=VERTEX_POINT('',#1439);
#441=VERTEX_POINT('',#1443);
#442=VERTEX_POINT('',#1445);
#443=VERTEX_POINT('',#1449);
#444=VERTEX_POINT('',#1451);
#445=VERTEX_POINT('',#1455);
#446=VERTEX_POINT('',#1457);
#447=VERTEX_POINT('',#1460);
#448=VERTEX_POINT('',#1461);
#449=VERTEX_POINT('',#1508);
#450=VERTEX_POINT('',#1510);
#451=VERTEX_POINT('',#1515);
#452=VERTEX_POINT('',#1518);
#453=VERTEX_POINT('',#1522);
#454=VERTEX_POINT('',#1524);
#455=VERTEX_POINT('',#1528);
#456=VERTEX_POINT('',#1529);
#457=VERTEX_POINT('',#1531);
#458=VERTEX_POINT('',#1533);
#459=VERTEX_POINT('',#1537);
#460=VERTEX_POINT('',#1539);
#461=VERTEX_POINT('',#1541);
#462=VERTEX_POINT('',#1543);
#463=VERTEX_POINT('',#1547);
#464=VERTEX_POINT('',#1549);
#465=VERTEX_POINT('',#1551);
#466=VERTEX_POINT('',#1553);
#467=VERTEX_POINT('',#1557);
#468=VERTEX_POINT('',#1558);
#469=VERTEX_POINT('',#1560);
#470=VERTEX_POINT('',#1563);
#471=VERTEX_POINT('',#1569);
#472=VERTEX_POINT('',#1573);
#473=VERTEX_POINT('',#1579);
#474=VERTEX_POINT('',#1581);
#475=VERTEX_POINT('',#1583);
#476=VERTEX_POINT('',#1585);
#477=VERTEX_POINT('',#1587);
#478=VERTEX_POINT('',#1589);
#479=VERTEX_POINT('',#1591);
#480=VERTEX_POINT('',#1593);
#481=VERTEX_POINT('',#1595);
#482=VERTEX_POINT('',#1597);
#483=VERTEX_POINT('',#1599);
#484=VERTEX_POINT('',#1601);
#485=VERTEX_POINT('',#1603);
#486=VERTEX_POINT('',#1605);
#487=VERTEX_POINT('',#1607);
#488=VERTEX_POINT('',#1609);
#489=VERTEX_POINT('',#1611);
#490=VERTEX_POINT('',#1613);
#491=VERTEX_POINT('',#1615);
#492=VERTEX_POINT('',#1619);
#493=VERTEX_POINT('',#1623);
#494=VERTEX_POINT('',#1625);
#495=VERTEX_POINT('',#1629);
#496=VERTEX_POINT('',#1631);
#497=VERTEX_POINT('',#1633);
#498=VERTEX_POINT('',#1639);
#499=VERTEX_POINT('',#1641);
#500=VERTEX_POINT('',#1643);
#501=VERTEX_POINT('',#1645);
#502=VERTEX_POINT('',#1649);
#503=VERTEX_POINT('',#1655);
#504=VERTEX_POINT('',#1657);
#505=VERTEX_POINT('',#1665);
#506=VERTEX_POINT('',#1667);
#507=VERTEX_POINT('',#1669);
#508=VERTEX_POINT('',#1671);
#509=VERTEX_POINT('',#1673);
#510=VERTEX_POINT('',#1675);
#511=VERTEX_POINT('',#1677);
#512=VERTEX_POINT('',#1679);
#513=VERTEX_POINT('',#1681);
#514=VERTEX_POINT('',#1683);
#515=VERTEX_POINT('',#1685);
#516=VERTEX_POINT('',#1687);
#517=VERTEX_POINT('',#1689);
#518=EDGE_CURVE('',#425,#425,#384,.T.);
#519=EDGE_CURVE('',#425,#426,#190,.T.);
#520=EDGE_CURVE('',#426,#426,#385,.T.);
#521=EDGE_CURVE('',#427,#428,#191,.T.);
#522=EDGE_CURVE('',#429,#427,#192,.T.);
#523=EDGE_CURVE('',#430,#429,#193,.T.);
#524=EDGE_CURVE('',#430,#428,#194,.T.);
#525=EDGE_CURVE('',#428,#431,#195,.T.);
#526=EDGE_CURVE('',#432,#430,#196,.T.);
#527=EDGE_CURVE('',#432,#431,#197,.T.);
#528=EDGE_CURVE('',#431,#433,#198,.T.);
#529=EDGE_CURVE('',#434,#432,#199,.T.);
#530=EDGE_CURVE('',#434,#433,#200,.T.);
#531=EDGE_CURVE('',#433,#427,#201,.T.);
#532=EDGE_CURVE('',#429,#434,#202,.T.);
#533=EDGE_CURVE('',#435,#435,#386,.T.);
#534=EDGE_CURVE('',#435,#436,#203,.T.);
#535=EDGE_CURVE('',#436,#436,#387,.T.);
#536=EDGE_CURVE('',#437,#437,#388,.T.);
#537=EDGE_CURVE('',#437,#438,#204,.T.);
#538=EDGE_CURVE('',#438,#438,#389,.T.);
#539=EDGE_CURVE('',#439,#439,#390,.T.);
#540=EDGE_CURVE('',#439,#440,#205,.T.);
#541=EDGE_CURVE('',#440,#440,#391,.T.);
#542=EDGE_CURVE('',#441,#441,#392,.T.);
#543=EDGE_CURVE('',#441,#442,#206,.T.);
#544=EDGE_CURVE('',#442,#442,#393,.T.);
#545=EDGE_CURVE('',#443,#443,#394,.T.);
#546=EDGE_CURVE('',#443,#444,#207,.T.);
#547=EDGE_CURVE('',#444,#444,#395,.T.);
#548=EDGE_CURVE('',#445,#445,#396,.T.);
#549=EDGE_CURVE('',#445,#446,#208,.T.);
#550=EDGE_CURVE('',#446,#446,#397,.T.);
#551=EDGE_CURVE('',#447,#448,#36,.T.);
#552=EDGE_CURVE('',#448,#447,#37,.T.);
#553=EDGE_CURVE('',#449,#449,#398,.T.);
#554=EDGE_CURVE('',#449,#450,#209,.T.);
#555=EDGE_CURVE('',#450,#450,#399,.T.);
#556=EDGE_CURVE('',#451,#451,#400,.T.);
#557=EDGE_CURVE('',#451,#448,#210,.T.);
#558=EDGE_CURVE('',#447,#452,#211,.T.);
#559=EDGE_CURVE('',#452,#452,#401,.T.);
#560=EDGE_CURVE('',#453,#453,#402,.T.);
#561=EDGE_CURVE('',#453,#454,#212,.T.);
#562=EDGE_CURVE('',#454,#454,#403,.T.);
#563=EDGE_CURVE('',#455,#456,#213,.T.);
#564=EDGE_CURVE('',#455,#457,#214,.T.);
#565=EDGE_CURVE('',#458,#457,#215,.T.);
#566=EDGE_CURVE('',#458,#456,#216,.T.);
#567=EDGE_CURVE('',#459,#455,#217,.T.);
#568=EDGE_CURVE('',#459,#460,#218,.T.);
#569=EDGE_CURVE('',#461,#460,#219,.T.);
#570=EDGE_CURVE('',#462,#461,#220,.T.);
#571=EDGE_CURVE('',#457,#462,#404,.T.);
#572=EDGE_CURVE('',#463,#459,#221,.T.);
#573=EDGE_CURVE('',#464,#463,#222,.T.);
#574=EDGE_CURVE('',#465,#464,#223,.T.);
#575=EDGE_CURVE('',#465,#466,#224,.T.);
#576=EDGE_CURVE('',#460,#466,#225,.T.);
#577=EDGE_CURVE('',#467,#468,#226,.T.);
#578=EDGE_CURVE('',#469,#467,#227,.T.);
#579=EDGE_CURVE('',#462,#469,#228,.T.);
#580=EDGE_CURVE('',#470,#461,#229,.T.);
#581=EDGE_CURVE('',#468,#470,#230,.T.);
#582=EDGE_CURVE('',#466,#470,#231,.T.);
#583=EDGE_CURVE('',#471,#467,#232,.T.);
#584=EDGE_CURVE('',#471,#469,#405,.T.);
#585=EDGE_CURVE('',#472,#471,#233,.T.);
#586=EDGE_CURVE('',#458,#472,#406,.T.);
#587=EDGE_CURVE('',#456,#472,#234,.T.);
#588=EDGE_CURVE('',#468,#473,#235,.T.);
#589=EDGE_CURVE('',#473,#474,#407,.T.);
#590=EDGE_CURVE('',#474,#475,#236,.T.);
#591=EDGE_CURVE('',#475,#476,#408,.T.);
#592=EDGE_CURVE('',#476,#477,#237,.T.);
#593=EDGE_CURVE('',#477,#478,#409,.T.);
#594=EDGE_CURVE('',#478,#479,#238,.T.);
#595=EDGE_CURVE('',#479,#480,#410,.T.);
#596=EDGE_CURVE('',#480,#481,#239,.T.);
#597=EDGE_CURVE('',#481,#482,#240,.T.);
#598=EDGE_CURVE('',#482,#483,#241,.T.);
#599=EDGE_CURVE('',#483,#484,#242,.T.);
#600=EDGE_CURVE('',#484,#485,#243,.T.);
#601=EDGE_CURVE('',#485,#486,#244,.T.);
#602=EDGE_CURVE('',#486,#487,#245,.T.);
#603=EDGE_CURVE('',#487,#488,#411,.T.);
#604=EDGE_CURVE('',#488,#489,#246,.T.);
#605=EDGE_CURVE('',#489,#490,#412,.T.);
#606=EDGE_CURVE('',#490,#491,#247,.T.);
#607=EDGE_CURVE('',#491,#463,#413,.T.);
#608=EDGE_CURVE('',#492,#465,#248,.T.);
#609=EDGE_CURVE('',#492,#473,#249,.T.);
#610=EDGE_CURVE('',#484,#493,#250,.T.);
#611=EDGE_CURVE('',#494,#493,#251,.T.);
#612=EDGE_CURVE('',#485,#494,#252,.T.);
#613=EDGE_CURVE('',#495,#483,#253,.T.);
#614=EDGE_CURVE('',#496,#495,#254,.T.);
#615=EDGE_CURVE('',#496,#497,#255,.T.);
#616=EDGE_CURVE('',#493,#497,#256,.T.);
#617=EDGE_CURVE('',#482,#495,#414,.T.);
#618=EDGE_CURVE('',#498,#481,#415,.T.);
#619=EDGE_CURVE('',#499,#498,#257,.T.);
#620=EDGE_CURVE('',#500,#499,#416,.T.);
#621=EDGE_CURVE('',#500,#501,#258,.T.);
#622=EDGE_CURVE('',#501,#496,#417,.T.);
#623=EDGE_CURVE('',#502,#494,#259,.T.);
#624=EDGE_CURVE('',#486,#502,#260,.T.);
#625=EDGE_CURVE('',#497,#502,#261,.T.);
#626=EDGE_CURVE('',#503,#498,#262,.T.);
#627=EDGE_CURVE('',#504,#503,#263,.T.);
#628=EDGE_CURVE('',#504,#499,#264,.T.);
#629=EDGE_CURVE('',#501,#503,#265,.T.);
#630=EDGE_CURVE('',#500,#504,#266,.T.);
#631=EDGE_CURVE('',#505,#464,#418,.T.);
#632=EDGE_CURVE('',#506,#505,#267,.T.);
#633=EDGE_CURVE('',#507,#506,#419,.T.);
#634=EDGE_CURVE('',#508,#507,#268,.T.);
#635=EDGE_CURVE('',#509,#508,#420,.T.);
#636=EDGE_CURVE('',#509,#510,#269,.T.);
#637=EDGE_CURVE('',#511,#510,#270,.T.);
#638=EDGE_CURVE('',#512,#511,#421,.T.);
#639=EDGE_CURVE('',#512,#513,#271,.T.);
#640=EDGE_CURVE('',#514,#513,#422,.T.);
#641=EDGE_CURVE('',#514,#515,#272,.T.);
#642=EDGE_CURVE('',#516,#515,#423,.T.);
#643=EDGE_CURVE('',#516,#517,#273,.T.);
#644=EDGE_CURVE('',#492,#517,#424,.T.);
#645=EDGE_CURVE('',#511,#480,#274,.T.);
#646=EDGE_CURVE('',#510,#486,#275,.T.);
#647=EDGE_CURVE('',#509,#487,#276,.T.);
#648=EDGE_CURVE('',#512,#479,#277,.T.);
#649=EDGE_CURVE('',#513,#478,#278,.T.);
#650=EDGE_CURVE('',#514,#477,#279,.T.);
#651=EDGE_CURVE('',#515,#476,#280,.T.);
#652=EDGE_CURVE('',#516,#475,#281,.T.);
#653=EDGE_CURVE('',#517,#474,#282,.T.);
#654=EDGE_CURVE('',#505,#491,#283,.T.);
#655=EDGE_CURVE('',#506,#490,#284,.T.);
#656=EDGE_CURVE('',#507,#489,#285,.T.);
#657=EDGE_CURVE('',#508,#488,#286,.T.);
#658=ORIENTED_EDGE('',*,*,#518,.F.);
#659=ORIENTED_EDGE('',*,*,#519,.T.);
#660=ORIENTED_EDGE('',*,*,#520,.F.);
#661=ORIENTED_EDGE('',*,*,#519,.F.);
#662=ORIENTED_EDGE('',*,*,#521,.F.);
#663=ORIENTED_EDGE('',*,*,#522,.F.);
#664=ORIENTED_EDGE('',*,*,#523,.F.);
#665=ORIENTED_EDGE('',*,*,#524,.T.);
#666=ORIENTED_EDGE('',*,*,#525,.F.);
#667=ORIENTED_EDGE('',*,*,#524,.F.);
#668=ORIENTED_EDGE('',*,*,#526,.F.);
#669=ORIENTED_EDGE('',*,*,#527,.T.);
#670=ORIENTED_EDGE('',*,*,#528,.F.);
#671=ORIENTED_EDGE('',*,*,#527,.F.);
#672=ORIENTED_EDGE('',*,*,#529,.F.);
#673=ORIENTED_EDGE('',*,*,#530,.T.);
#674=ORIENTED_EDGE('',*,*,#531,.F.);
#675=ORIENTED_EDGE('',*,*,#530,.F.);
#676=ORIENTED_EDGE('',*,*,#532,.F.);
#677=ORIENTED_EDGE('',*,*,#522,.T.);
#678=ORIENTED_EDGE('',*,*,#533,.F.);
#679=ORIENTED_EDGE('',*,*,#534,.T.);
#680=ORIENTED_EDGE('',*,*,#535,.F.);
#681=ORIENTED_EDGE('',*,*,#534,.F.);
#682=ORIENTED_EDGE('',*,*,#536,.F.);
#683=ORIENTED_EDGE('',*,*,#537,.T.);
#684=ORIENTED_EDGE('',*,*,#538,.F.);
#685=ORIENTED_EDGE('',*,*,#537,.F.);
#686=ORIENTED_EDGE('',*,*,#539,.F.);
#687=ORIENTED_EDGE('',*,*,#540,.T.);
#688=ORIENTED_EDGE('',*,*,#541,.F.);
#689=ORIENTED_EDGE('',*,*,#540,.F.);
#690=ORIENTED_EDGE('',*,*,#542,.F.);
#691=ORIENTED_EDGE('',*,*,#543,.T.);
#692=ORIENTED_EDGE('',*,*,#544,.F.);
#693=ORIENTED_EDGE('',*,*,#543,.F.);
#694=ORIENTED_EDGE('',*,*,#545,.F.);
#695=ORIENTED_EDGE('',*,*,#546,.T.);
#696=ORIENTED_EDGE('',*,*,#547,.F.);
#697=ORIENTED_EDGE('',*,*,#546,.F.);
#698=ORIENTED_EDGE('',*,*,#548,.F.);
#699=ORIENTED_EDGE('',*,*,#549,.T.);
#700=ORIENTED_EDGE('',*,*,#550,.T.);
#701=ORIENTED_EDGE('',*,*,#549,.F.);
#702=ORIENTED_EDGE('',*,*,#551,.F.);
#703=ORIENTED_EDGE('',*,*,#552,.F.);
#704=ORIENTED_EDGE('',*,*,#550,.F.);
#705=ORIENTED_EDGE('',*,*,#553,.F.);
#706=ORIENTED_EDGE('',*,*,#554,.T.);
#707=ORIENTED_EDGE('',*,*,#555,.T.);
#708=ORIENTED_EDGE('',*,*,#554,.F.);
#709=ORIENTED_EDGE('',*,*,#555,.F.);
#710=ORIENTED_EDGE('',*,*,#556,.F.);
#711=ORIENTED_EDGE('',*,*,#557,.T.);
#712=ORIENTED_EDGE('',*,*,#552,.T.);
#713=ORIENTED_EDGE('',*,*,#558,.T.);
#714=ORIENTED_EDGE('',*,*,#559,.F.);
#715=ORIENTED_EDGE('',*,*,#558,.F.);
#716=ORIENTED_EDGE('',*,*,#551,.T.);
#717=ORIENTED_EDGE('',*,*,#557,.F.);
#718=ORIENTED_EDGE('',*,*,#560,.F.);
#719=ORIENTED_EDGE('',*,*,#561,.T.);
#720=ORIENTED_EDGE('',*,*,#562,.F.);
#721=ORIENTED_EDGE('',*,*,#561,.F.);
#722=ORIENTED_EDGE('',*,*,#563,.F.);
#723=ORIENTED_EDGE('',*,*,#564,.T.);
#724=ORIENTED_EDGE('',*,*,#565,.F.);
#725=ORIENTED_EDGE('',*,*,#566,.T.);
#726=ORIENTED_EDGE('',*,*,#567,.F.);
#727=ORIENTED_EDGE('',*,*,#568,.T.);
#728=ORIENTED_EDGE('',*,*,#569,.F.);
#729=ORIENTED_EDGE('',*,*,#570,.F.);
#730=ORIENTED_EDGE('',*,*,#571,.F.);
#731=ORIENTED_EDGE('',*,*,#564,.F.);
#732=ORIENTED_EDGE('',*,*,#572,.F.);
#733=ORIENTED_EDGE('',*,*,#573,.F.);
#734=ORIENTED_EDGE('',*,*,#574,.F.);
#735=ORIENTED_EDGE('',*,*,#575,.T.);
#736=ORIENTED_EDGE('',*,*,#576,.F.);
#737=ORIENTED_EDGE('',*,*,#568,.F.);
#738=ORIENTED_EDGE('',*,*,#562,.T.);
#739=ORIENTED_EDGE('',*,*,#577,.F.);
#740=ORIENTED_EDGE('',*,*,#578,.F.);
#741=ORIENTED_EDGE('',*,*,#579,.F.);
#742=ORIENTED_EDGE('',*,*,#570,.T.);
#743=ORIENTED_EDGE('',*,*,#580,.F.);
#744=ORIENTED_EDGE('',*,*,#581,.F.);
#745=ORIENTED_EDGE('',*,*,#560,.T.);
#746=ORIENTED_EDGE('',*,*,#580,.T.);
#747=ORIENTED_EDGE('',*,*,#569,.T.);
#748=ORIENTED_EDGE('',*,*,#576,.T.);
#749=ORIENTED_EDGE('',*,*,#582,.T.);
#750=ORIENTED_EDGE('',*,*,#553,.T.);
#751=ORIENTED_EDGE('',*,*,#583,.F.);
#752=ORIENTED_EDGE('',*,*,#584,.T.);
#753=ORIENTED_EDGE('',*,*,#578,.T.);
#754=ORIENTED_EDGE('',*,*,#585,.F.);
#755=ORIENTED_EDGE('',*,*,#586,.F.);
#756=ORIENTED_EDGE('',*,*,#565,.T.);
#757=ORIENTED_EDGE('',*,*,#571,.T.);
#758=ORIENTED_EDGE('',*,*,#579,.T.);
#759=ORIENTED_EDGE('',*,*,#584,.F.);
#760=ORIENTED_EDGE('',*,*,#587,.F.);
#761=ORIENTED_EDGE('',*,*,#566,.F.);
#762=ORIENTED_EDGE('',*,*,#586,.T.);
#763=ORIENTED_EDGE('',*,*,#572,.T.);
#764=ORIENTED_EDGE('',*,*,#567,.T.);
#765=ORIENTED_EDGE('',*,*,#563,.T.);
#766=ORIENTED_EDGE('',*,*,#587,.T.);
#767=ORIENTED_EDGE('',*,*,#585,.T.);
#768=ORIENTED_EDGE('',*,*,#583,.T.);
#769=ORIENTED_EDGE('',*,*,#577,.T.);
#770=ORIENTED_EDGE('',*,*,#588,.T.);
#771=ORIENTED_EDGE('',*,*,#589,.T.);
#772=ORIENTED_EDGE('',*,*,#590,.T.);
#773=ORIENTED_EDGE('',*,*,#591,.T.);
#774=ORIENTED_EDGE('',*,*,#592,.T.);
#775=ORIENTED_EDGE('',*,*,#593,.T.);
#776=ORIENTED_EDGE('',*,*,#594,.T.);
#777=ORIENTED_EDGE('',*,*,#595,.T.);
#778=ORIENTED_EDGE('',*,*,#596,.T.);
#779=ORIENTED_EDGE('',*,*,#597,.T.);
#780=ORIENTED_EDGE('',*,*,#598,.T.);
#781=ORIENTED_EDGE('',*,*,#599,.T.);
#782=ORIENTED_EDGE('',*,*,#600,.T.);
#783=ORIENTED_EDGE('',*,*,#601,.T.);
#784=ORIENTED_EDGE('',*,*,#602,.T.);
#785=ORIENTED_EDGE('',*,*,#603,.T.);
#786=ORIENTED_EDGE('',*,*,#604,.T.);
#787=ORIENTED_EDGE('',*,*,#605,.T.);
#788=ORIENTED_EDGE('',*,*,#606,.T.);
#789=ORIENTED_EDGE('',*,*,#607,.T.);
#790=ORIENTED_EDGE('',*,*,#547,.T.);
#791=ORIENTED_EDGE('',*,*,#544,.T.);
#792=ORIENTED_EDGE('',*,*,#541,.T.);
#793=ORIENTED_EDGE('',*,*,#538,.T.);
#794=ORIENTED_EDGE('',*,*,#535,.T.);
#795=ORIENTED_EDGE('',*,*,#528,.T.);
#796=ORIENTED_EDGE('',*,*,#531,.T.);
#797=ORIENTED_EDGE('',*,*,#521,.T.);
#798=ORIENTED_EDGE('',*,*,#525,.T.);
#799=ORIENTED_EDGE('',*,*,#520,.T.);
#800=ORIENTED_EDGE('',*,*,#608,.F.);
#801=ORIENTED_EDGE('',*,*,#609,.T.);
#802=ORIENTED_EDGE('',*,*,#588,.F.);
#803=ORIENTED_EDGE('',*,*,#581,.T.);
#804=ORIENTED_EDGE('',*,*,#582,.F.);
#805=ORIENTED_EDGE('',*,*,#575,.F.);
#806=ORIENTED_EDGE('',*,*,#600,.F.);
#807=ORIENTED_EDGE('',*,*,#610,.T.);
#808=ORIENTED_EDGE('',*,*,#611,.F.);
#809=ORIENTED_EDGE('',*,*,#612,.F.);
#810=ORIENTED_EDGE('',*,*,#599,.F.);
#811=ORIENTED_EDGE('',*,*,#613,.F.);
#812=ORIENTED_EDGE('',*,*,#614,.F.);
#813=ORIENTED_EDGE('',*,*,#615,.T.);
#814=ORIENTED_EDGE('',*,*,#616,.F.);
#815=ORIENTED_EDGE('',*,*,#610,.F.);
#816=ORIENTED_EDGE('',*,*,#556,.T.);
#817=ORIENTED_EDGE('',*,*,#598,.F.);
#818=ORIENTED_EDGE('',*,*,#617,.T.);
#819=ORIENTED_EDGE('',*,*,#613,.T.);
#820=ORIENTED_EDGE('',*,*,#597,.F.);
#821=ORIENTED_EDGE('',*,*,#618,.F.);
#822=ORIENTED_EDGE('',*,*,#619,.F.);
#823=ORIENTED_EDGE('',*,*,#620,.F.);
#824=ORIENTED_EDGE('',*,*,#621,.T.);
#825=ORIENTED_EDGE('',*,*,#622,.T.);
#826=ORIENTED_EDGE('',*,*,#614,.T.);
#827=ORIENTED_EDGE('',*,*,#617,.F.);
#828=ORIENTED_EDGE('',*,*,#601,.F.);
#829=ORIENTED_EDGE('',*,*,#612,.T.);
#830=ORIENTED_EDGE('',*,*,#623,.F.);
#831=ORIENTED_EDGE('',*,*,#624,.F.);
#832=ORIENTED_EDGE('',*,*,#559,.T.);
#833=ORIENTED_EDGE('',*,*,#625,.T.);
#834=ORIENTED_EDGE('',*,*,#623,.T.);
#835=ORIENTED_EDGE('',*,*,#611,.T.);
#836=ORIENTED_EDGE('',*,*,#616,.T.);
#837=ORIENTED_EDGE('',*,*,#548,.T.);
#838=ORIENTED_EDGE('',*,*,#626,.F.);
#839=ORIENTED_EDGE('',*,*,#627,.F.);
#840=ORIENTED_EDGE('',*,*,#628,.T.);
#841=ORIENTED_EDGE('',*,*,#619,.T.);
#842=ORIENTED_EDGE('',*,*,#629,.F.);
#843=ORIENTED_EDGE('',*,*,#621,.F.);
#844=ORIENTED_EDGE('',*,*,#630,.T.);
#845=ORIENTED_EDGE('',*,*,#627,.T.);
#846=ORIENTED_EDGE('',*,*,#630,.F.);
#847=ORIENTED_EDGE('',*,*,#620,.T.);
#848=ORIENTED_EDGE('',*,*,#628,.F.);
#849=ORIENTED_EDGE('',*,*,#631,.F.);
#850=ORIENTED_EDGE('',*,*,#632,.F.);
#851=ORIENTED_EDGE('',*,*,#633,.F.);
#852=ORIENTED_EDGE('',*,*,#634,.F.);
#853=ORIENTED_EDGE('',*,*,#635,.F.);
#854=ORIENTED_EDGE('',*,*,#636,.T.);
#855=ORIENTED_EDGE('',*,*,#637,.F.);
#856=ORIENTED_EDGE('',*,*,#638,.F.);
#857=ORIENTED_EDGE('',*,*,#639,.T.);
#858=ORIENTED_EDGE('',*,*,#640,.F.);
#859=ORIENTED_EDGE('',*,*,#641,.T.);
#860=ORIENTED_EDGE('',*,*,#642,.F.);
#861=ORIENTED_EDGE('',*,*,#643,.T.);
#862=ORIENTED_EDGE('',*,*,#644,.F.);
#863=ORIENTED_EDGE('',*,*,#608,.T.);
#864=ORIENTED_EDGE('',*,*,#574,.T.);
#865=ORIENTED_EDGE('',*,*,#545,.T.);
#866=ORIENTED_EDGE('',*,*,#542,.T.);
#867=ORIENTED_EDGE('',*,*,#539,.T.);
#868=ORIENTED_EDGE('',*,*,#536,.T.);
#869=ORIENTED_EDGE('',*,*,#533,.T.);
#870=ORIENTED_EDGE('',*,*,#529,.T.);
#871=ORIENTED_EDGE('',*,*,#526,.T.);
#872=ORIENTED_EDGE('',*,*,#523,.T.);
#873=ORIENTED_EDGE('',*,*,#532,.T.);
#874=ORIENTED_EDGE('',*,*,#518,.T.);
#875=ORIENTED_EDGE('',*,*,#626,.T.);
#876=ORIENTED_EDGE('',*,*,#618,.T.);
#877=ORIENTED_EDGE('',*,*,#596,.F.);
#878=ORIENTED_EDGE('',*,*,#645,.F.);
#879=ORIENTED_EDGE('',*,*,#637,.T.);
#880=ORIENTED_EDGE('',*,*,#646,.T.);
#881=ORIENTED_EDGE('',*,*,#624,.T.);
#882=ORIENTED_EDGE('',*,*,#625,.F.);
#883=ORIENTED_EDGE('',*,*,#615,.F.);
#884=ORIENTED_EDGE('',*,*,#622,.F.);
#885=ORIENTED_EDGE('',*,*,#629,.T.);
#886=ORIENTED_EDGE('',*,*,#636,.F.);
#887=ORIENTED_EDGE('',*,*,#647,.T.);
#888=ORIENTED_EDGE('',*,*,#602,.F.);
#889=ORIENTED_EDGE('',*,*,#646,.F.);
#890=ORIENTED_EDGE('',*,*,#638,.T.);
#891=ORIENTED_EDGE('',*,*,#645,.T.);
#892=ORIENTED_EDGE('',*,*,#595,.F.);
#893=ORIENTED_EDGE('',*,*,#648,.F.);
#894=ORIENTED_EDGE('',*,*,#639,.F.);
#895=ORIENTED_EDGE('',*,*,#648,.T.);
#896=ORIENTED_EDGE('',*,*,#594,.F.);
#897=ORIENTED_EDGE('',*,*,#649,.F.);
#898=ORIENTED_EDGE('',*,*,#640,.T.);
#899=ORIENTED_EDGE('',*,*,#649,.T.);
#900=ORIENTED_EDGE('',*,*,#593,.F.);
#901=ORIENTED_EDGE('',*,*,#650,.F.);
#902=ORIENTED_EDGE('',*,*,#641,.F.);
#903=ORIENTED_EDGE('',*,*,#650,.T.);
#904=ORIENTED_EDGE('',*,*,#592,.F.);
#905=ORIENTED_EDGE('',*,*,#651,.F.);
#906=ORIENTED_EDGE('',*,*,#642,.T.);
#907=ORIENTED_EDGE('',*,*,#651,.T.);
#908=ORIENTED_EDGE('',*,*,#591,.F.);
#909=ORIENTED_EDGE('',*,*,#652,.F.);
#910=ORIENTED_EDGE('',*,*,#643,.F.);
#911=ORIENTED_EDGE('',*,*,#652,.T.);
#912=ORIENTED_EDGE('',*,*,#590,.F.);
#913=ORIENTED_EDGE('',*,*,#653,.F.);
#914=ORIENTED_EDGE('',*,*,#644,.T.);
#915=ORIENTED_EDGE('',*,*,#653,.T.);
#916=ORIENTED_EDGE('',*,*,#589,.F.);
#917=ORIENTED_EDGE('',*,*,#609,.F.);
#918=ORIENTED_EDGE('',*,*,#573,.T.);
#919=ORIENTED_EDGE('',*,*,#607,.F.);
#920=ORIENTED_EDGE('',*,*,#654,.F.);
#921=ORIENTED_EDGE('',*,*,#631,.T.);
#922=ORIENTED_EDGE('',*,*,#632,.T.);
#923=ORIENTED_EDGE('',*,*,#654,.T.);
#924=ORIENTED_EDGE('',*,*,#606,.F.);
#925=ORIENTED_EDGE('',*,*,#655,.F.);
#926=ORIENTED_EDGE('',*,*,#633,.T.);
#927=ORIENTED_EDGE('',*,*,#655,.T.);
#928=ORIENTED_EDGE('',*,*,#605,.F.);
#929=ORIENTED_EDGE('',*,*,#656,.F.);
#930=ORIENTED_EDGE('',*,*,#634,.T.);
#931=ORIENTED_EDGE('',*,*,#656,.T.);
#932=ORIENTED_EDGE('',*,*,#604,.F.);
#933=ORIENTED_EDGE('',*,*,#657,.F.);
#934=ORIENTED_EDGE('',*,*,#635,.T.);
#935=ORIENTED_EDGE('',*,*,#657,.T.);
#936=ORIENTED_EDGE('',*,*,#603,.F.);
#937=ORIENTED_EDGE('',*,*,#647,.F.);
#938=CYLINDRICAL_SURFACE('',#1021,1.5);
#939=CYLINDRICAL_SURFACE('',#1028,1.25);
#940=CYLINDRICAL_SURFACE('',#1031,1.25);
#941=CYLINDRICAL_SURFACE('',#1034,1.5);
#942=CYLINDRICAL_SURFACE('',#1037,1.5);
#943=CYLINDRICAL_SURFACE('',#1040,1.5);
#944=CYLINDRICAL_SURFACE('',#1043,1.5);
#945=CYLINDRICAL_SURFACE('',#1047,1.5);
#946=CYLINDRICAL_SURFACE('',#1051,1.25);
#947=CYLINDRICAL_SURFACE('',#1054,1.25);
#948=CYLINDRICAL_SURFACE('',#1065,2.40061475727436);
#949=CYLINDRICAL_SURFACE('',#1081,2.40061475727436);
#950=CYLINDRICAL_SURFACE('',#1100,3.99999999999998);
#951=CYLINDRICAL_SURFACE('',#1102,5.00000000000001);
#952=CYLINDRICAL_SURFACE('',#1104,5.);
#953=CYLINDRICAL_SURFACE('',#1106,4.);
#954=CYLINDRICAL_SURFACE('',#1107,2.00000000000013);
#955=CYLINDRICAL_SURFACE('',#1109,2.);
#956=CYLINDRICAL_SURFACE('',#1111,2.);
#957=ADVANCED_FACE('',(#69),#938,.F.);
#958=ADVANCED_FACE('',(#70),#38,.F.);
#959=ADVANCED_FACE('',(#71),#39,.F.);
#960=ADVANCED_FACE('',(#72),#40,.F.);
#961=ADVANCED_FACE('',(#73),#41,.F.);
#962=ADVANCED_FACE('',(#74),#939,.F.);
#963=ADVANCED_FACE('',(#75),#940,.F.);
#964=ADVANCED_FACE('',(#76),#941,.F.);
#965=ADVANCED_FACE('',(#77),#942,.F.);
#966=ADVANCED_FACE('',(#78),#943,.F.);
#967=ADVANCED_FACE('',(#79,#15),#944,.F.);
#968=ADVANCED_FACE('',(#80),#42,.T.);
#969=ADVANCED_FACE('',(#81),#945,.F.);
#970=ADVANCED_FACE('',(#82),#43,.T.);
#971=ADVANCED_FACE('',(#83),#946,.F.);
#972=ADVANCED_FACE('',(#84),#947,.F.);
#973=ADVANCED_FACE('',(#85),#44,.T.);
#974=ADVANCED_FACE('',(#86),#45,.T.);
#975=ADVANCED_FACE('',(#87,#16),#46,.T.);
#976=ADVANCED_FACE('',(#88,#17),#47,.T.);
#977=ADVANCED_FACE('',(#89,#18),#48,.T.);
#978=ADVANCED_FACE('',(#90),#49,.T.);
#979=ADVANCED_FACE('',(#91),#948,.F.);
#980=ADVANCED_FACE('',(#92),#50,.F.);
#981=ADVANCED_FACE('',(#93,#19,#20,#21,#22,#23,#24,#25),#51,.T.);
#982=ADVANCED_FACE('',(#94),#52,.T.);
#983=ADVANCED_FACE('',(#95),#53,.T.);
#984=ADVANCED_FACE('',(#96,#26),#54,.T.);
#985=ADVANCED_FACE('',(#97),#55,.T.);
#986=ADVANCED_FACE('',(#98),#949,.F.);
#987=ADVANCED_FACE('',(#99,#27),#56,.T.);
#988=ADVANCED_FACE('',(#100,#28),#57,.T.);
#989=ADVANCED_FACE('',(#101),#58,.T.);
#990=ADVANCED_FACE('',(#102),#59,.T.);
#991=ADVANCED_FACE('',(#103),#60,.F.);
#992=ADVANCED_FACE('',(#104,#29,#30,#31,#32,#33,#34,#35),#61,.F.);
#993=ADVANCED_FACE('',(#105),#62,.T.);
#994=ADVANCED_FACE('',(#106),#63,.T.);
#995=ADVANCED_FACE('',(#107),#950,.T.);
#996=ADVANCED_FACE('',(#108),#64,.T.);
#997=ADVANCED_FACE('',(#109),#951,.T.);
#998=ADVANCED_FACE('',(#110),#65,.T.);
#999=ADVANCED_FACE('',(#111),#952,.T.);
#1000=ADVANCED_FACE('',(#112),#66,.T.);
#1001=ADVANCED_FACE('',(#113),#953,.T.);
#1002=ADVANCED_FACE('',(#114),#954,.T.);
#1003=ADVANCED_FACE('',(#115),#67,.T.);
#1004=ADVANCED_FACE('',(#116),#955,.T.);
#1005=ADVANCED_FACE('',(#117),#68,.T.);
#1006=ADVANCED_FACE('',(#118),#956,.T.);
#1007=CLOSED_SHELL('',(#957,#958,#959,#960,#961,#962,#963,#964,#965,#966,
#967,#968,#969,#970,#971,#972,#973,#974,#975,#976,#977,#978,#979,#980,#981,
#982,#983,#984,#985,#986,#987,#988,#989,#990,#991,#992,#993,#994,#995,#996,
#997,#998,#999,#1000,#1001,#1002,#1003,#1004,#1005,#1006));
#1008=DERIVED_UNIT_ELEMENT(#1010,1.);
#1009=DERIVED_UNIT_ELEMENT(#1724,-3.);
#1010=(
MASS_UNIT()
NAMED_UNIT(*)
SI_UNIT(.KILO.,.GRAM.)
);
#1011=DERIVED_UNIT((#1008,#1009));
#1012=MEASURE_REPRESENTATION_ITEM('density measure',
POSITIVE_RATIO_MEASURE(7850.),#1011);
#1013=PROPERTY_DEFINITION_REPRESENTATION(#1018,#1015);
#1014=PROPERTY_DEFINITION_REPRESENTATION(#1019,#1016);
#1015=REPRESENTATION('material name',(#1017),#1721);
#1016=REPRESENTATION('density',(#1012),#1721);
#1017=DESCRIPTIVE_REPRESENTATION_ITEM('Steel','Steel');
#1018=PROPERTY_DEFINITION('material property','material name',#1731);
#1019=PROPERTY_DEFINITION('material property','density of part',#1731);
#1020=AXIS2_PLACEMENT_3D('',#1393,#1112,#1113);
#1021=AXIS2_PLACEMENT_3D('',#1394,#1114,#1115);
#1022=AXIS2_PLACEMENT_3D('',#1396,#1116,#1117);
#1023=AXIS2_PLACEMENT_3D('',#1399,#1119,#1120);
#1024=AXIS2_PLACEMENT_3D('',#1400,#1121,#1122);
#1025=AXIS2_PLACEMENT_3D('',#1409,#1127,#1128);
#1026=AXIS2_PLACEMENT_3D('',#1415,#1132,#1133);
#1027=AXIS2_PLACEMENT_3D('',#1421,#1137,#1138);
#1028=AXIS2_PLACEMENT_3D('',#1424,#1141,#1142);
#1029=AXIS2_PLACEMENT_3D('',#1426,#1143,#1144);
#1030=AXIS2_PLACEMENT_3D('',#1429,#1146,#1147);
#1031=AXIS2_PLACEMENT_3D('',#1430,#1148,#1149);
#1032=AXIS2_PLACEMENT_3D('',#1432,#1150,#1151);
#1033=AXIS2_PLACEMENT_3D('',#1435,#1153,#1154);
#1034=AXIS2_PLACEMENT_3D('',#1436,#1155,#1156);
#1035=AXIS2_PLACEMENT_3D('',#1438,#1157,#1158);
#1036=AXIS2_PLACEMENT_3D('',#1441,#1160,#1161);
#1037=AXIS2_PLACEMENT_3D('',#1442,#1162,#1163);
#1038=AXIS2_PLACEMENT_3D('',#1444,#1164,#1165);
#1039=AXIS2_PLACEMENT_3D('',#1447,#1167,#1168);
#1040=AXIS2_PLACEMENT_3D('',#1448,#1169,#1170);
#1041=AXIS2_PLACEMENT_3D('',#1450,#1171,#1172);
#1042=AXIS2_PLACEMENT_3D('',#1453,#1174,#1175);
#1043=AXIS2_PLACEMENT_3D('',#1454,#1176,#1177);
#1044=AXIS2_PLACEMENT_3D('',#1456,#1178,#1179);
#1045=AXIS2_PLACEMENT_3D('',#1459,#1181,#1182);
#1046=AXIS2_PLACEMENT_3D('',#1506,#1183,#1184);
#1047=AXIS2_PLACEMENT_3D('',#1507,#1185,#1186);
#1048=AXIS2_PLACEMENT_3D('',#1509,#1187,#1188);
#1049=AXIS2_PLACEMENT_3D('',#1512,#1190,#1191);
#1050=AXIS2_PLACEMENT_3D('',#1513,#1192,#1193);
#1051=AXIS2_PLACEMENT_3D('',#1514,#1194,#1195);
#1052=AXIS2_PLACEMENT_3D('',#1516,#1196,#1197);
#1053=AXIS2_PLACEMENT_3D('',#1520,#1200,#1201);
#1054=AXIS2_PLACEMENT_3D('',#1521,#1202,#1203);
#1055=AXIS2_PLACEMENT_3D('',#1523,#1204,#1205);
#1056=AXIS2_PLACEMENT_3D('',#1526,#1207,#1208);
#1057=AXIS2_PLACEMENT_3D('',#1527,#1209,#1210);
#1058=AXIS2_PLACEMENT_3D('',#1536,#1215,#1216);
#1059=AXIS2_PLACEMENT_3D('',#1545,#1221,#1222);
#1060=AXIS2_PLACEMENT_3D('',#1546,#1223,#1224);
#1061=AXIS2_PLACEMENT_3D('',#1556,#1230,#1231);
#1062=AXIS2_PLACEMENT_3D('',#1566,#1237,#1238);
#1063=AXIS2_PLACEMENT_3D('',#1568,#1240,#1241);
#1064=AXIS2_PLACEMENT_3D('',#1571,#1243,#1244);
#1065=AXIS2_PLACEMENT_3D('',#1572,#1245,#1246);
#1066=AXIS2_PLACEMENT_3D('',#1575,#1248,#1249);
#1067=AXIS2_PLACEMENT_3D('',#1576,#1250,#1251);
#1068=AXIS2_PLACEMENT_3D('',#1578,#1253,#1254);
#1069=AXIS2_PLACEMENT_3D('',#1582,#1256,#1257);
#1070=AXIS2_PLACEMENT_3D('',#1586,#1259,#1260);
#1071=AXIS2_PLACEMENT_3D('',#1590,#1262,#1263);
#1072=AXIS2_PLACEMENT_3D('',#1594,#1265,#1266);
#1073=AXIS2_PLACEMENT_3D('',#1610,#1274,#1275);
#1074=AXIS2_PLACEMENT_3D('',#1614,#1277,#1278);
#1075=AXIS2_PLACEMENT_3D('',#1617,#1280,#1281);
#1076=AXIS2_PLACEMENT_3D('',#1618,#1282,#1283);
#1077=AXIS2_PLACEMENT_3D('',#1622,#1286,#1287);
#1078=AXIS2_PLACEMENT_3D('',#1628,#1291,#1292);
#1079=AXIS2_PLACEMENT_3D('',#1636,#1297,#1298);
#1080=AXIS2_PLACEMENT_3D('',#1637,#1299,#1300);
#1081=AXIS2_PLACEMENT_3D('',#1638,#1301,#1302);
#1082=AXIS2_PLACEMENT_3D('',#1640,#1303,#1304);
#1083=AXIS2_PLACEMENT_3D('',#1644,#1306,#1307);
#1084=AXIS2_PLACEMENT_3D('',#1647,#1309,#1310);
#1085=AXIS2_PLACEMENT_3D('',#1648,#1311,#1312);
#1086=AXIS2_PLACEMENT_3D('',#1652,#1315,#1316);
#1087=AXIS2_PLACEMENT_3D('',#1654,#1318,#1319);
#1088=AXIS2_PLACEMENT_3D('',#1660,#1323,#1324);
#1089=AXIS2_PLACEMENT_3D('',#1663,#1327,#1328);
#1090=AXIS2_PLACEMENT_3D('',#1664,#1329,#1330);
#1091=AXIS2_PLACEMENT_3D('',#1666,#1331,#1332);
#1092=AXIS2_PLACEMENT_3D('',#1670,#1334,#1335);
#1093=AXIS2_PLACEMENT_3D('',#1674,#1337,#1338);
#1094=AXIS2_PLACEMENT_3D('',#1680,#1341,#1342);
#1095=AXIS2_PLACEMENT_3D('',#1684,#1344,#1345);
#1096=AXIS2_PLACEMENT_3D('',#1688,#1347,#1348);
#1097=AXIS2_PLACEMENT_3D('',#1691,#1350,#1351);
#1098=AXIS2_PLACEMENT_3D('',#1692,#1352,#1353);
#1099=AXIS2_PLACEMENT_3D('',#1695,#1356,#1357);
#1100=AXIS2_PLACEMENT_3D('',#1697,#1359,#1360);
#1101=AXIS2_PLACEMENT_3D('',#1699,#1362,#1363);
#1102=AXIS2_PLACEMENT_3D('',#1701,#1365,#1366);
#1103=AXIS2_PLACEMENT_3D('',#1703,#1368,#1369);
#1104=AXIS2_PLACEMENT_3D('',#1705,#1371,#1372);
#1105=AXIS2_PLACEMENT_3D('',#1707,#1374,#1375);
#1106=AXIS2_PLACEMENT_3D('',#1709,#1377,#1378);
#1107=AXIS2_PLACEMENT_3D('',#1710,#1379,#1380);
#1108=AXIS2_PLACEMENT_3D('',#1712,#1382,#1383);
#1109=AXIS2_PLACEMENT_3D('',#1714,#1385,#1386);
#1110=AXIS2_PLACEMENT_3D('',#1716,#1388,#1389);
#1111=AXIS2_PLACEMENT_3D('',#1718,#1391,#1392);
#1112=DIRECTION('axis',(0.,0.,1.));
#1113=DIRECTION('refdir',(1.,0.,0.));
#1114=DIRECTION('center_axis',(0.,0.,1.));
#1115=DIRECTION('ref_axis',(1.,4.49640324973191E-15,0.));
#1116=DIRECTION('center_axis',(-2.66225843453816E-16,4.26362504329927E-17,
1.));
#1117=DIRECTION('ref_axis',(1.,4.49640324973191E-15,0.));
#1118=DIRECTION('',(0.,0.,1.));
#1119=DIRECTION('center_axis',(2.66225843453816E-16,-4.26362504329927E-17,
-1.));
#1120=DIRECTION('ref_axis',(1.,4.49640324973191E-15,0.));
#1121=DIRECTION('center_axis',(1.,4.49640324973191E-15,0.));
#1122=DIRECTION('ref_axis',(-4.49640324973191E-15,1.,-4.26362504329939E-17));
#1123=DIRECTION('',(4.49640324973191E-15,-1.,4.26362504329939E-17));
#1124=DIRECTION('',(0.,0.,1.));
#1125=DIRECTION('',(-4.49640324973191E-15,1.,-4.26362504329939E-17));
#1126=DIRECTION('',(0.,0.,1.));
#1127=DIRECTION('center_axis',(4.49640324973191E-15,-1.,0.));
#1128=DIRECTION('ref_axis',(1.,4.49640324973191E-15,2.66225843453816E-16));
#1129=DIRECTION('',(-1.,-4.49640324973191E-15,-2.66225843453816E-16));
#1130=DIRECTION('',(1.,4.49640324973191E-15,2.66225843453816E-16));
#1131=DIRECTION('',(0.,0.,1.));
#1132=DIRECTION('center_axis',(-1.,-4.49640324973191E-15,0.));
#1133=DIRECTION('ref_axis',(4.49640324973191E-15,-1.,4.26362504329939E-17));
#1134=DIRECTION('',(-4.49640324973191E-15,1.,-4.26362504329939E-17));
#1135=DIRECTION('',(4.49640324973191E-15,-1.,4.26362504329939E-17));
#1136=DIRECTION('',(0.,0.,1.));
#1137=DIRECTION('center_axis',(-4.49640324973191E-15,1.,0.));
#1138=DIRECTION('ref_axis',(-1.,-4.49640324973191E-15,-2.66225843453816E-16));
#1139=DIRECTION('',(1.,4.49640324973191E-15,2.66225843453816E-16));
#1140=DIRECTION('',(-1.,-4.49640324973191E-15,-2.66225843453816E-16));
#1141=DIRECTION('center_axis',(0.,0.,1.));
#1142=DIRECTION('ref_axis',(1.,4.49640324973191E-15,0.));
#1143=DIRECTION('center_axis',(-2.66225843453816E-16,4.26362504329927E-17,
1.));
#1144=DIRECTION('ref_axis',(1.,4.49640324973191E-15,0.));
#1145=DIRECTION('',(0.,0.,1.));
#1146=DIRECTION('center_axis',(2.66225843453816E-16,-4.26362504329927E-17,
-1.));
#1147=DIRECTION('ref_axis',(1.,4.49640324973191E-15,0.));
#1148=DIRECTION('center_axis',(0.,0.,1.));
#1149=DIRECTION('ref_axis',(1.,4.49640324973191E-15,0.));
#1150=DIRECTION('center_axis',(-2.66225843453816E-16,4.26362504329927E-17,
1.));
#1151=DIRECTION('ref_axis',(1.,4.49640324973191E-15,0.));
#1152=DIRECTION('',(0.,0.,1.));
#1153=DIRECTION('center_axis',(2.66225843453816E-16,-4.26362504329927E-17,
-1.));
#1154=DIRECTION('ref_axis',(1.,4.49640324973191E-15,0.));
#1155=DIRECTION('center_axis',(0.,0.,1.));
#1156=DIRECTION('ref_axis',(1.,4.49640324973191E-15,0.));
#1157=DIRECTION('center_axis',(-2.66225843453816E-16,4.26362504329927E-17,
1.));
#1158=DIRECTION('ref_axis',(1.,4.49640324973191E-15,0.));
#1159=DIRECTION('',(0.,0.,1.));
#1160=DIRECTION('center_axis',(2.66225843453816E-16,-4.26362504329927E-17,
-1.));
#1161=DIRECTION('ref_axis',(1.,4.49640324973191E-15,0.));
#1162=DIRECTION('center_axis',(0.,0.,1.));
#1163=DIRECTION('ref_axis',(1.,4.49640324973191E-15,0.));
#1164=DIRECTION('center_axis',(-2.66225843453816E-16,4.26362504329927E-17,
1.));
#1165=DIRECTION('ref_axis',(1.,4.49640324973191E-15,0.));
#1166=DIRECTION('',(0.,0.,1.));
#1167=DIRECTION('center_axis',(2.66225843453816E-16,-4.26362504329927E-17,
-1.));
#1168=DIRECTION('ref_axis',(1.,4.49640324973191E-15,0.));
#1169=DIRECTION('center_axis',(0.,0.,1.));
#1170=DIRECTION('ref_axis',(1.,4.49640324973191E-15,0.));
#1171=DIRECTION('center_axis',(-2.66225843453816E-16,4.26362504329927E-17,
1.));
#1172=DIRECTION('ref_axis',(1.,4.49640324973191E-15,0.));
#1173=DIRECTION('',(0.,0.,1.));
#1174=DIRECTION('center_axis',(2.66225843453816E-16,-4.26362504329927E-17,
-1.));
#1175=DIRECTION('ref_axis',(1.,4.49640324973191E-15,0.));
#1176=DIRECTION('center_axis',(0.,0.,-1.));
#1177=DIRECTION('ref_axis',(1.,0.,0.));
#1178=DIRECTION('center_axis',(0.,0.,-1.));
#1179=DIRECTION('ref_axis',(1.,0.,0.));
#1180=DIRECTION('',(0.,0.,-1.));
#1181=DIRECTION('center_axis',(0.,0.,-1.));
#1182=DIRECTION('ref_axis',(1.,0.,0.));
#1183=DIRECTION('center_axis',(0.,0.,1.));
#1184=DIRECTION('ref_axis',(1.,0.,0.));
#1185=DIRECTION('center_axis',(0.,0.,-1.));
#1186=DIRECTION('ref_axis',(1.,0.,0.));
#1187=DIRECTION('center_axis',(0.,0.,-1.));
#1188=DIRECTION('ref_axis',(1.,0.,0.));
#1189=DIRECTION('',(0.,0.,-1.));
#1190=DIRECTION('center_axis',(0.,0.,-1.));
#1191=DIRECTION('ref_axis',(1.,0.,0.));
#1192=DIRECTION('center_axis',(0.,0.,1.));
#1193=DIRECTION('ref_axis',(1.,0.,0.));
#1194=DIRECTION('center_axis',(0.,-1.,0.));
#1195=DIRECTION('ref_axis',(1.,0.,0.));
#1196=DIRECTION('center_axis',(4.49640324973191E-15,-1.,0.));
#1197=DIRECTION('ref_axis',(1.,0.,0.));
#1198=DIRECTION('',(0.,-1.,0.));
#1199=DIRECTION('',(0.,-1.,0.));
#1200=DIRECTION('center_axis',(-4.49640324973191E-15,1.,0.));
#1201=DIRECTION('ref_axis',(1.,0.,0.));
#1202=DIRECTION('center_axis',(0.,-1.,0.));
#1203=DIRECTION('ref_axis',(1.,0.,0.));
#1204=DIRECTION('center_axis',(4.49640324973191E-15,-1.,0.));
#1205=DIRECTION('ref_axis',(1.,0.,0.));
#1206=DIRECTION('',(0.,-1.,0.));
#1207=DIRECTION('center_axis',(-4.49640324973191E-15,1.,0.));
#1208=DIRECTION('ref_axis',(1.,0.,0.));
#1209=DIRECTION('center_axis',(0.,-1.,0.));
#1210=DIRECTION('ref_axis',(0.,0.,-1.));
#1211=DIRECTION('',(-1.,0.,-2.66225843453816E-16));
#1212=DIRECTION('',(0.,0.,1.));
#1213=DIRECTION('',(1.,0.,0.));
#1214=DIRECTION('',(0.,0.,-1.));
#1215=DIRECTION('center_axis',(-1.,-4.49640324973191E-15,0.));
#1216=DIRECTION('ref_axis',(4.49640324973191E-15,-1.,4.26362504329939E-17));
#1217=DIRECTION('',(-4.49640324973191E-15,1.,-4.26362504329939E-17));
#1218=DIRECTION('',(0.,0.,1.));
#1219=DIRECTION('',(4.49640324973191E-15,-1.,4.26362504329939E-17));
#1220=DIRECTION('',(0.,0.,1.));
#1221=DIRECTION('center_axis',(1.,4.49640324973191E-15,0.));
#1222=DIRECTION('ref_axis',(0.,-0.986769744424675,-0.162127947893207));
#1223=DIRECTION('center_axis',(4.49640324973191E-15,-1.,0.));
#1224=DIRECTION('ref_axis',(1.,4.49640324973191E-15,2.66225843453816E-16));
#1225=DIRECTION('',(-1.,-4.49640324973191E-15,-2.66225843453816E-16));
#1226=DIRECTION('',(0.,0.,1.));
#1227=DIRECTION('',(-1.,-4.49640324973191E-15,-2.66225843453816E-16));
#1228=DIRECTION('',(0.,0.,1.));
#1229=DIRECTION('',(1.,4.49640324973191E-15,2.66225843453816E-16));
#1230=DIRECTION('center_axis',(-4.49640324973191E-15,1.,0.));
#1231=DIRECTION('ref_axis',(-1.,-4.49640324973191E-15,-2.66225843453816E-16));
#1232=DIRECTION('',(1.,4.49640324973191E-15,2.66225843453816E-16));
#1233=DIRECTION('',(0.,0.,-1.));
#1234=DIRECTION('',(1.,0.,0.));
#1235=DIRECTION('',(-1.,-4.49640324973191E-15,-2.66225843453816E-16));
#1236=DIRECTION('',(0.,0.,1.));
#1237=DIRECTION('center_axis',(0.,0.,1.));
#1238=DIRECTION('ref_axis',(1.,0.,0.));
#1239=DIRECTION('',(-4.49640324973191E-15,1.,-4.26362504329939E-17));
#1240=DIRECTION('center_axis',(1.,0.,0.));
#1241=DIRECTION('ref_axis',(0.,1.,0.));
#1242=DIRECTION('',(0.,-1.,4.26362504329927E-17));
#1243=DIRECTION('center_axis',(-1.,0.,0.));
#1244=DIRECTION('ref_axis',(0.,-0.986769744424675,-0.162127947893207));
#1245=DIRECTION('center_axis',(1.,0.,0.));
#1246=DIRECTION('ref_axis',(0.,-0.986769744424675,-0.162127947893207));
#1247=DIRECTION('',(1.,0.,0.));
#1248=DIRECTION('center_axis',(1.,0.,0.));
#1249=DIRECTION('ref_axis',(0.,-0.986769744424675,-0.162127947893207));
#1250=DIRECTION('center_axis',(1.,0.,0.));
#1251=DIRECTION('ref_axis',(0.,1.,0.));
#1252=DIRECTION('',(0.,1.,-4.26362504329927E-17));
#1253=DIRECTION('center_axis',(-2.66225843453816E-16,4.26362504329927E-17,
1.));
#1254=DIRECTION('ref_axis',(1.,4.49640324973191E-15,2.66225843453816E-16));
#1255=DIRECTION('',(-4.49640324973191E-15,1.,-4.26362504329939E-17));
#1256=DIRECTION('center_axis',(-2.66225843453816E-16,4.26362504329927E-17,
1.));
#1257=DIRECTION('ref_axis',(1.,6.71684929898222E-15,2.66225843453816E-16));
#1258=DIRECTION('',(-0.62875903684362,0.777600201638016,-2.00545861846686E-16));
#1259=DIRECTION('center_axis',(-2.66225843453816E-16,4.26362504329927E-17,
1.));
#1260=DIRECTION('ref_axis',(0.777600201638016,0.62875903684362,1.80209341794067E-16));
#1261=DIRECTION('',(-1.,-4.49640324973191E-15,-2.66225843453816E-16));
#1262=DIRECTION('center_axis',(-2.66225843453816E-16,4.26362504329927E-17,
1.));
#1263=DIRECTION('ref_axis',(-4.05231403988185E-15,1.,-4.26362504329938E-17));
#1264=DIRECTION('',(-0.65120020813741,-0.758905981608917,-1.41009419181709E-16));
#1265=DIRECTION('center_axis',(-2.66225843453816E-16,4.26362504329927E-17,
1.));
#1266=DIRECTION('ref_axis',(-0.758905981608916,0.651200208137411,-2.29805120212144E-16));
#1267=DIRECTION('',(4.49640324973191E-15,-1.,4.26362504329939E-17));
#1268=DIRECTION('',(1.,0.,0.));
#1269=DIRECTION('',(0.,-1.,4.26362504329927E-17));
#1270=DIRECTION('',(1.,4.49640324973191E-15,2.66225843453816E-16));
#1271=DIRECTION('',(4.49640324973191E-15,-1.,4.26362504329939E-17));
#1272=DIRECTION('',(-1.,-4.49640324973191E-15,-2.66225843453816E-16));
#1273=DIRECTION('',(0.563132114362787,-0.826366880854562,1.8515350740381E-16));
#1274=DIRECTION('center_axis',(-2.66225843453816E-16,4.26362504329927E-17,
1.));
#1275=DIRECTION('ref_axis',(-0.826366880854562,-0.563132114362786,-1.95990378002973E-16));
#1276=DIRECTION('',(1.,4.49640324973191E-15,2.66225843453816E-16));
#1277=DIRECTION('center_axis',(-2.66225843453816E-16,4.26362504329927E-17,
1.));
#1278=DIRECTION('ref_axis',(4.49640324973191E-15,-1.,4.26362504329939E-17));
#1279=DIRECTION('',(0.562623973867827,0.826712927217891,1.14537102589246E-16));
#1280=DIRECTION('center_axis',(-2.66225843453816E-16,4.26362504329927E-17,
1.));
#1281=DIRECTION('ref_axis',(0.826712927217902,-0.562623973867811,2.44080522992193E-16));
#1282=DIRECTION('center_axis',(1.,4.49640324973191E-15,0.));
#1283=DIRECTION('ref_axis',(-4.49640324973191E-15,1.,-4.26362504329939E-17));
#1284=DIRECTION('',(4.49640324973191E-15,-1.,4.26362504329939E-17));
#1285=DIRECTION('',(0.,0.,1.));
#1286=DIRECTION('center_axis',(1.,4.49640324973191E-15,0.));
#1287=DIRECTION('ref_axis',(-4.49640324973191E-15,1.,-4.26362504329939E-17));
#1288=DIRECTION('',(0.,0.,1.));
#1289=DIRECTION('',(-4.49640324973191E-15,1.,-4.26362504329939E-17));
#1290=DIRECTION('',(0.,0.,1.));
#1291=DIRECTION('center_axis',(-4.49640324973191E-15,1.,0.));
#1292=DIRECTION('ref_axis',(-1.,-4.49640324973191E-15,-2.66225843453816E-16));
#1293=DIRECTION('',(0.,0.,-1.));
#1294=DIRECTION('',(1.,0.,0.));
#1295=DIRECTION('',(0.,0.,1.));
#1296=DIRECTION('',(-1.,-4.49640324973191E-15,-2.66225843453816E-16));
#1297=DIRECTION('center_axis',(1.,0.,0.));
#1298=DIRECTION('ref_axis',(0.,1.,0.));
#1299=DIRECTION('center_axis',(-1.,0.,0.));
#1300=DIRECTION('ref_axis',(0.,-0.986769744424675,-0.162127947893207));
#1301=DIRECTION('center_axis',(1.,0.,0.));
#1302=DIRECTION('ref_axis',(0.,-0.986769744424675,-0.162127947893207));
#1303=DIRECTION('center_axis',(-1.,-4.49640324973191E-15,0.));
#1304=DIRECTION('ref_axis',(0.,-0.986769744424675,-0.162127947893207));
#1305=DIRECTION('',(1.,0.,0.));
#1306=DIRECTION('center_axis',(1.,0.,0.));
#1307=DIRECTION('ref_axis',(0.,-0.986769744424675,-0.162127947893207));
#1308=DIRECTION('',(1.,0.,0.));
#1309=DIRECTION('center_axis',(1.,4.49640324973191E-15,0.));
#1310=DIRECTION('ref_axis',(0.,-0.986769744424675,-0.162127947893207));
#1311=DIRECTION('center_axis',(4.49640324973191E-15,-1.,0.));
#1312=DIRECTION('ref_axis',(1.,4.49640324973191E-15,2.66225843453816E-16));
#1313=DIRECTION('',(1.,4.49640324973191E-15,2.66225843453816E-16));
#1314=DIRECTION('',(0.,0.,1.));
#1315=DIRECTION('center_axis',(0.,0.,1.));
#1316=DIRECTION('ref_axis',(1.,0.,0.));
#1317=DIRECTION('',(4.49640324973191E-15,-1.,4.26362504329939E-17));
#1318=DIRECTION('center_axis',(0.,0.,-1.));
#1319=DIRECTION('ref_axis',(0.,1.,0.));
#1320=DIRECTION('',(-4.49640324973191E-15,1.,0.));
#1321=DIRECTION('',(1.,0.,0.));
#1322=DIRECTION('',(0.,1.,0.));
#1323=DIRECTION('center_axis',(0.,-1.,0.));
#1324=DIRECTION('ref_axis',(0.,0.,-1.));
#1325=DIRECTION('',(0.,0.,-1.));
#1326=DIRECTION('',(0.,0.,-1.));
#1327=DIRECTION('center_axis',(1.,0.,0.));
#1328=DIRECTION('ref_axis',(0.,1.,0.));
#1329=DIRECTION('center_axis',(-2.66225843453816E-16,4.26362504329927E-17,
1.));
#1330=DIRECTION('ref_axis',(1.,4.49640324973191E-15,2.66225843453816E-16));
#1331=DIRECTION('center_axis',(-2.66225843453816E-16,4.26362504329927E-17,
1.));
#1332=DIRECTION('ref_axis',(0.826712927217902,-0.562623973867811,2.44080522992193E-16));
#1333=DIRECTION('',(0.562623973867827,0.826712927217891,1.14537102589246E-16));
#1334=DIRECTION('center_axis',(-2.66225843453816E-16,4.26362504329927E-17,
1.));
#1335=DIRECTION('ref_axis',(4.49640324973191E-15,-1.,4.26362504329939E-17));
#1336=DIRECTION('',(1.,4.49640324973191E-15,2.66225843453816E-16));
#1337=DIRECTION('center_axis',(-2.66225843453816E-16,4.26362504329927E-17,
1.));
#1338=DIRECTION('ref_axis',(-0.826366880854562,-0.563132114362786,-1.95990378002973E-16));
#1339=DIRECTION('',(-0.563132114362787,0.826366880854562,-1.8515350740381E-16));
#1340=DIRECTION('',(4.49640324973191E-15,-1.,4.26362504329939E-17));
#1341=DIRECTION('center_axis',(-2.66225843453816E-16,4.26362504329927E-17,
1.));
#1342=DIRECTION('ref_axis',(-0.758905981608916,0.651200208137411,-2.29805120212144E-16));
#1343=DIRECTION('',(0.65120020813741,0.758905981608917,1.41009419181709E-16));
#1344=DIRECTION('center_axis',(-2.66225843453816E-16,4.26362504329927E-17,
1.));
#1345=DIRECTION('ref_axis',(-4.05231403988185E-15,1.,-4.26362504329938E-17));
#1346=DIRECTION('',(1.,4.49640324973191E-15,2.66225843453816E-16));
#1347=DIRECTION('center_axis',(-2.66225843453816E-16,4.26362504329927E-17,
1.));
#1348=DIRECTION('ref_axis',(0.777600201638016,0.62875903684362,1.80209341794067E-16));
#1349=DIRECTION('',(0.62875903684362,-0.777600201638016,2.00545861846686E-16));
#1350=DIRECTION('center_axis',(-2.66225843453816E-16,4.26362504329927E-17,
1.));
#1351=DIRECTION('ref_axis',(1.,6.71684929898222E-15,2.66225843453816E-16));
#1352=DIRECTION('center_axis',(-1.,-4.49640324973191E-15,0.));
#1353=DIRECTION('ref_axis',(4.49640324973191E-15,-1.,4.26362504329939E-17));
#1354=DIRECTION('',(0.,0.,1.));
#1355=DIRECTION('',(0.,0.,1.));
#1356=DIRECTION('center_axis',(-0.826366880854562,-0.563132114362787,0.));
#1357=DIRECTION('ref_axis',(0.563132114362787,-0.826366880854562,1.8515350740381E-16));
#1358=DIRECTION('',(0.,0.,1.));
#1359=DIRECTION('center_axis',(0.,0.,1.));
#1360=DIRECTION('ref_axis',(-0.758905981608916,0.651200208137411,0.));
#1361=DIRECTION('',(0.,0.,1.));
#1362=DIRECTION('center_axis',(-0.758905981608917,0.65120020813741,0.));
#1363=DIRECTION('ref_axis',(-0.65120020813741,-0.758905981608917,-1.41009419181709E-16));
#1364=DIRECTION('',(0.,0.,1.));
#1365=DIRECTION('center_axis',(0.,0.,1.));
#1366=DIRECTION('ref_axis',(-4.05231403988185E-15,1.,0.));
#1367=DIRECTION('',(0.,0.,1.));
#1368=DIRECTION('center_axis',(-4.49640324973191E-15,1.,0.));
#1369=DIRECTION('ref_axis',(-1.,-4.49640324973191E-15,-2.66225843453816E-16));
#1370=DIRECTION('',(0.,0.,1.));
#1371=DIRECTION('center_axis',(0.,0.,1.));
#1372=DIRECTION('ref_axis',(0.777600201638016,0.62875903684362,0.));
#1373=DIRECTION('',(0.,0.,1.));
#1374=DIRECTION('center_axis',(0.777600201638016,0.62875903684362,0.));
#1375=DIRECTION('ref_axis',(-0.62875903684362,0.777600201638016,-2.00545861846686E-16));
#1376=DIRECTION('',(0.,0.,1.));
#1377=DIRECTION('center_axis',(0.,0.,1.));
#1378=DIRECTION('ref_axis',(1.,6.71684929898222E-15,0.));
#1379=DIRECTION('center_axis',(0.,0.,1.));
#1380=DIRECTION('ref_axis',(0.826712927217902,-0.562623973867811,0.));
#1381=DIRECTION('',(0.,0.,1.));
#1382=DIRECTION('center_axis',(0.826712927217891,-0.562623973867827,0.));
#1383=DIRECTION('ref_axis',(0.562623973867827,0.826712927217891,1.14537102589246E-16));
#1384=DIRECTION('',(0.,0.,1.));
#1385=DIRECTION('center_axis',(0.,0.,1.));
#1386=DIRECTION('ref_axis',(4.49640324973191E-15,-1.,0.));
#1387=DIRECTION('',(0.,0.,1.));
#1388=DIRECTION('center_axis',(4.49640324973191E-15,-1.,0.));
#1389=DIRECTION('ref_axis',(1.,4.49640324973191E-15,2.66225843453816E-16));
#1390=DIRECTION('',(0.,0.,1.));
#1391=DIRECTION('center_axis',(0.,0.,1.));
#1392=DIRECTION('ref_axis',(-0.826366880854562,-0.563132114362786,0.));
#1393=CARTESIAN_POINT('',(0.,0.,0.));
#1394=CARTESIAN_POINT('Origin',(107.043405406452,-178.232315713644,2.02704930391843));
#1395=CARTESIAN_POINT('',(105.543405406452,-178.232315713644,2.02704930391843));
#1396=CARTESIAN_POINT('Origin',(107.043405406452,-178.232315713644,2.02704930391844));
#1397=CARTESIAN_POINT('',(105.543405406452,-178.232315713644,5.02704930391844));
#1398=CARTESIAN_POINT('',(105.543405406452,-178.232315713644,2.02704930391843));
#1399=CARTESIAN_POINT('Origin',(107.043405406452,-178.232315713644,5.02704930391844));
#1400=CARTESIAN_POINT('Origin',(124.043405361749,-202.23231592226,2.02704930391844));
#1401=CARTESIAN_POINT('',(124.043405361749,-192.23231592226,5.02704930391844));
#1402=CARTESIAN_POINT('',(124.043405361749,-202.23231592226,5.02704930391844));
#1403=CARTESIAN_POINT('',(124.043405361749,-201.319051148985,5.02704930391844));
#1404=CARTESIAN_POINT('',(124.043405361749,-192.23231592226,2.02704930391844));
#1405=CARTESIAN_POINT('',(124.043405361749,-192.23231592226,2.02704930391844));
#1406=CARTESIAN_POINT('',(124.043405361749,-202.23231592226,2.02704930391844));
#1407=CARTESIAN_POINT('',(124.043405361749,-201.319051148985,2.02704930391844));
#1408=CARTESIAN_POINT('',(124.043405361749,-202.23231592226,2.02704930391844));
#1409=CARTESIAN_POINT('Origin',(104.043405361749,-202.23231592226,2.02704930391843));
#1410=CARTESIAN_POINT('',(104.043405361749,-202.23231592226,5.02704930391843));
#1411=CARTESIAN_POINT('',(109.293405272342,-202.23231592226,5.02704930391844));
#1412=CARTESIAN_POINT('',(104.043405361749,-202.23231592226,2.02704930391843));
#1413=CARTESIAN_POINT('',(109.293405272342,-202.23231592226,2.02704930391844));
#1414=CARTESIAN_POINT('',(104.043405361749,-202.23231592226,2.02704930391843));
#1415=CARTESIAN_POINT('Origin',(104.043405361749,-192.23231592226,2.02704930391843));
#1416=CARTESIAN_POINT('',(104.043405361749,-192.23231592226,5.02704930391843));
#1417=CARTESIAN_POINT('',(104.043405361749,-196.319051148985,5.02704930391843));
#1418=CARTESIAN_POINT('',(104.043405361749,-192.23231592226,2.02704930391843));
#1419=CARTESIAN_POINT('',(104.043405361749,-196.319051148985,2.02704930391843));
#1420=CARTESIAN_POINT('',(104.043405361749,-192.23231592226,2.02704930391843));
#1421=CARTESIAN_POINT('Origin',(124.043405361749,-192.23231592226,2.02704930391844));
#1422=CARTESIAN_POINT('',(119.293405272342,-192.23231592226,5.02704930391844));
#1423=CARTESIAN_POINT('',(119.293405272342,-192.23231592226,2.02704930391844));
#1424=CARTESIAN_POINT('Origin',(101.043405317045,-197.232315996766,2.02704930391843));
#1425=CARTESIAN_POINT('',(99.7934053170453,-197.232315996766,2.02704930391843));
#1426=CARTESIAN_POINT('Origin',(101.043405317045,-197.232315996766,2.02704930391844));
#1427=CARTESIAN_POINT('',(99.7934053170453,-197.232315996766,5.02704930391844));
#1428=CARTESIAN_POINT('',(99.7934053170453,-197.232315996766,2.02704930391843));
#1429=CARTESIAN_POINT('Origin',(101.043405317045,-197.232315996766,5.02704930391844));
#1430=CARTESIAN_POINT('Origin',(127.043405704475,-197.232315996766,2.02704930391844));
#1431=CARTESIAN_POINT('',(125.793405704475,-197.232315996766,2.02704930391844));
#1432=CARTESIAN_POINT('Origin',(127.043405704475,-197.232315996766,2.02704930391844));
#1433=CARTESIAN_POINT('',(125.793405704475,-197.232315996766,5.02704930391844));
#1434=CARTESIAN_POINT('',(125.793405704475,-197.232315996766,2.02704930391844));
#1435=CARTESIAN_POINT('Origin',(127.043405704475,-197.232315996766,5.02704930391844));
#1436=CARTESIAN_POINT('Origin',(95.0434052276383,-190.232315892458,2.02704930391843));
#1437=CARTESIAN_POINT('',(93.5434052276383,-190.232315892458,2.02704930391843));
#1438=CARTESIAN_POINT('Origin',(95.0434052276383,-190.232315892458,2.02704930391844));
#1439=CARTESIAN_POINT('',(93.5434052276383,-190.232315892458,5.02704930391844));
#1440=CARTESIAN_POINT('',(93.5434052276383,-190.232315892458,2.02704930391843));
#1441=CARTESIAN_POINT('Origin',(95.0434052276383,-190.232315892458,5.02704930391844));
#1442=CARTESIAN_POINT('Origin',(134.043405808784,-190.232315892458,2.02704930391844));
#1443=CARTESIAN_POINT('',(132.543405808784,-190.232315892458,2.02704930391844));
#1444=CARTESIAN_POINT('Origin',(134.043405808784,-190.232315892458,2.02704930391844));
#1445=CARTESIAN_POINT('',(132.543405808784,-190.232315892458,5.02704930391844));
#1446=CARTESIAN_POINT('',(132.543405808784,-190.232315892458,2.02704930391844));
#1447=CARTESIAN_POINT('Origin',(134.043405808784,-190.232315892458,5.02704930391844));
#1448=CARTESIAN_POINT('Origin',(123.043405644871,-178.232315713644,2.02704930391844));
#1449=CARTESIAN_POINT('',(121.543405644871,-178.232315713644,2.02704930391844));
#1450=CARTESIAN_POINT('Origin',(123.043405644871,-178.232315713644,2.02704930391844));
#1451=CARTESIAN_POINT('',(121.543405644871,-178.232315713644,5.02704930391844));
#1452=CARTESIAN_POINT('',(121.543405644871,-178.232315713644,2.02704930391844));
#1453=CARTESIAN_POINT('Origin',(123.043405644871,-178.232315713644,5.02704930391844));
#1454=CARTESIAN_POINT('Origin',(95.0000014156103,-215.00000320375,61.));
#1455=CARTESIAN_POINT('',(93.5000014156103,-215.00000320375,12.0270493039184));
#1456=CARTESIAN_POINT('Origin',(95.0000014156103,-215.00000320375,12.0270493039184));
#1457=CARTESIAN_POINT('',(93.5000014156103,-215.00000320375,5.));
#1458=CARTESIAN_POINT('',(93.5000014156103,-215.00000320375,61.));
#1459=CARTESIAN_POINT('Origin',(95.0000014156103,-215.00000320375,5.));
#1460=CARTESIAN_POINT('',(95.7500014454126,-216.29904129222,8.99999997019769));
#1461=CARTESIAN_POINT('',(95.7500014454126,-213.700965115279,8.99999997019768));
#1462=CARTESIAN_POINT('Ctrl Pts',(95.7500014454126,-216.29904129222,8.99999997019769));
#1463=CARTESIAN_POINT('Ctrl Pts',(95.7500014454126,-216.29904129222,9.14960960230145));
#1464=CARTESIAN_POINT('Ctrl Pts',(95.7789668719023,-216.283591669611,9.30806806934903));
#1465=CARTESIAN_POINT('Ctrl Pts',(95.8890757152654,-216.209935015071,9.59302073580903));
#1466=CARTESIAN_POINT('Ctrl Pts',(95.9698968489321,-216.150030420176,9.71919796295619));
#1467=CARTESIAN_POINT('Ctrl Pts',(96.1278585591591,-215.99462280525,9.90300580021983));
#1468=CARTESIAN_POINT('Ctrl Pts',(96.2208029045057,-215.881264004065,9.98079805217414));
#1469=CARTESIAN_POINT('Ctrl Pts',(96.3505418524775,-215.66414182328,10.0707765996416));
#1470=CARTESIAN_POINT('Ctrl Pts',(96.4070690963594,-215.537946825378,10.1012142089065));
#1471=CARTESIAN_POINT('Ctrl Pts',(96.4818334396207,-215.27092205241,10.1383071092569));
#1472=CARTESIAN_POINT('Ctrl Pts',(96.5000014156103,-215.130168033835,10.1456438809298));
#1473=CARTESIAN_POINT('Ctrl Pts',(96.5000014156103,-214.869838373664,10.1456438809298));
#1474=CARTESIAN_POINT('Ctrl Pts',(96.4818334396207,-214.729084355089,10.1383071092569));
#1475=CARTESIAN_POINT('Ctrl Pts',(96.4070690963595,-214.462059582121,10.1012142089065));
#1476=CARTESIAN_POINT('Ctrl Pts',(96.3505418524775,-214.335864584219,10.0707765996416));
#1477=CARTESIAN_POINT('Ctrl Pts',(96.2208029045057,-214.118742403434,9.98079805217414));
#1478=CARTESIAN_POINT('Ctrl Pts',(96.1278585591591,-214.005383602249,9.90300580021983));
#1479=CARTESIAN_POINT('Ctrl Pts',(95.9698968489321,-213.849975987323,9.71919796295619));
#1480=CARTESIAN_POINT('Ctrl Pts',(95.8890757152654,-213.790071392428,9.59302073580903));
#1481=CARTESIAN_POINT('Ctrl Pts',(95.7789668719023,-213.716414737889,9.30806806934903));
#1482=CARTESIAN_POINT('Ctrl Pts',(95.7500014454126,-213.700965115279,9.14960960230145));
#1483=CARTESIAN_POINT('Ctrl Pts',(95.7500014454126,-213.700965115279,8.99999997019769));
#1484=CARTESIAN_POINT('Ctrl Pts',(95.7500014454126,-213.700965115279,8.99999997019769));
#1485=CARTESIAN_POINT('Ctrl Pts',(95.7500014454126,-213.700965115279,8.85039033809392));
#1486=CARTESIAN_POINT('Ctrl Pts',(95.7789668719023,-213.716414737889,8.69193187104633));
#1487=CARTESIAN_POINT('Ctrl Pts',(95.8890757152654,-213.790071392428,8.40697920458632));
#1488=CARTESIAN_POINT('Ctrl Pts',(95.9698968489321,-213.849975987323,8.28080197743916));
#1489=CARTESIAN_POINT('Ctrl Pts',(96.1278585591591,-214.005383602249,8.09699414017553));
#1490=CARTESIAN_POINT('Ctrl Pts',(96.2208029045057,-214.118742403434,8.01920188822121));
#1491=CARTESIAN_POINT('Ctrl Pts',(96.3505418524775,-214.335864584219,7.92922334075376));
#1492=CARTESIAN_POINT('Ctrl Pts',(96.4070690963594,-214.462059582121,7.89878573148887));
#1493=CARTESIAN_POINT('Ctrl Pts',(96.4818334396207,-214.729084355089,7.86169283113845));
#1494=CARTESIAN_POINT('Ctrl Pts',(96.5000014156103,-214.869838373664,7.85435605946552));
#1495=CARTESIAN_POINT('Ctrl Pts',(96.5000014156103,-215.130168033835,7.85435605946552));
#1496=CARTESIAN_POINT('Ctrl Pts',(96.4818334396207,-215.27092205241,7.86169283113845));
#1497=CARTESIAN_POINT('Ctrl Pts',(96.4070690963595,-215.537946825378,7.89878573148884));
#1498=CARTESIAN_POINT('Ctrl Pts',(96.3505418524775,-215.66414182328,7.92922334075376));
#1499=CARTESIAN_POINT('Ctrl Pts',(96.2208029045057,-215.881264004065,8.01920188822121));
#1500=CARTESIAN_POINT('Ctrl Pts',(96.1278585591591,-215.99462280525,8.09699414017553));
#1501=CARTESIAN_POINT('Ctrl Pts',(95.9698968489321,-216.150030420176,8.28080197743916));
#1502=CARTESIAN_POINT('Ctrl Pts',(95.8890757152654,-216.209935015071,8.40697920458632));
#1503=CARTESIAN_POINT('Ctrl Pts',(95.7789668719023,-216.283591669611,8.69193187104633));
#1504=CARTESIAN_POINT('Ctrl Pts',(95.7500014454126,-216.29904129222,8.85039033809392));
#1505=CARTESIAN_POINT('Ctrl Pts',(95.7500014454126,-216.29904129222,8.99999997019769));
#1506=CARTESIAN_POINT('Origin',(114.500001706183,-215.00000320375,5.));
#1507=CARTESIAN_POINT('Origin',(134.000001996756,-215.00000320375,61.));
#1508=CARTESIAN_POINT('',(132.500001996756,-215.00000320375,12.0270493039184));
#1509=CARTESIAN_POINT('Origin',(134.000001996756,-215.00000320375,12.0270493039184));
#1510=CARTESIAN_POINT('',(132.500001996756,-215.00000320375,5.));
#1511=CARTESIAN_POINT('',(132.500001996756,-215.00000320375,61.));
#1512=CARTESIAN_POINT('Origin',(134.000001996756,-215.00000320375,5.));
#1513=CARTESIAN_POINT('Origin',(114.500001706183,-215.00000320375,5.));
#1514=CARTESIAN_POINT('Origin',(97.0000014454126,0.,8.99999997019768));
#1515=CARTESIAN_POINT('',(95.7500014454126,-211.232316324592,8.99999997019768));
#1516=CARTESIAN_POINT('Origin',(97.0000014454126,-211.232316324592,8.99999997019768));
#1517=CARTESIAN_POINT('',(95.7500014454126,0.,8.99999997019768));
#1518=CARTESIAN_POINT('',(95.7500014454126,-219.232316324592,8.99999997019768));
#1519=CARTESIAN_POINT('',(95.7500014454126,0.,8.99999997019768));
#1520=CARTESIAN_POINT('Origin',(97.0000014454126,-219.232316324592,8.99999997019768));
#1521=CARTESIAN_POINT('Origin',(122.000001817942,0.,8.99999997019768));
#1522=CARTESIAN_POINT('',(120.750001817942,-211.232316205382,8.99999997019768));
#1523=CARTESIAN_POINT('Origin',(122.000001817942,-211.232316205382,8.99999997019768));
#1524=CARTESIAN_POINT('',(120.750001817942,-219.232316324591,8.99999997019768));
#1525=CARTESIAN_POINT('',(120.750001817942,0.,8.99999997019768));
#1526=CARTESIAN_POINT('Origin',(122.000001817942,-219.232316324591,8.99999997019768));
#1527=CARTESIAN_POINT('Origin',(120.,-211.24065602913,7.00798228941254));
#1528=CARTESIAN_POINT('',(120.043405853487,-211.24065602913,5.02704930391844));
#1529=CARTESIAN_POINT('',(120.,-211.24065602913,5.02704930391844));
#1530=CARTESIAN_POINT('',(117.271702591467,-211.24065602913,5.02704930391844));
#1531=CARTESIAN_POINT('',(120.043405853487,-211.24065602913,7.00798228941254));
#1532=CARTESIAN_POINT('',(120.043405853487,-211.24065602913,4.51751579666549));
#1533=CARTESIAN_POINT('',(120.,-211.24065602913,7.00798228941254));
#1534=CARTESIAN_POINT('',(120.,-211.24065602913,7.00798228941254));
#1535=CARTESIAN_POINT('',(120.,-211.24065602913,7.00798228941254));
#1536=CARTESIAN_POINT('Origin',(120.043405853487,-211.232316205382,2.02704930391844));
#1537=CARTESIAN_POINT('',(120.043405853487,-219.232316324591,5.02704930391844));
#1538=CARTESIAN_POINT('',(120.043405853487,-205.819051290546,5.02704930391844));
#1539=CARTESIAN_POINT('',(120.043405853487,-219.232316324591,12.0270493039184));
#1540=CARTESIAN_POINT('',(120.043405853487,-219.232316324591,2.02704930391844));
#1541=CARTESIAN_POINT('',(120.043405853487,-211.232316205382,12.0270493039184));
#1542=CARTESIAN_POINT('',(120.043405853487,-219.232316324591,12.0270493039184));
#1543=CARTESIAN_POINT('',(120.043405853487,-211.232316205382,6.9602405390208));
#1544=CARTESIAN_POINT('',(120.043405853487,-211.232316205382,2.02704930391844));
#1545=CARTESIAN_POINT('Origin',(120.043405853487,-208.871802018632,7.39718903369158));
#1546=CARTESIAN_POINT('Origin',(120.043405853487,-219.232316324591,2.02704930391844));
#1547=CARTESIAN_POINT('',(136.94617917538,-219.232316324591,5.02704930391844));
#1548=CARTESIAN_POINT('',(117.293405518211,-219.232316324592,5.02704930391844));
#1549=CARTESIAN_POINT('',(136.94617917538,-219.232316324591,2.02704930391844));
#1550=CARTESIAN_POINT('',(136.94617917538,-219.232316324591,2.02704930391844));
#1551=CARTESIAN_POINT('',(137.043405853487,-219.232316324591,2.02704930391844));
#1552=CARTESIAN_POINT('',(137.043405853487,-219.232316324591,2.02704930391844));
#1553=CARTESIAN_POINT('',(137.043405853487,-219.232316324591,12.0270493039184));
#1554=CARTESIAN_POINT('',(137.043405853487,-219.232316324591,2.02704930391844));
#1555=CARTESIAN_POINT('',(137.043405853487,-219.232316324591,12.0270493039184));
#1556=CARTESIAN_POINT('Origin',(137.043405853487,-211.232316205382,2.02704930391844));
#1557=CARTESIAN_POINT('',(137.,-211.232316205382,5.02704930391844));
#1558=CARTESIAN_POINT('',(137.043405853487,-211.232316205382,5.02704930391844));
#1559=CARTESIAN_POINT('',(125.793405518211,-211.232316205382,5.02704930391844));
#1560=CARTESIAN_POINT('',(137.,-211.232316205382,6.96024053902041));
#1561=CARTESIAN_POINT('',(137.,-211.232316205382,4.01552020196061));
#1562=CARTESIAN_POINT('',(120.,-211.232316205382,6.9602405390208));
#1563=CARTESIAN_POINT('',(137.043405853487,-211.232316205382,12.0270493039184));
#1564=CARTESIAN_POINT('',(120.043405853487,-211.232316205382,12.0270493039184));
#1565=CARTESIAN_POINT('',(137.043405853487,-211.232316205382,2.02704930391844));
#1566=CARTESIAN_POINT('Origin',(114.543405518211,-215.232316264987,12.0270493039184));
#1567=CARTESIAN_POINT('',(137.043405853487,-211.232316205382,12.0270493039184));
#1568=CARTESIAN_POINT('Origin',(137.,-210.120329571736,6.00399110000279));
#1569=CARTESIAN_POINT('',(137.,-209.253100948862,5.02704930391844));
#1570=CARTESIAN_POINT('',(137.,-205.263057973723,5.02704930391844));
#1571=CARTESIAN_POINT('Origin',(137.,-208.871802018632,7.39718903369158));
#1572=CARTESIAN_POINT('Origin',(120.,-208.871802018632,7.39718903369158));
#1573=CARTESIAN_POINT('',(120.,-209.253100948862,5.02704930391844));
#1574=CARTESIAN_POINT('',(120.,-209.253100948862,5.02704930391844));
#1575=CARTESIAN_POINT('Origin',(120.,-208.871802018632,7.39718903369158));
#1576=CARTESIAN_POINT('Origin',(120.,-210.120329571736,6.00399110000279));
#1577=CARTESIAN_POINT('',(120.,-205.263057973723,5.02704930391844));
#1578=CARTESIAN_POINT('Origin',(114.543405182935,-200.40578637571,5.02704930391844));
#1579=CARTESIAN_POINT('',(137.043405182935,-190.647165481931,5.02704930391844));
#1580=CARTESIAN_POINT('',(137.043405182935,-218.616320274545,5.02704930391844));
#1581=CARTESIAN_POINT('',(136.153805989487,-188.132129334557,5.02704930391844));
#1582=CARTESIAN_POINT('Origin',(133.043405182935,-190.647165481931,5.02704930391844));
#1583=CARTESIAN_POINT('',(126.415475839437,-176.088521140373,5.02704930391844));
#1584=CARTESIAN_POINT('',(126.415475839437,-176.088521140373,5.02704930391844));
#1585=CARTESIAN_POINT('',(122.527474831247,-174.232316324592,5.02704930391844));
#1586=CARTESIAN_POINT('Origin',(122.527474831247,-179.232316324592,5.02704930391844));
#1587=CARTESIAN_POINT('',(107.212612384291,-174.232316324592,5.02704930391843));
#1588=CARTESIAN_POINT('',(107.212612384291,-174.232316324592,5.02704930391843));
#1589=CARTESIAN_POINT('',(103.418082476246,-175.976315283905,5.02704930391843));
#1590=CARTESIAN_POINT('Origin',(107.212612384291,-179.232316324592,5.02704930391843));
#1591=CARTESIAN_POINT('',(93.0077812564991,-188.108436507597,5.02704930391843));
#1592=CARTESIAN_POINT('',(93.0077812564991,-188.108436507597,5.02704930391843));
#1593=CARTESIAN_POINT('',(92.0434051829348,-190.713237340146,5.02704930391843));
#1594=CARTESIAN_POINT('Origin',(96.0434051829348,-190.713237340146,5.02704930391843));
#1595=CARTESIAN_POINT('',(92.0434051829349,-209.253100948862,5.02704930391843));
#1596=CARTESIAN_POINT('',(92.0434051829348,-190.713237340146,5.02704930391843));
#1597=CARTESIAN_POINT('',(99.,-209.253100948862,5.02704930391843));
#1598=CARTESIAN_POINT('',(92.,-209.253100948862,5.02704930391843));
#1599=CARTESIAN_POINT('',(99.,-211.232316324592,5.02704930391843));
#1600=CARTESIAN_POINT('',(99.,-205.263057973723,5.02704930391843));
#1601=CARTESIAN_POINT('',(99.0434051829349,-211.232316324592,5.02704930391843));
#1602=CARTESIAN_POINT('',(106.793405182935,-211.232316324592,5.02704930391844));
#1603=CARTESIAN_POINT('',(99.0434051829349,-219.232316324592,5.02704930391843));
#1604=CARTESIAN_POINT('',(99.0434051829349,-209.819051350151,5.02704930391843));
#1605=CARTESIAN_POINT('',(92.0434051829349,-219.232316324592,5.02704930391843));
#1606=CARTESIAN_POINT('',(103.293405182935,-219.232316324592,5.02704930391844));
#1607=CARTESIAN_POINT('',(96.4546047675886,-225.705520655554,5.02704930391843));
#1608=CARTESIAN_POINT('',(96.4546047675886,-225.705520655554,5.02704930391843));
#1609=CARTESIAN_POINT('',(98.1073385292977,-226.579256426828,5.02704930391843));
#1610=CARTESIAN_POINT('Origin',(98.1073385292977,-224.579256426828,5.02704930391843));
#1611=CARTESIAN_POINT('',(130.985296589898,-226.579256426828,5.02704930391844));
#1612=CARTESIAN_POINT('',(98.1073385292977,-226.579256426828,5.02704930391843));
#1613=CARTESIAN_POINT('',(132.638722444333,-225.704504374564,5.02704930391844));
#1614=CARTESIAN_POINT('Origin',(130.985296589898,-224.579256426828,5.02704930391844));
#1615=CARTESIAN_POINT('',(136.696831037371,-219.74156822228,5.02704930391844));
#1616=CARTESIAN_POINT('',(132.638722444333,-225.704504374564,5.02704930391844));
#1617=CARTESIAN_POINT('Origin',(135.043405182935,-218.616320274545,5.02704930391844));
#1618=CARTESIAN_POINT('Origin',(137.043405182935,-218.616320274545,2.02704930391844));
#1619=CARTESIAN_POINT('',(137.043405182935,-190.647165481931,2.02704930391844));
#1620=CARTESIAN_POINT('',(137.043405853487,-211.232316205382,2.02704930391844));
#1621=CARTESIAN_POINT('',(137.043405182935,-190.647165481931,2.02704930391844));
#1622=CARTESIAN_POINT('Origin',(99.0434051829349,-219.232316324592,2.02704930391843));
#1623=CARTESIAN_POINT('',(99.0434051829349,-211.232316324592,12.0270493039184));
#1624=CARTESIAN_POINT('',(99.0434051829349,-211.232316324592,2.02704930391843));
#1625=CARTESIAN_POINT('',(99.0434051829349,-219.232316324592,12.0270493039184));
#1626=CARTESIAN_POINT('',(99.0434051829349,-219.232316324592,12.0270493039184));
#1627=CARTESIAN_POINT('',(99.0434051829349,-219.232316324592,2.02704930391843));
#1628=CARTESIAN_POINT('Origin',(99.0434051829349,-211.232316324592,2.02704930391843));
#1629=CARTESIAN_POINT('',(99.,-211.232316324592,6.96024118302272));
#1630=CARTESIAN_POINT('',(99.,-211.232316324592,4.01552020196061));
#1631=CARTESIAN_POINT('',(92.0434051829349,-211.232316324592,6.96024118302291));
#1632=CARTESIAN_POINT('',(92.,-211.232316324592,6.96024118302291));
#1633=CARTESIAN_POINT('',(92.0434051829349,-211.232316324592,12.0270493039184));
#1634=CARTESIAN_POINT('',(92.0434051829349,-211.232316324592,2.02704930391843));
#1635=CARTESIAN_POINT('',(99.0434051829349,-211.232316324592,12.0270493039184));
#1636=CARTESIAN_POINT('Origin',(99.,-210.120329571736,6.00399110000279));
#1637=CARTESIAN_POINT('Origin',(99.,-208.871802018632,7.39718903369158));
#1638=CARTESIAN_POINT('Origin',(92.,-208.871802018632,7.39718903369158));
#1639=CARTESIAN_POINT('',(92.0434051829349,-209.000003114343,4.99999991059303));
#1640=CARTESIAN_POINT('Origin',(92.0434051829348,-208.871802018632,7.39718903369158));
#1641=CARTESIAN_POINT('',(92.,-209.000003114343,4.99999991059303));
#1642=CARTESIAN_POINT('',(92.,-209.000003114343,4.99999991059303));
#1643=CARTESIAN_POINT('',(92.,-211.24065602913,7.00798228941254));
#1644=CARTESIAN_POINT('Origin',(92.,-208.871802018632,7.39718903369158));
#1645=CARTESIAN_POINT('',(92.0434051829349,-211.24065602913,7.00798228941254));
#1646=CARTESIAN_POINT('',(92.,-211.24065602913,7.00798228941254));
#1647=CARTESIAN_POINT('Origin',(92.0434051829349,-208.871802018632,7.39718903369158));
#1648=CARTESIAN_POINT('Origin',(92.0434051829349,-219.232316324592,2.02704930391843));
#1649=CARTESIAN_POINT('',(92.0434051829349,-219.232316324592,12.0270493039184));
#1650=CARTESIAN_POINT('',(92.0434051829349,-219.232316324592,12.0270493039184));
#1651=CARTESIAN_POINT('',(92.0434051829349,-219.232316324592,2.02704930391843));
#1652=CARTESIAN_POINT('Origin',(114.543405518211,-215.232316264987,12.0270493039184));
#1653=CARTESIAN_POINT('',(92.0434051829349,-211.232316324592,12.0270493039184));
#1654=CARTESIAN_POINT('Origin',(92.,-211.24065602913,4.99999991059303));
#1655=CARTESIAN_POINT('',(92.0434051829349,-211.24065602913,4.99999991059303));
#1656=CARTESIAN_POINT('',(92.0434051829348,-200.976946684638,4.99999991059303));
#1657=CARTESIAN_POINT('',(92.,-211.24065602913,4.99999991059303));
#1658=CARTESIAN_POINT('',(92.,-211.24065602913,4.99999991059303));
#1659=CARTESIAN_POINT('',(92.,-211.24065602913,4.99999991059303));
#1660=CARTESIAN_POINT('Origin',(92.,-211.24065602913,7.00798228941254));
#1661=CARTESIAN_POINT('',(92.0434051829349,-211.24065602913,4.51751579666549));
#1662=CARTESIAN_POINT('',(92.,-211.24065602913,7.00798228941254));
#1663=CARTESIAN_POINT('Origin',(92.,-210.120329571736,6.00399110000279));
#1664=CARTESIAN_POINT('Origin',(114.543405182935,-200.40578637571,2.02704930391844));
#1665=CARTESIAN_POINT('',(136.696831037371,-219.74156822228,2.02704930391844));
#1666=CARTESIAN_POINT('Origin',(135.043405182935,-218.616320274545,2.02704930391844));
#1667=CARTESIAN_POINT('',(132.638722444333,-225.704504374564,2.02704930391844));
#1668=CARTESIAN_POINT('',(132.638722444333,-225.704504374564,2.02704930391844));
#1669=CARTESIAN_POINT('',(130.985296589898,-226.579256426828,2.02704930391844));
#1670=CARTESIAN_POINT('Origin',(130.985296589898,-224.579256426828,2.02704930391844));
#1671=CARTESIAN_POINT('',(98.1073385292977,-226.579256426828,2.02704930391843));
#1672=CARTESIAN_POINT('',(98.1073385292977,-226.579256426828,2.02704930391843));
#1673=CARTESIAN_POINT('',(96.4546047675886,-225.705520655554,2.02704930391843));
#1674=CARTESIAN_POINT('Origin',(98.1073385292977,-224.579256426828,2.02704930391843));
#1675=CARTESIAN_POINT('',(92.0434051829349,-219.232316324592,2.02704930391843));
#1676=CARTESIAN_POINT('',(96.4546047675886,-225.705520655554,2.02704930391843));
#1677=CARTESIAN_POINT('',(92.0434051829348,-190.713237340146,2.02704930391843));
#1678=CARTESIAN_POINT('',(92.0434051829348,-190.713237340146,2.02704930391843));
#1679=CARTESIAN_POINT('',(93.0077812564991,-188.108436507597,2.02704930391843));
#1680=CARTESIAN_POINT('Origin',(96.0434051829348,-190.713237340146,2.02704930391843));
#1681=CARTESIAN_POINT('',(103.418082476246,-175.976315283905,2.02704930391843));
#1682=CARTESIAN_POINT('',(93.0077812564991,-188.108436507597,2.02704930391843));
#1683=CARTESIAN_POINT('',(107.212612384291,-174.232316324592,2.02704930391843));
#1684=CARTESIAN_POINT('Origin',(107.212612384291,-179.232316324592,2.02704930391843));
#1685=CARTESIAN_POINT('',(122.527474831247,-174.232316324592,2.02704930391844));
#1686=CARTESIAN_POINT('',(107.212612384291,-174.232316324592,2.02704930391843));
#1687=CARTESIAN_POINT('',(126.415475839437,-176.088521140373,2.02704930391844));
#1688=CARTESIAN_POINT('Origin',(122.527474831247,-179.232316324592,2.02704930391844));
#1689=CARTESIAN_POINT('',(136.153805989487,-188.132129334557,2.02704930391844));
#1690=CARTESIAN_POINT('',(126.415475839437,-176.088521140373,2.02704930391844));
#1691=CARTESIAN_POINT('Origin',(133.043405182935,-190.647165481931,2.02704930391844));
#1692=CARTESIAN_POINT('Origin',(92.0434051829348,-190.713237340146,2.02704930391843));
#1693=CARTESIAN_POINT('',(92.0434051829348,-190.713237340146,2.02704930391843));
#1694=CARTESIAN_POINT('',(92.0434051829349,-219.232316324592,2.02704930391843));
#1695=CARTESIAN_POINT('Origin',(92.0434051829349,-219.232316324592,2.02704930391843));
#1696=CARTESIAN_POINT('',(96.4546047675886,-225.705520655554,2.02704930391843));
#1697=CARTESIAN_POINT('Origin',(96.0434051829348,-190.713237340146,2.02704930391843));
#1698=CARTESIAN_POINT('',(93.0077812564991,-188.108436507597,2.02704930391843));
#1699=CARTESIAN_POINT('Origin',(103.418082476246,-175.976315283905,2.02704930391843));
#1700=CARTESIAN_POINT('',(103.418082476246,-175.976315283905,2.02704930391843));
#1701=CARTESIAN_POINT('Origin',(107.212612384291,-179.232316324592,2.02704930391843));
#1702=CARTESIAN_POINT('',(107.212612384291,-174.232316324592,2.02704930391843));
#1703=CARTESIAN_POINT('Origin',(122.527474831247,-174.232316324592,2.02704930391844));
#1704=CARTESIAN_POINT('',(122.527474831247,-174.232316324592,2.02704930391844));
#1705=CARTESIAN_POINT('Origin',(122.527474831247,-179.232316324592,2.02704930391844));
#1706=CARTESIAN_POINT('',(126.415475839437,-176.088521140373,2.02704930391844));
#1707=CARTESIAN_POINT('Origin',(136.153805989487,-188.132129334557,2.02704930391844));
#1708=CARTESIAN_POINT('',(136.153805989487,-188.132129334557,2.02704930391844));
#1709=CARTESIAN_POINT('Origin',(133.043405182935,-190.647165481931,2.02704930391844));
#1710=CARTESIAN_POINT('Origin',(135.043405182935,-218.616320274545,2.02704930391844));
#1711=CARTESIAN_POINT('',(136.696831037371,-219.74156822228,2.02704930391844));
#1712=CARTESIAN_POINT('Origin',(132.638722444333,-225.704504374564,2.02704930391844));
#1713=CARTESIAN_POINT('',(132.638722444333,-225.704504374564,2.02704930391844));
#1714=CARTESIAN_POINT('Origin',(130.985296589898,-224.579256426828,2.02704930391844));
#1715=CARTESIAN_POINT('',(130.985296589898,-226.579256426828,2.02704930391844));
#1716=CARTESIAN_POINT('Origin',(98.1073385292977,-226.579256426828,2.02704930391843));
#1717=CARTESIAN_POINT('',(98.1073385292977,-226.579256426828,2.02704930391843));
#1718=CARTESIAN_POINT('Origin',(98.1073385292977,-224.579256426828,2.02704930391843));
#1719=UNCERTAINTY_MEASURE_WITH_UNIT(LENGTH_MEASURE(0.01),#1723,
'DISTANCE_ACCURACY_VALUE',
'Maximum model space distance between geometric entities at asserted c
onnectivities');
#1720=UNCERTAINTY_MEASURE_WITH_UNIT(LENGTH_MEASURE(0.01),#1723,
'DISTANCE_ACCURACY_VALUE',
'Maximum model space distance between geometric entities at asserted c
onnectivities');
#1721=(
GEOMETRIC_REPRESENTATION_CONTEXT(3)
GLOBAL_UNCERTAINTY_ASSIGNED_CONTEXT((#1719))
GLOBAL_UNIT_ASSIGNED_CONTEXT((#1723,#1725,#1726))
REPRESENTATION_CONTEXT('','3D')
);
#1722=(
GEOMETRIC_REPRESENTATION_CONTEXT(3)
GLOBAL_UNCERTAINTY_ASSIGNED_CONTEXT((#1720))
GLOBAL_UNIT_ASSIGNED_CONTEXT((#1723,#1725,#1726))
REPRESENTATION_CONTEXT('','3D')
);
#1723=(
LENGTH_UNIT()
NAMED_UNIT(*)
SI_UNIT(.MILLI.,.METRE.)
);
#1724=(
LENGTH_UNIT()
NAMED_UNIT(*)
SI_UNIT($,.METRE.)
);
#1725=(
NAMED_UNIT(*)
PLANE_ANGLE_UNIT()
SI_UNIT($,.RADIAN.)
);
#1726=(
NAMED_UNIT(*)
SI_UNIT($,.STERADIAN.)
SOLID_ANGLE_UNIT()
);
#1727=SHAPE_DEFINITION_REPRESENTATION(#1728,#1729);
#1728=PRODUCT_DEFINITION_SHAPE('',$,#1731);
#1729=SHAPE_REPRESENTATION('',(#1020),#1721);
#1730=PRODUCT_DEFINITION_CONTEXT('part definition',#1735,'design');
#1731=PRODUCT_DEFINITION('arm_part7','arm_part7',#1732,#1730);
#1732=PRODUCT_DEFINITION_FORMATION('',$,#1737);
#1733=PRODUCT_RELATED_PRODUCT_CATEGORY('arm_part7','arm_part7',(#1737));
#1734=APPLICATION_PROTOCOL_DEFINITION('international standard',
'automotive_design',2009,#1735);
#1735=APPLICATION_CONTEXT(
'Core Data for Automotive Mechanical Design Process');
#1736=PRODUCT_CONTEXT('part definition',#1735,'mechanical');
#1737=PRODUCT('arm_part7','arm_part7',$,(#1736));
#1738=PRESENTATION_STYLE_ASSIGNMENT((#1739));
#1739=SURFACE_STYLE_USAGE(.BOTH.,#1740);
#1740=SURFACE_SIDE_STYLE('',(#1741));
#1741=SURFACE_STYLE_FILL_AREA(#1742);
#1742=FILL_AREA_STYLE('Steel - Satin',(#1743));
#1743=FILL_AREA_STYLE_COLOUR('Steel - Satin',#1744);
#1744=COLOUR_RGB('Steel - Satin',0.627450980392157,0.627450980392157,0.627450980392157);
ENDSEC;
END-ISO-10303-21;
