ISO-10303-21;
HEADER;
/* Generated by software containing ST-Developer
 * from STEP Tools, Inc. (www.steptools.com) 
 */

FILE_DESCRIPTION(
/* description */ (''),
/* implementation_level */ '2;1');

FILE_NAME(
/* name */ 'base_rotor.step',
/* time_stamp */ '2026-08-20T17:24:26+05:30',
/* author */ (''),
/* organization */ (''),
/* preprocessor_version */ 'ST-DEVELOPER v20.1',
/* originating_system */ 'Autodesk Translation Framework v15.8.0.0',
/* authorisation */ '');

FILE_SCHEMA (('AUTOMOTIVE_DESIGN { 1 0 10303 214 3 1 1 }'));
ENDSEC;

DATA;
#10=MECHANICAL_DESIGN_GEOMETRIC_PRESENTATION_REPRESENTATION('',(#13),#1184);
#11=SHAPE_REPRESENTATION_RELATIONSHIP('SRR','None',#1191,#12);
#12=ADVANCED_BREP_SHAPE_REPRESENTATION('',(#14),#1183);
#13=STYLED_ITEM('',(#1200),#14);
#14=MANIFOLD_SOLID_BREP('Body1',#696);
#15=FACE_BOUND('',#91,.T.);
#16=FACE_BOUND('',#92,.T.);
#17=FACE_BOUND('',#93,.T.);
#18=FACE_BOUND('',#94,.T.);
#19=FACE_BOUND('',#108,.T.);
#20=FACE_BOUND('',#109,.T.);
#21=FACE_BOUND('',#110,.T.);
#22=FACE_BOUND('',#111,.T.);
#23=FACE_BOUND('',#114,.T.);
#24=FACE_BOUND('',#117,.T.);
#25=FACE_BOUND('',#121,.T.);
#26=FACE_BOUND('',#123,.T.);
#27=PLANE('',#719);
#28=PLANE('',#732);
#29=PLANE('',#733);
#30=PLANE('',#734);
#31=PLANE('',#735);
#32=PLANE('',#741);
#33=PLANE('',#742);
#34=PLANE('',#743);
#35=PLANE('',#750);
#36=PLANE('',#751);
#37=PLANE('',#755);
#38=PLANE('',#756);
#39=PLANE('',#757);
#40=PLANE('',#758);
#41=PLANE('',#759);
#42=PLANE('',#766);
#43=PLANE('',#771);
#44=PLANE('',#777);
#45=PLANE('',#778);
#46=FACE_OUTER_BOUND('',#79,.T.);
#47=FACE_OUTER_BOUND('',#80,.T.);
#48=FACE_OUTER_BOUND('',#81,.T.);
#49=FACE_OUTER_BOUND('',#82,.T.);
#50=FACE_OUTER_BOUND('',#83,.T.);
#51=FACE_OUTER_BOUND('',#84,.T.);
#52=FACE_OUTER_BOUND('',#85,.T.);
#53=FACE_OUTER_BOUND('',#86,.T.);
#54=FACE_OUTER_BOUND('',#87,.T.);
#55=FACE_OUTER_BOUND('',#88,.T.);
#56=FACE_OUTER_BOUND('',#89,.T.);
#57=FACE_OUTER_BOUND('',#90,.T.);
#58=FACE_OUTER_BOUND('',#95,.T.);
#59=FACE_OUTER_BOUND('',#96,.T.);
#60=FACE_OUTER_BOUND('',#97,.T.);
#61=FACE_OUTER_BOUND('',#98,.T.);
#62=FACE_OUTER_BOUND('',#99,.T.);
#63=FACE_OUTER_BOUND('',#100,.T.);
#64=FACE_OUTER_BOUND('',#101,.T.);
#65=FACE_OUTER_BOUND('',#102,.T.);
#66=FACE_OUTER_BOUND('',#103,.T.);
#67=FACE_OUTER_BOUND('',#104,.T.);
#68=FACE_OUTER_BOUND('',#105,.T.);
#69=FACE_OUTER_BOUND('',#106,.T.);
#70=FACE_OUTER_BOUND('',#107,.T.);
#71=FACE_OUTER_BOUND('',#112,.T.);
#72=FACE_OUTER_BOUND('',#113,.T.);
#73=FACE_OUTER_BOUND('',#115,.T.);
#74=FACE_OUTER_BOUND('',#116,.T.);
#75=FACE_OUTER_BOUND('',#118,.T.);
#76=FACE_OUTER_BOUND('',#119,.T.);
#77=FACE_OUTER_BOUND('',#120,.T.);
#78=FACE_OUTER_BOUND('',#122,.T.);
#79=EDGE_LOOP('',(#451,#452,#453,#454));
#80=EDGE_LOOP('',(#455,#456,#457,#458));
#81=EDGE_LOOP('',(#459,#460,#461,#462));
#82=EDGE_LOOP('',(#463,#464,#465,#466));
#83=EDGE_LOOP('',(#467,#468,#469,#470));
#84=EDGE_LOOP('',(#471,#472,#473,#474));
#85=EDGE_LOOP('',(#475,#476,#477,#478));
#86=EDGE_LOOP('',(#479,#480,#481,#482));
#87=EDGE_LOOP('',(#483,#484,#485,#486));
#88=EDGE_LOOP('',(#487,#488,#489,#490));
#89=EDGE_LOOP('',(#491,#492,#493,#494));
#90=EDGE_LOOP('',(#495,#496,#497,#498,#499,#500,#501,#502,#503,#504,#505,
#506,#507,#508,#509,#510,#511,#512,#513,#514));
#91=EDGE_LOOP('',(#515));
#92=EDGE_LOOP('',(#516));
#93=EDGE_LOOP('',(#517));
#94=EDGE_LOOP('',(#518,#519));
#95=EDGE_LOOP('',(#520,#521,#522,#523,#524,#525));
#96=EDGE_LOOP('',(#526,#527,#528,#529,#530,#531));
#97=EDGE_LOOP('',(#532,#533,#534,#535,#536,#537));
#98=EDGE_LOOP('',(#538,#539,#540,#541));
#99=EDGE_LOOP('',(#542,#543,#544,#545,#546,#547));
#100=EDGE_LOOP('',(#548,#549,#550,#551));
#101=EDGE_LOOP('',(#552,#553,#554,#555));
#102=EDGE_LOOP('',(#556,#557,#558,#559,#560,#561));
#103=EDGE_LOOP('',(#562,#563,#564,#565,#566,#567));
#104=EDGE_LOOP('',(#568,#569,#570,#571));
#105=EDGE_LOOP('',(#572,#573,#574,#575));
#106=EDGE_LOOP('',(#576,#577,#578,#579));
#107=EDGE_LOOP('',(#580,#581,#582,#583,#584,#585,#586,#587,#588,#589,#590,
#591,#592,#593,#594,#595,#596,#597));
#108=EDGE_LOOP('',(#598));
#109=EDGE_LOOP('',(#599));
#110=EDGE_LOOP('',(#600));
#111=EDGE_LOOP('',(#601,#602));
#112=EDGE_LOOP('',(#603,#604,#605,#606,#607,#608,#609,#610,#611,#612,#613,
#614,#615,#616,#617,#618));
#113=EDGE_LOOP('',(#619));
#114=EDGE_LOOP('',(#620,#621,#622,#623,#624,#625,#626,#627,#628,#629,#630));
#115=EDGE_LOOP('',(#631,#632,#633,#634));
#116=EDGE_LOOP('',(#635));
#117=EDGE_LOOP('',(#636));
#118=EDGE_LOOP('',(#637,#638,#639,#640));
#119=EDGE_LOOP('',(#641,#642,#643,#644));
#120=EDGE_LOOP('',(#645));
#121=EDGE_LOOP('',(#646));
#122=EDGE_LOOP('',(#647));
#123=EDGE_LOOP('',(#648));
#124=LINE('',#987,#187);
#125=LINE('',#993,#188);
#126=LINE('',#999,#189);
#127=LINE('',#1004,#190);
#128=LINE('',#1006,#191);
#129=LINE('',#1008,#192);
#130=LINE('',#1009,#193);
#131=LINE('',#1016,#194);
#132=LINE('',#1020,#195);
#133=LINE('',#1025,#196);
#134=LINE('',#1029,#197);
#135=LINE('',#1034,#198);
#136=LINE('',#1038,#199);
#137=LINE('',#1042,#200);
#138=LINE('',#1044,#201);
#139=LINE('',#1045,#202);
#140=LINE('',#1048,#203);
#141=LINE('',#1050,#204);
#142=LINE('',#1051,#205);
#143=LINE('',#1054,#206);
#144=LINE('',#1056,#207);
#145=LINE('',#1057,#208);
#146=LINE('',#1060,#209);
#147=LINE('',#1064,#210);
#148=LINE('',#1065,#211);
#149=LINE('',#1067,#212);
#150=LINE('',#1069,#213);
#151=LINE('',#1074,#214);
#152=LINE('',#1076,#215);
#153=LINE('',#1078,#216);
#154=LINE('',#1083,#217);
#155=LINE('',#1086,#218);
#156=LINE('',#1088,#219);
#157=LINE('',#1090,#220);
#158=LINE('',#1091,#221);
#159=LINE('',#1094,#222);
#160=LINE('',#1096,#223);
#161=LINE('',#1098,#224);
#162=LINE('',#1099,#225);
#163=LINE('',#1102,#226);
#164=LINE('',#1104,#227);
#165=LINE('',#1106,#228);
#166=LINE('',#1108,#229);
#167=LINE('',#1109,#230);
#168=LINE('',#1114,#231);
#169=LINE('',#1118,#232);
#170=LINE('',#1120,#233);
#171=LINE('',#1125,#234);
#172=LINE('',#1126,#235);
#173=LINE('',#1129,#236);
#174=LINE('',#1130,#237);
#175=LINE('',#1133,#238);
#176=LINE('',#1138,#239);
#177=LINE('',#1139,#240);
#178=LINE('',#1140,#241);
#179=LINE('',#1142,#242);
#180=LINE('',#1145,#243);
#181=LINE('',#1146,#244);
#182=LINE('',#1148,#245);
#183=LINE('',#1154,#246);
#184=LINE('',#1166,#247);
#185=LINE('',#1171,#248);
#186=LINE('',#1177,#249);
#187=VECTOR('',#785,1.5);
#188=VECTOR('',#792,1.5);
#189=VECTOR('',#799,1.5);
#190=VECTOR('',#804,10.);
#191=VECTOR('',#805,10.);
#192=VECTOR('',#806,10.);
#193=VECTOR('',#807,10.);
#194=VECTOR('',#816,10.);
#195=VECTOR('',#819,10.);
#196=VECTOR('',#824,10.);
#197=VECTOR('',#827,10.);
#198=VECTOR('',#832,10.);
#199=VECTOR('',#835,10.);
#200=VECTOR('',#840,10.);
#201=VECTOR('',#841,10.);
#202=VECTOR('',#842,10.);
#203=VECTOR('',#845,10.);
#204=VECTOR('',#846,10.);
#205=VECTOR('',#847,10.);
#206=VECTOR('',#850,10.);
#207=VECTOR('',#851,10.);
#208=VECTOR('',#852,10.);
#209=VECTOR('',#855,10.);
#210=VECTOR('',#858,10.);
#211=VECTOR('',#859,10.);
#212=VECTOR('',#860,10.);
#213=VECTOR('',#861,10.);
#214=VECTOR('',#866,10.);
#215=VECTOR('',#867,10.);
#216=VECTOR('',#868,10.);
#217=VECTOR('',#873,10.);
#218=VECTOR('',#876,10.);
#219=VECTOR('',#877,10.);
#220=VECTOR('',#878,10.);
#221=VECTOR('',#879,10.);
#222=VECTOR('',#882,10.);
#223=VECTOR('',#883,10.);
#224=VECTOR('',#884,10.);
#225=VECTOR('',#885,10.);
#226=VECTOR('',#888,10.);
#227=VECTOR('',#889,10.);
#228=VECTOR('',#890,10.);
#229=VECTOR('',#891,10.);
#230=VECTOR('',#892,10.);
#231=VECTOR('',#897,10.);
#232=VECTOR('',#902,10.);
#233=VECTOR('',#903,10.);
#234=VECTOR('',#910,10.);
#235=VECTOR('',#911,10.);
#236=VECTOR('',#914,10.);
#237=VECTOR('',#915,10.);
#238=VECTOR('',#918,10.);
#239=VECTOR('',#925,10.);
#240=VECTOR('',#926,10.);
#241=VECTOR('',#927,10.);
#242=VECTOR('',#930,10.);
#243=VECTOR('',#933,10.);
#244=VECTOR('',#934,10.);
#245=VECTOR('',#937,10.);
#246=VECTOR('',#944,51.5087613073665);
#247=VECTOR('',#961,54.5478598341931);
#248=VECTOR('',#968,53.0962286927874);
#249=VECTOR('',#975,57.9439367265135);
#250=CIRCLE('',#711,1.5);
#251=CIRCLE('',#712,1.5);
#252=CIRCLE('',#714,1.5);
#253=CIRCLE('',#715,1.5);
#254=CIRCLE('',#717,1.5);
#255=CIRCLE('',#718,1.5);
#256=CIRCLE('',#721,7.49999999999999);
#257=CIRCLE('',#722,7.49999999999999);
#258=CIRCLE('',#724,13.9829042050139);
#259=CIRCLE('',#725,13.9829042050139);
#260=CIRCLE('',#727,13.9829042050139);
#261=CIRCLE('',#728,13.9829042050139);
#262=CIRCLE('',#730,13.9829042050139);
#263=CIRCLE('',#731,13.9829042050139);
#264=CIRCLE('',#736,51.5087613073665);
#265=CIRCLE('',#737,45.6976587846109);
#266=CIRCLE('',#738,51.5087613073665);
#267=CIRCLE('',#739,48.6286979992993);
#268=CIRCLE('',#740,51.5087613073665);
#269=CIRCLE('',#745,51.1780330819437);
#270=CIRCLE('',#746,51.1780330819437);
#271=CIRCLE('',#748,45.6976587846109);
#272=CIRCLE('',#749,45.6976587846109);
#273=CIRCLE('',#753,48.6286979992993);
#274=CIRCLE('',#754,48.6286979992993);
#275=CIRCLE('',#761,51.5087613073665);
#276=CIRCLE('',#762,51.5087613073665);
#277=CIRCLE('',#763,51.5087613073665);
#278=CIRCLE('',#764,51.5087613073665);
#279=CIRCLE('',#765,51.5087613073665);
#280=CIRCLE('',#767,53.0962286927874);
#281=CIRCLE('',#769,54.5478598341931);
#282=CIRCLE('',#770,54.5478598341931);
#283=CIRCLE('',#773,53.0962286927874);
#284=CIRCLE('',#775,57.9439367265135);
#285=CIRCLE('',#776,57.9439367265135);
#286=VERTEX_POINT('',#984);
#287=VERTEX_POINT('',#986);
#288=VERTEX_POINT('',#990);
#289=VERTEX_POINT('',#992);
#290=VERTEX_POINT('',#996);
#291=VERTEX_POINT('',#998);
#292=VERTEX_POINT('',#1002);
#293=VERTEX_POINT('',#1003);
#294=VERTEX_POINT('',#1005);
#295=VERTEX_POINT('',#1007);
#296=VERTEX_POINT('',#1014);
#297=VERTEX_POINT('',#1015);
#298=VERTEX_POINT('',#1017);
#299=VERTEX_POINT('',#1019);
#300=VERTEX_POINT('',#1023);
#301=VERTEX_POINT('',#1024);
#302=VERTEX_POINT('',#1026);
#303=VERTEX_POINT('',#1028);
#304=VERTEX_POINT('',#1032);
#305=VERTEX_POINT('',#1033);
#306=VERTEX_POINT('',#1035);
#307=VERTEX_POINT('',#1037);
#308=VERTEX_POINT('',#1041);
#309=VERTEX_POINT('',#1043);
#310=VERTEX_POINT('',#1047);
#311=VERTEX_POINT('',#1049);
#312=VERTEX_POINT('',#1053);
#313=VERTEX_POINT('',#1055);
#314=VERTEX_POINT('',#1059);
#315=VERTEX_POINT('',#1061);
#316=VERTEX_POINT('',#1063);
#317=VERTEX_POINT('',#1066);
#318=VERTEX_POINT('',#1068);
#319=VERTEX_POINT('',#1070);
#320=VERTEX_POINT('',#1072);
#321=VERTEX_POINT('',#1075);
#322=VERTEX_POINT('',#1077);
#323=VERTEX_POINT('',#1079);
#324=VERTEX_POINT('',#1081);
#325=VERTEX_POINT('',#1085);
#326=VERTEX_POINT('',#1087);
#327=VERTEX_POINT('',#1089);
#328=VERTEX_POINT('',#1093);
#329=VERTEX_POINT('',#1095);
#330=VERTEX_POINT('',#1097);
#331=VERTEX_POINT('',#1101);
#332=VERTEX_POINT('',#1103);
#333=VERTEX_POINT('',#1105);
#334=VERTEX_POINT('',#1107);
#335=VERTEX_POINT('',#1111);
#336=VERTEX_POINT('',#1113);
#337=VERTEX_POINT('',#1117);
#338=VERTEX_POINT('',#1119);
#339=VERTEX_POINT('',#1124);
#340=VERTEX_POINT('',#1128);
#341=VERTEX_POINT('',#1132);
#342=VERTEX_POINT('',#1137);
#343=VERTEX_POINT('',#1144);
#344=VERTEX_POINT('',#1151);
#345=VERTEX_POINT('',#1153);
#346=VERTEX_POINT('',#1160);
#347=VERTEX_POINT('',#1163);
#348=VERTEX_POINT('',#1165);
#349=VERTEX_POINT('',#1170);
#350=VERTEX_POINT('',#1174);
#351=VERTEX_POINT('',#1176);
#352=EDGE_CURVE('',#286,#286,#250,.T.);
#353=EDGE_CURVE('',#286,#287,#124,.T.);
#354=EDGE_CURVE('',#287,#287,#251,.T.);
#355=EDGE_CURVE('',#288,#288,#252,.T.);
#356=EDGE_CURVE('',#288,#289,#125,.T.);
#357=EDGE_CURVE('',#289,#289,#253,.T.);
#358=EDGE_CURVE('',#290,#290,#254,.T.);
#359=EDGE_CURVE('',#290,#291,#126,.T.);
#360=EDGE_CURVE('',#291,#291,#255,.T.);
#361=EDGE_CURVE('',#292,#293,#127,.T.);
#362=EDGE_CURVE('',#294,#292,#128,.T.);
#363=EDGE_CURVE('',#295,#294,#129,.T.);
#364=EDGE_CURVE('',#295,#293,#130,.T.);
#365=EDGE_CURVE('',#293,#292,#256,.T.);
#366=EDGE_CURVE('',#294,#295,#257,.T.);
#367=EDGE_CURVE('',#296,#297,#131,.T.);
#368=EDGE_CURVE('',#298,#296,#258,.T.);
#369=EDGE_CURVE('',#299,#298,#132,.T.);
#370=EDGE_CURVE('',#297,#299,#259,.T.);
#371=EDGE_CURVE('',#300,#301,#133,.T.);
#372=EDGE_CURVE('',#302,#300,#260,.T.);
#373=EDGE_CURVE('',#303,#302,#134,.T.);
#374=EDGE_CURVE('',#301,#303,#261,.T.);
#375=EDGE_CURVE('',#304,#305,#135,.T.);
#376=EDGE_CURVE('',#306,#304,#262,.T.);
#377=EDGE_CURVE('',#307,#306,#136,.T.);
#378=EDGE_CURVE('',#305,#307,#263,.T.);
#379=EDGE_CURVE('',#308,#305,#137,.T.);
#380=EDGE_CURVE('',#308,#309,#138,.T.);
#381=EDGE_CURVE('',#304,#309,#139,.T.);
#382=EDGE_CURVE('',#310,#306,#140,.T.);
#383=EDGE_CURVE('',#311,#310,#141,.T.);
#384=EDGE_CURVE('',#307,#311,#142,.T.);
#385=EDGE_CURVE('',#312,#302,#143,.T.);
#386=EDGE_CURVE('',#312,#313,#144,.T.);
#387=EDGE_CURVE('',#303,#313,#145,.T.);
#388=EDGE_CURVE('',#311,#314,#146,.T.);
#389=EDGE_CURVE('',#315,#314,#264,.T.);
#390=EDGE_CURVE('',#316,#315,#147,.T.);
#391=EDGE_CURVE('',#316,#297,#148,.T.);
#392=EDGE_CURVE('',#299,#317,#149,.T.);
#393=EDGE_CURVE('',#317,#318,#150,.T.);
#394=EDGE_CURVE('',#318,#319,#265,.T.);
#395=EDGE_CURVE('',#320,#319,#266,.T.);
#396=EDGE_CURVE('',#312,#320,#151,.T.);
#397=EDGE_CURVE('',#300,#321,#152,.T.);
#398=EDGE_CURVE('',#321,#322,#153,.T.);
#399=EDGE_CURVE('',#322,#323,#267,.T.);
#400=EDGE_CURVE('',#324,#323,#268,.T.);
#401=EDGE_CURVE('',#308,#324,#154,.T.);
#402=EDGE_CURVE('',#325,#320,#155,.T.);
#403=EDGE_CURVE('',#326,#325,#156,.T.);
#404=EDGE_CURVE('',#326,#327,#157,.T.);
#405=EDGE_CURVE('',#313,#327,#158,.T.);
#406=EDGE_CURVE('',#328,#324,#159,.T.);
#407=EDGE_CURVE('',#329,#328,#160,.T.);
#408=EDGE_CURVE('',#329,#330,#161,.T.);
#409=EDGE_CURVE('',#309,#330,#162,.T.);
#410=EDGE_CURVE('',#331,#315,#163,.T.);
#411=EDGE_CURVE('',#332,#331,#164,.T.);
#412=EDGE_CURVE('',#332,#333,#165,.T.);
#413=EDGE_CURVE('',#334,#333,#166,.T.);
#414=EDGE_CURVE('',#316,#334,#167,.T.);
#415=EDGE_CURVE('',#335,#332,#269,.T.);
#416=EDGE_CURVE('',#335,#336,#168,.T.);
#417=EDGE_CURVE('',#333,#336,#270,.T.);
#418=EDGE_CURVE('',#319,#337,#169,.T.);
#419=EDGE_CURVE('',#318,#338,#170,.T.);
#420=EDGE_CURVE('',#327,#338,#271,.T.);
#421=EDGE_CURVE('',#337,#326,#272,.T.);
#422=EDGE_CURVE('',#339,#301,#171,.T.);
#423=EDGE_CURVE('',#321,#339,#172,.T.);
#424=EDGE_CURVE('',#340,#339,#173,.T.);
#425=EDGE_CURVE('',#322,#340,#174,.T.);
#426=EDGE_CURVE('',#323,#341,#175,.T.);
#427=EDGE_CURVE('',#330,#340,#273,.T.);
#428=EDGE_CURVE('',#341,#329,#274,.T.);
#429=EDGE_CURVE('',#314,#342,#176,.T.);
#430=EDGE_CURVE('',#336,#310,#177,.T.);
#431=EDGE_CURVE('',#342,#335,#178,.T.);
#432=EDGE_CURVE('',#296,#334,#179,.T.);
#433=EDGE_CURVE('',#343,#298,#180,.T.);
#434=EDGE_CURVE('',#317,#343,#181,.T.);
#435=EDGE_CURVE('',#338,#343,#182,.T.);
#436=EDGE_CURVE('',#344,#344,#275,.T.);
#437=EDGE_CURVE('',#344,#345,#183,.T.);
#438=EDGE_CURVE('',#328,#345,#276,.T.);
#439=EDGE_CURVE('',#325,#341,#277,.T.);
#440=EDGE_CURVE('',#331,#337,#278,.T.);
#441=EDGE_CURVE('',#345,#342,#279,.T.);
#442=EDGE_CURVE('',#346,#346,#280,.T.);
#443=EDGE_CURVE('',#347,#347,#281,.T.);
#444=EDGE_CURVE('',#347,#348,#184,.T.);
#445=EDGE_CURVE('',#348,#348,#282,.T.);
#446=EDGE_CURVE('',#346,#349,#185,.T.);
#447=EDGE_CURVE('',#349,#349,#283,.T.);
#448=EDGE_CURVE('',#350,#350,#284,.T.);
#449=EDGE_CURVE('',#350,#351,#186,.T.);
#450=EDGE_CURVE('',#351,#351,#285,.T.);
#451=ORIENTED_EDGE('',*,*,#352,.F.);
#452=ORIENTED_EDGE('',*,*,#353,.T.);
#453=ORIENTED_EDGE('',*,*,#354,.F.);
#454=ORIENTED_EDGE('',*,*,#353,.F.);
#455=ORIENTED_EDGE('',*,*,#355,.F.);
#456=ORIENTED_EDGE('',*,*,#356,.T.);
#457=ORIENTED_EDGE('',*,*,#357,.F.);
#458=ORIENTED_EDGE('',*,*,#356,.F.);
#459=ORIENTED_EDGE('',*,*,#358,.F.);
#460=ORIENTED_EDGE('',*,*,#359,.T.);
#461=ORIENTED_EDGE('',*,*,#360,.F.);
#462=ORIENTED_EDGE('',*,*,#359,.F.);
#463=ORIENTED_EDGE('',*,*,#361,.F.);
#464=ORIENTED_EDGE('',*,*,#362,.F.);
#465=ORIENTED_EDGE('',*,*,#363,.F.);
#466=ORIENTED_EDGE('',*,*,#364,.T.);
#467=ORIENTED_EDGE('',*,*,#365,.F.);
#468=ORIENTED_EDGE('',*,*,#364,.F.);
#469=ORIENTED_EDGE('',*,*,#366,.F.);
#470=ORIENTED_EDGE('',*,*,#362,.T.);
#471=ORIENTED_EDGE('',*,*,#367,.F.);
#472=ORIENTED_EDGE('',*,*,#368,.F.);
#473=ORIENTED_EDGE('',*,*,#369,.F.);
#474=ORIENTED_EDGE('',*,*,#370,.F.);
#475=ORIENTED_EDGE('',*,*,#371,.F.);
#476=ORIENTED_EDGE('',*,*,#372,.F.);
#477=ORIENTED_EDGE('',*,*,#373,.F.);
#478=ORIENTED_EDGE('',*,*,#374,.F.);
#479=ORIENTED_EDGE('',*,*,#375,.F.);
#480=ORIENTED_EDGE('',*,*,#376,.F.);
#481=ORIENTED_EDGE('',*,*,#377,.F.);
#482=ORIENTED_EDGE('',*,*,#378,.F.);
#483=ORIENTED_EDGE('',*,*,#375,.T.);
#484=ORIENTED_EDGE('',*,*,#379,.F.);
#485=ORIENTED_EDGE('',*,*,#380,.T.);
#486=ORIENTED_EDGE('',*,*,#381,.F.);
#487=ORIENTED_EDGE('',*,*,#377,.T.);
#488=ORIENTED_EDGE('',*,*,#382,.F.);
#489=ORIENTED_EDGE('',*,*,#383,.F.);
#490=ORIENTED_EDGE('',*,*,#384,.F.);
#491=ORIENTED_EDGE('',*,*,#373,.T.);
#492=ORIENTED_EDGE('',*,*,#385,.F.);
#493=ORIENTED_EDGE('',*,*,#386,.T.);
#494=ORIENTED_EDGE('',*,*,#387,.F.);
#495=ORIENTED_EDGE('',*,*,#378,.T.);
#496=ORIENTED_EDGE('',*,*,#384,.T.);
#497=ORIENTED_EDGE('',*,*,#388,.T.);
#498=ORIENTED_EDGE('',*,*,#389,.F.);
#499=ORIENTED_EDGE('',*,*,#390,.F.);
#500=ORIENTED_EDGE('',*,*,#391,.T.);
#501=ORIENTED_EDGE('',*,*,#370,.T.);
#502=ORIENTED_EDGE('',*,*,#392,.T.);
#503=ORIENTED_EDGE('',*,*,#393,.T.);
#504=ORIENTED_EDGE('',*,*,#394,.T.);
#505=ORIENTED_EDGE('',*,*,#395,.F.);
#506=ORIENTED_EDGE('',*,*,#396,.F.);
#507=ORIENTED_EDGE('',*,*,#385,.T.);
#508=ORIENTED_EDGE('',*,*,#372,.T.);
#509=ORIENTED_EDGE('',*,*,#397,.T.);
#510=ORIENTED_EDGE('',*,*,#398,.T.);
#511=ORIENTED_EDGE('',*,*,#399,.T.);
#512=ORIENTED_EDGE('',*,*,#400,.F.);
#513=ORIENTED_EDGE('',*,*,#401,.F.);
#514=ORIENTED_EDGE('',*,*,#379,.T.);
#515=ORIENTED_EDGE('',*,*,#352,.T.);
#516=ORIENTED_EDGE('',*,*,#355,.T.);
#517=ORIENTED_EDGE('',*,*,#358,.T.);
#518=ORIENTED_EDGE('',*,*,#365,.T.);
#519=ORIENTED_EDGE('',*,*,#361,.T.);
#520=ORIENTED_EDGE('',*,*,#402,.F.);
#521=ORIENTED_EDGE('',*,*,#403,.F.);
#522=ORIENTED_EDGE('',*,*,#404,.T.);
#523=ORIENTED_EDGE('',*,*,#405,.F.);
#524=ORIENTED_EDGE('',*,*,#386,.F.);
#525=ORIENTED_EDGE('',*,*,#396,.T.);
#526=ORIENTED_EDGE('',*,*,#406,.F.);
#527=ORIENTED_EDGE('',*,*,#407,.F.);
#528=ORIENTED_EDGE('',*,*,#408,.T.);
#529=ORIENTED_EDGE('',*,*,#409,.F.);
#530=ORIENTED_EDGE('',*,*,#380,.F.);
#531=ORIENTED_EDGE('',*,*,#401,.T.);
#532=ORIENTED_EDGE('',*,*,#410,.F.);
#533=ORIENTED_EDGE('',*,*,#411,.F.);
#534=ORIENTED_EDGE('',*,*,#412,.T.);
#535=ORIENTED_EDGE('',*,*,#413,.F.);
#536=ORIENTED_EDGE('',*,*,#414,.F.);
#537=ORIENTED_EDGE('',*,*,#390,.T.);
#538=ORIENTED_EDGE('',*,*,#415,.F.);
#539=ORIENTED_EDGE('',*,*,#416,.T.);
#540=ORIENTED_EDGE('',*,*,#417,.F.);
#541=ORIENTED_EDGE('',*,*,#412,.F.);
#542=ORIENTED_EDGE('',*,*,#418,.F.);
#543=ORIENTED_EDGE('',*,*,#394,.F.);
#544=ORIENTED_EDGE('',*,*,#419,.T.);
#545=ORIENTED_EDGE('',*,*,#420,.F.);
#546=ORIENTED_EDGE('',*,*,#404,.F.);
#547=ORIENTED_EDGE('',*,*,#421,.F.);
#548=ORIENTED_EDGE('',*,*,#371,.T.);
#549=ORIENTED_EDGE('',*,*,#422,.F.);
#550=ORIENTED_EDGE('',*,*,#423,.F.);
#551=ORIENTED_EDGE('',*,*,#397,.F.);
#552=ORIENTED_EDGE('',*,*,#398,.F.);
#553=ORIENTED_EDGE('',*,*,#423,.T.);
#554=ORIENTED_EDGE('',*,*,#424,.F.);
#555=ORIENTED_EDGE('',*,*,#425,.F.);
#556=ORIENTED_EDGE('',*,*,#426,.F.);
#557=ORIENTED_EDGE('',*,*,#399,.F.);
#558=ORIENTED_EDGE('',*,*,#425,.T.);
#559=ORIENTED_EDGE('',*,*,#427,.F.);
#560=ORIENTED_EDGE('',*,*,#408,.F.);
#561=ORIENTED_EDGE('',*,*,#428,.F.);
#562=ORIENTED_EDGE('',*,*,#429,.F.);
#563=ORIENTED_EDGE('',*,*,#388,.F.);
#564=ORIENTED_EDGE('',*,*,#383,.T.);
#565=ORIENTED_EDGE('',*,*,#430,.F.);
#566=ORIENTED_EDGE('',*,*,#416,.F.);
#567=ORIENTED_EDGE('',*,*,#431,.F.);
#568=ORIENTED_EDGE('',*,*,#367,.T.);
#569=ORIENTED_EDGE('',*,*,#391,.F.);
#570=ORIENTED_EDGE('',*,*,#414,.T.);
#571=ORIENTED_EDGE('',*,*,#432,.F.);
#572=ORIENTED_EDGE('',*,*,#369,.T.);
#573=ORIENTED_EDGE('',*,*,#433,.F.);
#574=ORIENTED_EDGE('',*,*,#434,.F.);
#575=ORIENTED_EDGE('',*,*,#392,.F.);
#576=ORIENTED_EDGE('',*,*,#393,.F.);
#577=ORIENTED_EDGE('',*,*,#434,.T.);
#578=ORIENTED_EDGE('',*,*,#435,.F.);
#579=ORIENTED_EDGE('',*,*,#419,.F.);
#580=ORIENTED_EDGE('',*,*,#381,.T.);
#581=ORIENTED_EDGE('',*,*,#409,.T.);
#582=ORIENTED_EDGE('',*,*,#427,.T.);
#583=ORIENTED_EDGE('',*,*,#424,.T.);
#584=ORIENTED_EDGE('',*,*,#422,.T.);
#585=ORIENTED_EDGE('',*,*,#374,.T.);
#586=ORIENTED_EDGE('',*,*,#387,.T.);
#587=ORIENTED_EDGE('',*,*,#405,.T.);
#588=ORIENTED_EDGE('',*,*,#420,.T.);
#589=ORIENTED_EDGE('',*,*,#435,.T.);
#590=ORIENTED_EDGE('',*,*,#433,.T.);
#591=ORIENTED_EDGE('',*,*,#368,.T.);
#592=ORIENTED_EDGE('',*,*,#432,.T.);
#593=ORIENTED_EDGE('',*,*,#413,.T.);
#594=ORIENTED_EDGE('',*,*,#417,.T.);
#595=ORIENTED_EDGE('',*,*,#430,.T.);
#596=ORIENTED_EDGE('',*,*,#382,.T.);
#597=ORIENTED_EDGE('',*,*,#376,.T.);
#598=ORIENTED_EDGE('',*,*,#354,.T.);
#599=ORIENTED_EDGE('',*,*,#357,.T.);
#600=ORIENTED_EDGE('',*,*,#360,.T.);
#601=ORIENTED_EDGE('',*,*,#366,.T.);
#602=ORIENTED_EDGE('',*,*,#363,.T.);
#603=ORIENTED_EDGE('',*,*,#436,.F.);
#604=ORIENTED_EDGE('',*,*,#437,.T.);
#605=ORIENTED_EDGE('',*,*,#438,.F.);
#606=ORIENTED_EDGE('',*,*,#406,.T.);
#607=ORIENTED_EDGE('',*,*,#400,.T.);
#608=ORIENTED_EDGE('',*,*,#426,.T.);
#609=ORIENTED_EDGE('',*,*,#439,.F.);
#610=ORIENTED_EDGE('',*,*,#402,.T.);
#611=ORIENTED_EDGE('',*,*,#395,.T.);
#612=ORIENTED_EDGE('',*,*,#418,.T.);
#613=ORIENTED_EDGE('',*,*,#440,.F.);
#614=ORIENTED_EDGE('',*,*,#410,.T.);
#615=ORIENTED_EDGE('',*,*,#389,.T.);
#616=ORIENTED_EDGE('',*,*,#429,.T.);
#617=ORIENTED_EDGE('',*,*,#441,.F.);
#618=ORIENTED_EDGE('',*,*,#437,.F.);
#619=ORIENTED_EDGE('',*,*,#442,.T.);
#620=ORIENTED_EDGE('',*,*,#403,.T.);
#621=ORIENTED_EDGE('',*,*,#439,.T.);
#622=ORIENTED_EDGE('',*,*,#428,.T.);
#623=ORIENTED_EDGE('',*,*,#407,.T.);
#624=ORIENTED_EDGE('',*,*,#438,.T.);
#625=ORIENTED_EDGE('',*,*,#441,.T.);
#626=ORIENTED_EDGE('',*,*,#431,.T.);
#627=ORIENTED_EDGE('',*,*,#415,.T.);
#628=ORIENTED_EDGE('',*,*,#411,.T.);
#629=ORIENTED_EDGE('',*,*,#440,.T.);
#630=ORIENTED_EDGE('',*,*,#421,.T.);
#631=ORIENTED_EDGE('',*,*,#443,.F.);
#632=ORIENTED_EDGE('',*,*,#444,.T.);
#633=ORIENTED_EDGE('',*,*,#445,.F.);
#634=ORIENTED_EDGE('',*,*,#444,.F.);
#635=ORIENTED_EDGE('',*,*,#443,.T.);
#636=ORIENTED_EDGE('',*,*,#436,.T.);
#637=ORIENTED_EDGE('',*,*,#442,.F.);
#638=ORIENTED_EDGE('',*,*,#446,.T.);
#639=ORIENTED_EDGE('',*,*,#447,.F.);
#640=ORIENTED_EDGE('',*,*,#446,.F.);
#641=ORIENTED_EDGE('',*,*,#448,.F.);
#642=ORIENTED_EDGE('',*,*,#449,.T.);
#643=ORIENTED_EDGE('',*,*,#450,.T.);
#644=ORIENTED_EDGE('',*,*,#449,.F.);
#645=ORIENTED_EDGE('',*,*,#448,.T.);
#646=ORIENTED_EDGE('',*,*,#445,.T.);
#647=ORIENTED_EDGE('',*,*,#450,.F.);
#648=ORIENTED_EDGE('',*,*,#447,.T.);
#649=CYLINDRICAL_SURFACE('',#710,1.5);
#650=CYLINDRICAL_SURFACE('',#713,1.5);
#651=CYLINDRICAL_SURFACE('',#716,1.5);
#652=CYLINDRICAL_SURFACE('',#720,7.49999999999999);
#653=CYLINDRICAL_SURFACE('',#723,13.9829042050139);
#654=CYLINDRICAL_SURFACE('',#726,13.9829042050139);
#655=CYLINDRICAL_SURFACE('',#729,13.9829042050139);
#656=CYLINDRICAL_SURFACE('',#744,51.1780330819437);
#657=CYLINDRICAL_SURFACE('',#747,45.6976587846109);
#658=CYLINDRICAL_SURFACE('',#752,48.6286979992993);
#659=CYLINDRICAL_SURFACE('',#760,51.5087613073665);
#660=CYLINDRICAL_SURFACE('',#768,54.5478598341931);
#661=CYLINDRICAL_SURFACE('',#772,53.0962286927874);
#662=CYLINDRICAL_SURFACE('',#774,57.9439367265135);
#663=ADVANCED_FACE('',(#46),#649,.F.);
#664=ADVANCED_FACE('',(#47),#650,.F.);
#665=ADVANCED_FACE('',(#48),#651,.F.);
#666=ADVANCED_FACE('',(#49),#27,.F.);
#667=ADVANCED_FACE('',(#50),#652,.F.);
#668=ADVANCED_FACE('',(#51),#653,.T.);
#669=ADVANCED_FACE('',(#52),#654,.T.);
#670=ADVANCED_FACE('',(#53),#655,.T.);
#671=ADVANCED_FACE('',(#54),#28,.T.);
#672=ADVANCED_FACE('',(#55),#29,.T.);
#673=ADVANCED_FACE('',(#56),#30,.T.);
#674=ADVANCED_FACE('',(#57,#15,#16,#17,#18),#31,.T.);
#675=ADVANCED_FACE('',(#58),#32,.T.);
#676=ADVANCED_FACE('',(#59),#33,.T.);
#677=ADVANCED_FACE('',(#60),#34,.T.);
#678=ADVANCED_FACE('',(#61),#656,.T.);
#679=ADVANCED_FACE('',(#62),#657,.T.);
#680=ADVANCED_FACE('',(#63),#35,.T.);
#681=ADVANCED_FACE('',(#64),#36,.T.);
#682=ADVANCED_FACE('',(#65),#658,.T.);
#683=ADVANCED_FACE('',(#66),#37,.T.);
#684=ADVANCED_FACE('',(#67),#38,.T.);
#685=ADVANCED_FACE('',(#68),#39,.T.);
#686=ADVANCED_FACE('',(#69),#40,.T.);
#687=ADVANCED_FACE('',(#70,#19,#20,#21,#22),#41,.F.);
#688=ADVANCED_FACE('',(#71),#659,.F.);
#689=ADVANCED_FACE('',(#72,#23),#42,.F.);
#690=ADVANCED_FACE('',(#73),#660,.T.);
#691=ADVANCED_FACE('',(#74,#24),#43,.T.);
#692=ADVANCED_FACE('',(#75),#661,.F.);
#693=ADVANCED_FACE('',(#76),#662,.T.);
#694=ADVANCED_FACE('',(#77,#25),#44,.T.);
#695=ADVANCED_FACE('',(#78,#26),#45,.F.);
#696=CLOSED_SHELL('',(#663,#664,#665,#666,#667,#668,#669,#670,#671,#672,
#673,#674,#675,#676,#677,#678,#679,#680,#681,#682,#683,#684,#685,#686,#687,
#688,#689,#690,#691,#692,#693,#694,#695));
#697=DERIVED_UNIT_ELEMENT(#699,1.);
#698=DERIVED_UNIT_ELEMENT(#1186,-3.);
#699=(
MASS_UNIT()
NAMED_UNIT(*)
SI_UNIT(.KILO.,.GRAM.)
);
#700=DERIVED_UNIT((#697,#698));
#701=MEASURE_REPRESENTATION_ITEM('density measure',
POSITIVE_RATIO_MEASURE(7850.),#700);
#702=PROPERTY_DEFINITION_REPRESENTATION(#707,#704);
#703=PROPERTY_DEFINITION_REPRESENTATION(#708,#705);
#704=REPRESENTATION('material name',(#706),#1183);
#705=REPRESENTATION('density',(#701),#1183);
#706=DESCRIPTIVE_REPRESENTATION_ITEM('Steel','Steel');
#707=PROPERTY_DEFINITION('material property','material name',#1193);
#708=PROPERTY_DEFINITION('material property','density of part',#1193);
#709=AXIS2_PLACEMENT_3D('',#982,#779,#780);
#710=AXIS2_PLACEMENT_3D('',#983,#781,#782);
#711=AXIS2_PLACEMENT_3D('',#985,#783,#784);
#712=AXIS2_PLACEMENT_3D('',#988,#786,#787);
#713=AXIS2_PLACEMENT_3D('',#989,#788,#789);
#714=AXIS2_PLACEMENT_3D('',#991,#790,#791);
#715=AXIS2_PLACEMENT_3D('',#994,#793,#794);
#716=AXIS2_PLACEMENT_3D('',#995,#795,#796);
#717=AXIS2_PLACEMENT_3D('',#997,#797,#798);
#718=AXIS2_PLACEMENT_3D('',#1000,#800,#801);
#719=AXIS2_PLACEMENT_3D('',#1001,#802,#803);
#720=AXIS2_PLACEMENT_3D('',#1010,#808,#809);
#721=AXIS2_PLACEMENT_3D('',#1011,#810,#811);
#722=AXIS2_PLACEMENT_3D('',#1012,#812,#813);
#723=AXIS2_PLACEMENT_3D('',#1013,#814,#815);
#724=AXIS2_PLACEMENT_3D('',#1018,#817,#818);
#725=AXIS2_PLACEMENT_3D('',#1021,#820,#821);
#726=AXIS2_PLACEMENT_3D('',#1022,#822,#823);
#727=AXIS2_PLACEMENT_3D('',#1027,#825,#826);
#728=AXIS2_PLACEMENT_3D('',#1030,#828,#829);
#729=AXIS2_PLACEMENT_3D('',#1031,#830,#831);
#730=AXIS2_PLACEMENT_3D('',#1036,#833,#834);
#731=AXIS2_PLACEMENT_3D('',#1039,#836,#837);
#732=AXIS2_PLACEMENT_3D('',#1040,#838,#839);
#733=AXIS2_PLACEMENT_3D('',#1046,#843,#844);
#734=AXIS2_PLACEMENT_3D('',#1052,#848,#849);
#735=AXIS2_PLACEMENT_3D('',#1058,#853,#854);
#736=AXIS2_PLACEMENT_3D('',#1062,#856,#857);
#737=AXIS2_PLACEMENT_3D('',#1071,#862,#863);
#738=AXIS2_PLACEMENT_3D('',#1073,#864,#865);
#739=AXIS2_PLACEMENT_3D('',#1080,#869,#870);
#740=AXIS2_PLACEMENT_3D('',#1082,#871,#872);
#741=AXIS2_PLACEMENT_3D('',#1084,#874,#875);
#742=AXIS2_PLACEMENT_3D('',#1092,#880,#881);
#743=AXIS2_PLACEMENT_3D('',#1100,#886,#887);
#744=AXIS2_PLACEMENT_3D('',#1110,#893,#894);
#745=AXIS2_PLACEMENT_3D('',#1112,#895,#896);
#746=AXIS2_PLACEMENT_3D('',#1115,#898,#899);
#747=AXIS2_PLACEMENT_3D('',#1116,#900,#901);
#748=AXIS2_PLACEMENT_3D('',#1121,#904,#905);
#749=AXIS2_PLACEMENT_3D('',#1122,#906,#907);
#750=AXIS2_PLACEMENT_3D('',#1123,#908,#909);
#751=AXIS2_PLACEMENT_3D('',#1127,#912,#913);
#752=AXIS2_PLACEMENT_3D('',#1131,#916,#917);
#753=AXIS2_PLACEMENT_3D('',#1134,#919,#920);
#754=AXIS2_PLACEMENT_3D('',#1135,#921,#922);
#755=AXIS2_PLACEMENT_3D('',#1136,#923,#924);
#756=AXIS2_PLACEMENT_3D('',#1141,#928,#929);
#757=AXIS2_PLACEMENT_3D('',#1143,#931,#932);
#758=AXIS2_PLACEMENT_3D('',#1147,#935,#936);
#759=AXIS2_PLACEMENT_3D('',#1149,#938,#939);
#760=AXIS2_PLACEMENT_3D('',#1150,#940,#941);
#761=AXIS2_PLACEMENT_3D('',#1152,#942,#943);
#762=AXIS2_PLACEMENT_3D('',#1155,#945,#946);
#763=AXIS2_PLACEMENT_3D('',#1156,#947,#948);
#764=AXIS2_PLACEMENT_3D('',#1157,#949,#950);
#765=AXIS2_PLACEMENT_3D('',#1158,#951,#952);
#766=AXIS2_PLACEMENT_3D('',#1159,#953,#954);
#767=AXIS2_PLACEMENT_3D('',#1161,#955,#956);
#768=AXIS2_PLACEMENT_3D('',#1162,#957,#958);
#769=AXIS2_PLACEMENT_3D('',#1164,#959,#960);
#770=AXIS2_PLACEMENT_3D('',#1167,#962,#963);
#771=AXIS2_PLACEMENT_3D('',#1168,#964,#965);
#772=AXIS2_PLACEMENT_3D('',#1169,#966,#967);
#773=AXIS2_PLACEMENT_3D('',#1172,#969,#970);
#774=AXIS2_PLACEMENT_3D('',#1173,#971,#972);
#775=AXIS2_PLACEMENT_3D('',#1175,#973,#974);
#776=AXIS2_PLACEMENT_3D('',#1178,#976,#977);
#777=AXIS2_PLACEMENT_3D('',#1179,#978,#979);
#778=AXIS2_PLACEMENT_3D('',#1180,#980,#981);
#779=DIRECTION('axis',(0.,0.,1.));
#780=DIRECTION('refdir',(1.,0.,0.));
#781=DIRECTION('center_axis',(0.,0.,-1.));
#782=DIRECTION('ref_axis',(1.,0.,0.));
#783=DIRECTION('center_axis',(0.,0.,-1.));
#784=DIRECTION('ref_axis',(1.,0.,0.));
#785=DIRECTION('',(0.,0.,-1.));
#786=DIRECTION('center_axis',(0.,0.,1.));
#787=DIRECTION('ref_axis',(1.,0.,0.));
#788=DIRECTION('center_axis',(0.,0.,-1.));
#789=DIRECTION('ref_axis',(1.,0.,0.));
#790=DIRECTION('center_axis',(0.,0.,-1.));
#791=DIRECTION('ref_axis',(1.,0.,0.));
#792=DIRECTION('',(0.,0.,-1.));
#793=DIRECTION('center_axis',(0.,0.,1.));
#794=DIRECTION('ref_axis',(1.,0.,0.));
#795=DIRECTION('center_axis',(0.,0.,-1.));
#796=DIRECTION('ref_axis',(1.,0.,0.));
#797=DIRECTION('center_axis',(0.,0.,-1.));
#798=DIRECTION('ref_axis',(1.,0.,0.));
#799=DIRECTION('',(0.,0.,-1.));
#800=DIRECTION('center_axis',(0.,0.,1.));
#801=DIRECTION('ref_axis',(1.,0.,0.));
#802=DIRECTION('center_axis',(-1.,6.87271215176818E-16,0.));
#803=DIRECTION('ref_axis',(-6.87271215176818E-16,-1.,0.));
#804=DIRECTION('',(6.87271215176818E-16,1.,0.));
#805=DIRECTION('',(0.,0.,1.));
#806=DIRECTION('',(-6.87271215176818E-16,-1.,0.));
#807=DIRECTION('',(0.,0.,1.));
#808=DIRECTION('center_axis',(0.,0.,1.));
#809=DIRECTION('ref_axis',(1.,-1.11022302462516E-15,0.));
#810=DIRECTION('center_axis',(0.,0.,-1.));
#811=DIRECTION('ref_axis',(-0.507671662430381,-0.861550627163125,0.));
#812=DIRECTION('center_axis',(0.,0.,1.));
#813=DIRECTION('ref_axis',(-0.507671662430381,-0.861550627163125,0.));
#814=DIRECTION('center_axis',(0.,0.,-1.));
#815=DIRECTION('ref_axis',(1.,0.,0.));
#816=DIRECTION('',(0.,0.,1.));
#817=DIRECTION('center_axis',(0.,0.,-1.));
#818=DIRECTION('ref_axis',(1.,0.,0.));
#819=DIRECTION('',(0.,0.,-1.));
#820=DIRECTION('center_axis',(0.,0.,1.));
#821=DIRECTION('ref_axis',(1.,0.,0.));
#822=DIRECTION('center_axis',(0.,0.,-1.));
#823=DIRECTION('ref_axis',(1.,0.,0.));
#824=DIRECTION('',(0.,0.,-1.));
#825=DIRECTION('center_axis',(0.,0.,1.));
#826=DIRECTION('ref_axis',(1.,0.,0.));
#827=DIRECTION('',(0.,0.,1.));
#828=DIRECTION('center_axis',(0.,0.,-1.));
#829=DIRECTION('ref_axis',(1.,0.,0.));
#830=DIRECTION('center_axis',(0.,0.,-1.));
#831=DIRECTION('ref_axis',(-0.840842773966082,0.541279437508044,0.));
#832=DIRECTION('',(0.,0.,1.));
#833=DIRECTION('center_axis',(0.,0.,-1.));
#834=DIRECTION('ref_axis',(1.,0.,0.));
#835=DIRECTION('',(0.,0.,-1.));
#836=DIRECTION('center_axis',(0.,0.,1.));
#837=DIRECTION('ref_axis',(1.,0.,0.));
#838=DIRECTION('center_axis',(-1.,0.,0.));
#839=DIRECTION('ref_axis',(0.,1.,0.));
#840=DIRECTION('',(0.,-1.,0.));
#841=DIRECTION('',(0.,0.,-1.));
#842=DIRECTION('',(0.,1.,0.));
#843=DIRECTION('center_axis',(-0.41731049452232,0.908763968894859,0.));
#844=DIRECTION('ref_axis',(0.908763968894859,0.41731049452232,0.));
#845=DIRECTION('',(0.908763968894859,0.41731049452232,0.));
#846=DIRECTION('',(0.,0.,-1.));
#847=DIRECTION('',(-0.908763968894859,-0.41731049452232,0.));
#848=DIRECTION('center_axis',(0.543959848565125,0.839111245991261,0.));
#849=DIRECTION('ref_axis',(0.839111245991261,-0.543959848565125,0.));
#850=DIRECTION('',(-0.839111245991261,0.543959848565125,0.));
#851=DIRECTION('',(0.,0.,-1.));
#852=DIRECTION('',(0.839111245991261,-0.543959848565125,0.));
#853=DIRECTION('center_axis',(0.,0.,1.));
#854=DIRECTION('ref_axis',(1.,0.,0.));
#855=DIRECTION('',(-0.968367645806918,0.249527759085772,0.));
#856=DIRECTION('center_axis',(0.,0.,-1.));
#857=DIRECTION('ref_axis',(1.,0.,0.));
#858=DIRECTION('',(-0.117527488840984,-0.993069629666889,0.));
#859=DIRECTION('',(0.908696912099434,0.417456491075363,0.));
#860=DIRECTION('',(0.839259731881723,-0.543730726041686,0.));
#861=DIRECTION('',(0.0905357460425185,-0.995893206467704,0.));
#862=DIRECTION('center_axis',(0.,0.,1.));
#863=DIRECTION('ref_axis',(0.586459058401659,-0.809978871834716,0.));
#864=DIRECTION('center_axis',(0.,0.,-1.));
#865=DIRECTION('ref_axis',(1.,0.,0.));
#866=DIRECTION('',(0.994117020379993,0.108311355779547,0.));
#867=DIRECTION('',(0.,1.,0.));
#868=DIRECTION('',(0.574466131020192,0.818528352783635,0.));
#869=DIRECTION('center_axis',(0.,0.,1.));
#870=DIRECTION('ref_axis',(0.196029319025024,0.980598034916747,0.));
#871=DIRECTION('center_axis',(0.,0.,-1.));
#872=DIRECTION('ref_axis',(1.,0.,0.));
#873=DIRECTION('',(-0.486071102385519,0.873919265965527,0.));
#874=DIRECTION('center_axis',(-0.108311355779547,0.994117020379993,0.));
#875=DIRECTION('ref_axis',(0.994117020379993,0.108311355779547,0.));
#876=DIRECTION('',(0.,0.,1.));
#877=DIRECTION('',(-0.994117020379993,-0.108311355779547,0.));
#878=DIRECTION('',(0.,0.,-1.));
#879=DIRECTION('',(0.994117020379993,0.108311355779547,0.));
#880=DIRECTION('center_axis',(-0.873919265965528,-0.486071102385519,0.));
#881=DIRECTION('ref_axis',(-0.486071102385519,0.873919265965527,0.));
#882=DIRECTION('',(0.,0.,1.));
#883=DIRECTION('',(0.486071102385519,-0.873919265965527,0.));
#884=DIRECTION('',(0.,0.,-1.));
#885=DIRECTION('',(-0.486071102385519,0.873919265965527,0.));
#886=DIRECTION('center_axis',(0.993069629666889,-0.117527488840984,0.));
#887=DIRECTION('ref_axis',(-0.117527488840984,-0.993069629666889,0.));
#888=DIRECTION('',(0.,0.,1.));
#889=DIRECTION('',(0.117527488840984,0.993069629666889,0.));
#890=DIRECTION('',(0.,0.,-1.));
#891=DIRECTION('',(-0.117527488840984,-0.993069629666889,0.));
#892=DIRECTION('',(0.,0.,-1.));
#893=DIRECTION('center_axis',(0.,0.,-1.));
#894=DIRECTION('ref_axis',(-0.960302293108672,-0.278961477358838,0.));
#895=DIRECTION('center_axis',(0.,0.,1.));
#896=DIRECTION('ref_axis',(-0.960302293108672,-0.278961477358838,0.));
#897=DIRECTION('',(0.,0.,-1.));
#898=DIRECTION('center_axis',(0.,0.,-1.));
#899=DIRECTION('ref_axis',(-0.960302293108672,-0.278961477358838,0.));
#900=DIRECTION('center_axis',(0.,0.,-1.));
#901=DIRECTION('ref_axis',(0.586459058401659,-0.809978871834716,0.));
#902=DIRECTION('',(0.,0.,-1.));
#903=DIRECTION('',(0.,0.,-1.));
#904=DIRECTION('center_axis',(0.,0.,-1.));
#905=DIRECTION('ref_axis',(0.586459058401659,-0.809978871834716,0.));
#906=DIRECTION('center_axis',(0.,0.,1.));
#907=DIRECTION('ref_axis',(0.586459058401659,-0.809978871834716,0.));
#908=DIRECTION('center_axis',(1.,0.,0.));
#909=DIRECTION('ref_axis',(0.,-1.,0.));
#910=DIRECTION('',(0.,-1.,0.));
#911=DIRECTION('',(0.,0.,-1.));
#912=DIRECTION('center_axis',(0.818528352783635,-0.574466131020192,0.));
#913=DIRECTION('ref_axis',(-0.574466131020192,-0.818528352783635,0.));
#914=DIRECTION('',(-0.574466131020192,-0.818528352783635,0.));
#915=DIRECTION('',(0.,0.,-1.));
#916=DIRECTION('center_axis',(0.,0.,-1.));
#917=DIRECTION('ref_axis',(0.196029319025024,0.980598034916747,0.));
#918=DIRECTION('',(0.,0.,-1.));
#919=DIRECTION('center_axis',(0.,0.,-1.));
#920=DIRECTION('ref_axis',(0.196029319025024,0.980598034916747,0.));
#921=DIRECTION('center_axis',(0.,0.,1.));
#922=DIRECTION('ref_axis',(0.196029319025024,0.980598034916747,0.));
#923=DIRECTION('center_axis',(0.249527759085772,0.968367645806918,0.));
#924=DIRECTION('ref_axis',(0.968367645806918,-0.249527759085772,0.));
#925=DIRECTION('',(0.,0.,-1.));
#926=DIRECTION('',(0.968367645806918,-0.249527759085772,0.));
#927=DIRECTION('',(-0.968367645806918,0.249527759085772,0.));
#928=DIRECTION('center_axis',(0.417456491075363,-0.908696912099434,0.));
#929=DIRECTION('ref_axis',(-0.908696912099434,-0.417456491075363,0.));
#930=DIRECTION('',(-0.908696912099434,-0.417456491075363,0.));
#931=DIRECTION('center_axis',(-0.543730726041686,-0.839259731881723,0.));
#932=DIRECTION('ref_axis',(-0.839259731881723,0.543730726041686,0.));
#933=DIRECTION('',(-0.839259731881723,0.543730726041686,0.));
#934=DIRECTION('',(0.,0.,-1.));
#935=DIRECTION('center_axis',(-0.995893206467704,-0.0905357460425185,0.));
#936=DIRECTION('ref_axis',(-0.0905357460425185,0.995893206467704,0.));
#937=DIRECTION('',(-0.0905357460425185,0.995893206467704,0.));
#938=DIRECTION('center_axis',(0.,0.,1.));
#939=DIRECTION('ref_axis',(1.,0.,0.));
#940=DIRECTION('center_axis',(0.,0.,1.));
#941=DIRECTION('ref_axis',(1.,0.,0.));
#942=DIRECTION('center_axis',(0.,0.,-1.));
#943=DIRECTION('ref_axis',(1.,0.,0.));
#944=DIRECTION('',(0.,0.,-1.));
#945=DIRECTION('center_axis',(0.,0.,1.));
#946=DIRECTION('ref_axis',(1.,0.,0.));
#947=DIRECTION('center_axis',(0.,0.,1.));
#948=DIRECTION('ref_axis',(1.,0.,0.));
#949=DIRECTION('center_axis',(0.,0.,1.));
#950=DIRECTION('ref_axis',(1.,0.,0.));
#951=DIRECTION('center_axis',(0.,0.,1.));
#952=DIRECTION('ref_axis',(1.,0.,0.));
#953=DIRECTION('center_axis',(0.,0.,1.));
#954=DIRECTION('ref_axis',(1.,0.,0.));
#955=DIRECTION('center_axis',(0.,0.,-1.));
#956=DIRECTION('ref_axis',(1.,0.,0.));
#957=DIRECTION('center_axis',(0.,0.,1.));
#958=DIRECTION('ref_axis',(1.,0.,0.));
#959=DIRECTION('center_axis',(0.,0.,1.));
#960=DIRECTION('ref_axis',(1.,0.,0.));
#961=DIRECTION('',(0.,0.,-1.));
#962=DIRECTION('center_axis',(0.,0.,-1.));
#963=DIRECTION('ref_axis',(1.,0.,0.));
#964=DIRECTION('center_axis',(0.,0.,1.));
#965=DIRECTION('ref_axis',(1.,0.,0.));
#966=DIRECTION('center_axis',(0.,0.,1.));
#967=DIRECTION('ref_axis',(1.,0.,0.));
#968=DIRECTION('',(0.,0.,-1.));
#969=DIRECTION('center_axis',(0.,0.,1.));
#970=DIRECTION('ref_axis',(1.,0.,0.));
#971=DIRECTION('center_axis',(0.,0.,1.));
#972=DIRECTION('ref_axis',(1.,0.,0.));
#973=DIRECTION('center_axis',(0.,0.,1.));
#974=DIRECTION('ref_axis',(1.,0.,0.));
#975=DIRECTION('',(0.,0.,-1.));
#976=DIRECTION('center_axis',(0.,0.,1.));
#977=DIRECTION('ref_axis',(1.,0.,0.));
#978=DIRECTION('center_axis',(0.,0.,1.));
#979=DIRECTION('ref_axis',(1.,0.,0.));
#980=DIRECTION('center_axis',(0.,0.,1.));
#981=DIRECTION('ref_axis',(1.,0.,0.));
#982=CARTESIAN_POINT('',(0.,0.,0.));
#983=CARTESIAN_POINT('Origin',(23.9683853868096,111.726892720625,114.));
#984=CARTESIAN_POINT('',(22.4683853868096,111.726892720625,119.));
#985=CARTESIAN_POINT('Origin',(23.9683853868096,111.726892720625,119.));
#986=CARTESIAN_POINT('',(22.4683853868096,111.726892720625,116.5));
#987=CARTESIAN_POINT('',(22.4683853868096,111.726892720625,114.));
#988=CARTESIAN_POINT('Origin',(23.9683853868096,111.726892720625,116.5));
#989=CARTESIAN_POINT('Origin',(81.8230393984613,109.652962819646,114.));
#990=CARTESIAN_POINT('',(80.3230393984613,109.652962819646,119.));
#991=CARTESIAN_POINT('Origin',(81.8230393984613,109.652962819646,119.));
#992=CARTESIAN_POINT('',(80.3230393984613,109.652962819646,116.5));
#993=CARTESIAN_POINT('',(80.3230393984613,109.652962819646,114.));
#994=CARTESIAN_POINT('Origin',(81.8230393984613,109.652962819646,116.5));
#995=CARTESIAN_POINT('Origin',(55.7577800750732,164.743156433105,114.));
#996=CARTESIAN_POINT('',(54.2577800750732,164.743156433105,119.));
#997=CARTESIAN_POINT('Origin',(55.7577800750732,164.743156433105,119.));
#998=CARTESIAN_POINT('',(54.2577800750732,164.743156433105,116.5));
#999=CARTESIAN_POINT('',(54.2577800750732,164.743156433105,114.));
#1000=CARTESIAN_POINT('Origin',(55.7577800750732,164.743156433105,116.5));
#1001=CARTESIAN_POINT('Origin',(51.9059124588121,132.88825365063,0.));
#1002=CARTESIAN_POINT('',(51.9059124588121,119.964994243183,119.));
#1003=CARTESIAN_POINT('',(51.9059124588121,132.88825365063,119.));
#1004=CARTESIAN_POINT('',(51.9059124588121,134.329999226567,119.));
#1005=CARTESIAN_POINT('',(51.9059124588121,119.964994243183,116.5));
#1006=CARTESIAN_POINT('',(51.9059124588121,119.964994243183,0.));
#1007=CARTESIAN_POINT('',(51.9059124588121,132.88825365063,116.5));
#1008=CARTESIAN_POINT('',(51.9059124588121,134.329999226567,116.5));
#1009=CARTESIAN_POINT('',(51.9059124588121,132.88825365063,0.));
#1010=CARTESIAN_POINT('Origin',(55.71344992704,126.426623946907,0.));
#1011=CARTESIAN_POINT('Origin',(55.71344992704,126.426623946907,119.));
#1012=CARTESIAN_POINT('Origin',(55.71344992704,126.426623946907,116.5));
#1013=CARTESIAN_POINT('Origin',(55.3635196530459,126.212696164018,119.));
#1014=CARTESIAN_POINT('',(45.7053079296181,116.101288927039,116.5));
#1015=CARTESIAN_POINT('',(45.7053079296181,116.101288927039,119.));
#1016=CARTESIAN_POINT('',(45.7053079296181,116.101288927039,119.));
#1017=CARTESIAN_POINT('',(64.0260458825325,115.236255514607,116.5));
#1018=CARTESIAN_POINT('Origin',(55.3635196530459,126.212696164018,116.5));
#1019=CARTESIAN_POINT('',(64.0260458825325,115.236255514607,119.));
#1020=CARTESIAN_POINT('',(64.0260458825325,115.236255514607,119.));
#1021=CARTESIAN_POINT('Origin',(55.3635196530459,126.212696164018,119.));
#1022=CARTESIAN_POINT('Origin',(55.3635196530459,126.212696164018,119.));
#1023=CARTESIAN_POINT('',(60.5739269924101,139.188568595747,119.));
#1024=CARTESIAN_POINT('',(60.5739269924101,139.188568595747,116.5));
#1025=CARTESIAN_POINT('',(60.5739269924101,139.188568595747,119.));
#1026=CARTESIAN_POINT('',(69.1413590596944,123.826747444704,119.));
#1027=CARTESIAN_POINT('Origin',(55.3635196530459,126.212696164018,119.));
#1028=CARTESIAN_POINT('',(69.1413590596944,123.826747444704,116.5));
#1029=CARTESIAN_POINT('',(69.1413590596944,123.826747444704,119.));
#1030=CARTESIAN_POINT('Origin',(55.3635196530459,126.212696164018,116.5));
#1031=CARTESIAN_POINT('Origin',(55.3635196530459,126.212696164018,119.));
#1032=CARTESIAN_POINT('',(50.5739269924101,139.349720642635,116.5));
#1033=CARTESIAN_POINT('',(50.5739269924101,139.349720642635,119.));
#1034=CARTESIAN_POINT('',(50.5739269924101,139.349720642635,119.));
#1035=CARTESIAN_POINT('',(41.4223379129332,125.133315927149,116.5));
#1036=CARTESIAN_POINT('Origin',(55.3635196530459,126.212696164018,116.5));
#1037=CARTESIAN_POINT('',(41.4223379129332,125.133315927149,119.));
#1038=CARTESIAN_POINT('',(41.4223379129332,125.133315927149,119.));
#1039=CARTESIAN_POINT('Origin',(55.3635196530459,126.212696164018,119.));
#1040=CARTESIAN_POINT('Origin',(50.5739269924101,134.937863862296,119.));
#1041=CARTESIAN_POINT('',(50.5739269924101,175.005930937994,119.));
#1042=CARTESIAN_POINT('',(50.5739269924101,175.005930937994,119.));
#1043=CARTESIAN_POINT('',(50.5739269924101,175.005930937994,116.5));
#1044=CARTESIAN_POINT('',(50.5739269924101,175.005930937994,119.));
#1045=CARTESIAN_POINT('',(50.5739269924101,175.005930937994,116.5));
#1046=CARTESIAN_POINT('Origin',(15.0000002235174,113.000001683831,119.));
#1047=CARTESIAN_POINT('',(15.0000002235174,113.000001683831,116.5));
#1048=CARTESIAN_POINT('',(45.8017305983992,127.144362348258,116.5));
#1049=CARTESIAN_POINT('',(15.0000002235174,113.000001683831,119.));
#1050=CARTESIAN_POINT('',(15.0000002235174,113.000001683831,119.));
#1051=CARTESIAN_POINT('',(45.8017305983992,127.144362348258,119.));
#1052=CARTESIAN_POINT('Origin',(65.8064064016918,125.988654285407,119.));
#1053=CARTESIAN_POINT('',(90.9526603164364,109.687415877756,119.));
#1054=CARTESIAN_POINT('',(90.9526603164364,109.687415877756,119.));
#1055=CARTESIAN_POINT('',(90.9526603164364,109.687415877756,116.5));
#1056=CARTESIAN_POINT('',(90.9526603164364,109.687415877756,119.));
#1057=CARTESIAN_POINT('',(90.9526603164364,109.687415877756,116.5));
#1058=CARTESIAN_POINT('Origin',(54.2498481989237,135.771744802503,119.));
#1059=CARTESIAN_POINT('',(5.59693602231729,115.422971460677,119.));
#1060=CARTESIAN_POINT('',(15.0000002235174,113.000001683831,119.));
#1061=CARTESIAN_POINT('',(18.0173943090208,94.1469754731234,119.));
#1062=CARTESIAN_POINT('Origin',(55.,130.,119.));
#1063=CARTESIAN_POINT('',(19.1731051687406,103.912361994883,119.));
#1064=CARTESIAN_POINT('',(19.1731051687406,103.912361994883,119.));
#1065=CARTESIAN_POINT('',(19.1731051687406,103.912361994883,119.));
#1066=CARTESIAN_POINT('',(86.0000012814999,101.000001505017,119.));
#1067=CARTESIAN_POINT('',(60.0396975008594,117.818888777569,119.));
#1068=CARTESIAN_POINT('',(87.000001296401,90.0000013411045,119.));
#1069=CARTESIAN_POINT('',(86.0000012814999,101.000001505017,119.));
#1070=CARTESIAN_POINT('',(92.4873789086328,94.6750949897973,119.));
#1071=CARTESIAN_POINT('Origin',(60.2001953544178,127.014139448951,119.));
#1072=CARTESIAN_POINT('',(102.870843066887,110.985929539292,119.));
#1073=CARTESIAN_POINT('Origin',(55.,130.,119.));
#1074=CARTESIAN_POINT('',(90.9526603164364,109.687415877756,119.));
#1075=CARTESIAN_POINT('',(60.5739269924101,175.005930937994,119.));
#1076=CARTESIAN_POINT('',(60.5739269924101,134.937863862296,119.));
#1077=CARTESIAN_POINT('',(64.4999985583127,180.599995963275,119.));
#1078=CARTESIAN_POINT('',(60.5739269924101,175.005930937994,119.));
#1079=CARTESIAN_POINT('',(62.1514206275058,181.009897808442,119.));
#1080=CARTESIAN_POINT('Origin',(54.9673480044365,132.914790264603,119.));
#1081=CARTESIAN_POINT('',(47.280623351953,180.927043067361,119.));
#1082=CARTESIAN_POINT('Origin',(55.,130.,119.));
#1083=CARTESIAN_POINT('',(50.5739269924101,175.005930937994,119.));
#1084=CARTESIAN_POINT('Origin',(90.9526603164364,109.687415877756,119.));
#1085=CARTESIAN_POINT('',(102.870843066887,110.985929539292,117.));
#1086=CARTESIAN_POINT('',(102.870843066887,110.985929539292,117.));
#1087=CARTESIAN_POINT('',(103.00000153482,111.000001654029,117.));
#1088=CARTESIAN_POINT('',(74.2807870148205,107.870976601832,117.));
#1089=CARTESIAN_POINT('',(103.00000153482,111.000001654029,116.5));
#1090=CARTESIAN_POINT('',(103.00000153482,111.000001654029,119.));
#1091=CARTESIAN_POINT('',(90.9526603164364,109.687415877756,116.5));
#1092=CARTESIAN_POINT('Origin',(50.5739269924101,175.005930937994,119.));
#1093=CARTESIAN_POINT('',(47.280623351953,180.927043067361,117.));
#1094=CARTESIAN_POINT('',(47.280623351953,180.927043067361,117.));
#1095=CARTESIAN_POINT('',(47.2780274049365,180.931710384756,117.));
#1096=CARTESIAN_POINT('',(60.6557552849332,156.879562310541,117.));
#1097=CARTESIAN_POINT('',(47.2780274049365,180.931710384756,116.5));
#1098=CARTESIAN_POINT('',(47.2780274049365,180.931710384756,119.));
#1099=CARTESIAN_POINT('',(50.5739269924101,175.005930937994,116.5));
#1100=CARTESIAN_POINT('Origin',(19.1731051687406,103.912361994883,119.));
#1101=CARTESIAN_POINT('',(18.0173943090208,94.1469754731234,117.));
#1102=CARTESIAN_POINT('',(18.0173943090208,94.1469754731234,117.));
#1103=CARTESIAN_POINT('',(18.0000002682209,94.0000014007092,117.));
#1104=CARTESIAN_POINT('',(20.9429214183452,118.866742326715,117.));
#1105=CARTESIAN_POINT('',(18.0000002682209,94.0000014007092,116.5));
#1106=CARTESIAN_POINT('',(18.0000002682209,94.0000014007092,119.));
#1107=CARTESIAN_POINT('',(19.1731051687406,103.912361994883,116.5));
#1108=CARTESIAN_POINT('',(19.1731051687406,103.912361994883,116.5));
#1109=CARTESIAN_POINT('',(19.1731051687406,103.912361994883,119.));
#1110=CARTESIAN_POINT('Origin',(54.6460773884098,129.724728157364,119.));
#1111=CARTESIAN_POINT('',(5.49969486302783,115.448028440506,117.));
#1112=CARTESIAN_POINT('Origin',(54.6460773884098,129.724728157364,117.));
#1113=CARTESIAN_POINT('',(5.49969486302782,115.448028440506,116.5));
#1114=CARTESIAN_POINT('',(5.49969486302783,115.448028440506,119.));
#1115=CARTESIAN_POINT('Origin',(54.6460773884098,129.724728157364,116.5));
#1116=CARTESIAN_POINT('Origin',(60.2001953544178,127.014139448951,119.));
#1117=CARTESIAN_POINT('',(92.4873789086328,94.6750949897972,117.));
#1118=CARTESIAN_POINT('',(92.4873789086328,94.6750949897973,119.));
#1119=CARTESIAN_POINT('',(87.000001296401,90.0000013411045,116.5));
#1120=CARTESIAN_POINT('',(87.000001296401,90.0000013411045,119.));
#1121=CARTESIAN_POINT('Origin',(60.2001953544178,127.014139448951,116.5));
#1122=CARTESIAN_POINT('Origin',(60.2001953544178,127.014139448951,117.));
#1123=CARTESIAN_POINT('Origin',(60.5739269924101,175.005930937994,119.));
#1124=CARTESIAN_POINT('',(60.5739269924101,175.005930937994,116.5));
#1125=CARTESIAN_POINT('',(60.5739269924101,134.937863862296,116.5));
#1126=CARTESIAN_POINT('',(60.5739269924101,175.005930937994,119.));
#1127=CARTESIAN_POINT('Origin',(64.4999985583127,180.599995963275,119.));
#1128=CARTESIAN_POINT('',(64.4999985583127,180.599995963275,116.5));
#1129=CARTESIAN_POINT('',(60.5739269924101,175.005930937994,116.5));
#1130=CARTESIAN_POINT('',(64.4999985583127,180.599995963275,119.));
#1131=CARTESIAN_POINT('Origin',(54.9673480044365,132.914790264603,119.));
#1132=CARTESIAN_POINT('',(62.1514206275057,181.009897808442,117.));
#1133=CARTESIAN_POINT('',(62.1514206275058,181.009897808442,119.));
#1134=CARTESIAN_POINT('Origin',(54.9673480044365,132.914790264603,116.5));
#1135=CARTESIAN_POINT('Origin',(54.9673480044365,132.914790264603,117.));
#1136=CARTESIAN_POINT('Origin',(5.49969486302783,115.448028440506,119.));
#1137=CARTESIAN_POINT('',(5.59693602231729,115.422971460677,117.));
#1138=CARTESIAN_POINT('',(5.59693602231729,115.422971460677,117.));
#1139=CARTESIAN_POINT('',(15.0000002235174,113.000001683831,116.5));
#1140=CARTESIAN_POINT('',(26.9506714174715,109.920567735877,117.));
#1141=CARTESIAN_POINT('Origin',(50.2738665533988,118.200090438259,119.));
#1142=CARTESIAN_POINT('',(19.1731051687406,103.912361994883,116.5));
#1143=CARTESIAN_POINT('Origin',(86.0000012814999,101.000001505017,119.));
#1144=CARTESIAN_POINT('',(86.0000012814999,101.000001505017,116.5));
#1145=CARTESIAN_POINT('',(60.0396975008594,117.818888777569,116.5));
#1146=CARTESIAN_POINT('',(86.0000012814999,101.000001505017,119.));
#1147=CARTESIAN_POINT('Origin',(87.000001296401,90.0000013411045,119.));
#1148=CARTESIAN_POINT('',(86.0000012814999,101.000001505017,116.5));
#1149=CARTESIAN_POINT('Origin',(54.2498481989237,135.771744802503,116.5));
#1150=CARTESIAN_POINT('Origin',(55.,130.,117.));
#1151=CARTESIAN_POINT('',(3.49123869263348,130.,119.5));
#1152=CARTESIAN_POINT('Origin',(55.,130.,119.5));
#1153=CARTESIAN_POINT('',(3.49123869263348,130.,117.));
#1154=CARTESIAN_POINT('',(3.49123869263348,130.,117.));
#1155=CARTESIAN_POINT('Origin',(55.,130.,117.));
#1156=CARTESIAN_POINT('Origin',(55.,130.,117.));
#1157=CARTESIAN_POINT('Origin',(55.,130.,117.));
#1158=CARTESIAN_POINT('Origin',(55.,130.,117.));
#1159=CARTESIAN_POINT('Origin',(55.,130.,117.));
#1160=CARTESIAN_POINT('',(1.90377130721263,130.,117.));
#1161=CARTESIAN_POINT('Origin',(55.,130.,117.));
#1162=CARTESIAN_POINT('Origin',(55.,130.,117.));
#1163=CARTESIAN_POINT('',(0.452140165806902,130.,119.5));
#1164=CARTESIAN_POINT('Origin',(55.,130.,119.5));
#1165=CARTESIAN_POINT('',(0.452140165806902,130.,117.));
#1166=CARTESIAN_POINT('',(0.452140165806902,130.,117.));
#1167=CARTESIAN_POINT('Origin',(55.,130.,117.));
#1168=CARTESIAN_POINT('Origin',(55.,130.,119.5));
#1169=CARTESIAN_POINT('Origin',(55.,130.,110.));
#1170=CARTESIAN_POINT('',(1.90377130721263,130.,110.));
#1171=CARTESIAN_POINT('',(1.90377130721263,130.,110.));
#1172=CARTESIAN_POINT('Origin',(55.,130.,110.));
#1173=CARTESIAN_POINT('Origin',(55.,130.,110.));
#1174=CARTESIAN_POINT('',(-2.94393672651353,130.,117.));
#1175=CARTESIAN_POINT('Origin',(55.,130.,117.));
#1176=CARTESIAN_POINT('',(-2.94393672651353,130.,110.));
#1177=CARTESIAN_POINT('',(-2.94393672651353,130.,110.));
#1178=CARTESIAN_POINT('Origin',(55.,130.,110.));
#1179=CARTESIAN_POINT('Origin',(55.,130.,117.));
#1180=CARTESIAN_POINT('Origin',(55.,130.,110.));
#1181=UNCERTAINTY_MEASURE_WITH_UNIT(LENGTH_MEASURE(0.01),#1185,
'DISTANCE_ACCURACY_VALUE',
'Maximum model space distance between geometric entities at asserted c
onnectivities');
#1182=UNCERTAINTY_MEASURE_WITH_UNIT(LENGTH_MEASURE(0.01),#1185,
'DISTANCE_ACCURACY_VALUE',
'Maximum model space distance between geometric entities at asserted c
onnectivities');
#1183=(
GEOMETRIC_REPRESENTATION_CONTEXT(3)
GLOBAL_UNCERTAINTY_ASSIGNED_CONTEXT((#1181))
GLOBAL_UNIT_ASSIGNED_CONTEXT((#1185,#1187,#1188))
REPRESENTATION_CONTEXT('','3D')
);
#1184=(
GEOMETRIC_REPRESENTATION_CONTEXT(3)
GLOBAL_UNCERTAINTY_ASSIGNED_CONTEXT((#1182))
GLOBAL_UNIT_ASSIGNED_CONTEXT((#1185,#1187,#1188))
REPRESENTATION_CONTEXT('','3D')
);
#1185=(
LENGTH_UNIT()
NAMED_UNIT(*)
SI_UNIT(.MILLI.,.METRE.)
);
#1186=(
LENGTH_UNIT()
NAMED_UNIT(*)
SI_UNIT($,.METRE.)
);
#1187=(
NAMED_UNIT(*)
PLANE_ANGLE_UNIT()
SI_UNIT($,.RADIAN.)
);
#1188=(
NAMED_UNIT(*)
SI_UNIT($,.STERADIAN.)
SOLID_ANGLE_UNIT()
);
#1189=SHAPE_DEFINITION_REPRESENTATION(#1190,#1191);
#1190=PRODUCT_DEFINITION_SHAPE('',$,#1193);
#1191=SHAPE_REPRESENTATION('',(#709),#1183);
#1192=PRODUCT_DEFINITION_CONTEXT('part definition',#1197,'design');
#1193=PRODUCT_DEFINITION('base_rotor','base_rotor',#1194,#1192);
#1194=PRODUCT_DEFINITION_FORMATION('',$,#1199);
#1195=PRODUCT_RELATED_PRODUCT_CATEGORY('base_rotor','base_rotor',(#1199));
#1196=APPLICATION_PROTOCOL_DEFINITION('international standard',
'automotive_design',2009,#1197);
#1197=APPLICATION_CONTEXT(
'Core Data for Automotive Mechanical Design Process');
#1198=PRODUCT_CONTEXT('part definition',#1197,'mechanical');
#1199=PRODUCT('base_rotor','base_rotor',$,(#1198));
#1200=PRESENTATION_STYLE_ASSIGNMENT((#1201));
#1201=SURFACE_STYLE_USAGE(.BOTH.,#1202);
#1202=SURFACE_SIDE_STYLE('',(#1203));
#1203=SURFACE_STYLE_FILL_AREA(#1204);
#1204=FILL_AREA_STYLE('Steel - Satin',(#1205));
#1205=FILL_AREA_STYLE_COLOUR('Steel - Satin',#1206);
#1206=COLOUR_RGB('Steel - Satin',0.627450980392157,0.627450980392157,0.627450980392157);
ENDSEC;
END-ISO-10303-21;
