ISO-10303-21;
HEADER;
/* Generated by software containing ST-Developer
 * from STEP Tools, Inc. (www.steptools.com) 
 */

FILE_DESCRIPTION(
/* description */ (''),
/* implementation_level */ '2;1');

FILE_NAME(
/* name */ 'base_mount.step',
/* time_stamp */ '2026-08-20T17:24:31+05:30',
/* author */ (''),
/* organization */ (''),
/* preprocessor_version */ 'ST-DEVELOPER v20.1',
/* originating_system */ 'Autodesk Translation Framework v15.8.0.0',
/* authorisation */ '');

FILE_SCHEMA (('AUTOMOTIVE_DESIGN { 1 0 10303 214 3 1 1 }'));
ENDSEC;

DATA;
#10=MECHANICAL_DESIGN_GEOMETRIC_PRESENTATION_REPRESENTATION('',(#13,#14,
#15),#1651);
#11=SHAPE_REPRESENTATION_RELATIONSHIP('SRR','None',#1658,#12);
#12=ADVANCED_BREP_SHAPE_REPRESENTATION('',(#16,#17,#18),#1650);
#13=STYLED_ITEM('',(#1667),#16);
#14=STYLED_ITEM('',(#1667),#17);
#15=STYLED_ITEM('',(#1667),#18);
#16=MANIFOLD_SOLID_BREP('Body1',#978);
#17=MANIFOLD_SOLID_BREP('Body2',#979);
#18=MANIFOLD_SOLID_BREP('Body3',#980);
#19=FACE_BOUND('',#138,.T.);
#20=FACE_BOUND('',#140,.T.);
#21=FACE_BOUND('',#141,.T.);
#22=FACE_BOUND('',#142,.T.);
#23=FACE_BOUND('',#143,.T.);
#24=FACE_BOUND('',#155,.T.);
#25=FACE_BOUND('',#156,.T.);
#26=FACE_BOUND('',#157,.T.);
#27=FACE_BOUND('',#158,.T.);
#28=FACE_BOUND('',#159,.T.);
#29=FACE_BOUND('',#169,.T.);
#30=FACE_BOUND('',#170,.T.);
#31=FACE_BOUND('',#171,.T.);
#32=FACE_BOUND('',#172,.T.);
#33=FACE_BOUND('',#173,.T.);
#34=FACE_BOUND('',#176,.T.);
#35=FACE_BOUND('',#177,.T.);
#36=FACE_BOUND('',#178,.T.);
#37=FACE_BOUND('',#179,.T.);
#38=FACE_BOUND('',#180,.T.);
#39=FACE_BOUND('',#193,.T.);
#40=FACE_BOUND('',#194,.T.);
#41=FACE_BOUND('',#195,.T.);
#42=FACE_BOUND('',#196,.T.);
#43=FACE_BOUND('',#197,.T.);
#44=CONICAL_SURFACE('',#1009,56.2741271540422,0.78539816339745);
#45=PLANE('',#1000);
#46=PLANE('',#1004);
#47=PLANE('',#1008);
#48=PLANE('',#1014);
#49=PLANE('',#1015);
#50=PLANE('',#1028);
#51=PLANE('',#1029);
#52=PLANE('',#1030);
#53=PLANE('',#1031);
#54=PLANE('',#1035);
#55=PLANE('',#1036);
#56=PLANE('',#1042);
#57=PLANE('',#1043);
#58=PLANE('',#1046);
#59=PLANE('',#1047);
#60=PLANE('',#1048);
#61=PLANE('',#1051);
#62=PLANE('',#1055);
#63=PLANE('',#1064);
#64=PLANE('',#1065);
#65=PLANE('',#1074);
#66=PLANE('',#1075);
#67=PLANE('',#1076);
#68=PLANE('',#1079);
#69=PLANE('',#1080);
#70=PLANE('',#1085);
#71=PLANE('',#1086);
#72=PLANE('',#1088);
#73=PLANE('',#1089);
#74=PLANE('',#1090);
#75=FACE_OUTER_BOUND('',#128,.T.);
#76=FACE_OUTER_BOUND('',#129,.T.);
#77=FACE_OUTER_BOUND('',#130,.T.);
#78=FACE_OUTER_BOUND('',#131,.T.);
#79=FACE_OUTER_BOUND('',#132,.T.);
#80=FACE_OUTER_BOUND('',#133,.T.);
#81=FACE_OUTER_BOUND('',#134,.T.);
#82=FACE_OUTER_BOUND('',#135,.T.);
#83=FACE_OUTER_BOUND('',#136,.T.);
#84=FACE_OUTER_BOUND('',#137,.T.);
#85=FACE_OUTER_BOUND('',#139,.T.);
#86=FACE_OUTER_BOUND('',#144,.T.);
#87=FACE_OUTER_BOUND('',#145,.T.);
#88=FACE_OUTER_BOUND('',#146,.T.);
#89=FACE_OUTER_BOUND('',#147,.T.);
#90=FACE_OUTER_BOUND('',#148,.T.);
#91=FACE_OUTER_BOUND('',#149,.T.);
#92=FACE_OUTER_BOUND('',#150,.T.);
#93=FACE_OUTER_BOUND('',#151,.T.);
#94=FACE_OUTER_BOUND('',#152,.T.);
#95=FACE_OUTER_BOUND('',#153,.T.);
#96=FACE_OUTER_BOUND('',#154,.T.);
#97=FACE_OUTER_BOUND('',#160,.T.);
#98=FACE_OUTER_BOUND('',#161,.T.);
#99=FACE_OUTER_BOUND('',#162,.T.);
#100=FACE_OUTER_BOUND('',#163,.T.);
#101=FACE_OUTER_BOUND('',#164,.T.);
#102=FACE_OUTER_BOUND('',#165,.T.);
#103=FACE_OUTER_BOUND('',#166,.T.);
#104=FACE_OUTER_BOUND('',#167,.T.);
#105=FACE_OUTER_BOUND('',#168,.T.);
#106=FACE_OUTER_BOUND('',#174,.T.);
#107=FACE_OUTER_BOUND('',#175,.T.);
#108=FACE_OUTER_BOUND('',#181,.T.);
#109=FACE_OUTER_BOUND('',#182,.T.);
#110=FACE_OUTER_BOUND('',#183,.T.);
#111=FACE_OUTER_BOUND('',#184,.T.);
#112=FACE_OUTER_BOUND('',#185,.T.);
#113=FACE_OUTER_BOUND('',#186,.T.);
#114=FACE_OUTER_BOUND('',#187,.T.);
#115=FACE_OUTER_BOUND('',#188,.T.);
#116=FACE_OUTER_BOUND('',#189,.T.);
#117=FACE_OUTER_BOUND('',#190,.T.);
#118=FACE_OUTER_BOUND('',#191,.T.);
#119=FACE_OUTER_BOUND('',#192,.T.);
#120=FACE_OUTER_BOUND('',#198,.T.);
#121=FACE_OUTER_BOUND('',#199,.T.);
#122=FACE_OUTER_BOUND('',#200,.T.);
#123=FACE_OUTER_BOUND('',#201,.T.);
#124=FACE_OUTER_BOUND('',#202,.T.);
#125=FACE_OUTER_BOUND('',#203,.T.);
#126=FACE_OUTER_BOUND('',#204,.T.);
#127=FACE_OUTER_BOUND('',#205,.T.);
#128=EDGE_LOOP('',(#641,#642,#643,#644));
#129=EDGE_LOOP('',(#645,#646,#647,#648));
#130=EDGE_LOOP('',(#649));
#131=EDGE_LOOP('',(#650,#651,#652,#653));
#132=EDGE_LOOP('',(#654));
#133=EDGE_LOOP('',(#655,#656,#657,#658));
#134=EDGE_LOOP('',(#659));
#135=EDGE_LOOP('',(#660,#661,#662,#663));
#136=EDGE_LOOP('',(#664,#665,#666,#667));
#137=EDGE_LOOP('',(#668));
#138=EDGE_LOOP('',(#669));
#139=EDGE_LOOP('',(#670));
#140=EDGE_LOOP('',(#671));
#141=EDGE_LOOP('',(#672));
#142=EDGE_LOOP('',(#673));
#143=EDGE_LOOP('',(#674));
#144=EDGE_LOOP('',(#675,#676,#677,#678));
#145=EDGE_LOOP('',(#679,#680,#681,#682));
#146=EDGE_LOOP('',(#683,#684,#685,#686));
#147=EDGE_LOOP('',(#687,#688,#689,#690));
#148=EDGE_LOOP('',(#691,#692,#693,#694));
#149=EDGE_LOOP('',(#695,#696,#697,#698));
#150=EDGE_LOOP('',(#699,#700,#701,#702));
#151=EDGE_LOOP('',(#703,#704,#705,#706));
#152=EDGE_LOOP('',(#707,#708,#709,#710));
#153=EDGE_LOOP('',(#711,#712,#713,#714));
#154=EDGE_LOOP('',(#715,#716,#717,#718,#719,#720,#721,#722,#723,#724));
#155=EDGE_LOOP('',(#725,#726,#727,#728));
#156=EDGE_LOOP('',(#729));
#157=EDGE_LOOP('',(#730));
#158=EDGE_LOOP('',(#731));
#159=EDGE_LOOP('',(#732));
#160=EDGE_LOOP('',(#733,#734,#735,#736));
#161=EDGE_LOOP('',(#737,#738,#739,#740));
#162=EDGE_LOOP('',(#741,#742,#743,#744));
#163=EDGE_LOOP('',(#745,#746,#747,#748));
#164=EDGE_LOOP('',(#749,#750,#751,#752));
#165=EDGE_LOOP('',(#753,#754,#755,#756));
#166=EDGE_LOOP('',(#757,#758,#759,#760));
#167=EDGE_LOOP('',(#761,#762,#763,#764));
#168=EDGE_LOOP('',(#765,#766,#767,#768,#769,#770,#771,#772,#773,#774));
#169=EDGE_LOOP('',(#775,#776,#777,#778));
#170=EDGE_LOOP('',(#779));
#171=EDGE_LOOP('',(#780));
#172=EDGE_LOOP('',(#781));
#173=EDGE_LOOP('',(#782));
#174=EDGE_LOOP('',(#783,#784,#785,#786));
#175=EDGE_LOOP('',(#787,#788,#789,#790,#791,#792,#793,#794,#795,#796));
#176=EDGE_LOOP('',(#797));
#177=EDGE_LOOP('',(#798));
#178=EDGE_LOOP('',(#799));
#179=EDGE_LOOP('',(#800));
#180=EDGE_LOOP('',(#801,#802,#803,#804,#805,#806));
#181=EDGE_LOOP('',(#807,#808,#809,#810));
#182=EDGE_LOOP('',(#811,#812,#813,#814));
#183=EDGE_LOOP('',(#815,#816,#817,#818));
#184=EDGE_LOOP('',(#819,#820,#821,#822));
#185=EDGE_LOOP('',(#823,#824,#825,#826));
#186=EDGE_LOOP('',(#827,#828,#829,#830));
#187=EDGE_LOOP('',(#831,#832,#833,#834));
#188=EDGE_LOOP('',(#835,#836,#837,#838));
#189=EDGE_LOOP('',(#839,#840,#841,#842));
#190=EDGE_LOOP('',(#843,#844,#845,#846));
#191=EDGE_LOOP('',(#847,#848,#849,#850));
#192=EDGE_LOOP('',(#851,#852,#853,#854,#855,#856,#857,#858,#859,#860));
#193=EDGE_LOOP('',(#861,#862,#863,#864,#865,#866));
#194=EDGE_LOOP('',(#867));
#195=EDGE_LOOP('',(#868));
#196=EDGE_LOOP('',(#869));
#197=EDGE_LOOP('',(#870));
#198=EDGE_LOOP('',(#871,#872,#873,#874));
#199=EDGE_LOOP('',(#875,#876,#877,#878));
#200=EDGE_LOOP('',(#879,#880,#881,#882));
#201=EDGE_LOOP('',(#883,#884,#885,#886));
#202=EDGE_LOOP('',(#887,#888,#889,#890));
#203=EDGE_LOOP('',(#891,#892,#893,#894));
#204=EDGE_LOOP('',(#895,#896,#897,#898));
#205=EDGE_LOOP('',(#899,#900,#901,#902));
#206=LINE('',#1381,#292);
#207=LINE('',#1387,#293);
#208=LINE('',#1394,#294);
#209=LINE('',#1401,#295);
#210=LINE('',#1408,#296);
#211=LINE('',#1412,#297);
#212=LINE('',#1420,#298);
#213=LINE('',#1426,#299);
#214=LINE('',#1432,#300);
#215=LINE('',#1438,#301);
#216=LINE('',#1443,#302);
#217=LINE('',#1445,#303);
#218=LINE('',#1447,#304);
#219=LINE('',#1448,#305);
#220=LINE('',#1451,#306);
#221=LINE('',#1453,#307);
#222=LINE('',#1454,#308);
#223=LINE('',#1457,#309);
#224=LINE('',#1459,#310);
#225=LINE('',#1460,#311);
#226=LINE('',#1462,#312);
#227=LINE('',#1463,#313);
#228=LINE('',#1469,#314);
#229=LINE('',#1472,#315);
#230=LINE('',#1475,#316);
#231=LINE('',#1477,#317);
#232=LINE('',#1478,#318);
#233=LINE('',#1481,#319);
#234=LINE('',#1485,#320);
#235=LINE('',#1489,#321);
#236=LINE('',#1491,#322);
#237=LINE('',#1493,#323);
#238=LINE('',#1499,#324);
#239=LINE('',#1500,#325);
#240=LINE('',#1503,#326);
#241=LINE('',#1504,#327);
#242=LINE('',#1506,#328);
#243=LINE('',#1510,#329);
#244=LINE('',#1513,#330);
#245=LINE('',#1514,#331);
#246=LINE('',#1517,#332);
#247=LINE('',#1518,#333);
#248=LINE('',#1521,#334);
#249=LINE('',#1522,#335);
#250=LINE('',#1529,#336);
#251=LINE('',#1533,#337);
#252=LINE('',#1540,#338);
#253=LINE('',#1544,#339);
#254=LINE('',#1546,#340);
#255=LINE('',#1548,#341);
#256=LINE('',#1552,#342);
#257=LINE('',#1555,#343);
#258=LINE('',#1565,#344);
#259=LINE('',#1567,#345);
#260=LINE('',#1569,#346);
#261=LINE('',#1571,#347);
#262=LINE('',#1572,#348);
#263=LINE('',#1575,#349);
#264=LINE('',#1576,#350);
#265=LINE('',#1579,#351);
#266=LINE('',#1580,#352);
#267=LINE('',#1584,#353);
#268=LINE('',#1588,#354);
#269=LINE('',#1592,#355);
#270=LINE('',#1596,#356);
#271=LINE('',#1599,#357);
#272=LINE('',#1600,#358);
#273=LINE('',#1603,#359);
#274=LINE('',#1604,#360);
#275=LINE('',#1606,#361);
#276=LINE('',#1609,#362);
#277=LINE('',#1612,#363);
#278=LINE('',#1615,#364);
#279=LINE('',#1616,#365);
#280=LINE('',#1619,#366);
#281=LINE('',#1623,#367);
#282=LINE('',#1627,#368);
#283=LINE('',#1629,#369);
#284=LINE('',#1631,#370);
#285=LINE('',#1634,#371);
#286=LINE('',#1635,#372);
#287=LINE('',#1637,#373);
#288=LINE('',#1640,#374);
#289=LINE('',#1642,#375);
#290=LINE('',#1644,#376);
#291=LINE('',#1646,#377);
#292=VECTOR('',#1098,2.);
#293=VECTOR('',#1105,1.5);
#294=VECTOR('',#1114,1.5);
#295=VECTOR('',#1123,1.49999999999999);
#296=VECTOR('',#1132,56.2741271540422);
#297=VECTOR('',#1137,57.7741271540422);
#298=VECTOR('',#1148,1.5);
#299=VECTOR('',#1155,1.5);
#300=VECTOR('',#1162,1.49999999999999);
#301=VECTOR('',#1169,1.5);
#302=VECTOR('',#1174,10.);
#303=VECTOR('',#1175,10.);
#304=VECTOR('',#1176,10.);
#305=VECTOR('',#1177,10.);
#306=VECTOR('',#1180,10.);
#307=VECTOR('',#1181,10.);
#308=VECTOR('',#1182,10.);
#309=VECTOR('',#1185,10.);
#310=VECTOR('',#1186,10.);
#311=VECTOR('',#1187,10.);
#312=VECTOR('',#1190,10.);
#313=VECTOR('',#1191,10.);
#314=VECTOR('',#1196,10.);
#315=VECTOR('',#1199,10.);
#316=VECTOR('',#1202,10.);
#317=VECTOR('',#1203,10.);
#318=VECTOR('',#1204,10.);
#319=VECTOR('',#1207,10.);
#320=VECTOR('',#1210,10.);
#321=VECTOR('',#1213,10.);
#322=VECTOR('',#1214,10.);
#323=VECTOR('',#1215,10.);
#324=VECTOR('',#1222,10.);
#325=VECTOR('',#1223,10.);
#326=VECTOR('',#1226,10.);
#327=VECTOR('',#1227,10.);
#328=VECTOR('',#1230,10.);
#329=VECTOR('',#1235,10.);
#330=VECTOR('',#1238,10.);
#331=VECTOR('',#1239,10.);
#332=VECTOR('',#1242,10.);
#333=VECTOR('',#1243,10.);
#334=VECTOR('',#1246,10.);
#335=VECTOR('',#1247,10.);
#336=VECTOR('',#1256,10.);
#337=VECTOR('',#1259,10.);
#338=VECTOR('',#1266,10.);
#339=VECTOR('',#1269,10.);
#340=VECTOR('',#1270,10.);
#341=VECTOR('',#1271,10.);
#342=VECTOR('',#1274,10.);
#343=VECTOR('',#1277,10.);
#344=VECTOR('',#1286,10.);
#345=VECTOR('',#1287,10.);
#346=VECTOR('',#1288,10.);
#347=VECTOR('',#1289,10.);
#348=VECTOR('',#1290,10.);
#349=VECTOR('',#1293,10.);
#350=VECTOR('',#1294,10.);
#351=VECTOR('',#1297,10.);
#352=VECTOR('',#1298,10.);
#353=VECTOR('',#1303,1.5);
#354=VECTOR('',#1308,1.5);
#355=VECTOR('',#1313,1.49999999999999);
#356=VECTOR('',#1318,1.5);
#357=VECTOR('',#1321,10.);
#358=VECTOR('',#1322,10.);
#359=VECTOR('',#1325,10.);
#360=VECTOR('',#1326,10.);
#361=VECTOR('',#1329,10.);
#362=VECTOR('',#1332,10.);
#363=VECTOR('',#1335,10.);
#364=VECTOR('',#1338,10.);
#365=VECTOR('',#1339,10.);
#366=VECTOR('',#1342,10.);
#367=VECTOR('',#1345,10.);
#368=VECTOR('',#1348,10.);
#369=VECTOR('',#1349,10.);
#370=VECTOR('',#1350,10.);
#371=VECTOR('',#1355,10.);
#372=VECTOR('',#1356,10.);
#373=VECTOR('',#1359,10.);
#374=VECTOR('',#1364,10.);
#375=VECTOR('',#1367,10.);
#376=VECTOR('',#1370,10.);
#377=VECTOR('',#1373,10.);
#378=CIRCLE('',#995,2.);
#379=CIRCLE('',#996,2.);
#380=CIRCLE('',#998,1.5);
#381=CIRCLE('',#999,1.5);
#382=CIRCLE('',#1002,1.5);
#383=CIRCLE('',#1003,1.5);
#384=CIRCLE('',#1006,1.49999999999999);
#385=CIRCLE('',#1007,1.49999999999999);
#386=CIRCLE('',#1010,54.7741271540422);
#387=CIRCLE('',#1011,57.7741271540422);
#388=CIRCLE('',#1013,57.7741271540422);
#389=CIRCLE('',#1017,1.5);
#390=CIRCLE('',#1018,1.5);
#391=CIRCLE('',#1020,1.5);
#392=CIRCLE('',#1021,1.5);
#393=CIRCLE('',#1023,1.49999999999999);
#394=CIRCLE('',#1024,1.49999999999999);
#395=CIRCLE('',#1026,1.5);
#396=CIRCLE('',#1027,1.5);
#397=CIRCLE('',#1033,10.);
#398=CIRCLE('',#1034,10.);
#399=CIRCLE('',#1037,10.);
#400=CIRCLE('',#1038,9.7616068211242);
#401=CIRCLE('',#1039,10.2052496170805);
#402=CIRCLE('',#1041,10.);
#403=CIRCLE('',#1045,9.7616068211242);
#404=CIRCLE('',#1050,10.2052496170805);
#405=CIRCLE('',#1053,7.5);
#406=CIRCLE('',#1054,7.5);
#407=CIRCLE('',#1056,10.);
#408=CIRCLE('',#1057,10.2052496170805);
#409=CIRCLE('',#1058,9.7616068211242);
#410=CIRCLE('',#1059,10.);
#411=CIRCLE('',#1060,1.5);
#412=CIRCLE('',#1061,1.5);
#413=CIRCLE('',#1062,1.49999999999999);
#414=CIRCLE('',#1063,1.5);
#415=CIRCLE('',#1067,1.5);
#416=CIRCLE('',#1069,1.5);
#417=CIRCLE('',#1071,1.49999999999999);
#418=CIRCLE('',#1073,1.5);
#419=CIRCLE('',#1078,10.);
#420=CIRCLE('',#1081,10.);
#421=CIRCLE('',#1082,9.7616068211242);
#422=CIRCLE('',#1083,10.2052496170805);
#423=VERTEX_POINT('',#1378);
#424=VERTEX_POINT('',#1380);
#425=VERTEX_POINT('',#1384);
#426=VERTEX_POINT('',#1386);
#427=VERTEX_POINT('',#1391);
#428=VERTEX_POINT('',#1393);
#429=VERTEX_POINT('',#1398);
#430=VERTEX_POINT('',#1400);
#431=VERTEX_POINT('',#1405);
#432=VERTEX_POINT('',#1407);
#433=VERTEX_POINT('',#1411);
#434=VERTEX_POINT('',#1417);
#435=VERTEX_POINT('',#1419);
#436=VERTEX_POINT('',#1423);
#437=VERTEX_POINT('',#1425);
#438=VERTEX_POINT('',#1429);
#439=VERTEX_POINT('',#1431);
#440=VERTEX_POINT('',#1435);
#441=VERTEX_POINT('',#1437);
#442=VERTEX_POINT('',#1441);
#443=VERTEX_POINT('',#1442);
#444=VERTEX_POINT('',#1444);
#445=VERTEX_POINT('',#1446);
#446=VERTEX_POINT('',#1450);
#447=VERTEX_POINT('',#1452);
#448=VERTEX_POINT('',#1456);
#449=VERTEX_POINT('',#1458);
#450=VERTEX_POINT('',#1465);
#451=VERTEX_POINT('',#1466);
#452=VERTEX_POINT('',#1468);
#453=VERTEX_POINT('',#1470);
#454=VERTEX_POINT('',#1474);
#455=VERTEX_POINT('',#1476);
#456=VERTEX_POINT('',#1480);
#457=VERTEX_POINT('',#1482);
#458=VERTEX_POINT('',#1484);
#459=VERTEX_POINT('',#1486);
#460=VERTEX_POINT('',#1488);
#461=VERTEX_POINT('',#1490);
#462=VERTEX_POINT('',#1492);
#463=VERTEX_POINT('',#1496);
#464=VERTEX_POINT('',#1497);
#465=VERTEX_POINT('',#1502);
#466=VERTEX_POINT('',#1508);
#467=VERTEX_POINT('',#1512);
#468=VERTEX_POINT('',#1516);
#469=VERTEX_POINT('',#1520);
#470=VERTEX_POINT('',#1527);
#471=VERTEX_POINT('',#1528);
#472=VERTEX_POINT('',#1530);
#473=VERTEX_POINT('',#1532);
#474=VERTEX_POINT('',#1536);
#475=VERTEX_POINT('',#1537);
#476=VERTEX_POINT('',#1539);
#477=VERTEX_POINT('',#1541);
#478=VERTEX_POINT('',#1543);
#479=VERTEX_POINT('',#1545);
#480=VERTEX_POINT('',#1547);
#481=VERTEX_POINT('',#1549);
#482=VERTEX_POINT('',#1551);
#483=VERTEX_POINT('',#1553);
#484=VERTEX_POINT('',#1556);
#485=VERTEX_POINT('',#1558);
#486=VERTEX_POINT('',#1560);
#487=VERTEX_POINT('',#1562);
#488=VERTEX_POINT('',#1564);
#489=VERTEX_POINT('',#1566);
#490=VERTEX_POINT('',#1568);
#491=VERTEX_POINT('',#1570);
#492=VERTEX_POINT('',#1574);
#493=VERTEX_POINT('',#1578);
#494=VERTEX_POINT('',#1582);
#495=VERTEX_POINT('',#1586);
#496=VERTEX_POINT('',#1590);
#497=VERTEX_POINT('',#1594);
#498=VERTEX_POINT('',#1598);
#499=VERTEX_POINT('',#1602);
#500=VERTEX_POINT('',#1608);
#501=VERTEX_POINT('',#1610);
#502=VERTEX_POINT('',#1614);
#503=VERTEX_POINT('',#1618);
#504=VERTEX_POINT('',#1620);
#505=VERTEX_POINT('',#1622);
#506=VERTEX_POINT('',#1624);
#507=VERTEX_POINT('',#1626);
#508=VERTEX_POINT('',#1628);
#509=VERTEX_POINT('',#1630);
#510=EDGE_CURVE('',#423,#423,#378,.T.);
#511=EDGE_CURVE('',#423,#424,#206,.T.);
#512=EDGE_CURVE('',#424,#424,#379,.T.);
#513=EDGE_CURVE('',#425,#425,#380,.T.);
#514=EDGE_CURVE('',#425,#426,#207,.T.);
#515=EDGE_CURVE('',#426,#426,#381,.T.);
#516=EDGE_CURVE('',#427,#427,#382,.T.);
#517=EDGE_CURVE('',#427,#428,#208,.T.);
#518=EDGE_CURVE('',#428,#428,#383,.T.);
#519=EDGE_CURVE('',#429,#429,#384,.T.);
#520=EDGE_CURVE('',#429,#430,#209,.T.);
#521=EDGE_CURVE('',#430,#430,#385,.T.);
#522=EDGE_CURVE('',#431,#431,#386,.T.);
#523=EDGE_CURVE('',#431,#432,#210,.T.);
#524=EDGE_CURVE('',#432,#432,#387,.T.);
#525=EDGE_CURVE('',#432,#433,#211,.T.);
#526=EDGE_CURVE('',#433,#433,#388,.T.);
#527=EDGE_CURVE('',#434,#434,#389,.T.);
#528=EDGE_CURVE('',#434,#435,#212,.T.);
#529=EDGE_CURVE('',#435,#435,#390,.T.);
#530=EDGE_CURVE('',#436,#436,#391,.T.);
#531=EDGE_CURVE('',#436,#437,#213,.T.);
#532=EDGE_CURVE('',#437,#437,#392,.T.);
#533=EDGE_CURVE('',#438,#438,#393,.T.);
#534=EDGE_CURVE('',#438,#439,#214,.T.);
#535=EDGE_CURVE('',#439,#439,#394,.T.);
#536=EDGE_CURVE('',#440,#440,#395,.T.);
#537=EDGE_CURVE('',#440,#441,#215,.T.);
#538=EDGE_CURVE('',#441,#441,#396,.T.);
#539=EDGE_CURVE('',#442,#443,#216,.T.);
#540=EDGE_CURVE('',#442,#444,#217,.T.);
#541=EDGE_CURVE('',#445,#444,#218,.T.);
#542=EDGE_CURVE('',#443,#445,#219,.T.);
#543=EDGE_CURVE('',#443,#446,#220,.T.);
#544=EDGE_CURVE('',#447,#445,#221,.T.);
#545=EDGE_CURVE('',#446,#447,#222,.T.);
#546=EDGE_CURVE('',#446,#448,#223,.T.);
#547=EDGE_CURVE('',#449,#447,#224,.T.);
#548=EDGE_CURVE('',#448,#449,#225,.T.);
#549=EDGE_CURVE('',#448,#442,#226,.T.);
#550=EDGE_CURVE('',#444,#449,#227,.T.);
#551=EDGE_CURVE('',#450,#451,#397,.T.);
#552=EDGE_CURVE('',#451,#452,#228,.T.);
#553=EDGE_CURVE('',#452,#453,#398,.T.);
#554=EDGE_CURVE('',#453,#450,#229,.T.);
#555=EDGE_CURVE('',#453,#454,#230,.T.);
#556=EDGE_CURVE('',#454,#455,#231,.T.);
#557=EDGE_CURVE('',#450,#455,#232,.T.);
#558=EDGE_CURVE('',#456,#452,#233,.T.);
#559=EDGE_CURVE('',#457,#456,#399,.T.);
#560=EDGE_CURVE('',#458,#457,#234,.T.);
#561=EDGE_CURVE('',#458,#459,#400,.T.);
#562=EDGE_CURVE('',#459,#460,#235,.T.);
#563=EDGE_CURVE('',#460,#461,#236,.T.);
#564=EDGE_CURVE('',#462,#461,#237,.T.);
#565=EDGE_CURVE('',#462,#454,#401,.T.);
#566=EDGE_CURVE('',#463,#464,#402,.T.);
#567=EDGE_CURVE('',#464,#457,#238,.T.);
#568=EDGE_CURVE('',#456,#463,#239,.T.);
#569=EDGE_CURVE('',#465,#464,#240,.T.);
#570=EDGE_CURVE('',#458,#465,#241,.T.);
#571=EDGE_CURVE('',#463,#451,#242,.T.);
#572=EDGE_CURVE('',#466,#465,#403,.T.);
#573=EDGE_CURVE('',#459,#466,#243,.T.);
#574=EDGE_CURVE('',#467,#466,#244,.T.);
#575=EDGE_CURVE('',#460,#467,#245,.T.);
#576=EDGE_CURVE('',#468,#467,#246,.T.);
#577=EDGE_CURVE('',#461,#468,#247,.T.);
#578=EDGE_CURVE('',#469,#468,#248,.T.);
#579=EDGE_CURVE('',#462,#469,#249,.T.);
#580=EDGE_CURVE('',#455,#469,#404,.T.);
#581=EDGE_CURVE('',#470,#471,#250,.T.);
#582=EDGE_CURVE('',#472,#470,#405,.T.);
#583=EDGE_CURVE('',#473,#472,#251,.T.);
#584=EDGE_CURVE('',#471,#473,#406,.T.);
#585=EDGE_CURVE('',#474,#475,#407,.T.);
#586=EDGE_CURVE('',#474,#476,#252,.T.);
#587=EDGE_CURVE('',#476,#477,#408,.T.);
#588=EDGE_CURVE('',#477,#478,#253,.T.);
#589=EDGE_CURVE('',#478,#479,#254,.T.);
#590=EDGE_CURVE('',#479,#480,#255,.T.);
#591=EDGE_CURVE('',#480,#481,#409,.T.);
#592=EDGE_CURVE('',#481,#482,#256,.T.);
#593=EDGE_CURVE('',#483,#482,#410,.T.);
#594=EDGE_CURVE('',#483,#475,#257,.T.);
#595=EDGE_CURVE('',#484,#484,#411,.T.);
#596=EDGE_CURVE('',#485,#485,#412,.T.);
#597=EDGE_CURVE('',#486,#486,#413,.T.);
#598=EDGE_CURVE('',#487,#487,#414,.T.);
#599=EDGE_CURVE('',#470,#488,#258,.T.);
#600=EDGE_CURVE('',#488,#489,#259,.T.);
#601=EDGE_CURVE('',#489,#490,#260,.T.);
#602=EDGE_CURVE('',#490,#491,#261,.T.);
#603=EDGE_CURVE('',#491,#472,#262,.T.);
#604=EDGE_CURVE('',#492,#471,#263,.T.);
#605=EDGE_CURVE('',#492,#488,#264,.T.);
#606=EDGE_CURVE('',#493,#491,#265,.T.);
#607=EDGE_CURVE('',#473,#493,#266,.T.);
#608=EDGE_CURVE('',#494,#494,#415,.T.);
#609=EDGE_CURVE('',#494,#484,#267,.T.);
#610=EDGE_CURVE('',#495,#495,#416,.T.);
#611=EDGE_CURVE('',#495,#485,#268,.T.);
#612=EDGE_CURVE('',#496,#496,#417,.T.);
#613=EDGE_CURVE('',#496,#486,#269,.T.);
#614=EDGE_CURVE('',#497,#497,#418,.T.);
#615=EDGE_CURVE('',#497,#487,#270,.T.);
#616=EDGE_CURVE('',#493,#498,#271,.T.);
#617=EDGE_CURVE('',#498,#490,#272,.T.);
#618=EDGE_CURVE('',#498,#499,#273,.T.);
#619=EDGE_CURVE('',#499,#489,#274,.T.);
#620=EDGE_CURVE('',#499,#492,#275,.T.);
#621=EDGE_CURVE('',#475,#500,#276,.T.);
#622=EDGE_CURVE('',#500,#501,#419,.T.);
#623=EDGE_CURVE('',#501,#474,#277,.T.);
#624=EDGE_CURVE('',#501,#502,#278,.T.);
#625=EDGE_CURVE('',#502,#476,#279,.T.);
#626=EDGE_CURVE('',#503,#500,#280,.T.);
#627=EDGE_CURVE('',#504,#503,#420,.T.);
#628=EDGE_CURVE('',#505,#504,#281,.T.);
#629=EDGE_CURVE('',#505,#506,#421,.T.);
#630=EDGE_CURVE('',#506,#507,#282,.T.);
#631=EDGE_CURVE('',#507,#508,#283,.T.);
#632=EDGE_CURVE('',#509,#508,#284,.T.);
#633=EDGE_CURVE('',#509,#502,#422,.T.);
#634=EDGE_CURVE('',#482,#504,#285,.T.);
#635=EDGE_CURVE('',#503,#483,#286,.T.);
#636=EDGE_CURVE('',#505,#481,#287,.T.);
#637=EDGE_CURVE('',#506,#480,#288,.T.);
#638=EDGE_CURVE('',#507,#479,#289,.T.);
#639=EDGE_CURVE('',#508,#478,#290,.T.);
#640=EDGE_CURVE('',#509,#477,#291,.T.);
#641=ORIENTED_EDGE('',*,*,#510,.F.);
#642=ORIENTED_EDGE('',*,*,#511,.T.);
#643=ORIENTED_EDGE('',*,*,#512,.F.);
#644=ORIENTED_EDGE('',*,*,#511,.F.);
#645=ORIENTED_EDGE('',*,*,#513,.F.);
#646=ORIENTED_EDGE('',*,*,#514,.T.);
#647=ORIENTED_EDGE('',*,*,#515,.T.);
#648=ORIENTED_EDGE('',*,*,#514,.F.);
#649=ORIENTED_EDGE('',*,*,#515,.F.);
#650=ORIENTED_EDGE('',*,*,#516,.F.);
#651=ORIENTED_EDGE('',*,*,#517,.T.);
#652=ORIENTED_EDGE('',*,*,#518,.T.);
#653=ORIENTED_EDGE('',*,*,#517,.F.);
#654=ORIENTED_EDGE('',*,*,#518,.F.);
#655=ORIENTED_EDGE('',*,*,#519,.F.);
#656=ORIENTED_EDGE('',*,*,#520,.T.);
#657=ORIENTED_EDGE('',*,*,#521,.T.);
#658=ORIENTED_EDGE('',*,*,#520,.F.);
#659=ORIENTED_EDGE('',*,*,#521,.F.);
#660=ORIENTED_EDGE('',*,*,#522,.T.);
#661=ORIENTED_EDGE('',*,*,#523,.T.);
#662=ORIENTED_EDGE('',*,*,#524,.T.);
#663=ORIENTED_EDGE('',*,*,#523,.F.);
#664=ORIENTED_EDGE('',*,*,#524,.F.);
#665=ORIENTED_EDGE('',*,*,#525,.T.);
#666=ORIENTED_EDGE('',*,*,#526,.T.);
#667=ORIENTED_EDGE('',*,*,#525,.F.);
#668=ORIENTED_EDGE('',*,*,#522,.F.);
#669=ORIENTED_EDGE('',*,*,#512,.T.);
#670=ORIENTED_EDGE('',*,*,#526,.F.);
#671=ORIENTED_EDGE('',*,*,#510,.T.);
#672=ORIENTED_EDGE('',*,*,#513,.T.);
#673=ORIENTED_EDGE('',*,*,#516,.T.);
#674=ORIENTED_EDGE('',*,*,#519,.T.);
#675=ORIENTED_EDGE('',*,*,#527,.F.);
#676=ORIENTED_EDGE('',*,*,#528,.T.);
#677=ORIENTED_EDGE('',*,*,#529,.F.);
#678=ORIENTED_EDGE('',*,*,#528,.F.);
#679=ORIENTED_EDGE('',*,*,#530,.F.);
#680=ORIENTED_EDGE('',*,*,#531,.T.);
#681=ORIENTED_EDGE('',*,*,#532,.F.);
#682=ORIENTED_EDGE('',*,*,#531,.F.);
#683=ORIENTED_EDGE('',*,*,#533,.F.);
#684=ORIENTED_EDGE('',*,*,#534,.T.);
#685=ORIENTED_EDGE('',*,*,#535,.F.);
#686=ORIENTED_EDGE('',*,*,#534,.F.);
#687=ORIENTED_EDGE('',*,*,#536,.F.);
#688=ORIENTED_EDGE('',*,*,#537,.T.);
#689=ORIENTED_EDGE('',*,*,#538,.F.);
#690=ORIENTED_EDGE('',*,*,#537,.F.);
#691=ORIENTED_EDGE('',*,*,#539,.F.);
#692=ORIENTED_EDGE('',*,*,#540,.T.);
#693=ORIENTED_EDGE('',*,*,#541,.F.);
#694=ORIENTED_EDGE('',*,*,#542,.F.);
#695=ORIENTED_EDGE('',*,*,#543,.F.);
#696=ORIENTED_EDGE('',*,*,#542,.T.);
#697=ORIENTED_EDGE('',*,*,#544,.F.);
#698=ORIENTED_EDGE('',*,*,#545,.F.);
#699=ORIENTED_EDGE('',*,*,#546,.F.);
#700=ORIENTED_EDGE('',*,*,#545,.T.);
#701=ORIENTED_EDGE('',*,*,#547,.F.);
#702=ORIENTED_EDGE('',*,*,#548,.F.);
#703=ORIENTED_EDGE('',*,*,#549,.F.);
#704=ORIENTED_EDGE('',*,*,#548,.T.);
#705=ORIENTED_EDGE('',*,*,#550,.F.);
#706=ORIENTED_EDGE('',*,*,#540,.F.);
#707=ORIENTED_EDGE('',*,*,#551,.T.);
#708=ORIENTED_EDGE('',*,*,#552,.T.);
#709=ORIENTED_EDGE('',*,*,#553,.T.);
#710=ORIENTED_EDGE('',*,*,#554,.T.);
#711=ORIENTED_EDGE('',*,*,#554,.F.);
#712=ORIENTED_EDGE('',*,*,#555,.T.);
#713=ORIENTED_EDGE('',*,*,#556,.T.);
#714=ORIENTED_EDGE('',*,*,#557,.F.);
#715=ORIENTED_EDGE('',*,*,#553,.F.);
#716=ORIENTED_EDGE('',*,*,#558,.F.);
#717=ORIENTED_EDGE('',*,*,#559,.F.);
#718=ORIENTED_EDGE('',*,*,#560,.F.);
#719=ORIENTED_EDGE('',*,*,#561,.T.);
#720=ORIENTED_EDGE('',*,*,#562,.T.);
#721=ORIENTED_EDGE('',*,*,#563,.T.);
#722=ORIENTED_EDGE('',*,*,#564,.F.);
#723=ORIENTED_EDGE('',*,*,#565,.T.);
#724=ORIENTED_EDGE('',*,*,#555,.F.);
#725=ORIENTED_EDGE('',*,*,#546,.T.);
#726=ORIENTED_EDGE('',*,*,#549,.T.);
#727=ORIENTED_EDGE('',*,*,#539,.T.);
#728=ORIENTED_EDGE('',*,*,#543,.T.);
#729=ORIENTED_EDGE('',*,*,#536,.T.);
#730=ORIENTED_EDGE('',*,*,#533,.T.);
#731=ORIENTED_EDGE('',*,*,#530,.T.);
#732=ORIENTED_EDGE('',*,*,#527,.T.);
#733=ORIENTED_EDGE('',*,*,#566,.T.);
#734=ORIENTED_EDGE('',*,*,#567,.T.);
#735=ORIENTED_EDGE('',*,*,#559,.T.);
#736=ORIENTED_EDGE('',*,*,#568,.T.);
#737=ORIENTED_EDGE('',*,*,#567,.F.);
#738=ORIENTED_EDGE('',*,*,#569,.F.);
#739=ORIENTED_EDGE('',*,*,#570,.F.);
#740=ORIENTED_EDGE('',*,*,#560,.T.);
#741=ORIENTED_EDGE('',*,*,#552,.F.);
#742=ORIENTED_EDGE('',*,*,#571,.F.);
#743=ORIENTED_EDGE('',*,*,#568,.F.);
#744=ORIENTED_EDGE('',*,*,#558,.T.);
#745=ORIENTED_EDGE('',*,*,#561,.F.);
#746=ORIENTED_EDGE('',*,*,#570,.T.);
#747=ORIENTED_EDGE('',*,*,#572,.F.);
#748=ORIENTED_EDGE('',*,*,#573,.F.);
#749=ORIENTED_EDGE('',*,*,#562,.F.);
#750=ORIENTED_EDGE('',*,*,#573,.T.);
#751=ORIENTED_EDGE('',*,*,#574,.F.);
#752=ORIENTED_EDGE('',*,*,#575,.F.);
#753=ORIENTED_EDGE('',*,*,#563,.F.);
#754=ORIENTED_EDGE('',*,*,#575,.T.);
#755=ORIENTED_EDGE('',*,*,#576,.F.);
#756=ORIENTED_EDGE('',*,*,#577,.F.);
#757=ORIENTED_EDGE('',*,*,#564,.T.);
#758=ORIENTED_EDGE('',*,*,#577,.T.);
#759=ORIENTED_EDGE('',*,*,#578,.F.);
#760=ORIENTED_EDGE('',*,*,#579,.F.);
#761=ORIENTED_EDGE('',*,*,#565,.F.);
#762=ORIENTED_EDGE('',*,*,#579,.T.);
#763=ORIENTED_EDGE('',*,*,#580,.F.);
#764=ORIENTED_EDGE('',*,*,#556,.F.);
#765=ORIENTED_EDGE('',*,*,#551,.F.);
#766=ORIENTED_EDGE('',*,*,#557,.T.);
#767=ORIENTED_EDGE('',*,*,#580,.T.);
#768=ORIENTED_EDGE('',*,*,#578,.T.);
#769=ORIENTED_EDGE('',*,*,#576,.T.);
#770=ORIENTED_EDGE('',*,*,#574,.T.);
#771=ORIENTED_EDGE('',*,*,#572,.T.);
#772=ORIENTED_EDGE('',*,*,#569,.T.);
#773=ORIENTED_EDGE('',*,*,#566,.F.);
#774=ORIENTED_EDGE('',*,*,#571,.T.);
#775=ORIENTED_EDGE('',*,*,#547,.T.);
#776=ORIENTED_EDGE('',*,*,#544,.T.);
#777=ORIENTED_EDGE('',*,*,#541,.T.);
#778=ORIENTED_EDGE('',*,*,#550,.T.);
#779=ORIENTED_EDGE('',*,*,#538,.T.);
#780=ORIENTED_EDGE('',*,*,#535,.T.);
#781=ORIENTED_EDGE('',*,*,#532,.T.);
#782=ORIENTED_EDGE('',*,*,#529,.T.);
#783=ORIENTED_EDGE('',*,*,#581,.F.);
#784=ORIENTED_EDGE('',*,*,#582,.F.);
#785=ORIENTED_EDGE('',*,*,#583,.F.);
#786=ORIENTED_EDGE('',*,*,#584,.F.);
#787=ORIENTED_EDGE('',*,*,#585,.F.);
#788=ORIENTED_EDGE('',*,*,#586,.T.);
#789=ORIENTED_EDGE('',*,*,#587,.T.);
#790=ORIENTED_EDGE('',*,*,#588,.T.);
#791=ORIENTED_EDGE('',*,*,#589,.T.);
#792=ORIENTED_EDGE('',*,*,#590,.T.);
#793=ORIENTED_EDGE('',*,*,#591,.T.);
#794=ORIENTED_EDGE('',*,*,#592,.T.);
#795=ORIENTED_EDGE('',*,*,#593,.F.);
#796=ORIENTED_EDGE('',*,*,#594,.T.);
#797=ORIENTED_EDGE('',*,*,#595,.T.);
#798=ORIENTED_EDGE('',*,*,#596,.T.);
#799=ORIENTED_EDGE('',*,*,#597,.T.);
#800=ORIENTED_EDGE('',*,*,#598,.T.);
#801=ORIENTED_EDGE('',*,*,#582,.T.);
#802=ORIENTED_EDGE('',*,*,#599,.T.);
#803=ORIENTED_EDGE('',*,*,#600,.T.);
#804=ORIENTED_EDGE('',*,*,#601,.T.);
#805=ORIENTED_EDGE('',*,*,#602,.T.);
#806=ORIENTED_EDGE('',*,*,#603,.T.);
#807=ORIENTED_EDGE('',*,*,#581,.T.);
#808=ORIENTED_EDGE('',*,*,#604,.F.);
#809=ORIENTED_EDGE('',*,*,#605,.T.);
#810=ORIENTED_EDGE('',*,*,#599,.F.);
#811=ORIENTED_EDGE('',*,*,#583,.T.);
#812=ORIENTED_EDGE('',*,*,#603,.F.);
#813=ORIENTED_EDGE('',*,*,#606,.F.);
#814=ORIENTED_EDGE('',*,*,#607,.F.);
#815=ORIENTED_EDGE('',*,*,#608,.F.);
#816=ORIENTED_EDGE('',*,*,#609,.T.);
#817=ORIENTED_EDGE('',*,*,#595,.F.);
#818=ORIENTED_EDGE('',*,*,#609,.F.);
#819=ORIENTED_EDGE('',*,*,#610,.F.);
#820=ORIENTED_EDGE('',*,*,#611,.T.);
#821=ORIENTED_EDGE('',*,*,#596,.F.);
#822=ORIENTED_EDGE('',*,*,#611,.F.);
#823=ORIENTED_EDGE('',*,*,#612,.F.);
#824=ORIENTED_EDGE('',*,*,#613,.T.);
#825=ORIENTED_EDGE('',*,*,#597,.F.);
#826=ORIENTED_EDGE('',*,*,#613,.F.);
#827=ORIENTED_EDGE('',*,*,#614,.F.);
#828=ORIENTED_EDGE('',*,*,#615,.T.);
#829=ORIENTED_EDGE('',*,*,#598,.F.);
#830=ORIENTED_EDGE('',*,*,#615,.F.);
#831=ORIENTED_EDGE('',*,*,#616,.F.);
#832=ORIENTED_EDGE('',*,*,#606,.T.);
#833=ORIENTED_EDGE('',*,*,#602,.F.);
#834=ORIENTED_EDGE('',*,*,#617,.F.);
#835=ORIENTED_EDGE('',*,*,#618,.F.);
#836=ORIENTED_EDGE('',*,*,#617,.T.);
#837=ORIENTED_EDGE('',*,*,#601,.F.);
#838=ORIENTED_EDGE('',*,*,#619,.F.);
#839=ORIENTED_EDGE('',*,*,#620,.F.);
#840=ORIENTED_EDGE('',*,*,#619,.T.);
#841=ORIENTED_EDGE('',*,*,#600,.F.);
#842=ORIENTED_EDGE('',*,*,#605,.F.);
#843=ORIENTED_EDGE('',*,*,#585,.T.);
#844=ORIENTED_EDGE('',*,*,#621,.T.);
#845=ORIENTED_EDGE('',*,*,#622,.T.);
#846=ORIENTED_EDGE('',*,*,#623,.T.);
#847=ORIENTED_EDGE('',*,*,#623,.F.);
#848=ORIENTED_EDGE('',*,*,#624,.T.);
#849=ORIENTED_EDGE('',*,*,#625,.T.);
#850=ORIENTED_EDGE('',*,*,#586,.F.);
#851=ORIENTED_EDGE('',*,*,#622,.F.);
#852=ORIENTED_EDGE('',*,*,#626,.F.);
#853=ORIENTED_EDGE('',*,*,#627,.F.);
#854=ORIENTED_EDGE('',*,*,#628,.F.);
#855=ORIENTED_EDGE('',*,*,#629,.T.);
#856=ORIENTED_EDGE('',*,*,#630,.T.);
#857=ORIENTED_EDGE('',*,*,#631,.T.);
#858=ORIENTED_EDGE('',*,*,#632,.F.);
#859=ORIENTED_EDGE('',*,*,#633,.T.);
#860=ORIENTED_EDGE('',*,*,#624,.F.);
#861=ORIENTED_EDGE('',*,*,#584,.T.);
#862=ORIENTED_EDGE('',*,*,#607,.T.);
#863=ORIENTED_EDGE('',*,*,#616,.T.);
#864=ORIENTED_EDGE('',*,*,#618,.T.);
#865=ORIENTED_EDGE('',*,*,#620,.T.);
#866=ORIENTED_EDGE('',*,*,#604,.T.);
#867=ORIENTED_EDGE('',*,*,#614,.T.);
#868=ORIENTED_EDGE('',*,*,#612,.T.);
#869=ORIENTED_EDGE('',*,*,#610,.T.);
#870=ORIENTED_EDGE('',*,*,#608,.T.);
#871=ORIENTED_EDGE('',*,*,#593,.T.);
#872=ORIENTED_EDGE('',*,*,#634,.T.);
#873=ORIENTED_EDGE('',*,*,#627,.T.);
#874=ORIENTED_EDGE('',*,*,#635,.T.);
#875=ORIENTED_EDGE('',*,*,#634,.F.);
#876=ORIENTED_EDGE('',*,*,#592,.F.);
#877=ORIENTED_EDGE('',*,*,#636,.F.);
#878=ORIENTED_EDGE('',*,*,#628,.T.);
#879=ORIENTED_EDGE('',*,*,#621,.F.);
#880=ORIENTED_EDGE('',*,*,#594,.F.);
#881=ORIENTED_EDGE('',*,*,#635,.F.);
#882=ORIENTED_EDGE('',*,*,#626,.T.);
#883=ORIENTED_EDGE('',*,*,#629,.F.);
#884=ORIENTED_EDGE('',*,*,#636,.T.);
#885=ORIENTED_EDGE('',*,*,#591,.F.);
#886=ORIENTED_EDGE('',*,*,#637,.F.);
#887=ORIENTED_EDGE('',*,*,#630,.F.);
#888=ORIENTED_EDGE('',*,*,#637,.T.);
#889=ORIENTED_EDGE('',*,*,#590,.F.);
#890=ORIENTED_EDGE('',*,*,#638,.F.);
#891=ORIENTED_EDGE('',*,*,#631,.F.);
#892=ORIENTED_EDGE('',*,*,#638,.T.);
#893=ORIENTED_EDGE('',*,*,#589,.F.);
#894=ORIENTED_EDGE('',*,*,#639,.F.);
#895=ORIENTED_EDGE('',*,*,#632,.T.);
#896=ORIENTED_EDGE('',*,*,#639,.T.);
#897=ORIENTED_EDGE('',*,*,#588,.F.);
#898=ORIENTED_EDGE('',*,*,#640,.F.);
#899=ORIENTED_EDGE('',*,*,#633,.F.);
#900=ORIENTED_EDGE('',*,*,#640,.T.);
#901=ORIENTED_EDGE('',*,*,#587,.F.);
#902=ORIENTED_EDGE('',*,*,#625,.F.);
#903=CYLINDRICAL_SURFACE('',#994,2.);
#904=CYLINDRICAL_SURFACE('',#997,1.5);
#905=CYLINDRICAL_SURFACE('',#1001,1.5);
#906=CYLINDRICAL_SURFACE('',#1005,1.49999999999999);
#907=CYLINDRICAL_SURFACE('',#1012,57.7741271540422);
#908=CYLINDRICAL_SURFACE('',#1016,1.5);
#909=CYLINDRICAL_SURFACE('',#1019,1.5);
#910=CYLINDRICAL_SURFACE('',#1022,1.49999999999999);
#911=CYLINDRICAL_SURFACE('',#1025,1.5);
#912=CYLINDRICAL_SURFACE('',#1032,10.);
#913=CYLINDRICAL_SURFACE('',#1040,10.);
#914=CYLINDRICAL_SURFACE('',#1044,9.7616068211242);
#915=CYLINDRICAL_SURFACE('',#1049,10.2052496170805);
#916=CYLINDRICAL_SURFACE('',#1052,7.5);
#917=CYLINDRICAL_SURFACE('',#1066,1.5);
#918=CYLINDRICAL_SURFACE('',#1068,1.5);
#919=CYLINDRICAL_SURFACE('',#1070,1.49999999999999);
#920=CYLINDRICAL_SURFACE('',#1072,1.5);
#921=CYLINDRICAL_SURFACE('',#1077,10.);
#922=CYLINDRICAL_SURFACE('',#1084,10.);
#923=CYLINDRICAL_SURFACE('',#1087,9.7616068211242);
#924=CYLINDRICAL_SURFACE('',#1091,10.2052496170805);
#925=ADVANCED_FACE('',(#75),#903,.F.);
#926=ADVANCED_FACE('',(#76),#904,.F.);
#927=ADVANCED_FACE('',(#77),#45,.F.);
#928=ADVANCED_FACE('',(#78),#905,.F.);
#929=ADVANCED_FACE('',(#79),#46,.F.);
#930=ADVANCED_FACE('',(#80),#906,.F.);
#931=ADVANCED_FACE('',(#81),#47,.F.);
#932=ADVANCED_FACE('',(#82),#44,.T.);
#933=ADVANCED_FACE('',(#83),#907,.T.);
#934=ADVANCED_FACE('',(#84,#19),#48,.T.);
#935=ADVANCED_FACE('',(#85,#20,#21,#22,#23),#49,.F.);
#936=ADVANCED_FACE('',(#86),#908,.F.);
#937=ADVANCED_FACE('',(#87),#909,.F.);
#938=ADVANCED_FACE('',(#88),#910,.F.);
#939=ADVANCED_FACE('',(#89),#911,.F.);
#940=ADVANCED_FACE('',(#90),#50,.F.);
#941=ADVANCED_FACE('',(#91),#51,.F.);
#942=ADVANCED_FACE('',(#92),#52,.F.);
#943=ADVANCED_FACE('',(#93),#53,.F.);
#944=ADVANCED_FACE('',(#94),#912,.T.);
#945=ADVANCED_FACE('',(#95),#54,.T.);
#946=ADVANCED_FACE('',(#96,#24,#25,#26,#27,#28),#55,.F.);
#947=ADVANCED_FACE('',(#97),#913,.T.);
#948=ADVANCED_FACE('',(#98),#56,.T.);
#949=ADVANCED_FACE('',(#99),#57,.T.);
#950=ADVANCED_FACE('',(#100),#914,.F.);
#951=ADVANCED_FACE('',(#101),#58,.T.);
#952=ADVANCED_FACE('',(#102),#59,.T.);
#953=ADVANCED_FACE('',(#103),#60,.T.);
#954=ADVANCED_FACE('',(#104),#915,.F.);
#955=ADVANCED_FACE('',(#105,#29,#30,#31,#32,#33),#61,.T.);
#956=ADVANCED_FACE('',(#106),#916,.F.);
#957=ADVANCED_FACE('',(#107,#34,#35,#36,#37,#38),#62,.T.);
#958=ADVANCED_FACE('',(#108),#63,.F.);
#959=ADVANCED_FACE('',(#109),#64,.F.);
#960=ADVANCED_FACE('',(#110),#917,.F.);
#961=ADVANCED_FACE('',(#111),#918,.F.);
#962=ADVANCED_FACE('',(#112),#919,.F.);
#963=ADVANCED_FACE('',(#113),#920,.F.);
#964=ADVANCED_FACE('',(#114),#65,.F.);
#965=ADVANCED_FACE('',(#115),#66,.F.);
#966=ADVANCED_FACE('',(#116),#67,.F.);
#967=ADVANCED_FACE('',(#117),#921,.T.);
#968=ADVANCED_FACE('',(#118),#68,.T.);
#969=ADVANCED_FACE('',(#119,#39,#40,#41,#42,#43),#69,.F.);
#970=ADVANCED_FACE('',(#120),#922,.T.);
#971=ADVANCED_FACE('',(#121),#70,.T.);
#972=ADVANCED_FACE('',(#122),#71,.T.);
#973=ADVANCED_FACE('',(#123),#923,.F.);
#974=ADVANCED_FACE('',(#124),#72,.T.);
#975=ADVANCED_FACE('',(#125),#73,.T.);
#976=ADVANCED_FACE('',(#126),#74,.T.);
#977=ADVANCED_FACE('',(#127),#924,.F.);
#978=CLOSED_SHELL('',(#925,#926,#927,#928,#929,#930,#931,#932,#933,#934,
#935));
#979=CLOSED_SHELL('',(#936,#937,#938,#939,#940,#941,#942,#943,#944,#945,
#946,#947,#948,#949,#950,#951,#952,#953,#954,#955));
#980=CLOSED_SHELL('',(#956,#957,#958,#959,#960,#961,#962,#963,#964,#965,
#966,#967,#968,#969,#970,#971,#972,#973,#974,#975,#976,#977));
#981=DERIVED_UNIT_ELEMENT(#983,1.);
#982=DERIVED_UNIT_ELEMENT(#1653,-3.);
#983=(
MASS_UNIT()
NAMED_UNIT(*)
SI_UNIT(.KILO.,.GRAM.)
);
#984=DERIVED_UNIT((#981,#982));
#985=MEASURE_REPRESENTATION_ITEM('density measure',
POSITIVE_RATIO_MEASURE(7850.),#984);
#986=PROPERTY_DEFINITION_REPRESENTATION(#991,#988);
#987=PROPERTY_DEFINITION_REPRESENTATION(#992,#989);
#988=REPRESENTATION('material name',(#990),#1650);
#989=REPRESENTATION('density',(#985),#1650);
#990=DESCRIPTIVE_REPRESENTATION_ITEM('Steel','Steel');
#991=PROPERTY_DEFINITION('material property','material name',#1660);
#992=PROPERTY_DEFINITION('material property','density of part',#1660);
#993=AXIS2_PLACEMENT_3D('',#1376,#1092,#1093);
#994=AXIS2_PLACEMENT_3D('',#1377,#1094,#1095);
#995=AXIS2_PLACEMENT_3D('',#1379,#1096,#1097);
#996=AXIS2_PLACEMENT_3D('',#1382,#1099,#1100);
#997=AXIS2_PLACEMENT_3D('',#1383,#1101,#1102);
#998=AXIS2_PLACEMENT_3D('',#1385,#1103,#1104);
#999=AXIS2_PLACEMENT_3D('',#1388,#1106,#1107);
#1000=AXIS2_PLACEMENT_3D('',#1389,#1108,#1109);
#1001=AXIS2_PLACEMENT_3D('',#1390,#1110,#1111);
#1002=AXIS2_PLACEMENT_3D('',#1392,#1112,#1113);
#1003=AXIS2_PLACEMENT_3D('',#1395,#1115,#1116);
#1004=AXIS2_PLACEMENT_3D('',#1396,#1117,#1118);
#1005=AXIS2_PLACEMENT_3D('',#1397,#1119,#1120);
#1006=AXIS2_PLACEMENT_3D('',#1399,#1121,#1122);
#1007=AXIS2_PLACEMENT_3D('',#1402,#1124,#1125);
#1008=AXIS2_PLACEMENT_3D('',#1403,#1126,#1127);
#1009=AXIS2_PLACEMENT_3D('',#1404,#1128,#1129);
#1010=AXIS2_PLACEMENT_3D('',#1406,#1130,#1131);
#1011=AXIS2_PLACEMENT_3D('',#1409,#1133,#1134);
#1012=AXIS2_PLACEMENT_3D('',#1410,#1135,#1136);
#1013=AXIS2_PLACEMENT_3D('',#1413,#1138,#1139);
#1014=AXIS2_PLACEMENT_3D('',#1414,#1140,#1141);
#1015=AXIS2_PLACEMENT_3D('',#1415,#1142,#1143);
#1016=AXIS2_PLACEMENT_3D('',#1416,#1144,#1145);
#1017=AXIS2_PLACEMENT_3D('',#1418,#1146,#1147);
#1018=AXIS2_PLACEMENT_3D('',#1421,#1149,#1150);
#1019=AXIS2_PLACEMENT_3D('',#1422,#1151,#1152);
#1020=AXIS2_PLACEMENT_3D('',#1424,#1153,#1154);
#1021=AXIS2_PLACEMENT_3D('',#1427,#1156,#1157);
#1022=AXIS2_PLACEMENT_3D('',#1428,#1158,#1159);
#1023=AXIS2_PLACEMENT_3D('',#1430,#1160,#1161);
#1024=AXIS2_PLACEMENT_3D('',#1433,#1163,#1164);
#1025=AXIS2_PLACEMENT_3D('',#1434,#1165,#1166);
#1026=AXIS2_PLACEMENT_3D('',#1436,#1167,#1168);
#1027=AXIS2_PLACEMENT_3D('',#1439,#1170,#1171);
#1028=AXIS2_PLACEMENT_3D('',#1440,#1172,#1173);
#1029=AXIS2_PLACEMENT_3D('',#1449,#1178,#1179);
#1030=AXIS2_PLACEMENT_3D('',#1455,#1183,#1184);
#1031=AXIS2_PLACEMENT_3D('',#1461,#1188,#1189);
#1032=AXIS2_PLACEMENT_3D('',#1464,#1192,#1193);
#1033=AXIS2_PLACEMENT_3D('',#1467,#1194,#1195);
#1034=AXIS2_PLACEMENT_3D('',#1471,#1197,#1198);
#1035=AXIS2_PLACEMENT_3D('',#1473,#1200,#1201);
#1036=AXIS2_PLACEMENT_3D('',#1479,#1205,#1206);
#1037=AXIS2_PLACEMENT_3D('',#1483,#1208,#1209);
#1038=AXIS2_PLACEMENT_3D('',#1487,#1211,#1212);
#1039=AXIS2_PLACEMENT_3D('',#1494,#1216,#1217);
#1040=AXIS2_PLACEMENT_3D('',#1495,#1218,#1219);
#1041=AXIS2_PLACEMENT_3D('',#1498,#1220,#1221);
#1042=AXIS2_PLACEMENT_3D('',#1501,#1224,#1225);
#1043=AXIS2_PLACEMENT_3D('',#1505,#1228,#1229);
#1044=AXIS2_PLACEMENT_3D('',#1507,#1231,#1232);
#1045=AXIS2_PLACEMENT_3D('',#1509,#1233,#1234);
#1046=AXIS2_PLACEMENT_3D('',#1511,#1236,#1237);
#1047=AXIS2_PLACEMENT_3D('',#1515,#1240,#1241);
#1048=AXIS2_PLACEMENT_3D('',#1519,#1244,#1245);
#1049=AXIS2_PLACEMENT_3D('',#1523,#1248,#1249);
#1050=AXIS2_PLACEMENT_3D('',#1524,#1250,#1251);
#1051=AXIS2_PLACEMENT_3D('',#1525,#1252,#1253);
#1052=AXIS2_PLACEMENT_3D('',#1526,#1254,#1255);
#1053=AXIS2_PLACEMENT_3D('',#1531,#1257,#1258);
#1054=AXIS2_PLACEMENT_3D('',#1534,#1260,#1261);
#1055=AXIS2_PLACEMENT_3D('',#1535,#1262,#1263);
#1056=AXIS2_PLACEMENT_3D('',#1538,#1264,#1265);
#1057=AXIS2_PLACEMENT_3D('',#1542,#1267,#1268);
#1058=AXIS2_PLACEMENT_3D('',#1550,#1272,#1273);
#1059=AXIS2_PLACEMENT_3D('',#1554,#1275,#1276);
#1060=AXIS2_PLACEMENT_3D('',#1557,#1278,#1279);
#1061=AXIS2_PLACEMENT_3D('',#1559,#1280,#1281);
#1062=AXIS2_PLACEMENT_3D('',#1561,#1282,#1283);
#1063=AXIS2_PLACEMENT_3D('',#1563,#1284,#1285);
#1064=AXIS2_PLACEMENT_3D('',#1573,#1291,#1292);
#1065=AXIS2_PLACEMENT_3D('',#1577,#1295,#1296);
#1066=AXIS2_PLACEMENT_3D('',#1581,#1299,#1300);
#1067=AXIS2_PLACEMENT_3D('',#1583,#1301,#1302);
#1068=AXIS2_PLACEMENT_3D('',#1585,#1304,#1305);
#1069=AXIS2_PLACEMENT_3D('',#1587,#1306,#1307);
#1070=AXIS2_PLACEMENT_3D('',#1589,#1309,#1310);
#1071=AXIS2_PLACEMENT_3D('',#1591,#1311,#1312);
#1072=AXIS2_PLACEMENT_3D('',#1593,#1314,#1315);
#1073=AXIS2_PLACEMENT_3D('',#1595,#1316,#1317);
#1074=AXIS2_PLACEMENT_3D('',#1597,#1319,#1320);
#1075=AXIS2_PLACEMENT_3D('',#1601,#1323,#1324);
#1076=AXIS2_PLACEMENT_3D('',#1605,#1327,#1328);
#1077=AXIS2_PLACEMENT_3D('',#1607,#1330,#1331);
#1078=AXIS2_PLACEMENT_3D('',#1611,#1333,#1334);
#1079=AXIS2_PLACEMENT_3D('',#1613,#1336,#1337);
#1080=AXIS2_PLACEMENT_3D('',#1617,#1340,#1341);
#1081=AXIS2_PLACEMENT_3D('',#1621,#1343,#1344);
#1082=AXIS2_PLACEMENT_3D('',#1625,#1346,#1347);
#1083=AXIS2_PLACEMENT_3D('',#1632,#1351,#1352);
#1084=AXIS2_PLACEMENT_3D('',#1633,#1353,#1354);
#1085=AXIS2_PLACEMENT_3D('',#1636,#1357,#1358);
#1086=AXIS2_PLACEMENT_3D('',#1638,#1360,#1361);
#1087=AXIS2_PLACEMENT_3D('',#1639,#1362,#1363);
#1088=AXIS2_PLACEMENT_3D('',#1641,#1365,#1366);
#1089=AXIS2_PLACEMENT_3D('',#1643,#1368,#1369);
#1090=AXIS2_PLACEMENT_3D('',#1645,#1371,#1372);
#1091=AXIS2_PLACEMENT_3D('',#1647,#1374,#1375);
#1092=DIRECTION('axis',(0.,0.,1.));
#1093=DIRECTION('refdir',(1.,0.,0.));
#1094=DIRECTION('center_axis',(8.45884209238214E-17,-1.69176841847643E-16,
1.));
#1095=DIRECTION('ref_axis',(1.,5.55111512312576E-16,-8.45884209238213E-17));
#1096=DIRECTION('center_axis',(0.,0.,1.));
#1097=DIRECTION('ref_axis',(1.,5.55111512312576E-16,-8.45884209238213E-17));
#1098=DIRECTION('',(8.45884209238214E-17,-1.69176841847643E-16,1.));
#1099=DIRECTION('center_axis',(0.,0.,-1.));
#1100=DIRECTION('ref_axis',(1.,5.55111512312576E-16,-8.45884209238213E-17));
#1101=DIRECTION('center_axis',(0.,0.,1.));
#1102=DIRECTION('ref_axis',(1.,5.55111512312576E-16,0.));
#1103=DIRECTION('center_axis',(0.,0.,1.));
#1104=DIRECTION('ref_axis',(1.,5.55111512312576E-16,0.));
#1105=DIRECTION('',(0.,0.,1.));
#1106=DIRECTION('center_axis',(8.00149122322493E-17,-1.66987935085134E-16,
1.));
#1107=DIRECTION('ref_axis',(1.,5.55111512312576E-16,-8.00149122322509E-17));
#1108=DIRECTION('center_axis',(4.33680868994216E-17,2.81025203108244E-16,
1.));
#1109=DIRECTION('ref_axis',(1.,5.55111512312576E-16,-4.33680868994218E-17));
#1110=DIRECTION('center_axis',(0.,0.,1.));
#1111=DIRECTION('ref_axis',(1.,5.55111512312576E-16,0.));
#1112=DIRECTION('center_axis',(0.,0.,1.));
#1113=DIRECTION('ref_axis',(1.,5.55111512312576E-16,0.));
#1114=DIRECTION('',(0.,0.,1.));
#1115=DIRECTION('center_axis',(8.00149122322493E-17,-1.66987935085134E-16,
1.));
#1116=DIRECTION('ref_axis',(1.,5.55111512312576E-16,-8.00149122322484E-17));
#1117=DIRECTION('center_axis',(4.33680868994216E-17,2.81025203108244E-16,
1.));
#1118=DIRECTION('ref_axis',(1.,5.55111512312576E-16,-4.33680868994218E-17));
#1119=DIRECTION('center_axis',(1.48029736616688E-16,0.,1.));
#1120=DIRECTION('ref_axis',(1.,5.55111512312576E-16,-1.48029736616688E-16));
#1121=DIRECTION('center_axis',(0.,0.,1.));
#1122=DIRECTION('ref_axis',(1.,5.55111512312576E-16,-1.48029736616688E-16));
#1123=DIRECTION('',(1.48029736616688E-16,0.,1.));
#1124=DIRECTION('center_axis',(8.00149122322493E-17,-1.66987935085134E-16,
1.));
#1125=DIRECTION('ref_axis',(1.,5.55111512312576E-16,-8.00149122322485E-17));
#1126=DIRECTION('center_axis',(4.33680868994216E-17,2.81025203108244E-16,
1.));
#1127=DIRECTION('ref_axis',(1.,5.55111512312576E-16,-4.33680868994218E-17));
#1128=DIRECTION('center_axis',(0.,0.,-1.));
#1129=DIRECTION('ref_axis',(1.,0.,0.));
#1130=DIRECTION('center_axis',(0.,0.,-1.));
#1131=DIRECTION('ref_axis',(1.,0.,0.));
#1132=DIRECTION('',(-0.707106781186549,-8.65956056235495E-17,-0.707106781186546));
#1133=DIRECTION('center_axis',(0.,0.,1.));
#1134=DIRECTION('ref_axis',(1.,0.,0.));
#1135=DIRECTION('center_axis',(0.,0.,1.));
#1136=DIRECTION('ref_axis',(1.,0.,0.));
#1137=DIRECTION('',(0.,0.,-1.));
#1138=DIRECTION('center_axis',(0.,0.,1.));
#1139=DIRECTION('ref_axis',(1.,0.,0.));
#1140=DIRECTION('center_axis',(0.,0.,1.));
#1141=DIRECTION('ref_axis',(1.,0.,0.));
#1142=DIRECTION('center_axis',(0.,0.,1.));
#1143=DIRECTION('ref_axis',(1.,0.,0.));
#1144=DIRECTION('center_axis',(1.,0.,0.));
#1145=DIRECTION('ref_axis',(0.,1.,0.));
#1146=DIRECTION('center_axis',(1.,0.,0.));
#1147=DIRECTION('ref_axis',(0.,1.,0.));
#1148=DIRECTION('',(1.,0.,0.));
#1149=DIRECTION('center_axis',(-1.,0.,0.));
#1150=DIRECTION('ref_axis',(0.,1.,0.));
#1151=DIRECTION('center_axis',(1.,0.,0.));
#1152=DIRECTION('ref_axis',(0.,1.,0.));
#1153=DIRECTION('center_axis',(1.,0.,0.));
#1154=DIRECTION('ref_axis',(0.,1.,0.));
#1155=DIRECTION('',(1.,0.,0.));
#1156=DIRECTION('center_axis',(-1.,0.,0.));
#1157=DIRECTION('ref_axis',(0.,1.,0.));
#1158=DIRECTION('center_axis',(1.,0.,0.));
#1159=DIRECTION('ref_axis',(0.,1.,0.));
#1160=DIRECTION('center_axis',(1.,0.,0.));
#1161=DIRECTION('ref_axis',(0.,1.,0.));
#1162=DIRECTION('',(1.,0.,0.));
#1163=DIRECTION('center_axis',(-1.,0.,0.));
#1164=DIRECTION('ref_axis',(0.,1.,0.));
#1165=DIRECTION('center_axis',(1.,0.,0.));
#1166=DIRECTION('ref_axis',(0.,1.,0.));
#1167=DIRECTION('center_axis',(1.,0.,0.));
#1168=DIRECTION('ref_axis',(0.,1.,0.));
#1169=DIRECTION('',(1.,0.,0.));
#1170=DIRECTION('center_axis',(-1.,0.,0.));
#1171=DIRECTION('ref_axis',(0.,1.,0.));
#1172=DIRECTION('center_axis',(0.,0.,1.));
#1173=DIRECTION('ref_axis',(0.,-1.,0.));
#1174=DIRECTION('',(0.,-1.,0.));
#1175=DIRECTION('',(1.,0.,0.));
#1176=DIRECTION('',(0.,1.,0.));
#1177=DIRECTION('',(1.,0.,0.));
#1178=DIRECTION('center_axis',(0.,-1.,0.));
#1179=DIRECTION('ref_axis',(0.,0.,-1.));
#1180=DIRECTION('',(0.,0.,-1.));
#1181=DIRECTION('',(0.,0.,1.));
#1182=DIRECTION('',(1.,0.,0.));
#1183=DIRECTION('center_axis',(0.,0.,-1.));
#1184=DIRECTION('ref_axis',(0.,1.,0.));
#1185=DIRECTION('',(0.,1.,0.));
#1186=DIRECTION('',(0.,-1.,0.));
#1187=DIRECTION('',(1.,0.,0.));
#1188=DIRECTION('center_axis',(0.,1.,0.));
#1189=DIRECTION('ref_axis',(0.,0.,1.));
#1190=DIRECTION('',(0.,0.,1.));
#1191=DIRECTION('',(0.,0.,-1.));
#1192=DIRECTION('center_axis',(1.,0.,0.));
#1193=DIRECTION('ref_axis',(0.,-0.879842254250655,0.475265828389887));
#1194=DIRECTION('center_axis',(-1.,0.,0.));
#1195=DIRECTION('ref_axis',(0.,-0.879842254250655,0.475265828389887));
#1196=DIRECTION('',(-1.,0.,0.));
#1197=DIRECTION('center_axis',(1.,0.,0.));
#1198=DIRECTION('ref_axis',(0.,-0.879842254250655,0.475265828389887));
#1199=DIRECTION('',(1.,0.,0.));
#1200=DIRECTION('center_axis',(0.,-0.836317915637729,-0.548244784729745));
#1201=DIRECTION('ref_axis',(0.,0.548244784729745,-0.836317915637729));
#1202=DIRECTION('',(0.,0.548244784729745,-0.836317915637729));
#1203=DIRECTION('',(1.,0.,0.));
#1204=DIRECTION('',(0.,0.548244784729745,-0.836317915637729));
#1205=DIRECTION('center_axis',(1.,0.,0.));
#1206=DIRECTION('ref_axis',(0.,1.,0.));
#1207=DIRECTION('',(0.,-1.,0.));
#1208=DIRECTION('center_axis',(1.,0.,0.));
#1209=DIRECTION('ref_axis',(0.,0.47526582838989,0.879842254250653));
#1210=DIRECTION('',(0.,-0.548244784729746,0.836317915637729));
#1211=DIRECTION('center_axis',(1.,0.,0.));
#1212=DIRECTION('ref_axis',(0.,-0.836317915637728,-0.548244784729746));
#1213=DIRECTION('',(0.,-0.998282855452521,-0.0585776451349954));
#1214=DIRECTION('',(0.,-1.,0.));
#1215=DIRECTION('',(0.,0.999951666100617,0.00983185956975201));
#1216=DIRECTION('center_axis',(1.,0.,0.));
#1217=DIRECTION('ref_axis',(0.,0.409866419402849,-0.912145557598067));
#1218=DIRECTION('center_axis',(1.,0.,0.));
#1219=DIRECTION('ref_axis',(0.,0.47526582838989,0.879842254250653));
#1220=DIRECTION('center_axis',(-1.,0.,0.));
#1221=DIRECTION('ref_axis',(0.,0.47526582838989,0.879842254250653));
#1222=DIRECTION('',(-1.,0.,0.));
#1223=DIRECTION('',(1.,0.,0.));
#1224=DIRECTION('center_axis',(0.,0.836317915637729,0.548244784729746));
#1225=DIRECTION('ref_axis',(0.,-0.548244784729746,0.836317915637728));
#1226=DIRECTION('',(0.,-0.548244784729746,0.836317915637729));
#1227=DIRECTION('',(1.,0.,0.));
#1228=DIRECTION('center_axis',(0.,0.,1.));
#1229=DIRECTION('ref_axis',(0.,-1.,0.));
#1230=DIRECTION('',(0.,-1.,0.));
#1231=DIRECTION('center_axis',(1.,0.,0.));
#1232=DIRECTION('ref_axis',(0.,-0.836317915637728,-0.548244784729746));
#1233=DIRECTION('center_axis',(-1.,0.,0.));
#1234=DIRECTION('ref_axis',(0.,-0.836317915637728,-0.548244784729746));
#1235=DIRECTION('',(1.,0.,0.));
#1236=DIRECTION('center_axis',(0.,0.0585776451349954,-0.998282855452521));
#1237=DIRECTION('ref_axis',(0.,0.998282855452521,0.0585776451349954));
#1238=DIRECTION('',(0.,0.998282855452521,0.0585776451349954));
#1239=DIRECTION('',(1.,0.,0.));
#1240=DIRECTION('center_axis',(0.,0.,-1.));
#1241=DIRECTION('ref_axis',(0.,1.,0.));
#1242=DIRECTION('',(0.,1.,0.));
#1243=DIRECTION('',(1.,0.,0.));
#1244=DIRECTION('center_axis',(0.,0.00983185956975201,-0.999951666100617));
#1245=DIRECTION('ref_axis',(0.,0.999951666100617,0.00983185956975201));
#1246=DIRECTION('',(0.,0.999951666100617,0.00983185956975201));
#1247=DIRECTION('',(1.,0.,0.));
#1248=DIRECTION('center_axis',(1.,0.,0.));
#1249=DIRECTION('ref_axis',(0.,0.409866419402849,-0.912145557598067));
#1250=DIRECTION('center_axis',(-1.,0.,0.));
#1251=DIRECTION('ref_axis',(0.,0.409866419402849,-0.912145557598067));
#1252=DIRECTION('center_axis',(1.,0.,0.));
#1253=DIRECTION('ref_axis',(0.,1.,0.));
#1254=DIRECTION('center_axis',(1.,0.,0.));
#1255=DIRECTION('ref_axis',(0.,-1.,0.));
#1256=DIRECTION('',(-1.,0.,0.));
#1257=DIRECTION('center_axis',(-1.,0.,0.));
#1258=DIRECTION('ref_axis',(0.,-1.,0.));
#1259=DIRECTION('',(1.,0.,0.));
#1260=DIRECTION('center_axis',(1.,0.,0.));
#1261=DIRECTION('ref_axis',(0.,-1.,0.));
#1262=DIRECTION('center_axis',(1.,0.,0.));
#1263=DIRECTION('ref_axis',(0.,1.,-5.55111512312578E-17));
#1264=DIRECTION('center_axis',(-1.,0.,0.));
#1265=DIRECTION('ref_axis',(0.,-0.879842254250655,0.475265828389888));
#1266=DIRECTION('',(0.,0.548244784729745,-0.836317915637729));
#1267=DIRECTION('center_axis',(-1.,0.,0.));
#1268=DIRECTION('ref_axis',(0.,0.409866419402849,-0.912145557598067));
#1269=DIRECTION('',(0.,0.999951666100617,0.00983185956975196));
#1270=DIRECTION('',(0.,1.,-5.55111512312578E-17));
#1271=DIRECTION('',(0.,0.998282855452521,0.0585776451349953));
#1272=DIRECTION('center_axis',(-1.,0.,0.));
#1273=DIRECTION('ref_axis',(0.,-0.836317915637728,-0.548244784729746));
#1274=DIRECTION('',(0.,-0.548244784729746,0.836317915637729));
#1275=DIRECTION('center_axis',(-1.,0.,0.));
#1276=DIRECTION('ref_axis',(0.,0.475265828389889,0.879842254250654));
#1277=DIRECTION('',(0.,-1.,5.55111512312578E-17));
#1278=DIRECTION('center_axis',(-1.,0.,0.));
#1279=DIRECTION('ref_axis',(0.,1.,0.));
#1280=DIRECTION('center_axis',(-1.,0.,0.));
#1281=DIRECTION('ref_axis',(0.,1.,0.));
#1282=DIRECTION('center_axis',(-1.,0.,0.));
#1283=DIRECTION('ref_axis',(0.,1.,0.));
#1284=DIRECTION('center_axis',(-1.,0.,0.));
#1285=DIRECTION('ref_axis',(0.,1.,0.));
#1286=DIRECTION('',(0.,1.,0.));
#1287=DIRECTION('',(0.,0.,-1.));
#1288=DIRECTION('',(0.,-1.,0.));
#1289=DIRECTION('',(0.,0.,1.));
#1290=DIRECTION('',(0.,1.,0.));
#1291=DIRECTION('center_axis',(0.,0.,1.));
#1292=DIRECTION('ref_axis',(0.,-1.,0.));
#1293=DIRECTION('',(0.,-1.,0.));
#1294=DIRECTION('',(1.,0.,0.));
#1295=DIRECTION('center_axis',(0.,0.,1.));
#1296=DIRECTION('ref_axis',(0.,-1.,0.));
#1297=DIRECTION('',(1.,0.,0.));
#1298=DIRECTION('',(0.,-1.,0.));
#1299=DIRECTION('center_axis',(1.,0.,0.));
#1300=DIRECTION('ref_axis',(0.,1.,0.));
#1301=DIRECTION('center_axis',(1.,0.,0.));
#1302=DIRECTION('ref_axis',(0.,1.,0.));
#1303=DIRECTION('',(1.,0.,0.));
#1304=DIRECTION('center_axis',(1.,0.,0.));
#1305=DIRECTION('ref_axis',(0.,1.,0.));
#1306=DIRECTION('center_axis',(1.,0.,0.));
#1307=DIRECTION('ref_axis',(0.,1.,0.));
#1308=DIRECTION('',(1.,0.,0.));
#1309=DIRECTION('center_axis',(1.,0.,0.));
#1310=DIRECTION('ref_axis',(0.,1.,0.));
#1311=DIRECTION('center_axis',(1.,0.,0.));
#1312=DIRECTION('ref_axis',(0.,1.,0.));
#1313=DIRECTION('',(1.,0.,0.));
#1314=DIRECTION('center_axis',(1.,0.,0.));
#1315=DIRECTION('ref_axis',(0.,1.,0.));
#1316=DIRECTION('center_axis',(1.,0.,0.));
#1317=DIRECTION('ref_axis',(0.,1.,0.));
#1318=DIRECTION('',(1.,0.,0.));
#1319=DIRECTION('center_axis',(0.,-1.,0.));
#1320=DIRECTION('ref_axis',(0.,0.,-1.));
#1321=DIRECTION('',(0.,0.,-1.));
#1322=DIRECTION('',(1.,0.,0.));
#1323=DIRECTION('center_axis',(0.,0.,-1.));
#1324=DIRECTION('ref_axis',(0.,1.,0.));
#1325=DIRECTION('',(0.,1.,0.));
#1326=DIRECTION('',(1.,0.,0.));
#1327=DIRECTION('center_axis',(0.,1.,0.));
#1328=DIRECTION('ref_axis',(0.,0.,1.));
#1329=DIRECTION('',(0.,0.,1.));
#1330=DIRECTION('center_axis',(1.,0.,0.));
#1331=DIRECTION('ref_axis',(0.,-0.879842254250655,0.475265828389888));
#1332=DIRECTION('',(-1.,0.,0.));
#1333=DIRECTION('center_axis',(1.,0.,0.));
#1334=DIRECTION('ref_axis',(0.,-0.879842254250655,0.475265828389888));
#1335=DIRECTION('',(1.,0.,0.));
#1336=DIRECTION('center_axis',(0.,-0.836317915637729,-0.548244784729745));
#1337=DIRECTION('ref_axis',(0.,0.548244784729745,-0.836317915637729));
#1338=DIRECTION('',(0.,0.548244784729745,-0.836317915637729));
#1339=DIRECTION('',(1.,0.,0.));
#1340=DIRECTION('center_axis',(1.,0.,0.));
#1341=DIRECTION('ref_axis',(0.,1.,-5.55111512312578E-17));
#1342=DIRECTION('',(0.,-1.,5.55111512312578E-17));
#1343=DIRECTION('center_axis',(1.,0.,0.));
#1344=DIRECTION('ref_axis',(0.,0.475265828389889,0.879842254250654));
#1345=DIRECTION('',(0.,-0.548244784729746,0.836317915637729));
#1346=DIRECTION('center_axis',(1.,0.,0.));
#1347=DIRECTION('ref_axis',(0.,-0.836317915637728,-0.548244784729746));
#1348=DIRECTION('',(0.,-0.998282855452521,-0.0585776451349953));
#1349=DIRECTION('',(0.,-1.,5.55111512312578E-17));
#1350=DIRECTION('',(0.,0.999951666100617,0.00983185956975196));
#1351=DIRECTION('center_axis',(1.,0.,0.));
#1352=DIRECTION('ref_axis',(0.,0.409866419402849,-0.912145557598067));
#1353=DIRECTION('center_axis',(1.,0.,0.));
#1354=DIRECTION('ref_axis',(0.,0.475265828389889,0.879842254250654));
#1355=DIRECTION('',(-1.,0.,0.));
#1356=DIRECTION('',(1.,0.,0.));
#1357=DIRECTION('center_axis',(0.,0.836317915637729,0.548244784729746));
#1358=DIRECTION('ref_axis',(0.,-0.548244784729746,0.836317915637728));
#1359=DIRECTION('',(1.,0.,0.));
#1360=DIRECTION('center_axis',(0.,5.55111512312578E-17,1.));
#1361=DIRECTION('ref_axis',(0.,-1.,5.55111512312578E-17));
#1362=DIRECTION('center_axis',(1.,0.,0.));
#1363=DIRECTION('ref_axis',(0.,-0.836317915637728,-0.548244784729746));
#1364=DIRECTION('',(1.,0.,0.));
#1365=DIRECTION('center_axis',(0.,0.0585776451349953,-0.998282855452521));
#1366=DIRECTION('ref_axis',(0.,0.998282855452521,0.0585776451349953));
#1367=DIRECTION('',(1.,0.,0.));
#1368=DIRECTION('center_axis',(0.,-5.55111512312578E-17,-1.));
#1369=DIRECTION('ref_axis',(0.,1.,-5.55111512312578E-17));
#1370=DIRECTION('',(1.,0.,0.));
#1371=DIRECTION('center_axis',(0.,0.00983185956975196,-0.999951666100617));
#1372=DIRECTION('ref_axis',(0.,0.999951666100617,0.00983185956975196));
#1373=DIRECTION('',(1.,0.,0.));
#1374=DIRECTION('center_axis',(1.,0.,0.));
#1375=DIRECTION('ref_axis',(0.,0.409866419402849,-0.912145557598067));
#1376=CARTESIAN_POINT('',(0.,0.,0.));
#1377=CARTESIAN_POINT('Origin',(55.1896961890456,126.429961120282,44.9598113122749));
#1378=CARTESIAN_POINT('',(53.1896961890456,126.429961120282,70.));
#1379=CARTESIAN_POINT('Origin',(55.1896961890456,126.429961120282,70.));
#1380=CARTESIAN_POINT('',(53.1896961890456,126.429961120282,79.));
#1381=CARTESIAN_POINT('',(53.1896961890456,126.429961120282,44.9598113122749));
#1382=CARTESIAN_POINT('Origin',(55.1896961890456,126.429961120282,79.));
#1383=CARTESIAN_POINT('Origin',(55.7577800750729,164.743156433105,44.9598113122749));
#1384=CARTESIAN_POINT('',(54.2577800750729,164.743156433105,70.));
#1385=CARTESIAN_POINT('Origin',(55.7577800750729,164.743156433105,70.));
#1386=CARTESIAN_POINT('',(54.2577800750729,164.743156433105,74.9598113122749));
#1387=CARTESIAN_POINT('',(54.2577800750729,164.743156433105,44.9598113122749));
#1388=CARTESIAN_POINT('Origin',(55.7577800750729,164.743156433105,74.9598113122749));
#1389=CARTESIAN_POINT('Origin',(52.8957123926352,137.198059626376,74.9598113122749));
#1390=CARTESIAN_POINT('Origin',(81.8230393984611,109.652962819646,44.9598113122749));
#1391=CARTESIAN_POINT('',(80.3230393984611,109.652962819646,70.));
#1392=CARTESIAN_POINT('Origin',(81.8230393984611,109.652962819646,70.));
#1393=CARTESIAN_POINT('',(80.3230393984611,109.652962819646,74.9598113122749));
#1394=CARTESIAN_POINT('',(80.3230393984611,109.652962819646,44.9598113122749));
#1395=CARTESIAN_POINT('Origin',(81.8230393984611,109.652962819646,74.9598113122749));
#1396=CARTESIAN_POINT('Origin',(52.8957123926352,137.198059626376,74.9598113122749));
#1397=CARTESIAN_POINT('Origin',(23.9683853868094,111.726892720625,44.9598113122749));
#1398=CARTESIAN_POINT('',(22.4683853868094,111.726892720625,70.));
#1399=CARTESIAN_POINT('Origin',(23.9683853868094,111.726892720625,70.));
#1400=CARTESIAN_POINT('',(22.4683853868094,111.726892720625,74.9598113122749));
#1401=CARTESIAN_POINT('',(22.4683853868094,111.726892720625,44.9598113122749));
#1402=CARTESIAN_POINT('Origin',(23.9683853868094,111.726892720625,74.9598113122749));
#1403=CARTESIAN_POINT('Origin',(52.8957123926352,137.198059626376,74.9598113122749));
#1404=CARTESIAN_POINT('Origin',(55.2910145796112,127.875456740496,77.5));
#1405=CARTESIAN_POINT('',(0.516887425569017,127.875456740496,79.));
#1406=CARTESIAN_POINT('Origin',(55.2910145796112,127.875456740496,79.));
#1407=CARTESIAN_POINT('',(-2.48311257443099,127.875456740496,76.));
#1408=CARTESIAN_POINT('',(-0.983112574430987,127.875456740496,77.5));
#1409=CARTESIAN_POINT('Origin',(55.2910145796112,127.875456740496,76.));
#1410=CARTESIAN_POINT('Origin',(55.2910145796112,127.875456740496,70.));
#1411=CARTESIAN_POINT('',(-2.48311257443099,127.875456740496,70.));
#1412=CARTESIAN_POINT('',(-2.48311257443099,127.875456740496,70.));
#1413=CARTESIAN_POINT('Origin',(55.2910145796112,127.875456740496,70.));
#1414=CARTESIAN_POINT('Origin',(55.2910145796112,127.875456740496,79.));
#1415=CARTESIAN_POINT('Origin',(55.2910145796112,127.875456740496,70.));
#1416=CARTESIAN_POINT('Origin',(0.,135.,115.));
#1417=CARTESIAN_POINT('',(25.,133.5,115.));
#1418=CARTESIAN_POINT('Origin',(25.,135.,115.));
#1419=CARTESIAN_POINT('',(32.,133.5,115.));
#1420=CARTESIAN_POINT('',(0.,133.5,115.));
#1421=CARTESIAN_POINT('Origin',(32.,135.,115.));
#1422=CARTESIAN_POINT('Origin',(0.,85.,105.));
#1423=CARTESIAN_POINT('',(25.,83.5,105.));
#1424=CARTESIAN_POINT('Origin',(25.,85.,105.));
#1425=CARTESIAN_POINT('',(32.,83.5,105.));
#1426=CARTESIAN_POINT('',(0.,83.5,105.));
#1427=CARTESIAN_POINT('Origin',(32.,85.,105.));
#1428=CARTESIAN_POINT('Origin',(0.,85.,115.));
#1429=CARTESIAN_POINT('',(25.,83.5,115.));
#1430=CARTESIAN_POINT('Origin',(25.,85.,115.));
#1431=CARTESIAN_POINT('',(32.,83.5,115.));
#1432=CARTESIAN_POINT('',(0.,83.5,115.));
#1433=CARTESIAN_POINT('Origin',(32.,85.,115.));
#1434=CARTESIAN_POINT('Origin',(0.,135.,105.));
#1435=CARTESIAN_POINT('',(25.,133.5,105.));
#1436=CARTESIAN_POINT('Origin',(25.,135.,105.));
#1437=CARTESIAN_POINT('',(32.,133.5,105.));
#1438=CARTESIAN_POINT('',(0.,133.5,105.));
#1439=CARTESIAN_POINT('Origin',(32.,135.,105.));
#1440=CARTESIAN_POINT('Origin',(0.,130.,120.));
#1441=CARTESIAN_POINT('',(25.,130.,120.));
#1442=CARTESIAN_POINT('',(25.,90.,120.));
#1443=CARTESIAN_POINT('',(25.,123.971633929219,120.));
#1444=CARTESIAN_POINT('',(32.,130.,120.));
#1445=CARTESIAN_POINT('',(0.,130.,120.));
#1446=CARTESIAN_POINT('',(32.,90.,120.));
#1447=CARTESIAN_POINT('',(32.,123.971633929219,120.));
#1448=CARTESIAN_POINT('',(0.,90.,120.));
#1449=CARTESIAN_POINT('Origin',(0.,90.,120.));
#1450=CARTESIAN_POINT('',(25.,90.,100.));
#1451=CARTESIAN_POINT('',(25.,90.,111.349955293205));
#1452=CARTESIAN_POINT('',(32.,90.,100.));
#1453=CARTESIAN_POINT('',(32.,90.,111.349955293205));
#1454=CARTESIAN_POINT('',(0.,90.,100.));
#1455=CARTESIAN_POINT('Origin',(0.,90.,100.));
#1456=CARTESIAN_POINT('',(25.,130.,100.));
#1457=CARTESIAN_POINT('',(25.,103.971633929219,100.));
#1458=CARTESIAN_POINT('',(32.,130.,100.));
#1459=CARTESIAN_POINT('',(32.,103.971633929219,100.));
#1460=CARTESIAN_POINT('',(0.,130.,100.));
#1461=CARTESIAN_POINT('Origin',(0.,130.,100.));
#1462=CARTESIAN_POINT('',(25.,130.,101.349955293205));
#1463=CARTESIAN_POINT('',(32.,130.,101.349955293205));
#1464=CARTESIAN_POINT('Origin',(25.,84.3991675038389,116.698533889591));
#1465=CARTESIAN_POINT('',(32.,76.0359883474616,111.216086042294));
#1466=CARTESIAN_POINT('',(32.,84.3991675038389,126.698533889591));
#1467=CARTESIAN_POINT('Origin',(32.,84.3991675038389,116.698533889591));
#1468=CARTESIAN_POINT('',(25.,84.3991675038389,126.698533889591));
#1469=CARTESIAN_POINT('',(25.,84.3991675038389,126.698533889591));
#1470=CARTESIAN_POINT('',(25.,76.0359883474616,111.216086042294));
#1471=CARTESIAN_POINT('Origin',(25.,84.3991675038389,116.698533889591));
#1472=CARTESIAN_POINT('',(25.,76.0359883474616,111.216086042294));
#1473=CARTESIAN_POINT('Origin',(25.,65.8865330644686,126.698533889591));
#1474=CARTESIAN_POINT('',(25.,87.5809061187697,93.6049352650574));
#1475=CARTESIAN_POINT('',(25.,65.8865330644686,126.698533889591));
#1476=CARTESIAN_POINT('',(32.,87.5809061187697,93.6049352650574));
#1477=CARTESIAN_POINT('',(25.,87.5809061187697,93.6049352650574));
#1478=CARTESIAN_POINT('',(32.,65.8865330644686,126.698533889591));
#1479=CARTESIAN_POINT('Origin',(25.,117.943267858438,102.69991058641));
#1480=CARTESIAN_POINT('',(25.,130.484816721638,126.698533889591));
#1481=CARTESIAN_POINT('',(25.,135.886533064468,126.698533889591));
#1482=CARTESIAN_POINT('',(25.,138.847995878015,122.180981736889));
#1483=CARTESIAN_POINT('Origin',(25.,130.484816721638,116.698533889591));
#1484=CARTESIAN_POINT('',(25.,164.508748759002,83.0368841351204));
#1485=CARTESIAN_POINT('',(25.,167.260490005988,78.8392509461643));
#1486=CARTESIAN_POINT('',(25.,170.000002652407,79.0000011771917));
#1487=CARTESIAN_POINT('Origin',(25.,172.672555428919,88.3886341653841));
#1488=CARTESIAN_POINT('',(25.,167.260490005988,78.8392509461643));
#1489=CARTESIAN_POINT('',(25.,170.000002652407,79.0000011771917));
#1490=CARTESIAN_POINT('',(25.,97.2604900059877,78.8392509461643));
#1491=CARTESIAN_POINT('',(25.,167.260490005988,78.8392509461643));
#1492=CARTESIAN_POINT('',(25.,83.2288621501153,78.7012872832285));
#1493=CARTESIAN_POINT('',(25.,83.2288621501153,78.7012872832285));
#1494=CARTESIAN_POINT('Origin',(25.,79.0460730304502,88.0099603856278));
#1495=CARTESIAN_POINT('Origin',(25.,130.484816721638,116.698533889591));
#1496=CARTESIAN_POINT('',(32.,130.484816721638,126.698533889591));
#1497=CARTESIAN_POINT('',(32.,138.847995878015,122.180981736889));
#1498=CARTESIAN_POINT('Origin',(32.,130.484816721638,116.698533889591));
#1499=CARTESIAN_POINT('',(25.,138.847995878015,122.180981736889));
#1500=CARTESIAN_POINT('',(25.,130.484816721638,126.698533889591));
#1501=CARTESIAN_POINT('Origin',(25.,164.508748759002,83.0368841351204));
#1502=CARTESIAN_POINT('',(32.,164.508748759002,83.0368841351204));
#1503=CARTESIAN_POINT('',(32.,167.260490005988,78.8392509461643));
#1504=CARTESIAN_POINT('',(25.,164.508748759002,83.0368841351204));
#1505=CARTESIAN_POINT('Origin',(25.,135.886533064468,126.698533889591));
#1506=CARTESIAN_POINT('',(32.,135.886533064468,126.698533889591));
#1507=CARTESIAN_POINT('Origin',(25.,172.672555428919,88.3886341653841));
#1508=CARTESIAN_POINT('',(32.,170.000002652407,79.0000011771917));
#1509=CARTESIAN_POINT('Origin',(32.,172.672555428919,88.3886341653841));
#1510=CARTESIAN_POINT('',(25.,170.000002652407,79.0000011771917));
#1511=CARTESIAN_POINT('Origin',(25.,167.260490005988,78.8392509461643));
#1512=CARTESIAN_POINT('',(32.,167.260490005988,78.8392509461643));
#1513=CARTESIAN_POINT('',(32.,170.000002652407,79.0000011771917));
#1514=CARTESIAN_POINT('',(25.,167.260490005988,78.8392509461643));
#1515=CARTESIAN_POINT('Origin',(25.,97.2604900059877,78.8392509461643));
#1516=CARTESIAN_POINT('',(32.,97.2604900059877,78.8392509461643));
#1517=CARTESIAN_POINT('',(32.,167.260490005988,78.8392509461643));
#1518=CARTESIAN_POINT('',(25.,97.2604900059877,78.8392509461643));
#1519=CARTESIAN_POINT('Origin',(25.,83.2288621501153,78.7012872832285));
#1520=CARTESIAN_POINT('',(32.,83.2288621501153,78.7012872832285));
#1521=CARTESIAN_POINT('',(32.,83.2288621501153,78.7012872832285));
#1522=CARTESIAN_POINT('',(25.,83.2288621501153,78.7012872832285));
#1523=CARTESIAN_POINT('Origin',(25.,79.0460730304502,88.0099603856278));
#1524=CARTESIAN_POINT('Origin',(32.,79.0460730304502,88.0099603856278));
#1525=CARTESIAN_POINT('Origin',(32.,117.943267858438,102.69991058641));
#1526=CARTESIAN_POINT('Origin',(90.,112.450355075842,113.013976363919));
#1527=CARTESIAN_POINT('',(82.,115.178994618933,120.));
#1528=CARTESIAN_POINT('',(75.,115.178994618933,120.));
#1529=CARTESIAN_POINT('',(90.,115.178994618933,120.));
#1530=CARTESIAN_POINT('',(82.,109.721715532752,120.));
#1531=CARTESIAN_POINT('Origin',(82.,112.450355075842,113.013976363919));
#1532=CARTESIAN_POINT('',(75.,109.721715532752,120.));
#1533=CARTESIAN_POINT('',(90.,109.721715532752,120.));
#1534=CARTESIAN_POINT('Origin',(75.,112.450355075842,113.013976363919));
#1535=CARTESIAN_POINT('Origin',(82.,117.943267858438,102.69991058641));
#1536=CARTESIAN_POINT('',(82.,76.0359883474616,111.216086042294));
#1537=CARTESIAN_POINT('',(82.,84.3991675038389,126.698533889591));
#1538=CARTESIAN_POINT('Origin',(82.,84.3991675038389,116.698533889591));
#1539=CARTESIAN_POINT('',(82.,87.5809061187697,93.6049352650574));
#1540=CARTESIAN_POINT('',(82.,65.8865330644686,126.698533889591));
#1541=CARTESIAN_POINT('',(82.,83.2288621501153,78.7012872832285));
#1542=CARTESIAN_POINT('Origin',(82.,79.0460730304502,88.0099603856278));
#1543=CARTESIAN_POINT('',(82.,97.2604900059877,78.8392509461642));
#1544=CARTESIAN_POINT('',(82.,83.2288621501153,78.7012872832285));
#1545=CARTESIAN_POINT('',(82.,167.260490005988,78.8392509461642));
#1546=CARTESIAN_POINT('',(82.,167.260490005988,78.8392509461642));
#1547=CARTESIAN_POINT('',(82.,170.000002652407,79.0000011771917));
#1548=CARTESIAN_POINT('',(82.,170.000002652407,79.0000011771917));
#1549=CARTESIAN_POINT('',(82.,164.508748759002,83.0368841351204));
#1550=CARTESIAN_POINT('Origin',(82.,172.672555428919,88.388634165384));
#1551=CARTESIAN_POINT('',(82.,138.847995878015,122.180981736889));
#1552=CARTESIAN_POINT('',(82.,167.260490005988,78.8392509461642));
#1553=CARTESIAN_POINT('',(82.,130.484816721638,126.698533889591));
#1554=CARTESIAN_POINT('Origin',(82.,130.484816721638,116.698533889591));
#1555=CARTESIAN_POINT('',(82.,135.886533064468,126.698533889591));
#1556=CARTESIAN_POINT('',(82.,133.5,115.));
#1557=CARTESIAN_POINT('Origin',(82.,135.,115.));
#1558=CARTESIAN_POINT('',(82.,83.5,105.));
#1559=CARTESIAN_POINT('Origin',(82.,85.,105.));
#1560=CARTESIAN_POINT('',(82.,83.5,115.));
#1561=CARTESIAN_POINT('Origin',(82.,85.,115.));
#1562=CARTESIAN_POINT('',(82.,133.5,105.));
#1563=CARTESIAN_POINT('Origin',(82.,135.,105.));
#1564=CARTESIAN_POINT('',(82.,130.,120.));
#1565=CARTESIAN_POINT('',(82.,123.971633929219,120.));
#1566=CARTESIAN_POINT('',(82.,130.,100.));
#1567=CARTESIAN_POINT('',(82.,130.,101.349955293205));
#1568=CARTESIAN_POINT('',(82.,90.,100.));
#1569=CARTESIAN_POINT('',(82.,103.971633929219,100.));
#1570=CARTESIAN_POINT('',(82.,90.,120.));
#1571=CARTESIAN_POINT('',(82.,90.,111.349955293205));
#1572=CARTESIAN_POINT('',(82.,123.971633929219,120.));
#1573=CARTESIAN_POINT('Origin',(0.,130.,120.));
#1574=CARTESIAN_POINT('',(75.,130.,120.));
#1575=CARTESIAN_POINT('',(75.,123.971633929219,120.));
#1576=CARTESIAN_POINT('',(0.,130.,120.));
#1577=CARTESIAN_POINT('Origin',(0.,130.,120.));
#1578=CARTESIAN_POINT('',(75.,90.,120.));
#1579=CARTESIAN_POINT('',(0.,90.,120.));
#1580=CARTESIAN_POINT('',(75.,123.971633929219,120.));
#1581=CARTESIAN_POINT('Origin',(0.,135.,115.));
#1582=CARTESIAN_POINT('',(75.,133.5,115.));
#1583=CARTESIAN_POINT('Origin',(75.,135.,115.));
#1584=CARTESIAN_POINT('',(0.,133.5,115.));
#1585=CARTESIAN_POINT('Origin',(0.,85.,105.));
#1586=CARTESIAN_POINT('',(75.,83.5,105.));
#1587=CARTESIAN_POINT('Origin',(75.,85.,105.));
#1588=CARTESIAN_POINT('',(0.,83.5,105.));
#1589=CARTESIAN_POINT('Origin',(0.,85.,115.));
#1590=CARTESIAN_POINT('',(75.,83.5,115.));
#1591=CARTESIAN_POINT('Origin',(75.,85.,115.));
#1592=CARTESIAN_POINT('',(0.,83.5,115.));
#1593=CARTESIAN_POINT('Origin',(0.,135.,105.));
#1594=CARTESIAN_POINT('',(75.,133.5,105.));
#1595=CARTESIAN_POINT('Origin',(75.,135.,105.));
#1596=CARTESIAN_POINT('',(0.,133.5,105.));
#1597=CARTESIAN_POINT('Origin',(0.,90.,120.));
#1598=CARTESIAN_POINT('',(75.,90.,100.));
#1599=CARTESIAN_POINT('',(75.,90.,111.349955293205));
#1600=CARTESIAN_POINT('',(0.,90.,100.));
#1601=CARTESIAN_POINT('Origin',(0.,90.,100.));
#1602=CARTESIAN_POINT('',(75.,130.,100.));
#1603=CARTESIAN_POINT('',(75.,103.971633929219,100.));
#1604=CARTESIAN_POINT('',(0.,130.,100.));
#1605=CARTESIAN_POINT('Origin',(0.,130.,100.));
#1606=CARTESIAN_POINT('',(75.,130.,101.349955293205));
#1607=CARTESIAN_POINT('Origin',(75.,84.3991675038389,116.698533889591));
#1608=CARTESIAN_POINT('',(75.,84.3991675038389,126.698533889591));
#1609=CARTESIAN_POINT('',(75.,84.3991675038389,126.698533889591));
#1610=CARTESIAN_POINT('',(75.,76.0359883474616,111.216086042294));
#1611=CARTESIAN_POINT('Origin',(75.,84.3991675038389,116.698533889591));
#1612=CARTESIAN_POINT('',(75.,76.0359883474616,111.216086042294));
#1613=CARTESIAN_POINT('Origin',(75.,65.8865330644686,126.698533889591));
#1614=CARTESIAN_POINT('',(75.,87.5809061187697,93.6049352650574));
#1615=CARTESIAN_POINT('',(75.,65.8865330644686,126.698533889591));
#1616=CARTESIAN_POINT('',(75.,87.5809061187697,93.6049352650574));
#1617=CARTESIAN_POINT('Origin',(75.,117.943267858438,102.69991058641));
#1618=CARTESIAN_POINT('',(75.,130.484816721638,126.698533889591));
#1619=CARTESIAN_POINT('',(75.,135.886533064468,126.698533889591));
#1620=CARTESIAN_POINT('',(75.,138.847995878015,122.180981736889));
#1621=CARTESIAN_POINT('Origin',(75.,130.484816721638,116.698533889591));
#1622=CARTESIAN_POINT('',(75.,164.508748759002,83.0368841351204));
#1623=CARTESIAN_POINT('',(75.,167.260490005988,78.8392509461642));
#1624=CARTESIAN_POINT('',(75.,170.000002652407,79.0000011771917));
#1625=CARTESIAN_POINT('Origin',(75.,172.672555428919,88.388634165384));
#1626=CARTESIAN_POINT('',(75.,167.260490005988,78.8392509461642));
#1627=CARTESIAN_POINT('',(75.,170.000002652407,79.0000011771917));
#1628=CARTESIAN_POINT('',(75.,97.2604900059877,78.8392509461642));
#1629=CARTESIAN_POINT('',(75.,167.260490005988,78.8392509461642));
#1630=CARTESIAN_POINT('',(75.,83.2288621501153,78.7012872832285));
#1631=CARTESIAN_POINT('',(75.,83.2288621501153,78.7012872832285));
#1632=CARTESIAN_POINT('Origin',(75.,79.0460730304502,88.0099603856278));
#1633=CARTESIAN_POINT('Origin',(75.,130.484816721638,116.698533889591));
#1634=CARTESIAN_POINT('',(75.,138.847995878015,122.180981736889));
#1635=CARTESIAN_POINT('',(75.,130.484816721638,126.698533889591));
#1636=CARTESIAN_POINT('Origin',(75.,164.508748759002,83.0368841351204));
#1637=CARTESIAN_POINT('',(75.,164.508748759002,83.0368841351204));
#1638=CARTESIAN_POINT('Origin',(75.,135.886533064468,126.698533889591));
#1639=CARTESIAN_POINT('Origin',(75.,172.672555428919,88.388634165384));
#1640=CARTESIAN_POINT('',(75.,170.000002652407,79.0000011771917));
#1641=CARTESIAN_POINT('Origin',(75.,167.260490005988,78.8392509461642));
#1642=CARTESIAN_POINT('',(75.,167.260490005988,78.8392509461642));
#1643=CARTESIAN_POINT('Origin',(75.,97.2604900059877,78.8392509461642));
#1644=CARTESIAN_POINT('',(75.,97.2604900059877,78.8392509461642));
#1645=CARTESIAN_POINT('Origin',(75.,83.2288621501153,78.7012872832285));
#1646=CARTESIAN_POINT('',(75.,83.2288621501153,78.7012872832285));
#1647=CARTESIAN_POINT('Origin',(75.,79.0460730304502,88.0099603856278));
#1648=UNCERTAINTY_MEASURE_WITH_UNIT(LENGTH_MEASURE(0.01),#1652,
'DISTANCE_ACCURACY_VALUE',
'Maximum model space distance between geometric entities at asserted c
onnectivities');
#1649=UNCERTAINTY_MEASURE_WITH_UNIT(LENGTH_MEASURE(0.01),#1652,
'DISTANCE_ACCURACY_VALUE',
'Maximum model space distance between geometric entities at asserted c
onnectivities');
#1650=(
GEOMETRIC_REPRESENTATION_CONTEXT(3)
GLOBAL_UNCERTAINTY_ASSIGNED_CONTEXT((#1648))
GLOBAL_UNIT_ASSIGNED_CONTEXT((#1652,#1654,#1655))
REPRESENTATION_CONTEXT('','3D')
);
#1651=(
GEOMETRIC_REPRESENTATION_CONTEXT(3)
GLOBAL_UNCERTAINTY_ASSIGNED_CONTEXT((#1649))
GLOBAL_UNIT_ASSIGNED_CONTEXT((#1652,#1654,#1655))
REPRESENTATION_CONTEXT('','3D')
);
#1652=(
LENGTH_UNIT()
NAMED_UNIT(*)
SI_UNIT(.MILLI.,.METRE.)
);
#1653=(
LENGTH_UNIT()
NAMED_UNIT(*)
SI_UNIT($,.METRE.)
);
#1654=(
NAMED_UNIT(*)
PLANE_ANGLE_UNIT()
SI_UNIT($,.RADIAN.)
);
#1655=(
NAMED_UNIT(*)
SI_UNIT($,.STERADIAN.)
SOLID_ANGLE_UNIT()
);
#1656=SHAPE_DEFINITION_REPRESENTATION(#1657,#1658);
#1657=PRODUCT_DEFINITION_SHAPE('',$,#1660);
#1658=SHAPE_REPRESENTATION('',(#993),#1650);
#1659=PRODUCT_DEFINITION_CONTEXT('part definition',#1664,'design');
#1660=PRODUCT_DEFINITION('base_mount','base_mount',#1661,#1659);
#1661=PRODUCT_DEFINITION_FORMATION('',$,#1666);
#1662=PRODUCT_RELATED_PRODUCT_CATEGORY('base_mount','base_mount',(#1666));
#1663=APPLICATION_PROTOCOL_DEFINITION('international standard',
'automotive_design',2009,#1664);
#1664=APPLICATION_CONTEXT(
'Core Data for Automotive Mechanical Design Process');
#1665=PRODUCT_CONTEXT('part definition',#1664,'mechanical');
#1666=PRODUCT('base_mount','base_mount',$,(#1665));
#1667=PRESENTATION_STYLE_ASSIGNMENT((#1668));
#1668=SURFACE_STYLE_USAGE(.BOTH.,#1669);
#1669=SURFACE_SIDE_STYLE('',(#1670));
#1670=SURFACE_STYLE_FILL_AREA(#1671);
#1671=FILL_AREA_STYLE('Steel - Satin',(#1672));
#1672=FILL_AREA_STYLE_COLOUR('Steel - Satin',#1673);
#1673=COLOUR_RGB('Steel - Satin',0.627450980392157,0.627450980392157,0.627450980392157);
ENDSEC;
END-ISO-10303-21;
