ISO-10303-21;
HEADER;
/* Generated by software containing ST-Developer
 * from STEP Tools, Inc. (www.steptools.com) 
 */

FILE_DESCRIPTION(
/* description */ (''),
/* implementation_level */ '2;1');

FILE_NAME(
/* name */ 'rod_1.step',
/* time_stamp */ '2026-08-20T17:24:00+05:30',
/* author */ (''),
/* organization */ (''),
/* preprocessor_version */ 'ST-DEVELOPER v20.1',
/* originating_system */ 'Autodesk Translation Framework v15.8.0.0',
/* authorisation */ '');

FILE_SCHEMA (('AUTOMOTIVE_DESIGN { 1 0 10303 214 3 1 1 }'));
ENDSEC;

DATA;
#10=MECHANICAL_DESIGN_GEOMETRIC_PRESENTATION_REPRESENTATION('',(#13),#233);
#11=SHAPE_REPRESENTATION_RELATIONSHIP('SRR','None',#240,#12);
#12=ADVANCED_BREP_SHAPE_REPRESENTATION('',(#14),#232);
#13=STYLED_ITEM('',(#249),#14);
#14=MANIFOLD_SOLID_BREP('Body1',#125);
#15=FACE_BOUND('',#36,.T.);
#16=(
BOUNDED_CURVE()
B_SPLINE_CURVE(2,(#203,#204,#205),.UNSPECIFIED.,.F.,.F.)
B_SPLINE_CURVE_WITH_KNOTS((3,3),(3.42024146462297,3.73577131946161),
 .UNSPECIFIED.)
CURVE()
GEOMETRIC_REPRESENTATION_ITEM()
RATIONAL_B_SPLINE_CURVE((1.04982323067442,1.02720980347756,1.))
REPRESENTATION_ITEM('')
);
#17=(
BOUNDED_CURVE()
B_SPLINE_CURVE(2,(#209,#210,#211),.UNSPECIFIED.,.F.,.F.)
B_SPLINE_CURVE_WITH_KNOTS((3,3),(0.,0.315529854838619),.UNSPECIFIED.)
CURVE()
GEOMETRIC_REPRESENTATION_ITEM()
RATIONAL_B_SPLINE_CURVE((1.,1.02720980347756,1.04982323067442))
REPRESENTATION_ITEM('')
);
#18=CONICAL_SURFACE('',#143,8.,0.785398163397448);
#19=PLANE('',#142);
#20=PLANE('',#146);
#21=PLANE('',#147);
#22=PLANE('',#152);
#23=PLANE('',#153);
#24=FACE_OUTER_BOUND('',#32,.T.);
#25=FACE_OUTER_BOUND('',#33,.T.);
#26=FACE_OUTER_BOUND('',#34,.T.);
#27=FACE_OUTER_BOUND('',#35,.T.);
#28=FACE_OUTER_BOUND('',#37,.T.);
#29=FACE_OUTER_BOUND('',#38,.T.);
#30=FACE_OUTER_BOUND('',#39,.T.);
#31=FACE_OUTER_BOUND('',#40,.T.);
#32=EDGE_LOOP('',(#85,#86,#87,#88));
#33=EDGE_LOOP('',(#89));
#34=EDGE_LOOP('',(#90,#91,#92,#93));
#35=EDGE_LOOP('',(#94,#95));
#36=EDGE_LOOP('',(#96));
#37=EDGE_LOOP('',(#97,#98,#99,#100,#101,#102));
#38=EDGE_LOOP('',(#103,#104,#105,#106,#107,#108,#109,#110));
#39=EDGE_LOOP('',(#111,#112,#113));
#40=EDGE_LOOP('',(#114));
#41=LINE('',#197,#47);
#42=LINE('',#214,#48);
#43=LINE('',#217,#49);
#44=LINE('',#219,#50);
#45=LINE('',#220,#51);
#46=LINE('',#225,#52);
#47=VECTOR('',#160,2.);
#48=VECTOR('',#173,10.);
#49=VECTOR('',#176,10.);
#50=VECTOR('',#177,10.);
#51=VECTOR('',#178,10.);
#52=VECTOR('',#183,8.5);
#53=CIRCLE('',#140,2.);
#54=CIRCLE('',#141,2.);
#55=CIRCLE('',#144,7.5);
#56=CIRCLE('',#145,8.5);
#57=CIRCLE('',#149,8.5);
#58=CIRCLE('',#150,8.5);
#59=CIRCLE('',#151,8.5);
#60=VERTEX_POINT('',#194);
#61=VERTEX_POINT('',#196);
#62=VERTEX_POINT('',#201);
#63=VERTEX_POINT('',#202);
#64=VERTEX_POINT('',#206);
#65=VERTEX_POINT('',#208);
#66=VERTEX_POINT('',#216);
#67=VERTEX_POINT('',#218);
#68=VERTEX_POINT('',#222);
#69=VERTEX_POINT('',#224);
#70=EDGE_CURVE('',#60,#60,#53,.T.);
#71=EDGE_CURVE('',#60,#61,#41,.T.);
#72=EDGE_CURVE('',#61,#61,#54,.T.);
#73=EDGE_CURVE('',#62,#63,#16,.T.);
#74=EDGE_CURVE('',#63,#64,#55,.T.);
#75=EDGE_CURVE('',#64,#65,#17,.T.);
#76=EDGE_CURVE('',#65,#62,#56,.T.);
#77=EDGE_CURVE('',#63,#64,#42,.T.);
#78=EDGE_CURVE('',#66,#62,#43,.T.);
#79=EDGE_CURVE('',#67,#66,#44,.T.);
#80=EDGE_CURVE('',#67,#65,#45,.T.);
#81=EDGE_CURVE('',#68,#67,#57,.T.);
#82=EDGE_CURVE('',#68,#69,#46,.T.);
#83=EDGE_CURVE('',#69,#69,#58,.T.);
#84=EDGE_CURVE('',#66,#68,#59,.T.);
#85=ORIENTED_EDGE('',*,*,#70,.F.);
#86=ORIENTED_EDGE('',*,*,#71,.T.);
#87=ORIENTED_EDGE('',*,*,#72,.T.);
#88=ORIENTED_EDGE('',*,*,#71,.F.);
#89=ORIENTED_EDGE('',*,*,#72,.F.);
#90=ORIENTED_EDGE('',*,*,#73,.T.);
#91=ORIENTED_EDGE('',*,*,#74,.T.);
#92=ORIENTED_EDGE('',*,*,#75,.T.);
#93=ORIENTED_EDGE('',*,*,#76,.T.);
#94=ORIENTED_EDGE('',*,*,#74,.F.);
#95=ORIENTED_EDGE('',*,*,#77,.T.);
#96=ORIENTED_EDGE('',*,*,#70,.T.);
#97=ORIENTED_EDGE('',*,*,#75,.F.);
#98=ORIENTED_EDGE('',*,*,#77,.F.);
#99=ORIENTED_EDGE('',*,*,#73,.F.);
#100=ORIENTED_EDGE('',*,*,#78,.F.);
#101=ORIENTED_EDGE('',*,*,#79,.F.);
#102=ORIENTED_EDGE('',*,*,#80,.T.);
#103=ORIENTED_EDGE('',*,*,#76,.F.);
#104=ORIENTED_EDGE('',*,*,#80,.F.);
#105=ORIENTED_EDGE('',*,*,#81,.F.);
#106=ORIENTED_EDGE('',*,*,#82,.T.);
#107=ORIENTED_EDGE('',*,*,#83,.T.);
#108=ORIENTED_EDGE('',*,*,#82,.F.);
#109=ORIENTED_EDGE('',*,*,#84,.F.);
#110=ORIENTED_EDGE('',*,*,#78,.T.);
#111=ORIENTED_EDGE('',*,*,#79,.T.);
#112=ORIENTED_EDGE('',*,*,#84,.T.);
#113=ORIENTED_EDGE('',*,*,#81,.T.);
#114=ORIENTED_EDGE('',*,*,#83,.F.);
#115=CYLINDRICAL_SURFACE('',#139,2.);
#116=CYLINDRICAL_SURFACE('',#148,8.5);
#117=ADVANCED_FACE('',(#24),#115,.F.);
#118=ADVANCED_FACE('',(#25),#19,.T.);
#119=ADVANCED_FACE('',(#26),#18,.T.);
#120=ADVANCED_FACE('',(#27,#15),#20,.T.);
#121=ADVANCED_FACE('',(#28),#21,.T.);
#122=ADVANCED_FACE('',(#29),#116,.T.);
#123=ADVANCED_FACE('',(#30),#22,.T.);
#124=ADVANCED_FACE('',(#31),#23,.F.);
#125=CLOSED_SHELL('',(#117,#118,#119,#120,#121,#122,#123,#124));
#126=DERIVED_UNIT_ELEMENT(#128,1.);
#127=DERIVED_UNIT_ELEMENT(#235,-3.);
#128=(
MASS_UNIT()
NAMED_UNIT(*)
SI_UNIT(.KILO.,.GRAM.)
);
#129=DERIVED_UNIT((#126,#127));
#130=MEASURE_REPRESENTATION_ITEM('density measure',
POSITIVE_RATIO_MEASURE(7850.),#129);
#131=PROPERTY_DEFINITION_REPRESENTATION(#136,#133);
#132=PROPERTY_DEFINITION_REPRESENTATION(#137,#134);
#133=REPRESENTATION('material name',(#135),#232);
#134=REPRESENTATION('density',(#130),#232);
#135=DESCRIPTIVE_REPRESENTATION_ITEM('Steel','Steel');
#136=PROPERTY_DEFINITION('material property','material name',#242);
#137=PROPERTY_DEFINITION('material property','density of part',#242);
#138=AXIS2_PLACEMENT_3D('',#192,#154,#155);
#139=AXIS2_PLACEMENT_3D('',#193,#156,#157);
#140=AXIS2_PLACEMENT_3D('',#195,#158,#159);
#141=AXIS2_PLACEMENT_3D('',#198,#161,#162);
#142=AXIS2_PLACEMENT_3D('',#199,#163,#164);
#143=AXIS2_PLACEMENT_3D('',#200,#165,#166);
#144=AXIS2_PLACEMENT_3D('',#207,#167,#168);
#145=AXIS2_PLACEMENT_3D('',#212,#169,#170);
#146=AXIS2_PLACEMENT_3D('',#213,#171,#172);
#147=AXIS2_PLACEMENT_3D('',#215,#174,#175);
#148=AXIS2_PLACEMENT_3D('',#221,#179,#180);
#149=AXIS2_PLACEMENT_3D('',#223,#181,#182);
#150=AXIS2_PLACEMENT_3D('',#226,#184,#185);
#151=AXIS2_PLACEMENT_3D('',#227,#186,#187);
#152=AXIS2_PLACEMENT_3D('',#228,#188,#189);
#153=AXIS2_PLACEMENT_3D('',#229,#190,#191);
#154=DIRECTION('axis',(0.,0.,1.));
#155=DIRECTION('refdir',(1.,0.,0.));
#156=DIRECTION('center_axis',(0.,0.,-1.));
#157=DIRECTION('ref_axis',(-1.,0.,0.));
#158=DIRECTION('center_axis',(0.,0.,-1.));
#159=DIRECTION('ref_axis',(-1.,0.,0.));
#160=DIRECTION('',(0.,0.,-1.));
#161=DIRECTION('center_axis',(0.,0.,-1.));
#162=DIRECTION('ref_axis',(-1.,0.,0.));
#163=DIRECTION('center_axis',(0.,0.,1.));
#164=DIRECTION('ref_axis',(-1.,0.,0.));
#165=DIRECTION('center_axis',(0.,0.,-1.));
#166=DIRECTION('ref_axis',(1.,0.,0.));
#167=DIRECTION('center_axis',(0.,0.,-1.));
#168=DIRECTION('ref_axis',(1.,0.,0.));
#169=DIRECTION('center_axis',(0.,0.,1.));
#170=DIRECTION('ref_axis',(1.,0.,0.));
#171=DIRECTION('center_axis',(0.,0.,1.));
#172=DIRECTION('ref_axis',(-1.,0.,0.));
#173=DIRECTION('',(0.,-1.,0.));
#174=DIRECTION('center_axis',(-1.,0.,0.));
#175=DIRECTION('ref_axis',(0.,-1.,0.));
#176=DIRECTION('',(0.,0.,1.));
#177=DIRECTION('',(0.,1.,0.));
#178=DIRECTION('',(0.,0.,1.));
#179=DIRECTION('center_axis',(0.,0.,1.));
#180=DIRECTION('ref_axis',(1.,0.,0.));
#181=DIRECTION('center_axis',(0.,0.,1.));
#182=DIRECTION('ref_axis',(1.,0.,0.));
#183=DIRECTION('',(0.,0.,-1.));
#184=DIRECTION('center_axis',(0.,0.,1.));
#185=DIRECTION('ref_axis',(1.,0.,0.));
#186=DIRECTION('center_axis',(0.,0.,1.));
#187=DIRECTION('ref_axis',(1.,0.,0.));
#188=DIRECTION('center_axis',(0.,0.,1.));
#189=DIRECTION('ref_axis',(1.,0.,0.));
#190=DIRECTION('center_axis',(0.,0.,1.));
#191=DIRECTION('ref_axis',(1.,0.,0.));
#192=CARTESIAN_POINT('',(0.,0.,0.));
#193=CARTESIAN_POINT('Origin',(55.1896961890459,126.429961120282,73.));
#194=CARTESIAN_POINT('',(57.1896961890459,126.429961120282,73.));
#195=CARTESIAN_POINT('Origin',(55.1896961890459,126.429961120282,73.));
#196=CARTESIAN_POINT('',(57.1896961890459,126.429961120282,47.));
#197=CARTESIAN_POINT('',(57.1896961890459,126.429961120282,73.));
#198=CARTESIAN_POINT('Origin',(55.1896961890459,126.429961120282,47.));
#199=CARTESIAN_POINT('Origin',(55.1896961890459,126.429961120282,47.));
#200=CARTESIAN_POINT('Origin',(55.71344992704,126.426623946907,72.5));
#201=CARTESIAN_POINT('',(51.9059124588121,134.026140933403,72.));
#202=CARTESIAN_POINT('',(51.9059124588121,132.88825365063,73.));
#203=CARTESIAN_POINT('Ctrl Pts',(51.9059124588121,134.026140933403,72.));
#204=CARTESIAN_POINT('Ctrl Pts',(51.9059124588121,133.42163831443,72.5404621083837));
#205=CARTESIAN_POINT('Ctrl Pts',(51.9059124588121,132.88825365063,73.));
#206=CARTESIAN_POINT('',(51.9059124588121,119.964994243183,73.));
#207=CARTESIAN_POINT('Origin',(55.71344992704,126.426623946907,73.));
#208=CARTESIAN_POINT('',(51.9059124588121,118.827106960411,72.));
#209=CARTESIAN_POINT('Ctrl Pts',(51.9059124588121,119.964994243183,73.));
#210=CARTESIAN_POINT('Ctrl Pts',(51.9059124588121,119.431609579383,72.5404621083837));
#211=CARTESIAN_POINT('Ctrl Pts',(51.9059124588121,118.827106960411,72.));
#212=CARTESIAN_POINT('Origin',(55.71344992704,126.426623946907,72.));
#213=CARTESIAN_POINT('Origin',(55.71344992704,126.426623946907,73.));
#214=CARTESIAN_POINT('',(51.9059124588121,134.026140933403,73.));
#215=CARTESIAN_POINT('Origin',(51.9059124588121,134.026140933403,47.));
#216=CARTESIAN_POINT('',(51.9059124588121,134.026140933403,47.));
#217=CARTESIAN_POINT('',(51.9059124588121,134.026140933403,47.));
#218=CARTESIAN_POINT('',(51.9059124588121,118.827106960411,47.));
#219=CARTESIAN_POINT('',(51.9059124588121,130.226382440155,47.));
#220=CARTESIAN_POINT('',(51.9059124588121,118.827106960411,47.));
#221=CARTESIAN_POINT('Origin',(55.71344992704,126.426623946907,0.));
#222=CARTESIAN_POINT('',(47.21344992704,126.426623946907,47.));
#223=CARTESIAN_POINT('Origin',(55.71344992704,126.426623946907,47.));
#224=CARTESIAN_POINT('',(47.21344992704,126.426623946907,0.));
#225=CARTESIAN_POINT('',(47.21344992704,126.426623946907,0.));
#226=CARTESIAN_POINT('Origin',(55.71344992704,126.426623946907,0.));
#227=CARTESIAN_POINT('Origin',(55.71344992704,126.426623946907,47.));
#228=CARTESIAN_POINT('Origin',(55.71344992704,126.426623946907,47.));
#229=CARTESIAN_POINT('Origin',(55.71344992704,126.426623946907,0.));
#230=UNCERTAINTY_MEASURE_WITH_UNIT(LENGTH_MEASURE(0.01),#234,
'DISTANCE_ACCURACY_VALUE',
'Maximum model space distance between geometric entities at asserted c
onnectivities');
#231=UNCERTAINTY_MEASURE_WITH_UNIT(LENGTH_MEASURE(0.01),#234,
'DISTANCE_ACCURACY_VALUE',
'Maximum model space distance between geometric entities at asserted c
onnectivities');
#232=(
GEOMETRIC_REPRESENTATION_CONTEXT(3)
GLOBAL_UNCERTAINTY_ASSIGNED_CONTEXT((#230))
GLOBAL_UNIT_ASSIGNED_CONTEXT((#234,#236,#237))
REPRESENTATION_CONTEXT('','3D')
);
#233=(
GEOMETRIC_REPRESENTATION_CONTEXT(3)
GLOBAL_UNCERTAINTY_ASSIGNED_CONTEXT((#231))
GLOBAL_UNIT_ASSIGNED_CONTEXT((#234,#236,#237))
REPRESENTATION_CONTEXT('','3D')
);
#234=(
LENGTH_UNIT()
NAMED_UNIT(*)
SI_UNIT(.MILLI.,.METRE.)
);
#235=(
LENGTH_UNIT()
NAMED_UNIT(*)
SI_UNIT($,.METRE.)
);
#236=(
NAMED_UNIT(*)
PLANE_ANGLE_UNIT()
SI_UNIT($,.RADIAN.)
);
#237=(
NAMED_UNIT(*)
SI_UNIT($,.STERADIAN.)
SOLID_ANGLE_UNIT()
);
#238=SHAPE_DEFINITION_REPRESENTATION(#239,#240);
#239=PRODUCT_DEFINITION_SHAPE('',$,#242);
#240=SHAPE_REPRESENTATION('',(#138),#232);
#241=PRODUCT_DEFINITION_CONTEXT('part definition',#246,'design');
#242=PRODUCT_DEFINITION('rod_1','rod_1',#243,#241);
#243=PRODUCT_DEFINITION_FORMATION('',$,#248);
#244=PRODUCT_RELATED_PRODUCT_CATEGORY('rod_1','rod_1',(#248));
#245=APPLICATION_PROTOCOL_DEFINITION('international standard',
'automotive_design',2009,#246);
#246=APPLICATION_CONTEXT(
'Core Data for Automotive Mechanical Design Process');
#247=PRODUCT_CONTEXT('part definition',#246,'mechanical');
#248=PRODUCT('rod_1','rod_1',$,(#247));
#249=PRESENTATION_STYLE_ASSIGNMENT((#250));
#250=SURFACE_STYLE_USAGE(.BOTH.,#251);
#251=SURFACE_SIDE_STYLE('',(#252));
#252=SURFACE_STYLE_FILL_AREA(#253);
#253=FILL_AREA_STYLE('Steel - Satin',(#254));
#254=FILL_AREA_STYLE_COLOUR('Steel - Satin',#255);
#255=COLOUR_RGB('Steel - Satin',0.627450980392157,0.627450980392157,0.627450980392157);
ENDSEC;
END-ISO-10303-21;
